<svg width="16" height="16" viewBox="0 0 16 16" fill="none" xmlns="http://www.w3.org/2000/svg">
    <g clip-path="url(#clip0_10416_53301)">
        <path fill-rule="evenodd" clip-rule="evenodd" d="M6.03628 0.845487C6.65017 0.62236 7.31204 0.501007 8.00059 0.501007C11.1762 0.501007 13.7506 3.07537 13.7506 6.25101V8.25101C13.7506 8.66522 13.4148 9.00101 13.0006 9.00101C12.5864 9.00101 12.2506 8.66522 12.2506 8.25101V6.25101C12.2506 3.9038 10.3478 2.00101 8.00059 2.00101C7.48931 2.00101 7.00071 2.09096 6.54868 2.25526C6.15938 2.39675 5.72909 2.19587 5.58759 1.80657C5.4461 1.41727 5.64698 0.986982 6.03628 0.845487ZM2.94626 3.50744L1.72016 2.28134C1.42727 1.98844 1.42727 1.51357 1.72016 1.22068C2.01305 0.927784 2.48793 0.927784 2.78082 1.22068L14.7808 13.2207C15.0737 13.5136 15.0737 13.9884 14.7808 14.2813C14.4879 14.5742 14.0131 14.5742 13.7202 14.2813L12.4395 13.0006C12.4316 13.0009 12.4237 13.001 12.4158 13.001H11.2411C11.1135 14.6791 9.71139 16.001 8.00059 16.001C6.28978 16.001 4.88771 14.6791 4.76006 13.001H3.58536C1.85775 13.001 0.774679 11.1347 1.63181 9.6347L2.25059 8.55183V6.25101C2.25059 5.25868 2.50256 4.32336 2.94626 3.50744ZM10.9398 11.501H3.58536C3.00949 11.501 2.64846 10.8789 2.93417 10.3789L3.65177 9.12311C3.71652 9.00979 3.75059 8.88153 3.75059 8.75101V6.25101C3.75059 5.67663 3.86417 5.12989 4.06997 4.63115L10.9398 11.501ZM8.00059 14.501C7.11897 14.501 6.38962 13.8491 6.26831 13.001H9.73286C9.61156 13.8491 8.8822 14.501 8.00059 14.501Z" fill="#45AEF5"/>
    </g>
    <defs>
        <clipPath id="clip0_10416_53301">
            <rect width="16" height="16" fill="white" transform="translate(0 0.00100708)"/>
        </clipPath>
    </defs>
</svg>
