<svg width="16" height="17" viewBox="0 0 16 17" fill="none" xmlns="http://www.w3.org/2000/svg">
    <g clip-path="url(#clip0_3631_3672)">
    <path fill-rule="evenodd" clip-rule="evenodd" d="M8.49904 0.252045L6.7679 0.252045C5.95506 0.252038 5.29944 0.252032 4.76853 0.295409C4.2219 0.340071 3.74176 0.43443 3.29754 0.660771C2.59193 1.0203 2.01825 1.59397 1.65873 2.29958C1.43239 2.7438 1.33803 3.22394 1.29336 3.77058C1.24999 4.30148 1.24999 4.95709 1.25 5.76992V10.2342C1.24999 11.047 1.24999 11.7026 1.29336 12.2335C1.33803 12.7802 1.43239 13.2603 1.65873 13.7045C2.01825 14.4101 2.59193 14.9838 3.29754 15.3433C3.74176 15.5697 4.2219 15.664 4.76853 15.7087C5.29944 15.7521 5.95505 15.7521 6.76788 15.752H9.23212C10.045 15.7521 10.7006 15.7521 11.2315 15.7087C11.7781 15.664 12.2582 15.5697 12.7025 15.3433C13.4081 14.9838 13.9818 14.4101 14.3413 13.7045C14.5676 13.2603 14.662 12.7802 14.7066 12.2335C14.75 11.7026 14.75 11.047 14.75 10.2342L14.75 6.27447C14.7504 6.02478 14.7507 5.78582 14.6947 5.55292C14.6457 5.34885 14.5649 5.15376 14.4553 4.97481C14.3301 4.7706 14.161 4.60183 13.9842 4.4255L10.5766 1.01787C10.4002 0.841097 10.2315 0.671912 10.0272 0.546765C9.84829 0.437108 9.6532 0.356299 9.44912 0.307305C9.21623 0.251392 8.97726 0.251689 8.72758 0.251999L8.50096 0.252045C8.50064 0.252045 8.50128 0.252045 8.50096 0.252045C8.50064 0.252045 8.49936 0.252045 8.49904 0.252045ZM7.75 1.75205V4.08307C7.74999 4.48674 7.74998 4.83409 7.77334 5.12002C7.79797 5.42153 7.85228 5.72015 7.99851 6.00714C8.2171 6.43615 8.56589 6.78495 8.9949 7.00354C9.2819 7.14977 9.58051 7.20407 9.88203 7.22871C10.168 7.25207 10.5153 7.25206 10.919 7.25205L13.25 7.25204V10.652C13.25 11.9122 13.25 12.5422 13.0048 13.0235C12.7891 13.4469 12.4448 13.7911 12.0215 14.0068C11.5402 14.252 10.9101 14.252 9.65 14.252H6.35C5.08988 14.252 4.45982 14.252 3.97852 14.0068C3.55516 13.7911 3.21095 13.4469 2.99524 13.0235C2.75 12.5422 2.75 11.9122 2.75 10.652V5.35205C2.75 4.09193 2.75 3.46187 2.99524 2.98057C3.21095 2.5572 3.55516 2.213 3.97852 1.99728C4.45982 1.75205 5.08988 1.75205 6.35 1.75205H7.75ZM13.1722 5.75204C13.1513 5.71995 13.1096 5.67234 12.8839 5.44659L9.55546 2.11816C9.32971 1.89241 9.28209 1.85076 9.25 1.82984V4.55204C9.25 4.97208 9.25 5.1821 9.33175 5.34254C9.40365 5.48366 9.51839 5.59839 9.65951 5.6703C9.81994 5.75204 10.03 5.75204 10.45 5.75204H13.1722Z" fill="white"/>
    </g>
    <defs>
    <clipPath id="clip0_3631_3672">
    <rect width="16" height="16" fill="white" transform="translate(0 0.00201416)"/>
    </clipPath>
    </defs>
</svg>
