<svg width="16" height="16" viewBox="0 0 16 16" fill="none" xmlns="http://www.w3.org/2000/svg">
    <path fill-rule="evenodd" clip-rule="evenodd" d="M13.5303 2.46966C11.7187 0.657983 8.78135 0.657981 6.96967 2.46966L6.33881 3.10052C6.04592 3.39341 6.04592 3.86828 6.33881 4.16118C6.6317 4.45407 7.10658 4.45407 7.39947 4.16118L8.03033 3.53032C9.25622 2.30443 11.2438 2.30443 12.4697 3.53032C13.6956 4.75621 13.6956 6.74377 12.4697 7.96966L11.8369 8.60247C11.544 8.89536 11.544 9.37024 11.8369 9.66313C12.1298 9.95602 12.6046 9.95602 12.8975 9.66313L13.5303 9.03032C15.342 7.21864 15.342 4.28133 13.5303 2.46966ZM4.75 6.81065L3.53033 8.03032C2.30444 9.25621 2.30444 11.2438 3.53033 12.4697C4.75622 13.6955 6.74378 13.6955 7.96967 12.4697L9.18934 11.25L4.75 6.81065ZM10.25 12.3106L9.03033 13.5303C7.21865 15.342 4.28135 15.342 2.46967 13.5303C0.657994 11.7186 0.657993 8.78133 2.46967 6.96966L3.68934 5.74999L1.21967 3.28032C0.926777 2.98743 0.926777 2.51255 1.21967 2.21966C1.51256 1.92677 1.98744 1.92677 2.28033 2.21966L13.7803 13.7197C14.0732 14.0126 14.0732 14.4874 13.7803 14.7803C13.4874 15.0732 13.0126 15.0732 12.7197 14.7803L10.25 12.3106Z" fill="white"/>
</svg>
