<svg width="16" height="17" viewBox="0 0 16 17" fill="none" xmlns="http://www.w3.org/2000/svg">
<g clip-path="url(#clip0_12209_52546)">
<path fill-rule="evenodd" clip-rule="evenodd" d="M10 4.00293V6.00293H6V4.00293C6 2.89836 6.89543 2.00293 8 2.00293C9.10457 2.00293 10 2.89836 10 4.00293ZM4.5 6.01723V6.00293V4.00293C4.5 2.06993 6.067 0.50293 8 0.50293C9.933 0.50293 11.5 2.06993 11.5 4.00293V6.00293V6.01723C12.1748 6.04236 12.6236 6.11164 12.9985 6.30266C13.5159 6.56631 13.9366 6.98701 14.2003 7.50446C14.5 8.09271 14.5 8.86279 14.5 10.4029V11.1029C14.5 12.6431 14.5 13.4131 14.2003 14.0014C13.9366 14.5188 13.5159 14.9395 12.9985 15.2032C12.4102 15.5029 11.6401 15.5029 10.1 15.5029H5.9C4.35986 15.5029 3.58978 15.5029 3.00153 15.2032C2.48408 14.9395 2.06338 14.5188 1.79973 14.0014C1.5 13.4131 1.5 12.6431 1.5 11.1029V10.4029C1.5 8.86279 1.5 8.09271 1.79973 7.50446C2.06338 6.98701 2.48408 6.56631 3.00153 6.30266C3.37642 6.11164 3.82516 6.04236 4.5 6.01723ZM7.25 9.25293C7.25 8.83872 7.58579 8.50293 8 8.50293C8.41421 8.50293 8.75 8.83872 8.75 9.25293V10.7529C8.75 11.1671 8.41421 11.5029 8 11.5029C7.58579 11.5029 7.25 11.1671 7.25 10.7529V9.25293Z" fill="#39CC83"/>
</g>
<defs>
<clipPath id="clip0_12209_52546">
<rect width="16" height="16" fill="white" transform="translate(0 0.00292969)"/>
</clipPath>
</defs>
</svg>
