<svg width="16" height="17" viewBox="0 0 16 17" fill="none" xmlns="http://www.w3.org/2000/svg">
    <path fill-rule="evenodd" clip-rule="evenodd" d="M11.5353 12.598C10.4268 13.4771 9.02469 14.002 7.5 14.002C3.91015 14.002 1 11.0919 1 7.50201C1 3.91216 3.91015 1.00201 7.5 1.00201C11.0899 1.00201 14 3.91216 14 7.50201C14 9.0267 13.475 10.4288 12.596 11.5374L14.7803 13.7217C15.0732 14.0146 15.0732 14.4895 14.7803 14.7823C14.4874 15.0752 14.0126 15.0752 13.7197 14.7823L11.5353 12.598ZM12.5 7.50201C12.5 10.2634 10.2614 12.502 7.5 12.502C4.73858 12.502 2.5 10.2634 2.5 7.50201C2.5 4.74059 4.73858 2.50201 7.5 2.50201C10.2614 2.50201 12.5 4.74059 12.5 7.50201Z" fill="white"/>
</svg>
