<svg width="16" height="16" viewBox="0 0 16 16" fill="none" xmlns="http://www.w3.org/2000/svg">
<path fill-rule="evenodd" clip-rule="evenodd" d="M7.46967 0.46967C7.76256 0.176777 8.23744 0.176777 8.53033 0.46967L12.5303 4.46967C12.8232 4.76256 12.8232 5.23744 12.5303 5.53033C12.2374 5.82322 11.7626 5.82322 11.4697 5.53033L8.75 2.81066V10C8.75 10.4142 8.41421 10.75 8 10.75C7.58579 10.75 7.25 10.4142 7.25 10V2.81066L4.53033 5.53033C4.23744 5.82322 3.76256 5.82322 3.46967 5.53033C3.17678 5.23744 3.17678 4.76256 3.46967 4.46967L7.46967 0.46967ZM1.5 8.25C1.91421 8.25 2.25 8.58579 2.25 9V11.3C2.25 11.8724 2.25058 12.2566 2.27476 12.5525C2.29822 12.8396 2.3401 12.9769 2.38624 13.0675C2.50608 13.3027 2.69731 13.4939 2.93251 13.6138C3.02307 13.6599 3.16036 13.7018 3.44748 13.7252C3.74336 13.7494 4.12757 13.75 4.7 13.75H11.3C11.8724 13.75 12.2566 13.7494 12.5525 13.7252C12.8396 13.7018 12.9769 13.6599 13.0675 13.6138C13.3027 13.4939 13.4939 13.3027 13.6138 13.0675C13.6599 12.9769 13.7018 12.8396 13.7252 12.5525C13.7494 12.2566 13.75 11.8724 13.75 11.3V9C13.75 8.58579 14.0858 8.25 14.5 8.25C14.9142 8.25 15.25 8.58579 15.25 9V11.3305C15.25 11.8646 15.25 12.3104 15.2203 12.6747C15.1892 13.0546 15.1221 13.4112 14.9503 13.7485C14.6866 14.2659 14.2659 14.6866 13.7485 14.9503C13.4112 15.1221 13.0546 15.1892 12.6747 15.2203C12.3104 15.25 11.8646 15.25 11.3305 15.25H4.66955C4.1354 15.25 3.68956 15.25 3.32533 15.2203C2.94545 15.1892 2.58879 15.1221 2.25153 14.9503C1.73408 14.6866 1.31338 14.2659 1.04973 13.7485C0.877889 13.4112 0.810778 13.0546 0.77974 12.6747C0.749981 12.3104 0.74999 11.8646 0.75 11.3304L0.750001 9C0.750001 8.58579 1.08579 8.25 1.5 8.25Z" fill="white"/>
</svg>
