<svg width="16" height="16" viewBox="0 0 16 16" fill="none" xmlns="http://www.w3.org/2000/svg">
    <path fill-rule="evenodd" clip-rule="evenodd" d="M5.01027 3C5.13731 1.46012 6.42733 0.25 8 0.25C9.57267 0.25 10.8627 1.46012 10.9897 3H15C15.4142 3 15.75 3.33579 15.75 3.75C15.75 4.16421 15.4142 4.5 15 4.5H14V10.2814C14 10.9548 14 11.5055 13.9634 11.9531C13.9256 12.4163 13.8449 12.8347 13.6458 13.2255C13.3342 13.837 12.837 14.3342 12.2255 14.6458C11.8347 14.8449 11.4163 14.9256 10.9531 14.9634C10.5055 15 9.95483 15 9.28147 15H6.71856C6.04521 15 5.49448 15 5.04693 14.9634C4.58367 14.9256 4.16527 14.8449 3.77453 14.6458C3.163 14.3342 2.66582 13.837 2.35423 13.2255C2.15514 12.8347 2.0744 12.4163 2.03655 11.9531C1.99998 11.5055 1.99999 10.9548 2 10.2814L2 4.5H1C0.585786 4.5 0.25 4.16421 0.25 3.75C0.25 3.33579 0.585786 3 1 3H5.01027ZM6.52074 3C6.63976 2.29057 7.25675 1.75 8 1.75C8.74325 1.75 9.36024 2.29057 9.47926 3H6.52074ZM3.5 10.25V4.5H12.5V10.25C12.5 10.9624 12.4994 11.4517 12.4684 11.8309C12.4382 12.2014 12.3827 12.4004 12.3093 12.5445C12.1415 12.8738 11.8738 13.1415 11.5445 13.3093C11.4004 13.3827 11.2014 13.4382 10.8309 13.4684C10.4517 13.4994 9.96244 13.5 9.25 13.5H6.75C6.03756 13.5 5.54833 13.4994 5.16908 13.4684C4.79858 13.4382 4.59956 13.3827 4.45552 13.3093C4.12623 13.1415 3.85852 12.8738 3.69074 12.5445C3.61735 12.4004 3.56184 12.2014 3.53157 11.8309C3.50058 11.4517 3.5 10.9624 3.5 10.25Z" fill="white"/>
</svg>
