<svg width="16" height="17" viewBox="0 0 16 17" fill="none" xmlns="http://www.w3.org/2000/svg">
    <path d="M5.032 14.802C3.17822 14.802 1.45289 14.2672 0 13.3501C0.256889 13.3803 0.518222 13.3954 0.783111 13.3954C2.32089 13.3954 3.73644 12.8788 4.86 12.0121C3.42355 11.986 2.21111 11.0516 1.79333 9.76796C1.99378 9.8059 2.19956 9.82601 2.41111 9.82601C2.71022 9.82601 3.00044 9.7867 3.276 9.71264C1.77422 9.41596 0.642667 8.1099 0.642667 6.54419C0.642667 6.53047 0.642667 6.51676 0.643111 6.5035C1.08578 6.74533 1.59156 6.8907 2.12978 6.90761C1.24889 6.32841 0.669333 5.33916 0.669333 4.21824C0.669333 3.62579 0.831111 3.07081 1.11378 2.59356C2.73289 4.5483 5.15156 5.83516 7.88 5.96956C7.824 5.73321 7.79467 5.48636 7.79467 5.2331C7.79467 3.44887 9.26444 2.00201 11.0773 2.00201C12.0218 2.00201 12.8747 2.3947 13.4733 3.02236C14.2213 2.87744 14.924 2.60864 15.5582 2.23836C15.3129 2.99264 14.7924 3.62624 14.1147 4.02624C14.7787 3.94807 15.4116 3.77436 16 3.51744C15.56 4.16521 15.0036 4.73436 14.3622 5.19013C14.3684 5.32864 14.3716 5.46807 14.3716 5.60796C14.3716 9.87813 11.0698 14.802 5.032 14.802Z" fill="white"/>
</svg>
