<svg width="16" height="16" viewBox="0 0 16 16" fill="none" xmlns="http://www.w3.org/2000/svg">
    <path d="M6.49058 1.36947C6.96223 0.941548 7.19805 0.727589 7.45731 0.626976C7.80642 0.491492 8.19358 0.491492 8.54269 0.626976C8.80195 0.727589 9.03777 0.941548 9.50942 1.36947C9.73161 1.57105 9.8427 1.67184 9.96691 1.74695C10.1341 1.84808 10.3195 1.91556 10.5126 1.94558C10.6561 1.96788 10.806 1.96208 11.1057 1.95048C11.7421 1.92584 12.0603 1.91353 12.3236 2.0031C12.6781 2.12372 12.9747 2.37258 13.155 2.70077C13.2889 2.94449 13.3321 3.25998 13.4183 3.89096C13.4589 4.18819 13.4793 4.33681 13.5261 4.47419C13.5892 4.65916 13.6879 4.83001 13.8165 4.97714C13.912 5.08642 14.0306 5.17832 14.2677 5.36213C14.771 5.75231 15.0227 5.9474 15.1668 6.18524C15.3608 6.50552 15.4281 6.8868 15.3552 7.25413C15.3012 7.52692 15.1314 7.79632 14.7919 8.33511C14.632 8.58892 14.552 8.71583 14.4996 8.8512C14.429 9.03345 14.3948 9.22774 14.3988 9.42313C14.4017 9.56826 14.4334 9.71486 14.4969 10.0081C14.6317 10.6305 14.6991 10.9417 14.6566 11.2165C14.5993 11.5866 14.4058 11.9219 14.1139 12.1565C13.8971 12.3307 13.5939 12.428 12.9875 12.6225C12.7018 12.7141 12.559 12.7599 12.4318 12.8299C12.2606 12.9242 12.1095 13.051 11.987 13.2032C11.8959 13.3163 11.826 13.449 11.6862 13.7144C11.3893 14.2778 11.2409 14.5595 11.0317 14.7428C10.75 14.9895 10.3862 15.1219 10.0118 15.114C9.73373 15.1081 9.43895 14.9877 8.84938 14.7469C8.57165 14.6335 8.43279 14.5768 8.29038 14.5487C8.09864 14.5108 7.90136 14.5108 7.70962 14.5487C7.56721 14.5768 7.42835 14.6335 7.15062 14.7469C6.56105 14.9877 6.26627 15.1081 5.98824 15.114C5.61385 15.1219 5.25003 14.9895 4.96831 14.7428C4.75911 14.5595 4.61068 14.2778 4.31383 13.7144C4.17399 13.449 4.10407 13.3163 4.01304 13.2032C3.89048 13.051 3.73935 12.9242 3.56816 12.8299C3.441 12.7599 3.29817 12.7141 3.0125 12.6225C2.40609 12.428 2.10288 12.3307 1.88612 12.1565C1.59423 11.9219 1.40065 11.5866 1.34343 11.2165C1.30093 10.9417 1.36832 10.6305 1.50308 10.0081C1.56656 9.71486 1.5983 9.56826 1.60125 9.42313C1.60521 9.22774 1.57095 9.03345 1.5004 8.8512C1.448 8.71583 1.36803 8.58892 1.20809 8.33511C0.868575 7.79632 0.698817 7.52692 0.644752 7.25413C0.571948 6.8868 0.639178 6.50552 0.833226 6.18524C0.97733 5.9474 1.22899 5.75231 1.73231 5.36213C1.96941 5.17832 2.08796 5.08642 2.1835 4.97714C2.31213 4.83001 2.41077 4.65916 2.47388 4.47419C2.52075 4.33681 2.54106 4.18819 2.58169 3.89096C2.66793 3.25998 2.71106 2.94449 2.84499 2.70077C3.02533 2.37258 3.32192 2.12372 3.67644 2.0031C3.93971 1.91353 4.25789 1.92584 4.89426 1.95048C5.19404 1.96208 5.34393 1.96788 5.48736 1.94558C5.68047 1.91556 5.86586 1.84808 6.03309 1.74695C6.1573 1.67184 6.26839 1.57105 6.49058 1.36947Z" fill="white"/>
    <path d="M5.25 8.25L7 10L10.5 6.5" stroke="#1D2633" stroke-width="1.5" stroke-linecap="round" stroke-linejoin="round"/>
</svg>
