<svg width="16" height="16" viewBox="0 0 16 16" fill="none" xmlns="http://www.w3.org/2000/svg">
<path fill-rule="evenodd" clip-rule="evenodd" d="M8 16C12.4183 16 16 12.4183 16 8C16 3.58172 12.4183 0 8 0C3.58172 0 0 3.58172 0 8C0 12.4183 3.58172 16 8 16ZM5.78033 4.71967C5.48744 4.42678 5.01256 4.42678 4.71967 4.71967C4.42678 5.01256 4.42678 5.48744 4.71967 5.78033L6.93934 8L4.71967 10.2197C4.42678 10.5126 4.42678 10.9874 4.71967 11.2803C5.01256 11.5732 5.48744 11.5732 5.78033 11.2803L8 9.06066L10.2197 11.2803C10.5126 11.5732 10.9874 11.5732 11.2803 11.2803C11.5732 10.9874 11.5732 10.5126 11.2803 10.2197L9.06066 8L11.2803 5.78033C11.5732 5.48744 11.5732 5.01256 11.2803 4.71967C10.9874 4.42678 10.5126 4.42678 10.2197 4.71967L8 6.93934L5.78033 4.71967Z" fill="#8994A3"/>
</svg>
