<svg width="32" height="32" viewBox="0 0 32 32" fill="none" xmlns="http://www.w3.org/2000/svg">
<path fill-rule="evenodd" clip-rule="evenodd" d="M16 30C23.732 30 30 23.732 30 16C30 8.26801 23.732 2 16 2C8.26801 2 2 8.26801 2 16C2 23.732 8.26801 30 16 30ZM22.0607 14.0607C22.6464 13.4749 22.6464 12.5251 22.0607 11.9393C21.4749 11.3536 20.5251 11.3536 19.9393 11.9393L14 17.8787L11.8107 15.6893C11.2249 15.1036 10.2751 15.1036 9.68934 15.6893C9.10355 16.2751 9.10355 17.2249 9.68934 17.8107L12.9393 21.0607C13.5251 21.6464 14.4749 21.6464 15.0607 21.0607L22.0607 14.0607Z" fill="white"/>
<path opacity="0.32" fill-rule="evenodd" clip-rule="evenodd" d="M22.0607 11.9393C22.6464 12.5251 22.6464 13.4749 22.0607 14.0607L15.0607 21.0607C14.4749 21.6464 13.5251 21.6464 12.9393 21.0607L9.68934 17.8107C9.10355 17.2249 9.10355 16.2751 9.68934 15.6893C10.2751 15.1036 11.2249 15.1036 11.8107 15.6893L14 17.8787L19.9393 11.9393C20.5251 11.3536 21.4749 11.3536 22.0607 11.9393Z" fill="white"/>
</svg>
