<svg width="32" height="32" viewBox="0 0 32 32" fill="none" xmlns="http://www.w3.org/2000/svg">
<path fill-rule="evenodd" clip-rule="evenodd" d="M16 30C23.732 30 30 23.732 30 16C30 8.26801 23.732 2 16 2C8.26801 2 2 8.26801 2 16C2 23.732 8.26801 30 16 30ZM14.0999 9.99751C14.0455 8.91083 14.912 8 16 8C17.088 8 17.9545 8.91083 17.9001 9.9975L17.5749 16.5019C17.5329 17.3411 16.8403 18 16 18C15.1597 18 14.4671 17.3411 14.4251 16.5019L14.0999 9.99751ZM14 22C14 20.8954 14.8954 20 16 20C17.1046 20 18 20.8954 18 22C18 23.1046 17.1046 24 16 24C14.8954 24 14 23.1046 14 22Z" fill="white"/>
<g opacity="0.32">
<path d="M16 8C14.912 8 14.0455 8.91083 14.0999 9.99751L14.4251 16.5019C14.4671 17.3411 15.1597 18 16 18C16.8403 18 17.5329 17.3411 17.5749 16.5019L17.9001 9.9975C17.9545 8.91083 17.088 8 16 8Z" fill="white"/>
<path d="M16 20C14.8954 20 14 20.8954 14 22C14 23.1046 14.8954 24 16 24C17.1046 24 18 23.1046 18 22C18 20.8954 17.1046 20 16 20Z" fill="white"/>
</g>
</svg>
