<svg width="28" height="28" viewBox="0 0 28 28" fill="none" xmlns="http://www.w3.org/2000/svg">
<path fill-rule="evenodd" clip-rule="evenodd" d="M4.21799 4.09202C4 4.51984 4 5.0799 4 6.2V21.8C4 22.9201 4 23.4802 4.21799 23.908C4.40973 24.2843 4.71569 24.5903 5.09202 24.782C5.51984 25 6.0799 25 7.2 25H20.8C21.9201 25 22.4802 25 22.908 24.782C23.2843 24.5903 23.5903 24.2843 23.782 23.908C24 23.4802 24 22.9201 24 21.8V11H18C16.8954 11 16 10.1046 16 9V3H7.2C6.0799 3 5.51984 3 5.09202 3.21799C4.71569 3.40973 4.40973 3.71569 4.21799 4.09202ZM8.5 14.5C7.67157 14.5 7 15.1716 7 16C7 16.8284 7.67157 17.5 8.5 17.5H18C18.8284 17.5 19.5 16.8284 19.5 16C19.5 15.1716 18.8284 14.5 18 14.5H8.5ZM8.5 19C7.67157 19 7 19.6716 7 20.5C7 21.3284 7.67157 22 8.5 22H15C15.8284 22 16.5 21.3284 16.5 20.5C16.5 19.6716 15.8284 19 15 19H8.5Z" fill="white"/>
<path opacity="0.32" fill-rule="evenodd" clip-rule="evenodd" d="M24 11L16 3V9C16 10.1046 16.8954 11 18 11H24ZM7 16C7 15.1716 7.67157 14.5 8.5 14.5H18C18.8284 14.5 19.5 15.1716 19.5 16C19.5 16.8284 18.8284 17.5 18 17.5H8.5C7.67157 17.5 7 16.8284 7 16ZM7 20.5C7 19.6716 7.67157 19 8.5 19H15C15.8284 19 16.5 19.6716 16.5 20.5C16.5 21.3284 15.8284 22 15 22H8.5C7.67157 22 7 21.3284 7 20.5Z" fill="white"/>
</svg>
