<svg width="28" height="28" viewBox="0 0 28 28" fill="none" xmlns="http://www.w3.org/2000/svg">
<path opacity="0.32" d="M11.5194 14.6521L10.5999 21.6403C10.346 23.5702 10.219 24.5352 10.4033 25.0115C10.7822 25.9906 11.8537 26.51 12.857 26.2011C13.3452 26.0508 14.0241 25.3535 15.3821 23.9589L22.2146 16.9417C23.5941 15.5249 24.2838 14.8165 24.4622 14.2471C24.8274 13.0808 24.2959 11.8214 23.2054 11.2695C22.6731 11 21.6844 11 19.707 11H15.6835C14.6919 11 14.1961 11 13.779 11.1236C12.9374 11.3728 12.2473 11.9781 11.8904 12.7799C11.7134 13.1774 11.6488 13.6689 11.5194 14.6521Z" fill="white"/>
<path d="M16.4806 13.3479L17.4001 6.35971C17.654 4.42979 17.781 3.46482 17.5966 2.98849C17.2177 2.00941 16.1463 1.48994 15.143 1.79885C14.6548 1.94913 13.9758 2.64646 12.6179 4.04111L5.78533 11.0583C4.40587 12.4751 3.71614 13.1834 3.53782 13.7528C3.17257 14.9192 3.7041 16.1786 4.79453 16.7305C5.32689 17 6.31559 17 8.29298 17H12.3165C13.3081 17 13.8039 17 14.221 16.8764C15.0625 16.6271 15.7527 16.0218 16.1096 15.22C16.2865 14.8226 16.3512 14.331 16.4806 13.3479Z" fill="white"/>
</svg>
