<svg width="28" height="28" viewBox="0 0 28 28" fill="none" xmlns="http://www.w3.org/2000/svg">
<rect opacity="0.32" x="10" y="12" width="8" height="12" fill="white"/>
<path d="M11.7373 4.26274L4.87452 11.1255C4.18271 11.8173 3.83681 12.1632 3.58944 12.5669C3.37012 12.9247 3.20851 13.3149 3.11052 13.7231C3 14.1834 3 14.6726 3 15.651V20.8C3 21.9201 3 22.4802 3.21799 22.908C3.40973 23.2843 3.71569 23.5903 4.09202 23.782C4.51984 24 5.07989 24 6.2 24H10.5V18.5C10.5 16.567 12.067 15 14 15C15.933 15 17.5 16.567 17.5 18.5V24H21.8C22.9201 24 23.4802 24 23.908 23.782C24.2843 23.5903 24.5903 23.2843 24.782 22.908C25 22.4802 25 21.9201 25 20.8V15.651C25 14.6726 25 14.1834 24.8895 13.7231C24.7915 13.3149 24.6299 12.9247 24.4106 12.5669C24.1632 12.1632 23.8173 11.8173 23.1255 11.1255L16.2627 4.26274C15.4707 3.47071 15.0747 3.07469 14.618 2.92631C14.2163 2.7958 13.7837 2.7958 13.382 2.92631C12.9253 3.07469 12.5293 3.47071 11.7373 4.26274Z" fill="white"/>
</svg>
