<svg width="28" height="28" viewBox="0 0 28 28" fill="none" xmlns="http://www.w3.org/2000/svg">
    <path fill-rule="evenodd" clip-rule="evenodd" d="M14 25.25C20.2132 25.25 25.25 20.2132 25.25 14C25.25 7.7868 20.2132 2.75 14 2.75C7.7868 2.75 2.75 7.7868 2.75 14C2.75 20.2132 7.7868 25.25 14 25.25ZM13.8816 8.37163C13.4014 8.43917 13.1088 9.1427 12.5235 10.5498C12.3528 10.9603 12.2674 11.1656 12.1063 11.2995C12.0779 11.3231 12.048 11.3448 12.0168 11.3645C11.8397 11.4763 11.6181 11.4941 11.1749 11.5296C9.65583 11.6514 8.89631 11.7123 8.68368 12.1481C8.64891 12.2194 8.62428 12.2952 8.61051 12.3733C8.52636 12.8509 9.10503 13.3466 10.2624 14.338C10.6001 14.6273 10.7689 14.7719 10.8465 14.9665C10.8601 15.0007 10.8716 15.0359 10.8807 15.0717C10.9323 15.2747 10.8807 15.4909 10.7775 15.9234C10.4239 17.4058 10.2471 18.1469 10.5959 18.4838C10.653 18.5389 10.7175 18.5858 10.7875 18.623C11.2157 18.8506 11.8659 18.4534 13.1665 17.6591C13.5459 17.4273 13.7357 17.3114 13.9447 17.2978C13.9815 17.2954 14.0185 17.2954 14.0553 17.2978C14.2643 17.3114 14.454 17.4273 14.8335 17.6591C16.134 18.4534 16.7843 18.8506 17.2125 18.623C17.2825 18.5858 17.347 18.5389 17.404 18.4838C17.7528 18.1469 17.576 17.4058 17.2224 15.9234L17.2224 15.9234C17.1193 15.4909 17.0677 15.2746 17.1193 15.0717C17.1284 15.0359 17.1398 15.0007 17.1535 14.9665C17.231 14.7719 17.3999 14.6273 17.7376 14.338C18.8949 13.3466 19.4736 12.8509 19.3894 12.3733C19.3757 12.2952 19.351 12.2194 19.3163 12.1481C19.1036 11.7123 18.3441 11.6514 16.8251 11.5296C16.3818 11.4941 16.1602 11.4763 15.9831 11.3645C15.9519 11.3448 15.922 11.3231 15.8936 11.2995C15.7326 11.1656 15.6472 10.9603 15.4764 10.5498C14.8912 9.1427 14.5986 8.43917 14.1184 8.37163C14.0398 8.36058 13.9601 8.36058 13.8816 8.37163Z" fill="white"/>
    <path opacity="0.32" d="M12.5235 10.5498C13.1088 9.1427 13.4014 8.43917 13.8816 8.37163C13.9601 8.36058 14.0398 8.36058 14.1184 8.37163C14.5986 8.43917 14.8912 9.1427 15.4764 10.5498C15.6472 10.9603 15.7326 11.1656 15.8936 11.2995C15.922 11.3231 15.9519 11.3448 15.9831 11.3645C16.1602 11.4763 16.3818 11.4941 16.8251 11.5296C18.3441 11.6514 19.1036 11.7123 19.3163 12.1481C19.351 12.2194 19.3757 12.2952 19.3894 12.3733C19.4736 12.8509 18.8949 13.3466 17.7376 14.338C17.3999 14.6273 17.231 14.7719 17.1535 14.9665C17.1398 15.0007 17.1284 15.0359 17.1193 15.0717C17.0677 15.2747 17.1193 15.4909 17.2224 15.9234C17.576 17.4058 17.7528 18.1469 17.404 18.4838C17.347 18.5389 17.2825 18.5858 17.2125 18.623C16.7843 18.8506 16.134 18.4534 14.8335 17.6591C14.454 17.4273 14.2643 17.3114 14.0553 17.2978C14.0185 17.2954 13.9815 17.2954 13.9447 17.2978C13.7357 17.3114 13.5459 17.4273 13.1665 17.6591C11.8659 18.4534 11.2157 18.8506 10.7875 18.623C10.7175 18.5858 10.653 18.5389 10.5959 18.4838C10.2471 18.1469 10.4239 17.4058 10.7775 15.9234C10.8807 15.4909 10.9323 15.2747 10.8807 15.0717C10.8716 15.0359 10.8601 15.0007 10.8465 14.9665C10.7689 14.7719 10.6001 14.6273 10.2624 14.338C9.10503 13.3466 8.52636 12.8509 8.61051 12.3733C8.62428 12.2952 8.64891 12.2194 8.68368 12.1481C8.89631 11.7123 9.65583 11.6514 11.1749 11.5296C11.6181 11.4941 11.8397 11.4763 12.0168 11.3645C12.048 11.3448 12.0779 11.3231 12.1063 11.2995C12.2674 11.1656 12.3528 10.9603 12.5235 10.5498Z" fill="white"/>
</svg>
