<svg width="28" height="28" viewBox="0 0 28 28" fill="none" xmlns="http://www.w3.org/2000/svg">
    <path opacity="0.32" d="M8.06272 16.9373C8.40862 16.5914 8.58157 16.4184 8.78341 16.2947C8.96235 16.1851 9.15744 16.1043 9.36151 16.0553C9.59169 16 9.83628 16 10.3255 16H17.6745C18.1637 16 18.4083 16 18.6384 16.0553C18.8425 16.1043 19.0376 16.1851 19.2165 16.2947C19.4184 16.4184 19.5913 16.5914 19.9372 16.9373L24.2686 21.2686C25.1254 22.1254 25.5537 22.5538 25.5827 22.9215C25.6078 23.2407 25.4786 23.5525 25.2352 23.7604C24.9547 24 24.3489 24 23.1372 24H4.86272C3.65109 24 3.04527 24 2.76474 23.7604C2.52133 23.5525 2.39216 23.2407 2.41727 22.9215C2.44622 22.5538 2.87459 22.1254 3.73135 21.2686L8.06272 16.9373Z" fill="white"/>
    <path d="M8.5 19V10C8.5 6.96243 10.9624 4.5 14 4.5C17.0376 4.5 19.5 6.96243 19.5 10V19M19.5 19L24 14.5M19.5 19L15 14.5" stroke="white" stroke-width="3" stroke-linecap="round" stroke-linejoin="round"/>
</svg>
