<svg width="28" height="28" viewBox="0 0 28 28" fill="none" xmlns="http://www.w3.org/2000/svg">
<path fill-rule="evenodd" clip-rule="evenodd" d="M13.5336 1.97058C13.1967 2.1482 12.9649 2.76809 12.5013 4.00789L10.9147 8.2511C10.7806 8.60972 10.7136 8.78904 10.5982 8.92359C10.4963 9.04251 10.3679 9.13582 10.2233 9.19601C10.0597 9.26411 9.86841 9.27247 9.48589 9.28919L4.96007 9.48695C3.63769 9.54473 2.97651 9.57362 2.70347 9.83914C2.46693 10.0692 2.35908 10.4011 2.41524 10.7262C2.48006 11.1015 2.99799 11.5135 4.03385 12.3376L7.57908 15.1578C7.87871 15.3961 8.02853 15.5153 8.12086 15.6666C8.20246 15.8003 8.25152 15.9512 8.26408 16.1074C8.27829 16.284 8.22714 16.4685 8.12484 16.8374L8.12483 16.8374L6.91436 21.2029C6.56068 22.4784 6.38384 23.1161 6.55199 23.4578C6.69767 23.7539 6.98002 23.959 7.3066 24.0061C7.68356 24.0604 8.23545 23.6952 9.33923 22.9646L13.1169 20.4644C13.239 20.3836 13.3377 20.3183 13.4228 20.2661L20 15.5L20.0034 15.5108C20.0968 15.4156 20.2277 15.3115 20.4209 15.1578L20.4209 15.1578L23.9662 12.3376C25.002 11.5135 25.5199 11.1015 25.5848 10.7262C25.6409 10.4011 25.5331 10.0692 25.2965 9.83914C25.0235 9.57362 24.3623 9.54473 23.0399 9.48695L18.5141 9.28919C18.1316 9.27247 17.9403 9.26411 17.7767 9.19601C17.6321 9.13582 17.5037 9.04251 17.4018 8.92359C17.2864 8.78904 17.2194 8.60973 17.0853 8.25111L17.0853 8.2511L15.4987 4.00789C15.0351 2.76809 14.8033 2.1482 14.4664 1.97058C14.1745 1.81669 13.8255 1.81669 13.5336 1.97058ZM19.8791 15.6666C19.8791 15.6666 19.8791 15.6666 19.8791 15.6666C19.7975 15.8003 19.7485 15.9513 19.7359 16.1074C19.7217 16.284 19.7728 16.4685 19.8752 16.8374L19.8751 16.8374L21.0856 21.2029L21.0856 21.2029C21.4393 22.4784 21.6161 23.1161 21.448 23.4579C21.4462 23.4614 21.4445 23.465 21.4427 23.4686C21.4445 23.465 21.4462 23.4614 21.448 23.4578C21.6162 23.1161 21.4393 22.4784 21.0856 21.2029L19.8752 16.8374L19.8752 16.8374C19.7729 16.4685 19.7217 16.284 19.7359 16.1074C19.7485 15.9512 19.7975 15.8003 19.8791 15.6666Z" fill="white"/>
<path opacity="0.32" fill-rule="evenodd" clip-rule="evenodd" d="M20.0034 15.5108C19.9519 15.5632 19.9119 15.6129 19.8791 15.6666C19.7975 15.8003 19.7485 15.9513 19.7359 16.1074C19.7217 16.284 19.7728 16.4685 19.8751 16.8374L19.8751 16.8375L21.0856 21.2029C21.4393 22.4784 21.6161 23.1161 21.448 23.4579C21.3023 23.7539 21.02 23.9591 20.6934 24.0061C20.3164 24.0604 19.7645 23.6952 18.6607 22.9647L18.6607 22.9647L14.883 20.4644L14.883 20.4644C14.5637 20.2531 14.4041 20.1475 14.2317 20.1064C14.0793 20.0701 13.9206 20.0701 13.7682 20.1064C13.6617 20.1318 13.5601 20.1818 13.4227 20.2661L20 15.5L20.0034 15.5108Z" fill="white"/>
</svg>
