<svg width="28" height="28" viewBox="0 0 28 28" fill="none" xmlns="http://www.w3.org/2000/svg">
<circle opacity="0.32" cx="14" cy="14" r="4" fill="white"/>
<path fill-rule="evenodd" clip-rule="evenodd" d="M6.6357 7.10723L6.6357 7.10723L4.4757 10.7072C3.75738 11.9044 3.39822 12.503 3.25789 13.142C3.13376 13.7073 3.13376 14.2927 3.25789 14.858C3.39822 15.497 3.75738 16.0956 4.4757 17.2928L6.6357 20.8928C7.31554 22.0258 7.65546 22.5924 8.12346 23.0039C8.53761 23.3681 9.02259 23.6426 9.54794 23.8104C10.1416 24 10.8023 24 12.1237 24H15.8764C17.1978 24 17.8585 24 18.4521 23.8104C18.9775 23.6426 19.4625 23.3681 19.8766 23.0039C20.3446 22.5924 20.6845 22.0258 21.3644 20.8928L23.5244 17.2928C24.2427 16.0956 24.6019 15.497 24.7422 14.858C24.8663 14.2927 24.8663 13.7073 24.7422 13.142C24.6019 12.503 24.2427 11.9044 23.5244 10.7072L23.5244 10.7072L21.3644 7.10723C20.6845 5.97416 20.3446 5.40763 19.8766 4.99611C19.4625 4.63195 18.9775 4.35736 18.4521 4.18958C17.8585 4 17.1978 4 15.8764 4H12.1237C10.8023 4 10.1416 4 9.54794 4.18958C9.02259 4.35736 8.53761 4.63195 8.12346 4.99611C7.65546 5.40763 7.31554 5.97416 6.6357 7.10723ZM14 18C16.2092 18 18 16.2091 18 14C18 11.7909 16.2092 10 14 10C11.7909 10 10 11.7909 10 14C10 16.2091 11.7909 18 14 18Z" fill="white"/>
</svg>
