<svg width="28" height="28" viewBox="0 0 28 28" fill="none" xmlns="http://www.w3.org/2000/svg">
<g clip-path="url(#clip0_6499_51523)">
<path opacity="0.32" fill-rule="evenodd" clip-rule="evenodd" d="M9.70656 22.4311L7.21509 15.5351L7.30399 13.755L21.1631 7.25952L15.6462 17.9153C15.6462 17.9153 14.9963 18.5914 14.1511 19.4542L14.4449 19.6281C14.4449 19.6281 12.9544 20.8291 11.3972 22.3866C10.7241 23.0599 10.3794 23.1511 10.2049 23.0377C9.93214 22.8984 9.70656 22.4311 9.70656 22.4311Z" fill="white"/>
<path d="M7.26006 15.7811L2.13501 14.1113C2.13501 14.1113 1.52251 13.8628 1.71973 13.2993C1.76033 13.1831 1.84223 13.0842 2.08723 12.9143C3.22281 12.1228 23.1058 4.97628 23.1058 4.97628C23.1058 4.97628 23.6672 4.78711 23.9983 4.91294C24.0802 4.93829 24.1539 4.98495 24.2119 5.04814C24.2698 5.11132 24.31 5.18877 24.3282 5.27256C24.3639 5.42055 24.3789 5.57281 24.3726 5.72493C24.371 5.85653 24.3551 5.97851 24.343 6.16978C24.2219 8.12366 20.598 22.7061 20.598 22.7061C20.598 22.7061 20.3812 23.5594 19.6044 23.5886C19.4135 23.5947 19.2233 23.5624 19.0451 23.4935C18.867 23.4246 18.7046 23.3205 18.5675 23.1875C17.0431 21.8762 11.7742 18.3353 10.6099 17.5565C10.5836 17.5386 10.5615 17.5153 10.545 17.4881C10.5286 17.461 10.5181 17.4306 10.5144 17.399C10.4981 17.3169 10.5873 17.2153 10.5873 17.2153C10.5873 17.2153 19.7619 9.06026 20.006 8.20416C20.0249 8.13783 19.9535 8.10511 19.8576 8.13416C19.2483 8.35834 8.68491 15.0292 7.51906 15.7654C7.43514 15.7908 7.34644 15.7962 7.26006 15.7811Z" fill="white"/>
</g>
<defs>
<clipPath id="clip0_6499_51523">
<rect width="28" height="28" fill="white"/>
</clipPath>
</defs>
</svg>
