<svg width="28" height="28" viewBox="0 0 28 28" fill="none" xmlns="http://www.w3.org/2000/svg">
<path opacity="0.32" d="M13.2507 10.004C13.4825 9.38408 13.5984 9.07413 13.7668 8.98532C13.9127 8.90838 14.0872 8.90838 14.2332 8.98532C14.4016 9.07413 14.5175 9.38408 14.7493 10.004L15.2958 11.4654C15.3628 11.6447 15.3963 11.7343 15.454 11.8016C15.505 11.8611 15.5692 11.9077 15.6415 11.9378C15.7233 11.9719 15.8189 11.9761 16.0102 11.9844L17.5689 12.0525C18.2301 12.0814 18.5607 12.0959 18.6972 12.2286C18.8155 12.3436 18.8694 12.5096 18.8413 12.6722C18.8089 12.8598 18.5499 13.0658 18.032 13.4778L16.811 14.4491C16.6612 14.5683 16.5863 14.6279 16.5401 14.7035C16.4993 14.7704 16.4748 14.8459 16.4685 14.9239C16.4614 15.0122 16.487 15.1045 16.5381 15.289L16.955 16.7924C17.1319 17.4302 17.2203 17.7491 17.1362 17.9199C17.0634 18.068 16.9222 18.1705 16.7589 18.1941C16.5704 18.2212 16.2945 18.0386 15.7426 17.6733L14.4415 16.8122C14.2819 16.7066 14.2021 16.6538 14.1159 16.6332C14.0397 16.6151 13.9603 16.6151 13.8841 16.6332C13.7979 16.6538 13.7181 16.7066 13.5585 16.8122L12.2574 17.6733C11.7055 18.0386 11.4296 18.2212 11.2411 18.1941C11.0778 18.1705 10.9366 18.068 10.8638 17.9199C10.7797 17.7491 10.8681 17.4302 11.045 16.7924L11.4619 15.289C11.513 15.1045 11.5386 15.0122 11.5315 14.9239C11.5252 14.8459 11.5007 14.7704 11.4599 14.7035C11.4137 14.6279 11.3388 14.5683 11.189 14.4491L9.96797 13.4778C9.45004 13.0658 9.19108 12.8598 9.15867 12.6722C9.13059 12.5096 9.18451 12.3436 9.30279 12.2286C9.4393 12.0959 9.7699 12.0814 10.4311 12.0525L11.9898 11.9844C12.1811 11.9761 12.2767 11.9719 12.3585 11.9378C12.4308 11.9077 12.495 11.8611 12.546 11.8016C12.6036 11.7343 12.6372 11.6447 12.7042 11.4654L13.2507 10.004Z" fill="white"/>
<path fill-rule="evenodd" clip-rule="evenodd" d="M3.21799 6.09104C3 6.51887 3 7.07892 3 8.19902V10.125C4.72523 10.5691 6 12.1352 6 13.999C6 15.8629 4.72523 17.429 3 17.873V19.799C3 20.9191 3 21.4792 3.21799 21.907C3.40973 22.2833 3.71569 22.5893 4.09202 22.781C4.51984 22.999 5.0799 22.999 6.2 22.999H21.8C22.9201 22.999 23.4802 22.999 23.908 22.781C24.2843 22.5893 24.5903 22.2833 24.782 21.907C25 21.4792 25 20.9191 25 19.799V17.873C23.2748 17.429 22 15.8629 22 13.999C22 12.1352 23.2748 10.5691 25 10.125V8.19902C25 7.07892 25 6.51887 24.782 6.09104C24.5903 5.71472 24.2843 5.40876 23.908 5.21701C23.4802 4.99902 22.9201 4.99902 21.8 4.99902H6.2C5.0799 4.99902 4.51984 4.99902 4.09202 5.21701C3.71569 5.40876 3.40973 5.71472 3.21799 6.09104ZM13.7668 8.9853C13.5984 9.07411 13.4825 9.38406 13.2507 10.004L12.7042 11.4653C12.6372 11.6447 12.6036 11.7343 12.546 11.8016C12.495 11.8611 12.4308 11.9077 12.3585 11.9378C12.2767 11.9719 12.1811 11.976 11.9898 11.9844L10.4311 12.0525C9.7699 12.0814 9.43931 12.0958 9.30279 12.2286C9.18452 12.3436 9.1306 12.5096 9.15868 12.6721C9.19109 12.8598 9.45005 13.0658 9.96798 13.4778L11.189 14.4491C11.3388 14.5683 11.4137 14.6279 11.4599 14.7035C11.5007 14.7703 11.5252 14.8458 11.5315 14.9239C11.5386 15.0122 11.513 15.1045 11.4619 15.2889L11.045 16.7924C10.8681 17.4302 10.7797 17.7491 10.8638 17.9199C10.9366 18.0679 11.0778 18.1705 11.2411 18.194C11.4296 18.2212 11.7055 18.0386 12.2574 17.6733L13.5585 16.8122C13.7181 16.7066 13.7979 16.6537 13.8841 16.6332C13.9603 16.6151 14.0397 16.6151 14.1159 16.6332C14.2021 16.6537 14.2819 16.7066 14.4415 16.8122L15.7426 17.6733C16.2945 18.0386 16.5704 18.2212 16.7589 18.194C16.9222 18.1705 17.0634 18.0679 17.1362 17.9199C17.2203 17.7491 17.1319 17.4302 16.955 16.7924L16.5381 15.2889L16.5381 15.2889C16.487 15.1045 16.4614 15.0122 16.4685 14.9239C16.4748 14.8458 16.4993 14.7703 16.5401 14.7035C16.5863 14.6279 16.6612 14.5683 16.811 14.4491L18.032 13.4778C18.5499 13.0658 18.8089 12.8598 18.8413 12.6721C18.8694 12.5096 18.8155 12.3436 18.6972 12.2286C18.5607 12.0958 18.2301 12.0814 17.5689 12.0525L16.0102 11.9844C15.8189 11.976 15.7233 11.9719 15.6415 11.9378C15.5692 11.9077 15.505 11.8611 15.454 11.8016C15.3964 11.7343 15.3628 11.6447 15.2958 11.4654L15.2958 11.4653L14.7493 10.004C14.5175 9.38406 14.4016 9.07411 14.2332 8.9853C14.0872 8.90836 13.9128 8.90836 13.7668 8.9853Z" fill="white"/>
</svg>
