<svg width="24" height="24" viewBox="0 0 24 24" fill="none" xmlns="http://www.w3.org/2000/svg">
<path fill-rule="evenodd" clip-rule="evenodd" d="M8.90533 3.90533C8.18991 4.62075 7.75 5.67044 7.75 7C7.75 7.41421 7.41421 7.75 7 7.75C5.67044 7.75 4.62075 8.18991 3.90533 8.90533C3.18991 9.62075 2.75 10.6704 2.75 12C2.75 13.3296 3.18991 14.3793 3.90533 15.0947C4.62075 15.8101 5.67044 16.25 7 16.25H9C9.41421 16.25 9.75 16.5858 9.75 17C9.75 17.4142 9.41421 17.75 9 17.75H7C5.32956 17.75 3.87925 17.1899 2.84467 16.1553C1.81009 15.1207 1.25 13.6704 1.25 12C1.25 10.3296 1.81009 8.87925 2.84467 7.84467C3.7287 6.96064 4.91626 6.42306 6.28532 6.28532C6.42306 4.91626 6.96064 3.7287 7.84467 2.84467C8.87925 1.81009 10.3296 1.25 12 1.25C14.6817 1.25 16.8736 3.2279 17.2063 5.81434C17.8401 5.93362 18.4033 6.21763 18.8428 6.65717C19.2901 7.10441 19.5763 7.6797 19.6918 8.3271C21.4174 8.71729 22.75 10.5522 22.75 13C22.75 14.4004 22.3269 15.6087 21.4678 16.4678C20.6087 17.3269 19.4004 17.75 18 17.75H15C14.5858 17.75 14.25 17.4142 14.25 17C14.25 16.5858 14.5858 16.25 15 16.25H18C19.0996 16.25 19.8913 15.9231 20.4072 15.4072C20.9231 14.8913 21.25 14.0996 21.25 13C21.25 10.7665 19.9521 9.75 19 9.75C18.5858 9.75 18.25 9.41421 18.25 9C18.25 8.42044 18.0601 7.99575 17.7822 7.71783C17.5043 7.43991 17.0796 7.25 16.5 7.25C16.0858 7.25 15.75 6.91421 15.75 6.5C15.75 4.41421 14.0858 2.75 12 2.75C10.6704 2.75 9.62075 3.18991 8.90533 3.90533ZM12 13.25C12.4142 13.25 12.75 13.5858 12.75 14V20.6893L13.9697 19.4697C14.2626 19.1768 14.7374 19.1768 15.0303 19.4697C15.3232 19.7626 15.3232 20.2374 15.0303 20.5303L12.5303 23.0303C12.2374 23.3232 11.7626 23.3232 11.4697 23.0303L8.96967 20.5303C8.67678 20.2374 8.67678 19.7626 8.96967 19.4697C9.26256 19.1768 9.73744 19.1768 10.0303 19.4697L11.25 20.6893V14C11.25 13.5858 11.5858 13.25 12 13.25Z" fill="white"/>
</svg>
