<svg width="15" height="24" viewBox="0 0 15 24" fill="none" xmlns="http://www.w3.org/2000/svg">
    <g clip-path="url(#clip0_29368_97527)">
        <path fill-rule="evenodd" clip-rule="evenodd" d="M0.499999 8.30128C0.499999 5.67647 0.499999 4.36406 1.16844 3.44403C1.38432 3.1469 1.64562 2.8856 1.94275 2.66972C2.66251 2.14679 3.62241 2.03296 5.26296 2.00818C5.3841 0.879783 6.33943 0.00109838 7.5 0.00109833C8.66057 0.00109828 9.6159 0.879785 9.73704 2.00818C11.3776 2.03296 12.3375 2.14679 13.0572 2.66972C13.3544 2.8856 13.6157 3.1469 13.8316 3.44403C14.5 4.36406 14.5 5.67647 14.5 8.30128L14.5 17.7013C14.5 20.3261 14.5 21.6385 13.8316 22.5585C13.6157 22.8557 13.3544 23.117 13.0572 23.3328C12.1372 24.0013 10.8248 24.0013 8.2 24.0013L6.8 24.0013C4.17519 24.0013 2.86278 24.0013 1.94275 23.3328C1.64562 23.117 1.38432 22.8557 1.16844 22.5585C0.5 21.6385 0.5 20.3261 0.5 17.7013L0.499999 8.30128ZM1.50012 7.50135C1.50012 5.62649 1.50012 4.68905 1.97758 4.03189C2.13178 3.81965 2.31842 3.63301 2.53066 3.47881C3.18782 3.00135 4.12525 3.00135 6.00012 3.00135L9.00012 3.00136C10.875 3.00136 11.8124 3.00136 12.4696 3.47881C12.6818 3.63301 12.8685 3.81966 13.0227 4.03189C13.5001 4.68906 13.5001 5.62649 13.5001 7.50136L13.5001 18.5014C13.5001 20.3762 13.5001 21.3137 13.0227 21.9708C12.8685 22.1831 12.6818 22.3697 12.4696 22.5239C11.8124 23.0014 10.875 23.0014 9.00012 23.0014L6.00012 23.0014C4.12525 23.0014 3.18782 23.0014 2.53066 22.5239C2.31842 22.3697 2.13178 22.1831 1.97758 21.9708C1.50012 21.3137 1.50012 20.3762 1.50012 18.5014L1.50012 7.50135Z" fill="#2E3847"/>
        <path d="M2.5 20.5013C2.5 19.6729 3.17157 19.0013 4 19.0013L11 19.0013C11.8284 19.0013 12.5 19.6729 12.5 20.5013C12.5 21.3297 11.8284 22.0013 11 22.0013L4 22.0013C3.17157 22.0013 2.5 21.3297 2.5 20.5013Z" fill="#F5A73B"/>
    </g>
    <defs>
        <clipPath id="clip0_29368_97527">
            <rect width="14" height="24" fill="white" transform="translate(0.5 0.00128174)"/>
        </clipPath>
    </defs>
</svg>
