<svg width="24" height="24" viewBox="0 0 24 24" fill="none" xmlns="http://www.w3.org/2000/svg">
<path d="M15.6603 11.1603L14.9468 10.9291C14.8599 11.1972 14.9307 11.4914 15.13 11.6906L15.6603 11.1603ZM11.1603 15.6603L11.6906 15.13C11.4914 14.9307 11.1972 14.8599 10.9291 14.9468L11.1603 15.6603ZM13 17.5L12.4697 18.0303C12.6103 18.171 12.8011 18.25 13 18.25V17.5ZM14.5 17.5H15.25C15.25 17.0858 14.9142 16.75 14.5 16.75V17.5ZM14.5 19H13.75C13.75 19.4142 14.0858 19.75 14.5 19.75V19ZM16 19H16.75C16.75 18.5858 16.4142 18.25 16 18.25V19ZM16 20.5H15.25C15.25 20.9142 15.5858 21.25 16 21.25V20.5ZM17.5 20.5H18.25C18.25 20.0858 17.9142 19.75 17.5 19.75V20.5ZM17.5 22H16.75C16.75 22.4142 17.0858 22.75 17.5 22.75V22ZM22 22V22.75C22.4142 22.75 22.75 22.4142 22.75 22H22ZM21.9309 17.9519L21.2016 18.127L21.9309 17.9519ZM21.6316 17.2293L20.9921 17.6212V17.6212L21.6316 17.2293ZM20.8284 16.3285L21.3588 15.7981C21.3522 15.7916 21.3456 15.7852 21.3388 15.7789L20.8284 16.3285ZM20.8284 16.3284L20.2981 16.8588C20.3046 16.8653 20.3113 16.8717 20.3181 16.878L20.8284 16.3284ZM15.25 9C15.25 9.6744 15.1435 10.3225 14.9468 10.9291L16.3738 11.3916C16.6182 10.6374 16.75 9.83335 16.75 9H15.25ZM9 2.75C12.4518 2.75 15.25 5.54822 15.25 9H16.75C16.75 4.71979 13.2802 1.25 9 1.25V2.75ZM2.75 9C2.75 5.54822 5.54822 2.75 9 2.75V1.25C4.71979 1.25 1.25 4.71979 1.25 9H2.75ZM9 15.25C5.54822 15.25 2.75 12.4518 2.75 9H1.25C1.25 13.2802 4.71979 16.75 9 16.75V15.25ZM10.9291 14.9468C10.3225 15.1435 9.6744 15.25 9 15.25V16.75C9.83335 16.75 10.6374 16.6182 11.3916 16.3738L10.9291 14.9468ZM10.63 16.1906L12.4697 18.0303L13.5304 16.9697L11.6906 15.13L10.63 16.1906ZM13 18.25H14.5V16.75H13V18.25ZM13.75 17.5V19H15.25V17.5H13.75ZM14.5 19.75H16V18.25H14.5V19.75ZM15.25 19V20.5H16.75V19H15.25ZM16 21.25H17.5V19.75H16V21.25ZM16.75 20.5V22H18.25V20.5H16.75ZM17.5 22.75H22V21.25H17.5V22.75ZM22.75 22V19.1569H21.25V22H22.75ZM22.75 19.1569C22.75 18.5811 22.7548 18.1709 22.6602 17.7768L21.2016 18.127C21.2452 18.3083 21.25 18.5097 21.25 19.1569H22.75ZM22.6602 17.7768C22.5806 17.4452 22.4493 17.1282 22.2711 16.8374L20.9921 17.6212C21.088 17.7777 21.1588 17.9484 21.2016 18.127L22.6602 17.7768ZM22.2711 16.8374C22.0593 16.4918 21.7659 16.2052 21.3588 15.7981L20.2981 16.8588C20.7557 17.3164 20.8947 17.4622 20.9921 17.6212L22.2711 16.8374ZM21.3388 15.7789L21.3387 15.7788L20.3181 16.878L20.3181 16.8781L21.3388 15.7789ZM21.3587 15.7981L16.1906 10.63L15.13 11.6906L20.2981 16.8588L21.3587 15.7981Z" fill="white"/>
<circle cx="7.5" cy="7.5" r="1.5" fill="white"/>
</svg>
