<svg width="28" height="28" viewBox="0 0 28 28" fill="none" xmlns="http://www.w3.org/2000/svg">
<path opacity="0.32" fill-rule="evenodd" clip-rule="evenodd" d="M14 1C13.1716 1 12.5 1.67157 12.5 2.5V6H15.5V2.5C15.5 1.67157 14.8284 1 14 1ZM14 25C16.2091 25 18 23.2091 18 21C18 18.7909 16.2091 17 14 17C11.7909 17 10 18.7909 10 21C10 23.2091 11.7909 25 14 25Z" fill="white"/>
<path d="M7 11C7 7 9.5 4 14 4C18.5 4 21 7 21 11V14.1716C21 14.702 21.2107 15.2107 21.5858 15.5858L23.4142 17.4142C23.7893 17.7893 24 18.298 24 18.8284V19C24 20.1046 23.1046 21 22 21H6C4.89543 21 4 20.1046 4 19V18.8284C4 18.298 4.21071 17.7893 4.58579 17.4142L6.41421 15.5858C6.78929 15.2107 7 14.702 7 14.1716V11Z" fill="white"/>
</svg>
