<svg width="28" height="28" viewBox="0 0 28 28" fill="none" xmlns="http://www.w3.org/2000/svg">
    <path fill-rule="evenodd" clip-rule="evenodd" d="M14 0.00500488C12.2271 0.00500488 10.7621 1.32317 10.5316 3.03289C8.64901 3.09553 7.47077 3.299 6.56107 3.95994C6.1366 4.26834 5.76331 4.64162 5.45492 5.0661C4.5 6.38043 4.5 8.25529 4.5 12.005V18.005C4.5 21.7547 4.5 23.6296 5.45492 24.9439C5.76331 25.3684 6.1366 25.7417 6.56107 26.0501C7.8754 27.005 9.75027 27.005 13.5 27.005H14.5C18.2497 27.005 20.1246 27.005 21.4389 26.0501C21.8634 25.7417 22.2367 25.3684 22.5451 24.9439C23.5 23.6296 23.5 21.7547 23.5 18.005V12.005C23.5 8.25529 23.5 6.38043 22.5451 5.0661C22.2367 4.64162 21.8634 4.26834 21.4389 3.95994C20.5292 3.299 19.351 3.09553 17.4684 3.03289C17.2379 1.32317 15.7729 0.00500488 14 0.00500488ZM7.71799 17.097C7.5 17.5248 7.5 18.0849 7.5 19.205V20.805C7.5 21.9251 7.5 22.4852 7.71799 22.913C7.90973 23.2893 8.21569 23.5953 8.59202 23.787C9.01984 24.005 9.5799 24.005 10.7 24.005H17.3C18.4201 24.005 18.9802 24.005 19.408 23.787C19.7843 23.5953 20.0903 23.2893 20.282 22.913C20.5 22.4852 20.5 21.9251 20.5 20.805V19.205C20.5 18.0849 20.5 17.5248 20.282 17.097C20.0903 16.7207 19.7843 16.4147 19.408 16.223C18.9802 16.005 18.4201 16.005 17.3 16.005H10.7C9.5799 16.005 9.01984 16.005 8.59202 16.223C8.21569 16.4147 7.90973 16.7207 7.71799 17.097Z" fill="#45AEF5"/>
    <path opacity="0.32" d="M7.5 19.205C7.5 18.0849 7.5 17.5248 7.71799 17.097C7.90973 16.7207 8.21569 16.4147 8.59202 16.223C9.01984 16.005 9.5799 16.005 10.7 16.005H17.3C18.4201 16.005 18.9802 16.005 19.408 16.223C19.7843 16.4147 20.0903 16.7207 20.282 17.097C20.5 17.5248 20.5 18.0849 20.5 19.205V20.805C20.5 21.9251 20.5 22.4852 20.282 22.913C20.0903 23.2893 19.7843 23.5953 19.408 23.787C18.9802 24.005 18.4201 24.005 17.3 24.005H10.7C9.5799 24.005 9.01984 24.005 8.59202 23.787C8.21569 23.5953 7.90973 23.2893 7.71799 22.913C7.5 22.4852 7.5 21.9251 7.5 20.805V19.205Z" fill="#45AEF5"/>
</svg>
