<svg width="28" height="28" viewBox="0 0 28 28" fill="none" xmlns="http://www.w3.org/2000/svg">
<path d="M3.00169 9.00201C3.00979 7.83709 3.05658 7.17074 3.32698 6.64004C3.6146 6.07556 4.07354 5.61661 4.63803 5.32899C5.27976 5.00201 6.11984 5.00201 7.8 5.00201L20.2 5.00201C21.8802 5.00201 22.7202 5.00201 23.362 5.32899C23.9265 5.61661 24.3854 6.07556 24.673 6.64004C24.9434 7.17074 24.9902 7.83709 24.9983 9.00201L3.00169 9.00201Z" fill="white"/>
<path fill-rule="evenodd" clip-rule="evenodd" d="M3 12.002V18.202C3 19.8822 3 20.7223 3.32698 21.364C3.6146 21.9285 4.07354 22.3874 4.63803 22.675C5.27976 23.002 6.11984 23.002 7.8 23.002H20.2C21.8802 23.002 22.7202 23.002 23.362 22.675C23.9265 22.3874 24.3854 21.9285 24.673 21.364C25 20.7223 25 19.8822 25 18.202V12.002H3ZM6 18.502C6 17.6736 6.67157 17.002 7.5 17.002H9.5C10.3284 17.002 11 17.6736 11 18.502C11 19.3304 10.3284 20.002 9.5 20.002H7.5C6.67157 20.002 6 19.3304 6 18.502Z" fill="white"/>
<g opacity="0.32">
<path d="M25 9.00201L3 9.00201V12.002L25 12.002V9.00201Z" fill="white"/>
<path d="M7.5 17.002C6.67157 17.002 6 17.6736 6 18.502C6 19.3304 6.67157 20.002 7.5 20.002H9.5C10.3284 20.002 11 19.3304 11 18.502C11 17.6736 10.3284 17.002 9.5 17.002H7.5Z" fill="white"/>
</g>
</svg>
