<svg width="28" height="28" viewBox="0 0 28 28" fill="none" xmlns="http://www.w3.org/2000/svg">
    <path fill-rule="evenodd" clip-rule="evenodd" d="M14 25.25C20.2132 25.25 25.25 20.2132 25.25 14C25.25 7.7868 20.2132 2.75 14 2.75C7.7868 2.75 2.75 7.7868 2.75 14C2.75 20.2132 7.7868 25.25 14 25.25ZM15.5 8.5C15.5 7.67157 14.8284 7 14 7C13.1716 7 12.5 7.67157 12.5 8.5V14C12.5 14.3978 12.658 14.7794 12.9393 15.0607L16.4393 18.5607C17.0251 19.1464 17.9749 19.1464 18.5607 18.5607C19.1464 17.9749 19.1464 17.0251 18.5607 16.4393L15.5 13.3787V8.5Z" fill="white"/>
    <path opacity="0.32" fill-rule="evenodd" clip-rule="evenodd" d="M14 7C14.8284 7 15.5 7.67157 15.5 8.5V13.3787L18.5607 16.4393C19.1464 17.0251 19.1464 17.9749 18.5607 18.5607C17.9749 19.1464 17.0251 19.1464 16.4393 18.5607L12.9393 15.0607C12.658 14.7794 12.5 14.3978 12.5 14V8.5C12.5 7.67157 13.1716 7 14 7Z" fill="white"/>
</svg>
