<svg width="28" height="28" viewBox="0 0 28 28" fill="none" xmlns="http://www.w3.org/2000/svg">
    <path d="M3.00169 9C3.00979 7.83507 3.05658 7.16873 3.32698 6.63803C3.6146 6.07354 4.07354 5.6146 4.63803 5.32698C5.27976 5 6.11984 5 7.8 5L20.2 5C21.8802 5 22.7202 5 23.362 5.32698C23.9265 5.6146 24.3854 6.07354 24.673 6.63803C24.9434 7.16873 24.9902 7.83507 24.9983 9L3.00169 9Z" fill="white"/>
    <path fill-rule="evenodd" clip-rule="evenodd" d="M3 12V18.2C3 19.8802 3 20.7202 3.32698 21.362C3.6146 21.9265 4.07354 22.3854 4.63803 22.673C5.27976 23 6.11984 23 7.8 23H20.2C21.8802 23 22.7202 23 23.362 22.673C23.9265 22.3854 24.3854 21.9265 24.673 21.362C25 20.7202 25 19.8802 25 18.2V12H3ZM6 18.5C6 17.6716 6.67157 17 7.5 17H9.5C10.3284 17 11 17.6716 11 18.5C11 19.3284 10.3284 20 9.5 20H7.5C6.67157 20 6 19.3284 6 18.5Z" fill="white"/>
    <g opacity="0.32">
        <path d="M25 9L3 9V12L25 12V9Z" fill="white"/>
        <path d="M7.5 17C6.67157 17 6 17.6716 6 18.5C6 19.3284 6.67157 20 7.5 20H9.5C10.3284 20 11 19.3284 11 18.5C11 17.6716 10.3284 17 9.5 17H7.5Z" fill="white"/>
    </g>
</svg>
