<svg width="28" height="28" viewBox="0 0 28 28" fill="none" xmlns="http://www.w3.org/2000/svg">
<path fill-rule="evenodd" clip-rule="evenodd" d="M14 26C20.6274 26 26 20.6274 26 14C26 7.37258 20.6274 2 14 2C7.37258 2 2 7.37258 2 14C2 20.6274 7.37258 26 14 26ZM19.7071 11.7071C20.0976 11.3166 20.0976 10.6834 19.7071 10.2929C19.3166 9.90237 18.6834 9.90237 18.2929 10.2929L12 16.5858L9.70711 14.2929C9.31658 13.9024 8.68342 13.9024 8.29289 14.2929C7.90237 14.6834 7.90237 15.3166 8.29289 15.7071L11.2929 18.7071C11.6834 19.0976 12.3166 19.0976 12.7071 18.7071L19.7071 11.7071Z" fill="white"/>
</svg>
