<svg width="28" height="28" viewBox="0 0 28 28" fill="none" xmlns="http://www.w3.org/2000/svg">
<path opacity="0.32" fill-rule="evenodd" clip-rule="evenodd" d="M10 5.59848C10 5.17166 10 4.81004 10.0083 4.5H7.2C6.0799 4.5 5.51984 4.5 5.09202 4.71799C4.71569 4.90973 4.40973 5.21569 4.21799 5.59202C4 6.01984 4 6.57989 4 7.7V20.3C4 21.4201 4 21.9802 4.21799 22.408C4.40973 22.7843 4.71569 23.0903 5.09202 23.282C5.51984 23.5 6.0799 23.5 7.2 23.5H10.0083C10 23.19 10 22.8283 10 22.4015V5.59848ZM14.75 15.75C15.7165 15.75 16.5 14.9665 16.5 14C16.5 13.0335 15.7165 12.25 14.75 12.25C13.7835 12.25 13 13.0335 13 14C13 14.9665 13.7835 15.75 14.75 15.75Z" fill="white"/>
<path fill-rule="evenodd" clip-rule="evenodd" d="M10.2895 3.02518C10 3.50294 10 4.20146 10 5.59849V22.4015C10 23.7986 10 24.4971 10.2895 24.9748C10.5432 25.3936 10.9417 25.7047 11.4094 25.8493C11.9431 26.0142 12.6208 25.8448 13.9761 25.506L21.5761 23.606C22.4428 23.3893 22.8761 23.281 23.1988 23.0394C23.4834 22.8262 23.7061 22.541 23.8439 22.2131C24 21.8415 24 21.3949 24 20.5015V7.49849C24 6.60515 24 6.15848 23.8439 5.78688C23.7061 5.459 23.4834 5.17379 23.1988 4.96063C22.8761 4.71903 22.4428 4.6107 21.5761 4.39403L13.9761 2.49403C12.6208 2.1552 11.9431 1.98579 11.4094 2.15074C10.9417 2.29531 10.5432 2.60644 10.2895 3.02518ZM14.75 15.75C15.7165 15.75 16.5 14.9665 16.5 14C16.5 13.0335 15.7165 12.25 14.75 12.25C13.7835 12.25 13 13.0335 13 14C13 14.9665 13.7835 15.75 14.75 15.75Z" fill="white"/>
</svg>
