<svg width="28" height="28" viewBox="0 0 28 28" fill="none" xmlns="http://www.w3.org/2000/svg">
    <path d="M11.9999 5.00002C10.9879 5.00002 10.733 5.0095 10.5549 5.05017C9.80587 5.22112 9.22099 5.80599 9.05004 6.55498C9.00938 6.73314 8.9999 6.98805 8.9999 8.00002C8.9999 8.82845 8.32833 9.50002 7.4999 9.50002C6.67147 9.50002 5.9999 8.82845 5.9999 8.00002L5.99983 7.84342C5.99928 7.06899 5.99883 6.44132 6.12526 5.88742C6.55264 4.01494 8.01481 2.55276 9.88729 2.12538C10.4412 1.99896 11.0689 1.9994 11.8433 1.99995L14.9594 2.00002C15.8888 2 16.6757 1.99998 17.3208 2.05269C17.9972 2.10795 18.6488 2.22855 19.2699 2.54499C20.2107 3.02436 20.9756 3.78926 21.4549 4.73007C21.7714 5.35112 21.892 6.00269 21.9472 6.67908C21.9999 7.32423 21.9999 8.11112 21.9999 9.04049L21.9999 10.3787L22.9392 9.43936C23.525 8.85358 24.4748 8.85358 25.0606 9.43936C25.6463 10.0251 25.6463 10.9749 25.0606 11.5607L21.5606 15.0607C20.9748 15.6465 20.025 15.6465 19.4392 15.0607L15.9392 11.5607C15.3535 10.9749 15.3535 10.0251 15.9392 9.43936C16.525 8.85358 17.4748 8.85358 18.0606 9.43936L18.9999 10.3787V9.10002C18.9999 8.09518 18.9987 7.43176 18.9572 6.92338C18.9171 6.43251 18.8469 6.21968 18.7819 6.09204C18.5902 5.71572 18.2842 5.40976 17.9079 5.21801C17.7802 5.15297 17.5674 5.08283 17.0765 5.04273C16.5682 5.00119 15.9047 5.00002 14.8999 5.00002H11.9999Z" fill="white"/>
    <path opacity="0.32" d="M16 22.9998C17.0119 22.9998 17.2668 22.9903 17.4449 22.9496C18.1939 22.7787 18.7788 22.1938 18.9498 21.4448C18.9902 21.2678 18.9998 21.015 18.9999 20.0191C18.9999 20.0128 18.9998 20.0064 18.9998 19.9999C18.9998 19.1715 19.6714 18.4999 20.4998 18.4999C21.3282 18.4999 21.9998 19.1715 21.9998 19.9999C21.9998 19.9999 21.9998 20 21.9998 19.9999L22 20.1566C22.0005 20.9309 22.001 21.5585 21.8745 22.1124C21.4471 23.9849 19.9849 25.4471 18.1124 25.8744C17.5586 26.0008 16.931 26.0004 16.1566 25.9998L13.0403 25.9998C12.1109 25.9998 11.324 25.9998 10.6789 25.9471C10.0025 25.8918 9.35091 25.7712 8.72986 25.4548C7.78905 24.9754 7.02415 24.2105 6.54478 23.2697C6.22834 22.6487 6.10775 21.9971 6.05248 21.3207C5.99977 20.6755 5.99979 19.8887 5.99982 18.9593L5.99982 17.6214L5.06069 18.5606C4.47492 19.1464 3.52517 19.1464 2.93937 18.5606C2.35357 17.9749 2.35354 17.0251 2.93931 16.4393L6.43913 12.9393C6.72043 12.658 7.10195 12.4999 7.49978 12.4999C7.8976 12.4999 8.27914 12.658 8.56045 12.9393L12.0606 16.4393C12.6464 17.025 12.6465 17.9748 12.0607 18.5606C11.4749 19.1464 10.5252 19.1464 9.93937 18.5606L8.99982 17.6211V18.8998C8.99982 19.9046 9.00098 20.568 9.04252 21.0764C9.08263 21.5673 9.15277 21.7801 9.2178 21.9077C9.40955 22.2841 9.71551 22.59 10.0918 22.7818C10.2195 22.8468 10.4323 22.9169 10.9232 22.9571C11.4316 22.9986 12.095 22.9998 13.0998 22.9998H16Z" fill="white"/>
</svg>
