<svg width="28" height="28" viewBox="0 0 28 28" fill="none" xmlns="http://www.w3.org/2000/svg">
<path fill-rule="evenodd" clip-rule="evenodd" d="M4.43597 5.18404C4 6.03969 4 7.15979 4 9.4V18.6C4 20.8402 4 21.9603 4.43597 22.816C4.81947 23.5686 5.43139 24.1805 6.18404 24.564C7.03969 25 8.15979 25 10.4 25H17.6C19.8402 25 20.9603 25 21.816 24.564C22.5686 24.1805 23.1805 23.5686 23.564 22.816C24 21.9603 24 20.8402 24 18.6V11H20.8C19.1198 11 18.2798 11 17.638 10.673C17.0735 10.3854 16.6146 9.92646 16.327 9.36197C16 8.72024 16 7.88016 16 6.2V3H10.4C8.15979 3 7.03969 3 6.18404 3.43597C5.43139 3.81947 4.81947 4.43139 4.43597 5.18404ZM7 20.5C7 19.6716 7.67157 19 8.5 19H15.5C16.3284 19 17 19.6716 17 20.5C17 21.3284 16.3284 22 15.5 22H8.5C7.67157 22 7 21.3284 7 20.5ZM8.5 14C7.67157 14 7 14.6716 7 15.5C7 16.3284 7.67157 17 8.5 17H11.5C12.3284 17 13 16.3284 13 15.5C13 14.6716 12.3284 14 11.5 14H8.5Z" fill="white"/>
<g opacity="0.32">
<path d="M16 3L24 11H20.8C19.1198 11 18.2798 11 17.638 10.673C17.0735 10.3854 16.6146 9.92646 16.327 9.36197C16 8.72024 16 7.88016 16 6.2V3Z" fill="white"/>
<path d="M7 15.5C7 14.6716 7.67157 14 8.5 14H11.5C12.3284 14 13 14.6716 13 15.5C13 16.3284 12.3284 17 11.5 17H8.5C7.67157 17 7 16.3284 7 15.5Z" fill="white"/>
<path d="M7 20.5C7 19.6716 7.67157 19 8.5 19H15.5C16.3284 19 17 19.6716 17 20.5C17 21.3284 16.3284 22 15.5 22H8.5C7.67157 22 7 21.3284 7 20.5Z" fill="white"/>
</g>
</svg>
