<svg width="28" height="28" viewBox="0 0 28 28" fill="none" xmlns="http://www.w3.org/2000/svg">
    <path fill-rule="evenodd" clip-rule="evenodd" d="M5.45228 14.6862C5.30025 14.4126 5.18194 14.1783 5.09639 14C5.18194 13.8217 5.30025 13.5874 5.45228 13.3138C5.81867 12.6543 6.37444 11.7775 7.13069 10.9049C8.64778 9.15444 10.8954 7.5 14 7.5C17.1046 7.5 19.3522 9.15444 20.8693 10.9049C21.6256 11.7775 22.1813 12.6543 22.5477 13.3138C22.6998 13.5874 22.8181 13.8217 22.9036 14C22.8181 14.1783 22.6998 14.4126 22.5477 14.6862C22.1813 15.3457 21.6256 16.2225 20.8693 17.0951C19.3522 18.8456 17.1046 20.5 14 20.5C10.8954 20.5 8.64778 18.8456 7.13069 17.0951C6.37444 16.2225 5.81867 15.3457 5.45228 14.6862ZM24.9282 13.6278C24.9283 13.6282 24.9285 13.6286 24 14C24.9285 14.3714 24.9283 14.3718 24.9282 14.3722L24.9278 14.3732L24.9267 14.3757L24.9239 14.3827L24.9148 14.4049C24.9072 14.4231 24.8966 14.4484 24.8829 14.4801C24.8555 14.5436 24.8159 14.6332 24.7636 14.7452C24.6592 14.9689 24.5041 15.2831 24.296 15.6575C23.8812 16.4043 23.2494 17.4025 22.3807 18.4049C20.6478 20.4044 17.8954 22.5 14 22.5C10.1046 22.5 7.35222 20.4044 5.61931 18.4049C4.75056 17.4025 4.11883 16.4043 3.70397 15.6575C3.49594 15.2831 3.34082 14.9689 3.2364 14.7452C3.18414 14.6332 3.14447 14.5436 3.1171 14.4801C3.10342 14.4484 3.0928 14.4231 3.08521 14.4049L3.07611 14.3827L3.07325 14.3757L3.07225 14.3732L3.07185 14.3722C3.07168 14.3718 3.07152 14.3714 4 14C3.07152 13.6286 3.07168 13.6282 3.07185 13.6278L3.07225 13.6268L3.07325 13.6243L3.07611 13.6173L3.08521 13.5951C3.0928 13.5769 3.10342 13.5516 3.1171 13.5199C3.14447 13.4564 3.18414 13.3668 3.2364 13.2548C3.34082 13.0311 3.49594 12.7169 3.70397 12.3425C4.11883 11.5957 4.75056 10.5975 5.61931 9.59507C7.35222 7.59556 10.1046 5.5 14 5.5C17.8954 5.5 20.6478 7.59556 22.3807 9.59507C23.2494 10.5975 23.8812 11.5957 24.296 12.3425C24.5041 12.7169 24.6592 13.0311 24.7636 13.2548C24.8159 13.3668 24.8555 13.4564 24.8829 13.5199C24.8966 13.5516 24.9072 13.5769 24.9148 13.5951L24.9239 13.6173L24.9267 13.6243L24.9278 13.6268L24.9282 13.6278ZM24 14L24.9285 13.6286C25.0238 13.867 25.0238 14.133 24.9285 14.3714L24 14ZM3.07152 13.6286L4 14L3.07152 14.3714C2.97616 14.133 2.97616 13.867 3.07152 13.6286ZM14 17.75C16.0711 17.75 17.75 16.0711 17.75 14C17.75 11.9289 16.0711 10.25 14 10.25C11.9289 10.25 10.25 11.9289 10.25 14C10.25 16.0711 11.9289 17.75 14 17.75Z" fill="white"/>
</svg>
