<svg width="28" height="28" viewBox="0 0 28 28" fill="none" xmlns="http://www.w3.org/2000/svg">
    <path fill-rule="evenodd" clip-rule="evenodd" d="M23.7072 5.70711C24.0977 5.31658 24.0977 4.68342 23.7072 4.29289C23.3167 3.90237 22.6835 3.90237 22.293 4.29289L19.4962 7.08967C18.0033 6.15561 16.1741 5.5 14.0003 5.5C10.105 5.5 7.35255 7.59556 5.61964 9.59507C4.75089 10.5975 4.11916 11.5957 3.70429 12.3425C3.49626 12.7169 3.34115 13.0311 3.23672 13.2548C3.18447 13.3668 3.14479 13.4564 3.11743 13.5199C3.10374 13.5516 3.09312 13.5769 3.08554 13.5951L3.07643 13.6173L3.07358 13.6243L3.07257 13.6268L3.07217 13.6278C3.07217 13.6278 3.07185 13.6286 4.00032 14L3.07217 13.6278C2.97681 13.8662 2.97649 14.133 3.07185 14.3714L4.00032 14C3.07185 14.3714 3.07185 14.3714 3.07185 14.3714L3.07227 14.3725L3.07281 14.3738L3.07423 14.3773L3.07841 14.3876L3.09224 14.4209C3.10388 14.4487 3.12041 14.4874 3.14188 14.5362C3.18482 14.6338 3.24764 14.7717 3.33088 14.9424C3.49717 15.2833 3.74605 15.7572 4.08216 16.3028C4.6986 17.3034 5.6231 18.5689 6.89016 19.6957L4.29297 22.2929C3.90245 22.6834 3.90245 23.3166 4.29297 23.7071C4.6835 24.0976 5.31666 24.0976 5.70719 23.7071L23.7072 5.70711ZM8.30724 18.2786L18.0364 8.54942C16.9006 7.91715 15.5637 7.5 14.0003 7.5C10.8957 7.5 8.64811 9.15444 7.13102 10.9049C6.37476 11.7775 5.81899 12.6543 5.45261 13.3138C5.30057 13.5874 5.18226 13.8217 5.09671 14L5.12846 14.0656C5.2706 14.3571 5.48834 14.7723 5.78495 15.2537C6.34978 16.1705 7.18508 17.302 8.30724 18.2786Z" fill="white"/>
    <path d="M21.8244 10.4326C22.2715 10.1083 22.8968 10.2078 23.2211 10.6548C23.7968 11.4484 24.2192 12.1815 24.4988 12.7187C24.6389 12.9877 24.7439 13.209 24.8151 13.3659C24.8507 13.4444 24.8778 13.5069 24.8967 13.5514C24.9062 13.5736 24.9136 13.5913 24.9189 13.6043L24.9254 13.6201L24.9275 13.6253L24.9283 13.6272L24.9287 13.6283C24.9287 13.6283 24.9289 13.6286 24.0004 14C24.9289 14.3714 24.9285 14.3722 24.9285 14.3722L24.9271 14.3757L24.9243 14.3828L24.9152 14.4049C24.9076 14.4232 24.897 14.4484 24.8833 14.4801C24.8559 14.5436 24.8162 14.6332 24.764 14.7452C24.6596 14.969 24.5044 15.2831 24.2964 15.6575C23.8815 16.4043 23.2498 17.4026 22.3811 18.405C20.6482 20.4045 17.8958 22.5 14.0004 22.5C13.3464 22.5 12.7216 22.4406 12.126 22.3312C11.5828 22.2313 11.2234 21.7101 11.3232 21.1669C11.423 20.6237 11.9443 20.2643 12.4875 20.3641C12.9644 20.4517 13.4682 20.5 14.0004 20.5C17.105 20.5 19.3526 18.8456 20.8697 17.0951C21.6259 16.2225 22.1817 15.3457 22.5481 14.6863C22.7001 14.4126 22.8184 14.1783 22.904 14C22.8551 13.8981 22.7955 13.7778 22.7249 13.6423C22.4808 13.1734 22.1088 12.5275 21.6022 11.8293C21.2779 11.3822 21.3774 10.7569 21.8244 10.4326Z" fill="white"/>
    <path d="M24.0004 14L24.9287 13.6283C25.0241 13.8667 25.0239 14.1338 24.9285 14.3722L24.0004 14Z" fill="white"/>
</svg>
