<svg width="28" height="28" viewBox="0 0 28 28" fill="none" xmlns="http://www.w3.org/2000/svg">
<path d="M2.93053 11.1923C2.51549 11.0433 2.30266 10.5434 2.52614 9.96901C4.50553 4.8101 8.85808 2.00195 14.0513 2.00195C16.1052 2.00195 17.7547 2.34233 19.4255 3.35284C19.8299 3.59749 20.0002 3.93787 19.8193 4.34208C19.6064 4.78883 19.1382 4.78883 18.638 4.54418C17.3503 3.88469 15.9243 3.5124 14.0513 3.5124C9.65622 3.5124 5.67614 6.09717 3.98408 10.6817C3.81381 11.1391 3.37749 11.3518 2.93053 11.1923ZM4.56938 20.957C4.33526 20.6379 4.39911 20.2017 4.71837 19.9039C5.17597 19.4678 5.45266 18.8189 5.45266 18.085C5.44202 16.9894 4.76094 15.7768 4.76094 13.9898C4.76094 8.9266 8.94321 4.73564 14.0194 4.73564C19.9682 4.73564 23.8845 9.51163 23.8845 16.5852C23.8845 19.2976 23.3843 21.2016 22.9799 22.2972C22.8203 22.7227 22.3095 22.8929 21.9264 22.7121C21.5645 22.5312 21.4155 22.0845 21.5858 21.6803C21.9583 20.7761 22.3733 19.0849 22.3733 16.5958C22.3627 10.4051 19.0637 6.24609 14.0194 6.24609C9.77328 6.24609 6.27209 9.74564 6.27209 13.9898C6.27209 15.7981 6.92125 16.5745 6.92125 18.0956C6.92125 19.2976 6.49557 20.4038 5.69743 21.074C5.3356 21.3824 4.82479 21.308 4.56938 20.957ZM25.7042 15.3194C25.2786 15.3194 24.9912 14.9896 24.9487 14.5429C24.5975 10.7881 23.2034 8.25647 21.0005 6.11845C20.6387 5.77806 20.6068 5.33131 20.8834 5.03348C21.1389 4.73564 21.6177 4.66119 21.9689 4.99093C24.4911 7.30978 25.9703 10.0116 26.396 14.5003C26.4385 14.9577 26.1406 15.3194 25.7042 15.3194ZM9.66686 16.7554C9.81585 17.2021 9.65622 17.6276 9.26247 17.7872C8.80487 17.968 8.36855 17.7872 8.18764 17.3298C7.8471 16.4682 7.49591 15.3088 7.49591 14.0217C7.49591 10.4051 10.4224 7.47997 14.0513 7.47997C15.1794 7.47997 16.1797 7.73526 16.9247 8.17137C17.361 8.42666 17.4674 8.88405 17.2652 9.25634C17.1056 9.57545 16.7331 9.69245 16.3287 9.50099C15.4348 9.09679 15.1049 8.99042 14.0513 8.99042C11.2525 8.99042 9.02835 11.2242 9.02835 14.0217C9.02835 15.1705 9.40082 16.0321 9.66686 16.7554ZM18.1804 11.0859C17.9037 10.6498 17.9782 10.1392 18.3932 9.92647C18.7657 9.72437 19.2446 9.86264 19.4894 10.2881C20.4152 11.8624 21.1495 13.66 21.1495 17.117C21.1495 20.1273 20.2769 23.0524 18.904 24.9033C18.638 25.2543 18.1059 25.2862 17.7654 24.9884C17.478 24.7118 17.4887 24.2544 17.7441 23.9247C18.9147 22.478 19.6596 19.8826 19.6596 17.1489C19.6596 14.5961 19.1488 12.5963 18.1804 11.0859ZM9.63494 24.4565C9.2944 24.765 8.79423 24.7224 8.51754 24.3395C8.29406 23.9885 8.35791 23.563 8.70909 23.2758C10.1564 22.0951 10.9545 20.2017 10.9439 18.0637C10.9333 16.5639 10.2735 15.0428 10.2735 13.7664C10.2735 11.6709 11.8804 10.2243 14.0407 10.2243C17.0098 10.2243 18.2655 12.8942 18.2868 16.9468C18.2975 20.6166 16.914 24.1693 15.1155 25.7968C14.775 26.1159 14.2429 26.0521 13.9875 25.6798C13.7746 25.35 13.8491 24.9245 14.1578 24.6586C15.8179 23.2333 16.9672 20.3081 16.8608 17.0532C16.7757 13.8728 15.9882 11.7347 14.0407 11.7347C12.6785 11.7347 11.7633 12.5857 11.7633 13.894C11.7633 14.9152 12.455 16.0959 12.4657 18.0637C12.4763 20.6485 11.4547 22.9993 9.63494 24.4565ZM3.45198 17.8297C3.03695 17.968 2.61127 17.734 2.48357 17.2872C2.05789 15.7768 1.94083 14.4472 2.02597 13.192C2.05789 12.7133 2.40908 12.4155 2.88796 12.4687C3.28171 12.5219 3.54776 12.8197 3.53712 13.2558C3.50519 14.745 3.65418 15.7555 3.93087 16.8617C4.02665 17.3085 3.83509 17.7127 3.45198 17.8297ZM15.2326 19.2019C15.1475 19.6593 14.7537 19.9252 14.3174 19.8507C13.8704 19.7763 13.6789 19.3933 13.7427 18.9785C13.9768 17.5957 13.8917 16.1491 13.4128 14.5535C13.2851 14.1174 13.5086 13.7345 13.9023 13.6068C14.328 13.4792 14.7218 13.6919 14.8708 14.1706C15.4029 15.8406 15.5093 17.6595 15.2326 19.2019ZM7.32564 23.0205C6.86804 23.2545 6.42108 23.1056 6.26145 22.7333C6.11246 22.3823 6.21888 21.9887 6.64456 21.6909C7.40013 21.1697 7.87902 20.5102 8.16635 19.6486C8.31534 19.2231 8.71973 18.9891 9.10284 19.1274C9.49659 19.2551 9.69879 19.7018 9.57109 20.0954C9.25183 21.1803 8.19828 22.5844 7.32564 23.0205ZM12.2316 25.3394C11.8485 25.6053 11.3376 25.5415 11.1142 25.1798C10.8907 24.8394 10.9758 24.3927 11.3057 24.1268C12.04 23.5205 12.636 22.7333 13.1042 21.5633C13.2745 21.1591 13.6469 20.9251 14.1045 21.0846C14.5089 21.2229 14.6473 21.6909 14.4983 22.0845C14.03 23.4141 13.0936 24.7012 12.2316 25.3394Z" fill="white"/>
</svg>
