<svg width="28" height="28" viewBox="0 0 19 28" fill="none" xmlns="http://www.w3.org/2000/svg">
    <g clip-path="url(#clip0_16_47021)">
        <path fill-rule="evenodd" clip-rule="evenodd" d="M6.1322 2.54387C4.4792 2.62249 3.40468 2.842 2.56107 3.45492C2.1366 3.76331 1.76331 4.1366 1.45492 4.56107C0.5 5.8754 0.5 7.75027 0.5 11.5V18C0.5 21.7497 0.5 23.6246 1.45492 24.9389C1.76331 25.3634 2.1366 25.7367 2.56107 26.0451C3.8754 27 5.75027 27 9.5 27C13.2497 27 15.1246 27 16.4389 26.0451C16.8634 25.7367 17.2367 25.3634 17.5451 24.9389C18.5 23.6246 18.5 21.7497 18.5 18V11.5C18.5 7.75027 18.5 5.8754 17.5451 4.56107C17.2367 4.1366 16.8634 3.76331 16.4389 3.45492C15.5953 2.842 14.5208 2.62249 12.8678 2.54387C12.4518 1.07563 11.1015 0 9.5 0C7.8985 0 6.54822 1.07563 6.1322 2.54387ZM2 10.3C2 7.67519 2 6.36278 2.66844 5.44275C2.88432 5.14562 3.14562 4.88432 3.44275 4.66844C4.36278 4 5.67519 4 8.3 4H10.7C13.3248 4 14.6372 4 15.5572 4.66844C15.8544 4.88432 16.1157 5.14562 16.3316 5.44275C17 6.36278 17 7.67519 17 10.3V19.2C17 21.8248 17 23.1372 16.3316 24.0572C16.1157 24.3544 15.8544 24.6157 15.5572 24.8316C14.6372 25.5 13.3248 25.5 10.7 25.5H8.3C5.67519 25.5 4.36278 25.5 3.44275 24.8316C3.14562 24.6157 2.88432 24.3544 2.66844 24.0572C2 23.1372 2 21.8248 2 19.2V10.3Z" fill="#2E3847"/>
        <g clip-path="url(#clip1_16_47021)">
            <path d="M3.5 8.7C3.5 7.57989 3.5 7.01984 3.71799 6.59202C3.90973 6.21569 4.21569 5.90973 4.59202 5.71799C5.01984 5.5 5.5799 5.5 6.7 5.5H12.3C13.4201 5.5 13.9802 5.5 14.408 5.71799C14.7843 5.90973 15.0903 6.21569 15.282 6.59202C15.5 7.01984 15.5 7.57989 15.5 8.7V20.8C15.5 21.9201 15.5 22.4802 15.282 22.908C15.0903 23.2843 14.7843 23.5903 14.408 23.782C13.9802 24 13.4201 24 12.3 24H6.7C5.57989 24 5.01984 24 4.59202 23.782C4.21569 23.5903 3.90973 23.2843 3.71799 22.908C3.5 22.4802 3.5 21.9201 3.5 20.8V8.7Z" fill="#556170"/>
        </g>
    </g>
    <defs>
        <clipPath id="clip0_16_47021">
            <rect width="18" height="28" fill="white" transform="translate(0.5)"/>
        </clipPath>
        <clipPath id="clip1_16_47021">
            <rect width="12" height="18.5" fill="white" transform="translate(3.5 5.5)"/>
        </clipPath>
    </defs>
</svg>
