<svg width="28" height="28" viewBox="0 0 28 28" fill="none" xmlns="http://www.w3.org/2000/svg">
<path fill-rule="evenodd" clip-rule="evenodd" d="M7.57348 4.41047C9.44066 3.51131 11.5344 3.00708 13.7481 3.00708C15.7761 3.00708 17.7033 3.43028 19.4478 4.19248C19.8274 4.35832 20.2695 4.18506 20.4353 3.80549C20.6012 3.42592 20.4279 2.98379 20.0484 2.81795C18.1181 1.97456 15.9867 1.50708 13.7481 1.50708C11.3043 1.50708 8.9885 2.06418 6.92267 3.05901C6.54947 3.23873 6.39263 3.68695 6.57234 4.06015C6.75206 4.43334 7.20029 4.59019 7.57348 4.41047ZM13.748 6.00708C10.1956 6.00708 7.02806 7.65273 4.9651 10.2262C4.70602 10.5494 4.234 10.6013 3.91081 10.3423C3.58762 10.0832 3.53565 9.61117 3.79472 9.28798C6.13013 6.37466 9.7212 4.50708 13.748 4.50708C18.0145 4.50708 21.7915 6.60349 24.1047 9.8191C24.3466 10.1554 24.2701 10.624 23.9338 10.8659C23.5976 11.1078 23.1289 11.0313 22.887 10.6951C20.8436 7.8544 17.5115 6.00708 13.748 6.00708ZM5.49807 17.2571C5.49807 12.7007 9.19172 9.00708 13.7481 9.00708C18.3044 9.00708 21.9981 12.7007 21.9981 17.2571C21.9981 18.4997 20.9907 19.5071 19.7481 19.5071C18.5054 19.5071 17.4981 18.4997 17.4981 17.2571C17.4981 15.186 15.8191 13.5071 13.7481 13.5071C11.677 13.5071 9.99807 15.186 9.99807 17.2571C9.99807 21.5035 12.7123 25.114 16.4981 26.4521C16.8887 26.5901 17.3172 26.3854 17.4552 25.9949C17.5932 25.6044 17.3885 25.1759 16.998 25.0378C13.7927 23.9049 11.4981 20.848 11.4981 17.2571C11.4981 16.0144 12.5054 15.0071 13.7481 15.0071C14.9907 15.0071 15.9981 16.0144 15.9981 17.2571C15.9981 19.3281 17.677 21.0071 19.7481 21.0071C21.8191 21.0071 23.4981 19.3281 23.4981 17.2571C23.4981 11.8723 19.1329 7.50708 13.7481 7.50708C8.3633 7.50708 3.99807 11.8723 3.99807 17.2571C3.99807 19.2531 4.36974 21.1641 5.04832 22.9234C5.19739 23.3099 5.63151 23.5023 6.01798 23.3532C6.40444 23.2042 6.59689 22.77 6.44783 22.3836C5.83462 20.7938 5.49807 19.0656 5.49807 17.2571ZM13.7481 12.0071C10.8486 12.0071 8.49807 14.3576 8.49807 17.2571C8.49807 19.7071 9.2804 21.9722 10.609 23.8191C10.8509 24.1554 10.7744 24.624 10.4381 24.8659C10.1019 25.1078 9.63322 25.0313 9.39134 24.6951C7.88527 22.6015 6.99807 20.0318 6.99807 17.2571C6.99807 13.5292 10.0202 10.5071 13.7481 10.5071C17.476 10.5071 20.4981 13.5292 20.4981 17.2571C20.4981 17.6713 20.1623 18.0071 19.7481 18.0071C19.3339 18.0071 18.9981 17.6713 18.9981 17.2571C18.9981 14.3576 16.6476 12.0071 13.7481 12.0071ZM13.7481 16.5071C14.1623 16.5071 14.4981 16.8429 14.4981 17.2571C14.4981 19.8577 16.3897 22.018 18.8722 22.4345C19.2807 22.503 19.5563 22.8897 19.4877 23.2982C19.4192 23.7067 19.0325 23.9823 18.624 23.9138C15.431 23.3781 12.9981 20.6024 12.9981 17.2571C12.9981 16.8429 13.3339 16.5071 13.7481 16.5071Z" fill="white"/>
<path d="M7.57348 4.41047C9.44066 3.51131 11.5344 3.00708 13.7481 3.00708C15.7761 3.00708 17.7033 3.43028 19.4478 4.19248C19.8274 4.35832 20.2695 4.18506 20.4353 3.80549C20.6012 3.42592 20.4279 2.98379 20.0484 2.81795C18.1181 1.97456 15.9867 1.50708 13.7481 1.50708C11.3043 1.50708 8.9885 2.06418 6.92267 3.05901C6.54947 3.23873 6.39263 3.68695 6.57234 4.06015C6.75206 4.43334 7.20029 4.59019 7.57348 4.41047Z" fill="white"/>
<path d="M13.748 6.00708C10.1956 6.00708 7.02806 7.65273 4.9651 10.2262C4.70602 10.5494 4.234 10.6013 3.91081 10.3423C3.58762 10.0832 3.53565 9.61117 3.79472 9.28798C6.13013 6.37466 9.7212 4.50708 13.748 4.50708C18.0145 4.50708 21.7915 6.60349 24.1047 9.8191C24.3466 10.1554 24.2701 10.624 23.9338 10.8659C23.5976 11.1078 23.1289 11.0313 22.887 10.6951C20.8436 7.8544 17.5115 6.00708 13.748 6.00708Z" fill="white"/>
<path d="M5.49807 17.2571C5.49807 12.7007 9.19172 9.00708 13.7481 9.00708C18.3044 9.00708 21.9981 12.7007 21.9981 17.2571C21.9981 18.4997 20.9907 19.5071 19.7481 19.5071C18.5054 19.5071 17.4981 18.4997 17.4981 17.2571C17.4981 15.186 15.8191 13.5071 13.7481 13.5071C11.677 13.5071 9.99807 15.186 9.99807 17.2571C9.99807 21.5035 12.7123 25.114 16.4981 26.4521C16.8887 26.5901 17.3172 26.3854 17.4552 25.9949C17.5932 25.6044 17.3885 25.1759 16.998 25.0378C13.7927 23.9049 11.4981 20.848 11.4981 17.2571C11.4981 16.0144 12.5054 15.0071 13.7481 15.0071C14.9907 15.0071 15.9981 16.0144 15.9981 17.2571C15.9981 19.3281 17.677 21.0071 19.7481 21.0071C21.8191 21.0071 23.4981 19.3281 23.4981 17.2571C23.4981 11.8723 19.1329 7.50708 13.7481 7.50708C8.3633 7.50708 3.99807 11.8723 3.99807 17.2571C3.99807 19.2531 4.36974 21.1641 5.04832 22.9234C5.19739 23.3099 5.63151 23.5023 6.01798 23.3532C6.40444 23.2042 6.59689 22.77 6.44783 22.3836C5.83462 20.7938 5.49807 19.0656 5.49807 17.2571Z" fill="white"/>
<path d="M13.7481 12.0071C10.8486 12.0071 8.49807 14.3576 8.49807 17.2571C8.49807 19.7071 9.2804 21.9722 10.609 23.8191C10.8509 24.1554 10.7744 24.624 10.4381 24.8659C10.1019 25.1078 9.63322 25.0313 9.39134 24.6951C7.88527 22.6015 6.99807 20.0318 6.99807 17.2571C6.99807 13.5292 10.0202 10.5071 13.7481 10.5071C17.476 10.5071 20.4981 13.5292 20.4981 17.2571C20.4981 17.6713 20.1623 18.0071 19.7481 18.0071C19.3339 18.0071 18.9981 17.6713 18.9981 17.2571C18.9981 14.3576 16.6476 12.0071 13.7481 12.0071Z" fill="white"/>
<path d="M13.7481 16.5071C14.1623 16.5071 14.4981 16.8429 14.4981 17.2571C14.4981 19.8577 16.3897 22.018 18.8722 22.4345C19.2807 22.503 19.5563 22.8897 19.4877 23.2982C19.4192 23.7067 19.0325 23.9823 18.624 23.9138C15.431 23.3781 12.9981 20.6024 12.9981 17.2571C12.9981 16.8429 13.3339 16.5071 13.7481 16.5071Z" fill="white"/>
</svg>
