<svg width="28" height="28" viewBox="0 0 28 28" fill="none" xmlns="http://www.w3.org/2000/svg">
<path fill-rule="evenodd" clip-rule="evenodd" d="M7.95984 3L8 3H8.94693C9.49921 3 9.94693 3.44772 9.94693 4C9.94693 4.55229 9.49921 5 8.94693 5H8C7.28343 5 6.80615 5.00078 6.43944 5.03074C6.0844 5.05975 5.92194 5.11105 5.81902 5.16349C5.53677 5.3073 5.3073 5.53677 5.16349 5.81902C5.11105 5.92194 5.05975 6.0844 5.03074 6.43944C5.00078 6.80615 5 7.28343 5 8V8.94449C5 9.49677 4.55229 9.94449 4 9.94449C3.44772 9.94449 3 9.49677 3 8.94449V8V7.95984V7.9598C2.99999 7.29395 2.99997 6.73444 3.03738 6.27658C3.0765 5.79785 3.16144 5.34289 3.38148 4.91104C3.71704 4.25247 4.25247 3.71704 4.91104 3.38148C5.34289 3.16144 5.79785 3.0765 6.27657 3.03738C6.73443 2.99998 7.29393 2.99999 7.95977 3H7.95984ZM21.5606 5.03074C21.1939 5.00078 20.7166 5 20 5H19.058C18.5058 5 18.058 4.55229 18.058 4C18.058 3.44772 18.5058 3 19.058 3H20L20.0402 3H20.0402C20.7061 2.99999 21.2656 2.99998 21.7234 3.03738C22.2022 3.0765 22.6571 3.16144 23.089 3.38148C23.7475 3.71704 24.283 4.25247 24.6185 4.91104C24.8386 5.34289 24.9235 5.79785 24.9626 6.27658C25 6.73442 25 7.29389 25 7.95971V7.95973V7.95976V7.95979V7.95982V8V8.94449C25 9.49677 24.5523 9.94449 24 9.94449C23.4477 9.94449 23 9.49677 23 8.94449V8C23 7.28344 22.9992 6.80615 22.9693 6.43944C22.9403 6.0844 22.889 5.92194 22.8365 5.81902C22.6927 5.53677 22.4632 5.3073 22.181 5.16349C22.0781 5.11105 21.9156 5.05975 21.5606 5.03074ZM4 18C4.55229 18 5 18.4477 5 19V20C5 20.7166 5.00078 21.1939 5.03074 21.5606C5.05975 21.9156 5.11105 22.0781 5.16349 22.181C5.3073 22.4632 5.53677 22.6927 5.81902 22.8365C5.92194 22.889 6.0844 22.9403 6.43944 22.9693C6.80615 22.9992 7.28344 23 8 23H9C9.55229 23 10 23.4477 10 24C10 24.5523 9.55229 25 9 25H8H7.95982H7.95979H7.95976H7.95974H7.95971C7.29389 25 6.73442 25 6.27657 24.9626C5.79785 24.9235 5.34289 24.8386 4.91104 24.6185C4.25247 24.283 3.71704 23.7475 3.38148 23.089C3.16144 22.6571 3.0765 22.2022 3.03738 21.7234C2.99997 21.2656 2.99999 20.7061 3 20.0402V20.0402V20V19C3 18.4477 3.44772 18 4 18ZM24 18C24.5523 18 25 18.4477 25 19V20V20.0402V20.0402V20.0402V20.0403V20.0403C25 20.7061 25 21.2656 24.9626 21.7234C24.9235 22.2022 24.8386 22.6571 24.6185 23.089C24.283 23.7475 23.7475 24.283 23.089 24.6185C22.6571 24.8386 22.2022 24.9235 21.7234 24.9626C21.2656 25 20.7061 25 20.0403 25H20.0403H20.0402H20.0402H20.0402H20H19C18.4477 25 18 24.5523 18 24C18 23.4477 18.4477 23 19 23H20C20.7166 23 21.1939 22.9992 21.5606 22.9693C21.9156 22.9403 22.0781 22.889 22.181 22.8365C22.4632 22.6927 22.6927 22.4632 22.8365 22.181C22.889 22.0781 22.9403 21.9156 22.9693 21.5606C22.9992 21.1939 23 20.7166 23 20V19C23 18.4477 23.4477 18 24 18ZM8.5 10C8.5 9.44772 8.94772 9 9.5 9C10.0523 9 10.5 9.44772 10.5 10V11.5C10.5 12.0523 10.0523 12.5 9.5 12.5C8.94772 12.5 8.5 12.0523 8.5 11.5V10ZM18.5 9C17.9477 9 17.5 9.44772 17.5 10V11.5C17.5 12.0523 17.9477 12.5 18.5 12.5C19.0523 12.5 19.5 12.0523 19.5 11.5V10C19.5 9.44772 19.0523 9 18.5 9ZM14.003 8.99995C14.5553 9.00024 15.0028 9.44819 15.0025 10.0005L15.0002 14.3618C14.9998 15.1286 14.3781 15.7499 13.6113 15.7499H12.5C11.9477 15.7499 11.5 15.3022 11.5 14.7499C11.5 14.1977 11.9477 13.7499 12.5 13.7499H13.0005L13.0025 9.99942C13.0028 9.44713 13.4507 8.99965 14.003 8.99995ZM11.6002 17.7005C11.1586 17.3688 10.5318 17.4578 10.2 17.8993C9.86828 18.3409 9.95729 18.9678 10.3988 19.2995C11.4018 20.0531 12.6502 20.5 14 20.5C15.3498 20.5 16.5982 20.0531 17.6012 19.2995C18.0427 18.9678 18.1317 18.3409 17.8 17.8993C17.4682 17.4578 16.8414 17.3688 16.3998 17.7005C15.7313 18.2028 14.9018 18.5 14 18.5C13.0982 18.5 12.2687 18.2028 11.6002 17.7005Z" fill="white"/>
</svg>
