<svg width="28" height="28" viewBox="0 0 28 28" fill="none" xmlns="http://www.w3.org/2000/svg">
<path opacity="0.32" d="M7 13.001L6.5 16.501L7 21.001L12.5 25.001L18 24.001L21.5 19.501L18 16.001L14 15.001L12.5 9.50098L7 13.001Z" fill="#8994A3"/>
<path fill-rule="evenodd" clip-rule="evenodd" d="M14 26.501C19.5 26.501 23.5 22.001 23.5 17.001C23.5 14.7397 22.8687 13.3622 22.2406 12.5513C21.9243 12.143 21.7662 11.9388 21.428 12.0074C21.0898 12.076 20.9971 12.4264 20.8115 13.1273C20.276 15.1497 18.7345 15.3725 17.9583 14.5946C17.2164 13.8511 17.5226 12.7545 17.9076 11.3755C18.1835 10.3871 18.5 9.25357 18.5 8.001C18.5 6.69376 18.1203 3.10803 14.0513 1.54613C13.252 1.23931 12.8523 1.0859 12.4848 1.29031C12.1174 1.49472 12.0141 2.03479 11.8074 3.11494C11.2613 5.97001 9.63965 7.80429 8.06236 9.58838C6.25195 11.6362 4.5 13.6178 4.5 17.001C4.5 22.001 8.5 26.501 14 26.501ZM9.79809 12.4448C8.65141 13.2242 7.5 14.9519 7.5 17.001C7.5 19.4734 8.8723 21.6964 11 22.7885C13.4384 24.0401 16 23.001 16 20.501C16 18.8654 15.064 18.2708 14.002 17.596C12.7893 16.8255 11.4123 15.9506 11.0767 13.3024C11.0007 12.7032 10.9628 12.4036 10.631 12.2539C10.2993 12.1042 10.1322 12.2177 9.79809 12.4448Z" fill="#8994A3"/>
</svg>
