<svg width="28" height="28" viewBox="0 0 28 28" fill="none" xmlns="http://www.w3.org/2000/svg">
<path d="M10 11.2541C10 11.9444 9.44036 12.5041 8.75 12.5041C8.05964 12.5041 7.5 11.9444 7.5 11.2541C7.5 10.5637 8.05964 10.0041 8.75 10.0041C9.44036 10.0041 10 10.5637 10 11.2541Z" fill="white"/>
<path d="M19.25 12.5041C19.9404 12.5041 20.5 11.9444 20.5 11.2541C20.5 10.5637 19.9404 10.0041 19.25 10.0041C18.5597 10.0041 18 10.5637 18 11.2541C18 11.9444 18.5597 12.5041 19.25 12.5041Z" fill="white"/>
<path d="M13.5 14.5041V12.0041H15.5V16.5041H12.5V14.5041H13.5Z" fill="white"/>
<path d="M13.6 19.5041C12.6783 19.5041 11.8866 18.937 11.5595 18.1289L9.70563 18.8793C10.3279 20.4167 11.8358 21.5041 13.6 21.5041C14.1551 21.5041 14.6874 21.3958 15.1752 21.1984L14.4247 19.3445C14.1714 19.4471 13.8935 19.5041 13.6 19.5041Z" fill="white"/>
<path fill-rule="evenodd" clip-rule="evenodd" d="M14 26.0041C20.6274 26.0041 26 20.6315 26 14.0041C26 7.37663 20.6274 2.00403 14 2.00403C7.37258 2.00403 2 7.37663 2 14.0041C2 20.6315 7.37258 26.0041 14 26.0041ZM14 24.0041C19.5228 24.0041 24 19.5269 24 14.0041C24 8.48119 19.5228 4.00403 14 4.00403C8.47716 4.00403 4 8.48119 4 14.0041C4 19.5269 8.47716 24.0041 14 24.0041Z" fill="white"/>
</svg>
