<svg width="28" height="28" viewBox="0 0 28 28" fill="none" xmlns="http://www.w3.org/2000/svg">
    <path fill-rule="evenodd" clip-rule="evenodd" d="M11.6886 3.50061L16.3141 3.50061C17.6812 3.49781 18.3647 3.49641 18.9765 3.69463C19.5178 3.87001 20.016 4.15763 20.4385 4.5387C20.916 4.9694 21.2566 5.56208 21.9377 6.74744L24.2505 10.7532C24.9364 11.9357 25.2794 12.527 25.4136 13.1559C25.5324 13.7124 25.5324 14.2876 25.4136 14.8441C25.2794 15.473 24.9364 16.0642 24.2505 17.2467L21.9377 21.2526C21.2566 22.4379 20.916 23.0306 20.4385 23.4613C20.016 23.8424 19.5178 24.13 18.9765 24.3054C18.3647 24.5036 17.6812 24.5022 16.3141 24.4994H11.6886C10.3215 24.5022 9.63798 24.5036 9.0262 24.3054C8.48492 24.13 7.98674 23.8424 7.56422 23.4613C7.08667 23.0306 6.7461 22.4379 6.06497 21.2526L3.75226 17.2468C3.06628 16.0643 2.72329 15.473 2.58907 14.8441C2.47031 14.2876 2.47031 13.7124 2.58907 13.1559C2.72329 12.527 3.06628 11.9357 3.75226 10.7532L6.06497 6.74744C6.7461 5.56208 7.08667 4.96941 7.56422 4.53871C7.98674 4.15763 8.48492 3.87001 9.0262 3.69463C9.63798 3.49641 10.3215 3.49781 11.6886 3.50061ZM14 18C16.2091 18 18 16.2091 18 14C18 11.7909 16.2091 10 14 10C11.7909 10 9.99999 11.7909 9.99999 14C9.99999 16.2091 11.7909 18 14 18Z" fill="#8994A3"/>
    <path opacity="0.32" d="M18 14C18 16.2091 16.2091 18 14 18C11.7909 18 10 16.2091 10 14C10 11.7909 11.7909 10 14 10C16.2091 10 18 11.7909 18 14Z" fill="#8994A3"/>
</svg>
