<svg width="28" height="28" viewBox="0 0 28 28" fill="none" xmlns="http://www.w3.org/2000/svg">
    <mask id="path-1-outside-1_29107_122922" maskUnits="userSpaceOnUse" x="2.55981" y="2" width="23" height="24" fill="black">
        <rect fill="white" x="2.55981" y="2" width="23" height="24"/>
        <path fill-rule="evenodd" clip-rule="evenodd" d="M11.7214 5.6712C11.8544 4.87304 11.9209 4.47396 12.2007 4.23698C12.4804 4 12.885 4 13.6942 4H14.3057C15.1149 4 15.5194 4 15.7992 4.23698C16.0789 4.47396 16.1454 4.87304 16.2785 5.6712L16.3182 5.90973C16.3647 6.1886 16.5652 6.41482 16.8296 6.51484C17.6472 6.82409 18.4009 7.26344 19.0654 7.80765C19.2841 7.98676 19.5802 8.04719 19.8449 7.94802L20.0736 7.86233C20.8314 7.57846 21.2102 7.43652 21.5553 7.5603C21.9004 7.68407 22.1027 8.03444 22.5073 8.73518L22.5073 8.73519C22.5073 8.7352 22.5073 8.73521 22.5073 8.73521C22.5073 8.73521 22.5073 8.73522 22.5073 8.73522L22.8131 9.26478C23.2176 9.96555 23.4199 10.3159 23.3546 10.6767C23.2892 11.0374 22.9769 11.2946 22.3522 11.8089L22.3521 11.8089L22.1646 11.9633C21.9466 12.1427 21.8508 12.429 21.8961 12.7077C21.9644 13.1284 21.9999 13.56 21.9999 14C21.9999 14.4399 21.9644 14.8716 21.8961 15.2922C21.8508 15.571 21.9466 15.8572 22.1646 16.0367L22.3522 16.1911L22.3522 16.1911C22.9769 16.7054 23.2893 16.9626 23.3546 17.3233C23.42 17.6841 23.2177 18.0345 22.8131 18.7352L22.5074 19.2648C22.1028 19.9655 21.9005 20.3159 21.5554 20.4397C21.2103 20.5635 20.8314 20.4215 20.0737 20.1377L19.8449 20.052C19.5802 19.9528 19.2841 20.0132 19.0654 20.1923C18.4009 20.7365 17.6472 21.1759 16.8296 21.4852C16.5652 21.5852 16.3647 21.8114 16.3182 22.0903L16.2785 22.3288C16.1454 23.127 16.0789 23.526 15.7992 23.763C15.5194 24 15.1149 24 14.3057 24H13.6942C12.885 24 12.4804 24 12.2007 23.763C11.9209 23.526 11.8544 23.127 11.7214 22.3288L11.6817 22.0903C11.6352 21.8114 11.4347 21.5852 11.1703 21.4852C10.3527 21.1759 9.59899 20.7366 8.9345 20.1923C8.71581 20.0132 8.41969 19.9528 8.15499 20.052L7.92625 20.1377C7.16851 20.4215 6.78964 20.5635 6.44453 20.4397C6.09943 20.3159 5.89714 19.9655 5.49255 19.2648L5.18681 18.7352C4.78222 18.0345 4.57993 17.6841 4.64528 17.3233C4.71064 16.9626 5.023 16.7054 5.64771 16.1911L5.83528 16.0367C6.05329 15.8572 6.14904 15.571 6.10377 15.2923C6.03545 14.8716 5.99994 14.44 5.99994 14C5.99994 13.56 6.03546 13.1284 6.10378 12.7077C6.14905 12.429 6.0533 12.1427 5.83529 11.9632L5.64778 11.8089C5.02307 11.2946 4.71071 11.0374 4.64535 10.6767C4.57999 10.3159 4.78229 9.96555 5.18687 9.26478L5.49262 8.73522C5.8972 8.03445 6.0995 7.68407 6.4446 7.5603C6.7897 7.43652 7.16857 7.57846 7.92632 7.86233L8.15501 7.94801C8.41971 8.04718 8.71582 7.98674 8.93452 7.80764C9.599 7.26344 10.3527 6.82409 11.1703 6.51484C11.4347 6.41483 11.6352 6.18861 11.6816 5.90974L11.7214 5.6712Z"/>
    </mask>
    <path d="M11.7214 5.6712L13.6942 6L13.6942 6L11.7214 5.6712ZM15.7992 4.23698L14.5064 5.76302L14.5064 5.76302L15.7992 4.23698ZM16.2785 5.6712L18.2513 5.3424V5.3424L16.2785 5.6712ZM20.0736 7.86233L19.372 5.98945L20.0736 7.86233ZM21.5553 7.5603L20.8801 9.44287L20.8801 9.44287L21.5553 7.5603ZM22.5073 8.73518L20.7752 9.73518L20.8075 9.79097L20.8432 9.84458L22.5073 8.73518ZM22.8131 9.26478L21.081 10.2648L21.081 10.2648L22.8131 9.26478ZM23.3546 10.6767L25.3225 11.0332V11.0332L23.3546 10.6767ZM22.3522 11.8089L23.5522 13.4089L23.5884 13.3817L23.6233 13.3529L22.3522 11.8089ZM22.3521 11.8089L21.1521 10.2089L21.1159 10.236L21.081 10.2648L22.3521 11.8089ZM22.3522 16.1911L23.7664 14.7769L23.698 14.7085L23.6234 14.647L22.3522 16.1911ZM22.3522 16.1911L20.938 17.6054L21.0064 17.6738L21.0811 17.7352L22.3522 16.1911ZM23.3546 17.3233L25.3226 16.9668V16.9668L23.3546 17.3233ZM22.8131 18.7352L21.0811 17.7352L21.0811 17.7352L22.8131 18.7352ZM22.5074 19.2648L24.2394 20.2648L24.2394 20.2648L22.5074 19.2648ZM20.0737 20.1377L20.7753 18.2648L20.7753 18.2648L20.0737 20.1377ZM16.2785 22.3288L18.2513 22.6576V22.6576L16.2785 22.3288ZM15.7992 23.763L14.5064 22.237L14.5064 22.237L15.7992 23.763ZM11.7214 22.3288L9.74862 22.6576L11.7214 22.3288ZM7.92625 20.1377L7.2246 18.2648L7.2246 18.2648L7.92625 20.1377ZM6.44453 20.4397L5.76931 22.3223L5.76932 22.3223L6.44453 20.4397ZM5.49255 19.2648L3.7605 20.2648H3.7605L5.49255 19.2648ZM5.18681 18.7352L6.91886 17.7352L6.91886 17.7352L5.18681 18.7352ZM4.64528 17.3233L2.67732 16.9668L4.64528 17.3233ZM5.64771 16.1911L4.37657 14.647L4.37657 14.647L5.64771 16.1911ZM5.64778 11.8089L4.37664 13.353L4.37664 13.353L5.64778 11.8089ZM4.64535 10.6767L2.67739 11.0332V11.0332L4.64535 10.6767ZM5.18687 9.26478L3.45482 8.26478H3.45482L5.18687 9.26478ZM5.49262 8.73522L7.22467 9.73522L7.22467 9.73522L5.49262 8.73522ZM7.92632 7.86233L8.62796 5.98945L7.92632 7.86233ZM5.83529 11.9632L7.10643 10.4191L5.83529 11.9632ZM5.83528 16.0367L7.10642 17.5808L5.83528 16.0367ZM6.10377 15.2923L4.12964 15.6129L6.10377 15.2923ZM22.5073 8.73522L24.2394 7.73523L22.5073 8.73522ZM19.8449 20.052L19.1433 21.9248L19.8449 20.052ZM19.0654 20.1923L17.7982 18.645L19.0654 20.1923ZM21.8961 15.2922L23.8703 15.6128L21.8961 15.2922ZM22.1646 16.0367L23.4357 14.4926L22.1646 16.0367ZM16.3182 22.0903L14.3454 21.7615L16.3182 22.0903ZM8.93452 7.80764L10.2017 9.35495L8.93452 7.80764ZM16.3182 5.90973L14.3454 6.23853L16.3182 5.90973ZM16.8296 6.51484L16.1221 8.3855L16.8296 6.51484ZM22.1646 11.9633L20.8935 10.4192L22.1646 11.9633ZM21.8961 12.7077L19.922 13.0283L21.8961 12.7077ZM11.1703 6.51484L11.8778 8.38551L11.1703 6.51484ZM19.0654 7.80765L17.7982 9.35496L19.0654 7.80765ZM19.8449 7.94802L20.5465 9.82091L19.8449 7.94802ZM10.9079 2.71094C10.3596 3.17543 10.1172 3.74297 9.98917 4.17297C9.87708 4.54946 9.80668 4.99398 9.74861 5.3424L13.6942 6C13.7286 5.79361 13.7536 5.64448 13.7775 5.5192C13.8015 5.39349 13.8165 5.3359 13.8229 5.31432C13.8287 5.29465 13.8141 5.35181 13.762 5.44273C13.7034 5.54512 13.6146 5.66039 13.4934 5.76302L10.9079 2.71094ZM13.6942 2C13.341 2 12.8909 1.99636 12.5011 2.04503C12.0559 2.10062 11.4563 2.24645 10.9079 2.71094L13.4934 5.76302C13.3723 5.86565 13.244 5.9343 13.1334 5.97531C13.0351 6.01172 12.9763 6.01676 12.9967 6.01421C13.019 6.01142 13.0783 6.00618 13.2062 6.00314C13.3337 6.00012 13.485 6 13.6942 6V2ZM14.3057 2H13.6942V6H14.3057V2ZM17.0919 2.71094C16.5436 2.24645 15.9439 2.10061 15.4987 2.04503C15.109 1.99636 14.6589 2 14.3057 2V6C14.5149 6 14.6661 6.00012 14.7936 6.00314C14.9216 6.00618 14.9808 6.01142 15.0032 6.01421C15.0236 6.01676 14.9648 6.01172 14.8665 5.97531C14.7559 5.9343 14.6276 5.86565 14.5064 5.76302L17.0919 2.71094ZM18.2513 5.3424C18.1932 4.99398 18.1228 4.54946 18.0107 4.17297C17.8827 3.74297 17.6402 3.17543 17.0919 2.71094L14.5064 5.76302C14.3853 5.66039 14.2965 5.54512 14.2378 5.44273C14.1858 5.35181 14.1711 5.29465 14.177 5.31432C14.1834 5.3359 14.1983 5.39349 14.2224 5.5192C14.2463 5.64448 14.2713 5.79361 14.3057 6L18.2513 5.3424ZM18.291 5.58093L18.2513 5.3424L14.3057 6L14.3454 6.23853L18.291 5.58093ZM16.1221 8.3855C16.7337 8.61683 17.2988 8.94602 17.7982 9.35496L20.3326 6.26035C19.5029 5.58087 18.5608 5.03134 17.5372 4.64418L16.1221 8.3855ZM20.5465 9.82091L20.7753 9.73522L19.372 5.98945L19.1432 6.07514L20.5465 9.82091ZM20.7753 9.73522C20.9712 9.66181 21.1128 9.60887 21.2333 9.56697C21.3542 9.52492 21.4115 9.50905 21.4334 9.50383C21.4534 9.49906 21.3966 9.51497 21.2918 9.51534C21.1738 9.51575 21.0296 9.49647 20.8801 9.44287L22.2305 5.67772C21.5541 5.43511 20.9414 5.50893 20.505 5.61306C20.1229 5.70424 19.7027 5.86553 19.372 5.98945L20.7753 9.73522ZM20.8801 9.44287C20.7307 9.38927 20.6071 9.31248 20.5162 9.23717C20.4356 9.1703 20.4018 9.1219 20.4142 9.13826C20.4278 9.15622 20.462 9.2049 20.5286 9.31419C20.5949 9.42309 20.6706 9.55398 20.7752 9.73518L24.2393 7.73517C24.0627 7.42928 23.8409 7.03772 23.6038 6.72449C23.3331 6.36672 22.907 5.92032 22.2305 5.67772L20.8801 9.44287ZM20.8432 9.84458L20.8432 9.84459L24.1714 7.62579L24.1714 7.62578L20.8432 9.84458ZM20.7753 9.73522L21.081 10.2648L24.5451 8.26479L24.2394 7.73523L20.7753 9.73522ZM21.081 10.2648C21.1856 10.446 21.2611 10.577 21.3223 10.6889C21.3836 10.8013 21.4087 10.8552 21.4175 10.8759C21.4254 10.8949 21.4004 10.8414 21.3828 10.7381C21.363 10.6218 21.3583 10.4764 21.3866 10.3202L25.3225 11.0332C25.4506 10.3261 25.2771 9.73387 25.1026 9.32053C24.9499 8.95862 24.7217 8.57069 24.5451 8.26478L21.081 10.2648ZM21.3866 10.3202C21.4149 10.1639 21.4703 10.0294 21.5297 9.9274C21.5824 9.83684 21.6246 9.79558 21.6105 9.8105C21.595 9.82685 21.5526 9.86856 21.4557 9.95222C21.3592 10.0356 21.2426 10.1318 21.081 10.2648L23.6233 13.3529C23.896 13.1284 24.2458 12.8452 24.5158 12.5599C24.8242 12.234 25.1944 11.7403 25.3225 11.0332L21.3866 10.3202ZM21.1522 10.2089L21.1521 10.2089L23.5522 13.4089L23.5522 13.4089L21.1522 10.2089ZM21.081 10.2648L20.8935 10.4192L23.4357 13.5074L23.6233 13.353L21.081 10.2648ZM19.922 13.0283C19.9731 13.3434 19.9999 13.6679 19.9999 14H23.9999C23.9999 13.4522 23.9557 12.9134 23.8702 12.3871L19.922 13.0283ZM19.9999 14C19.9999 14.3321 19.9731 14.6566 19.922 14.9716L23.8703 15.6128C23.9557 15.0866 23.9999 14.5477 23.9999 14H19.9999ZM23.6234 14.647L23.4357 14.4926L20.8935 17.5808L21.0811 17.7352L23.6234 14.647ZM23.7664 14.7769L23.7664 14.7769L20.938 17.6053L20.938 17.6054L23.7664 14.7769ZM25.3226 16.9668C25.1945 16.2597 24.8242 15.766 24.5158 15.4401C24.2458 15.1548 23.8961 14.8716 23.6234 14.6471L21.0811 17.7352C21.2426 17.8682 21.3593 17.9644 21.4558 18.0478C21.5527 18.1314 21.5951 18.1732 21.6105 18.1895C21.6247 18.2044 21.5825 18.1632 21.5298 18.0726C21.4704 17.9706 21.415 17.8361 21.3867 17.6798L25.3226 16.9668ZM24.5452 19.7352C24.7218 19.4293 24.95 19.0414 25.1027 18.6795C25.2772 18.2661 25.4507 17.6739 25.3226 16.9668L21.3867 17.6798C21.3584 17.5236 21.3631 17.3782 21.3829 17.2619C21.4005 17.1586 21.4255 17.1051 21.4175 17.1241C21.4088 17.1448 21.3837 17.1987 21.3223 17.3111C21.2612 17.423 21.1857 17.554 21.0811 17.7352L24.5452 19.7352ZM24.2394 20.2648L24.5452 19.7352L21.0811 17.7352L20.7753 18.2648L24.2394 20.2648ZM22.2306 22.3223C22.907 22.0797 23.3332 21.6333 23.6039 21.2755C23.8409 20.9623 24.0628 20.5707 24.2394 20.2648L20.7753 18.2648C20.6707 18.446 20.595 18.5769 20.5286 18.6858C20.462 18.7951 20.4279 18.8438 20.4143 18.8617C20.4019 18.8781 20.4356 18.8297 20.5163 18.7628C20.6071 18.6875 20.7307 18.6107 20.8802 18.5571L22.2306 22.3223ZM19.372 22.0105C19.7028 22.1345 20.123 22.2958 20.5051 22.3869C20.9415 22.4911 21.5542 22.5649 22.2306 22.3223L20.8802 18.5571C21.0296 18.5035 21.1739 18.4842 21.2919 18.4847C21.3966 18.485 21.4535 18.5009 21.4335 18.4962C21.4116 18.4909 21.3543 18.4751 21.2334 18.433C21.1129 18.3911 20.9713 18.3382 20.7753 18.2648L19.372 22.0105ZM19.1433 21.9248L19.372 22.0106L20.7753 18.2648L20.5466 18.1791L19.1433 21.9248ZM17.7982 18.645C17.2989 19.054 16.7337 19.3832 16.1221 19.6145L17.5372 23.3558C18.5608 22.9687 19.503 22.4191 20.3326 21.7396L17.7982 18.645ZM14.3454 21.7615L14.3057 22L18.2513 22.6576L18.291 22.4191L14.3454 21.7615ZM14.3057 22C14.2713 22.2064 14.2463 22.3555 14.2224 22.4808C14.1983 22.6065 14.1834 22.6641 14.177 22.6857C14.1711 22.7054 14.1858 22.6482 14.2378 22.5573C14.2965 22.4549 14.3853 22.3396 14.5064 22.237L17.0919 25.2891C17.6403 24.8246 17.8827 24.257 18.0107 23.827C18.1228 23.4505 18.1932 23.006 18.2513 22.6576L14.3057 22ZM14.5064 22.237C14.6276 22.1344 14.7559 22.0657 14.8665 22.0247C14.9648 21.9883 15.0236 21.9832 15.0032 21.9858C14.9808 21.9886 14.9216 21.9938 14.7936 21.9969C14.6661 21.9999 14.5149 22 14.3057 22V26C14.6589 26 15.109 26.0036 15.4988 25.955C15.944 25.8994 16.5436 25.7536 17.0919 25.2891L14.5064 22.237ZM14.3057 22H13.6942V26H14.3057V22ZM13.6942 22C13.485 22 13.3337 21.9999 13.2062 21.9969C13.0783 21.9938 13.019 21.9886 12.9967 21.9858C12.9763 21.9832 13.0351 21.9883 13.1334 22.0247C13.244 22.0657 13.3723 22.1343 13.4934 22.237L10.9079 25.2891C11.4563 25.7536 12.0559 25.8994 12.5011 25.955C12.8909 26.0036 13.341 26 13.6942 26V22ZM13.4934 22.237C13.6146 22.3396 13.7034 22.4549 13.762 22.5573C13.8141 22.6482 13.8287 22.7054 13.8229 22.6857C13.8165 22.6641 13.8015 22.6065 13.7775 22.4808C13.7536 22.3555 13.7286 22.2064 13.6942 22L9.74862 22.6576C9.80669 23.006 9.87709 23.4505 9.98918 23.827C10.1172 24.257 10.3596 24.8246 10.9079 25.2891L13.4934 22.237ZM13.6942 22L13.6544 21.7615L9.70886 22.4191L9.74862 22.6576L13.6942 22ZM11.8778 19.6145C11.2662 19.3832 10.701 19.054 10.2017 18.645L7.66727 21.7396C8.49694 22.4191 9.43912 22.9687 10.4627 23.3558L11.8778 19.6145ZM7.45334 18.1791L7.2246 18.2648L8.62789 22.0106L8.85663 21.9249L7.45334 18.1791ZM7.2246 18.2648C7.02867 18.3382 6.88702 18.3911 6.76656 18.433C6.64567 18.4751 6.58834 18.4909 6.56644 18.4962C6.54647 18.5009 6.6033 18.485 6.70807 18.4847C6.82605 18.4842 6.97029 18.5035 7.11974 18.5571L5.76932 22.3223C6.44574 22.5649 7.05845 22.4911 7.49486 22.3869C7.87695 22.2958 8.29712 22.1345 8.6279 22.0105L7.2246 18.2648ZM7.11975 18.5571C7.26921 18.6107 7.39281 18.6875 7.48364 18.7628C7.56429 18.8297 7.59805 18.8781 7.58566 18.8617C7.57208 18.8438 7.5379 18.7951 7.4713 18.6858C7.40493 18.5769 7.32922 18.446 7.2246 18.2648L3.7605 20.2648C3.93711 20.5707 4.15899 20.9623 4.39603 21.2755C4.66677 21.6333 5.09289 22.0797 5.76931 22.3223L7.11975 18.5571ZM7.2246 18.2648L6.91886 17.7352L3.45475 19.7352L3.7605 20.2648L7.2246 18.2648ZM6.91886 17.7352C6.81424 17.554 6.73873 17.423 6.6776 17.3111C6.61625 17.1987 6.59117 17.1448 6.58241 17.1241C6.57443 17.1051 6.59947 17.1586 6.61705 17.2619C6.63686 17.3782 6.64155 17.5236 6.61325 17.6798L2.67732 16.9668C2.54922 17.6739 2.72276 18.2661 2.89722 18.6795C3.04997 19.0414 3.27814 19.4293 3.45475 19.7352L6.91886 17.7352ZM6.61325 17.6798C6.58494 17.8361 6.52952 17.9706 6.47017 18.0726C6.41747 18.1632 6.37528 18.2044 6.38939 18.1895C6.40486 18.1731 6.44727 18.1314 6.54413 18.0478C6.64065 17.9644 6.75732 17.8682 6.91886 17.7352L4.37657 14.647C4.10387 14.8715 3.7541 15.1548 3.4841 15.4401C3.17571 15.766 2.80543 16.2597 2.67732 16.9668L6.61325 17.6798ZM6.91885 17.7352L7.10642 17.5808L4.56414 14.4926L4.37657 14.647L6.91885 17.7352ZM8.07791 14.9716C8.02674 14.6566 7.99994 14.3321 7.99994 14H3.99994C3.99994 14.5478 4.04417 15.0866 4.12964 15.6129L8.07791 14.9716ZM7.99994 14C7.99994 13.6678 8.02674 13.3434 8.07791 13.0283L4.12965 12.3871C4.04417 12.9133 3.99994 13.4522 3.99994 14H7.99994ZM4.37664 13.353L4.56415 13.5073L7.10643 10.4191L6.91892 10.2648L4.37664 13.353ZM2.67739 11.0332C2.80549 11.7403 3.17578 12.234 3.48416 12.5599C3.75417 12.8452 4.10393 13.1285 4.37664 13.353L6.91892 10.2648C6.75739 10.1318 6.64072 10.0356 6.5442 9.95223C6.44734 9.86856 6.40493 9.82685 6.38945 9.8105C6.37534 9.79558 6.41753 9.83684 6.47024 9.9274C6.52959 10.0294 6.58501 10.1639 6.61332 10.3202L2.67739 11.0332ZM3.45482 8.26478C3.27821 8.57069 3.05004 8.95862 2.89729 9.32052C2.72282 9.73387 2.54928 10.3261 2.67739 11.0332L6.61332 10.3202C6.64162 10.4764 6.63692 10.6218 6.61712 10.7381C6.59953 10.8414 6.5745 10.8949 6.58248 10.8759C6.59124 10.8552 6.61632 10.8013 6.67766 10.6889C6.7388 10.577 6.81431 10.446 6.91892 10.2648L3.45482 8.26478ZM3.76057 7.73522L3.45482 8.26478L6.91892 10.2648L7.22467 9.73522L3.76057 7.73522ZM5.76939 5.67772C5.09296 5.92033 4.66684 6.36674 4.3961 6.72451C4.15905 7.03775 3.93718 7.42931 3.76057 7.73522L7.22467 9.73522C7.32929 9.55401 7.40499 9.42312 7.47137 9.3142C7.53797 9.20491 7.57214 9.15622 7.58573 9.13827C7.59812 9.1219 7.56436 9.1703 7.4837 9.23717C7.39288 9.31248 7.26927 9.38927 7.11981 9.44287L5.76939 5.67772ZM8.62796 5.98945C8.29718 5.86553 7.87702 5.70424 7.49493 5.61306C7.05852 5.50893 6.44581 5.43511 5.76939 5.67772L7.11981 9.44287C6.97036 9.49647 6.82612 9.51575 6.70814 9.51534C6.60337 9.51497 6.54654 9.49906 6.56651 9.50383C6.58841 9.50905 6.64574 9.52492 6.76662 9.56697C6.88709 9.60887 7.02873 9.66181 7.22467 9.73522L8.62796 5.98945ZM8.85665 6.07513L8.62796 5.98945L7.22467 9.73522L7.45336 9.82089L8.85665 6.07513ZM10.2017 9.35495C10.701 8.94602 11.2662 8.61683 11.8778 8.38551L10.4627 4.64418C9.43912 5.03134 8.49695 5.58086 7.6673 6.26033L10.2017 9.35495ZM9.74861 5.3424L9.70886 5.58094L13.6544 6.23854L13.6942 6L9.74861 5.3424ZM8.07791 13.0283C8.22679 12.1116 7.9224 11.0909 7.10643 10.4191L4.56415 13.5073C4.1842 13.1945 4.0713 12.7463 4.12965 12.3871L8.07791 13.0283ZM7.10642 17.5808C7.92239 16.9091 8.22678 15.8883 8.07791 14.9716L4.12964 15.6129C4.0713 15.2537 4.1842 14.8054 4.56414 14.4926L7.10642 17.5808ZM10.2017 18.645C9.48174 18.0554 8.44398 17.808 7.45334 18.1791L8.85663 21.9249C8.39541 22.0976 7.94987 21.9711 7.66727 21.7396L10.2017 18.645ZM20.6504 9.47799C20.6858 9.5666 20.7275 9.65257 20.7753 9.73522L24.2394 7.73523C24.2871 7.81787 24.3288 7.90383 24.3643 7.99243L20.6504 9.47799ZM13.6544 21.7615C13.4805 20.7176 12.747 19.9433 11.8778 19.6145L10.4627 23.3558C10.1224 23.2271 9.78989 22.9052 9.70886 22.4191L13.6544 21.7615ZM20.5466 18.1791C19.5559 17.808 18.5182 18.0554 17.7982 18.645L20.3326 21.7396C20.05 21.9711 19.6045 22.0976 19.1433 21.9248L20.5466 18.1791ZM19.922 14.9716C19.7731 15.8883 20.0775 16.909 20.8935 17.5808L23.4357 14.4926C23.8157 14.8054 23.9286 15.2536 23.8703 15.6128L19.922 14.9716ZM16.1221 19.6145C15.2528 19.9433 14.5194 20.7176 14.3454 21.7615L18.291 22.4191C18.21 22.9052 17.8775 23.2271 17.5372 23.3558L16.1221 19.6145ZM7.45336 9.82089C8.44399 10.192 9.48175 9.9446 10.2017 9.35495L7.6673 6.26033C7.9499 6.02889 8.39543 5.90234 8.85665 6.07513L7.45336 9.82089ZM14.3454 6.23853C14.5194 7.28244 15.2528 8.05673 16.1221 8.3855L17.5372 4.64418C17.8775 4.77291 18.21 5.09476 18.291 5.58093L14.3454 6.23853ZM20.8935 10.4192C20.0775 11.0909 19.7731 12.1117 19.922 13.0283L23.8702 12.3871C23.9286 12.7463 23.8157 13.1946 23.4357 13.5074L20.8935 10.4192ZM11.8778 8.38551C12.747 8.05673 13.4804 7.28245 13.6544 6.23854L9.70886 5.58094C9.78989 5.09477 10.1223 4.77292 10.4627 4.64418L11.8778 8.38551ZM17.7982 9.35496C18.5181 9.94461 19.5559 10.192 20.5465 9.82091L19.1432 6.07514C19.6045 5.90235 20.05 6.0289 20.3326 6.26035L17.7982 9.35496ZM20.8432 9.84459C20.7664 9.7294 20.7018 9.60654 20.6504 9.47799L24.3643 7.99243C24.3128 7.86387 24.2482 7.741 24.1714 7.62579L20.8432 9.84459Z" fill="white" mask="url(#path-1-outside-1_29107_122922)"/>
    <path fill-rule="evenodd" clip-rule="evenodd" d="M14 11C12.3431 11 11 12.3431 11 14C11 15.6569 12.3431 17 14 17C15.6569 17 17 15.6569 17 14C17 12.3431 15.6569 11 14 11ZM9 14C9 11.2386 11.2386 9 14 9C16.7614 9 19 11.2386 19 14C19 16.7614 16.7614 19 14 19C11.2386 19 9 16.7614 9 14Z" fill="white"/>
</svg>
