<svg width="28" height="28" viewBox="0 0 28 28" fill="none" xmlns="http://www.w3.org/2000/svg">
    <path fill-rule="evenodd" clip-rule="evenodd" d="M9.72469 4.4414C9.87993 4.04705 10.0791 3.67408 10.4067 3.3541C10.5914 3.17362 10.7987 3.01775 11.0233 2.89035C11.4216 2.6645 11.8352 2.57662 12.2572 2.53693C12.6503 2.49996 13.1233 2.49998 13.6637 2.5L13.7063 2.5L14.2919 2.50001L14.3346 2.50001C14.8749 2.49998 15.3479 2.49996 15.741 2.53693C16.1629 2.57662 16.5765 2.6645 16.9748 2.89035C17.1995 3.01775 17.4068 3.17362 17.5915 3.3541C17.9191 3.67408 18.1183 4.04705 18.2735 4.44141C18.4178 4.80801 18.5488 5.26119 18.6984 5.77892L18.7112 5.82333L18.7141 5.8334L18.7244 5.83085L18.7655 5.82069C19.2902 5.69094 19.7494 5.57738 20.14 5.51891C20.5591 5.45617 20.9817 5.44221 21.4226 5.56587C21.6713 5.63562 21.9099 5.73719 22.1326 5.86806C22.5273 6.10008 22.8102 6.41434 23.0556 6.75991C23.2842 7.08196 23.5208 7.49171 23.791 7.95987L23.8121 7.99641L24.1049 8.50353L24.1255 8.53923C24.3961 9.00771 24.6328 9.41768 24.7974 9.77695C24.9741 10.1622 25.1048 10.5643 25.1083 11.0222C25.1103 11.2805 25.079 11.5379 25.015 11.7881C24.9017 12.2318 24.6783 12.5908 24.4144 12.9224C24.169 13.2308 23.8419 13.5709 23.4682 13.9595L23.4365 13.9924L23.4291 14.0001L23.4364 14.0077L23.4663 14.0388C23.8408 14.4281 24.1685 14.7687 24.4143 15.0776C24.6782 15.4092 24.9016 15.7682 25.0149 16.2119C25.0789 16.4621 25.1102 16.7195 25.1082 16.9778C25.1046 17.4357 24.9739 17.8378 24.7973 18.2231C24.6326 18.5824 24.3958 18.9925 24.1252 19.4612L24.1048 19.4965L23.812 20.0036L23.791 20.04C23.5207 20.5082 23.2841 20.918 23.0555 21.2401C22.8101 21.5857 22.5271 21.9 22.1324 22.132C21.9098 22.2628 21.6712 22.3644 21.4225 22.4341C20.9816 22.5578 20.559 22.5438 20.1399 22.4811C19.7499 22.4227 19.2915 22.3094 18.7679 22.18L18.7243 22.1692L18.714 22.1666L18.7111 22.1767L18.6989 22.2191C18.5491 22.7377 18.418 23.1916 18.2735 23.5586C18.1182 23.953 17.919 24.3259 17.5915 24.6459C17.4067 24.8264 17.1995 24.9823 16.9748 25.1097C16.5765 25.3355 16.1629 25.4234 15.7409 25.4631C15.3477 25.5001 14.8745 25.5 14.3338 25.5H14.2918L13.7062 25.5H13.6642C13.1236 25.5 12.6505 25.5001 12.2572 25.4631C11.8352 25.4234 11.4216 25.3355 11.0233 25.1097C10.7986 24.9823 10.5913 24.8264 10.4066 24.6459C10.0791 24.3259 9.87988 23.953 9.72464 23.5586C9.58017 23.1917 9.44907 22.7378 9.29933 22.2194L9.28698 22.1767L9.28407 22.1666L9.27399 22.1691L9.22964 22.1801C8.70629 22.3094 8.2482 22.4226 7.85842 22.481C7.43928 22.5438 7.01667 22.5577 6.5758 22.4341C6.32713 22.3643 6.0885 22.2627 5.86583 22.1319C5.47108 21.8998 5.18818 21.5856 4.94283 21.24C4.71421 20.918 4.47769 20.5083 4.20746 20.0401L4.18631 20.0035L3.89352 19.4964L3.87208 19.4593C3.60192 18.9914 3.36547 18.5818 3.20095 18.223C3.02434 17.8377 2.89365 17.4356 2.89009 16.9777C2.88808 16.7194 2.91943 16.462 2.98336 16.2118C3.09671 15.7681 3.3201 15.4091 3.584 15.0775C3.8297 14.7687 4.15726 14.4282 4.53153 14.0391L4.56196 14.0075L4.56914 14.0001L4.56185 13.9925L4.53104 13.9605C4.15693 13.5716 3.8295 13.2312 3.5839 12.9225C3.31999 12.5909 3.0966 12.2319 2.98326 11.7882C2.91932 11.538 2.88797 11.2806 2.88998 11.0223C2.89354 10.5644 3.02424 10.1623 3.20084 9.77703C3.36541 9.41804 3.60194 9.0084 3.87221 8.54035L3.89342 8.50361L4.1862 7.99649L4.20767 7.9593C4.47779 7.49141 4.71419 7.08191 4.94273 6.76C5.18808 6.41442 5.47098 6.10017 5.86573 5.86815C6.08839 5.73728 6.32702 5.63571 6.57569 5.56596C7.01657 5.4423 7.43917 5.45626 7.85832 5.519C8.24891 5.57746 8.70815 5.69102 9.23286 5.82078L9.27393 5.83094L9.28411 5.83345L9.28703 5.82332L9.29903 5.78179C9.44892 5.26287 9.58011 4.80869 9.72469 4.4414ZM9.16361 6.21708C9.1636 6.21707 9.16381 6.2166 9.16426 6.21569L9.16361 6.21708ZM9.67512 5.92078C9.67606 5.92085 9.67656 5.92089 9.6766 5.9209L9.67512 5.92078ZM4.84112 14.2962C4.84112 14.2962 4.84081 14.2958 4.84023 14.2949L4.84112 14.2962ZM23.1571 14.2962C23.1571 14.2962 23.1574 14.2958 23.1581 14.2948L23.1571 14.2962ZM18.3216 5.92085C18.3216 5.92084 18.3222 5.92079 18.3232 5.92072L18.3216 5.92085ZM11.5857 5.17398C11.4796 5.44336 11.3738 5.80613 11.2084 6.37841L11.2055 6.38854C11.2022 6.39996 11.1989 6.41155 11.1955 6.42328C11.1421 6.60881 11.0779 6.8316 10.9969 7.01646C10.8993 7.2395 10.7255 7.53439 10.381 7.7333C10.0364 7.93221 9.6942 7.93525 9.45219 7.90834C9.25227 7.8861 9.02806 7.83051 8.84102 7.78414C8.82855 7.78105 8.81623 7.778 8.8041 7.775L8.79392 7.77248C8.21565 7.62952 7.84855 7.53982 7.56224 7.49696C7.29433 7.45686 7.18292 7.47282 7.11582 7.49164C7.03293 7.51489 6.95339 7.54875 6.87917 7.59237C6.81909 7.62768 6.73035 7.69691 6.57352 7.9178C6.40593 8.15386 6.2161 8.48061 5.91825 8.99649L5.62547 9.50361C5.32762 10.0195 5.13956 10.3473 5.01893 10.6104C4.90604 10.8567 4.89046 10.9682 4.88992 11.0378C4.88925 11.1239 4.8997 11.2098 4.92101 11.2932C4.93826 11.3607 4.98014 11.4651 5.14883 11.6771C5.3291 11.9036 5.59032 12.1767 6.00327 12.606L6.01057 12.6136C6.01953 12.6229 6.02863 12.6324 6.03785 12.6419C6.17134 12.7806 6.33113 12.9465 6.45008 13.1082C6.5944 13.3043 6.7629 13.6022 6.7629 14.0001C6.7629 14.3979 6.5944 14.6958 6.45008 14.8919C6.33108 15.0537 6.17123 15.2197 6.0377 15.3583C6.02853 15.3679 6.01949 15.3773 6.01059 15.3865L6.00338 15.394C5.59044 15.8233 5.3292 16.0964 5.14893 16.3229C4.98025 16.5349 4.93837 16.6394 4.92112 16.7069C4.89981 16.7903 4.88936 16.8761 4.89003 16.9622C4.89057 17.0318 4.90615 17.1433 5.01903 17.3896C5.13967 17.6527 5.32773 17.9805 5.62557 18.4964L5.91836 19.0035C6.2162 19.5194 6.40604 19.8462 6.57363 20.0822C6.73045 20.3031 6.8192 20.3723 6.87928 20.4076C6.95349 20.4513 7.03303 20.4851 7.11592 20.5084C7.18302 20.5272 7.29444 20.5432 7.56235 20.5031C7.84866 20.4602 8.2158 20.3705 8.79407 20.2275L8.8041 20.225C8.81676 20.2219 8.82962 20.2187 8.84266 20.2155C9.02936 20.1692 9.25281 20.1139 9.45215 20.0917C9.69416 20.0648 10.0364 20.0678 10.3809 20.2667C10.7254 20.4657 10.8992 20.7605 10.9969 20.9836C11.0773 21.1671 11.1411 21.3881 11.1944 21.5729C11.1981 21.5859 11.2019 21.5988 11.2055 21.6115L11.2084 21.6216C11.3737 22.1939 11.4796 22.5567 11.5856 22.826C11.6848 23.0781 11.7544 23.1666 11.8042 23.2153C11.8658 23.2755 11.9349 23.3274 12.0098 23.3699C12.0704 23.4043 12.1747 23.4465 12.4444 23.4719C12.7327 23.499 13.1106 23.5 13.7062 23.5H14.2918C14.8875 23.5 15.2654 23.499 15.5536 23.4719C15.8233 23.4465 15.9277 23.4043 15.9883 23.3699C16.0632 23.3274 16.1323 23.2755 16.1938 23.2153C16.2437 23.1666 16.3132 23.0781 16.4125 22.826C16.5185 22.5567 16.6244 22.194 16.7897 21.6217L16.7926 21.6115C16.7959 21.6001 16.7993 21.5885 16.8026 21.5767C16.8561 21.3913 16.9202 21.1685 17.0012 20.9836C17.0988 20.7606 17.2726 20.4657 17.6171 20.2668C17.9617 20.0679 18.3039 20.0648 18.5459 20.0917C18.7467 20.1141 18.9719 20.17 19.1593 20.2165C19.171 20.2194 19.1826 20.2223 19.194 20.2251L19.2043 20.2276C19.7825 20.3706 20.1496 20.4603 20.4359 20.5031C20.7039 20.5432 20.8153 20.5273 20.8824 20.5085C20.9653 20.4852 21.0448 20.4513 21.119 20.4077C21.1791 20.3724 21.2678 20.3032 21.4247 20.0823C21.5923 19.8462 21.7821 19.5195 22.0799 19.0036L22.3727 18.4965C22.6706 17.9806 22.8586 17.6528 22.9793 17.3897C23.0921 17.1434 23.1077 17.032 23.1083 16.9623C23.1089 16.8762 23.0985 16.7903 23.0772 16.7069C23.0599 16.6394 23.018 16.5349 22.8494 16.323C22.6691 16.0965 22.4078 15.8233 21.9949 15.394L21.9876 15.3865C21.9782 15.3767 21.9687 15.3668 21.959 15.3567C21.8258 15.2184 21.6667 15.0531 21.5481 14.8919C21.4038 14.6958 21.2353 14.3979 21.2353 14.0001C21.2353 13.6022 21.4038 13.3043 21.5481 13.1082C21.6675 12.9461 21.8278 12.7796 21.9616 12.6407C21.9704 12.6315 21.9791 12.6225 21.9876 12.6136L21.995 12.6059C22.408 12.1766 22.6692 11.9035 22.8495 11.677C23.0182 11.4651 23.06 11.3606 23.0773 11.2931C23.0986 11.2097 23.109 11.1239 23.1084 11.0378C23.1078 10.9681 23.0922 10.8566 22.9794 10.6103C22.8587 10.3472 22.6707 10.0194 22.3728 9.50353L22.08 8.99641C21.7822 8.48053 21.5924 8.15377 21.4248 7.91772C21.2679 7.69683 21.1792 7.6276 21.1191 7.59229C21.0449 7.54866 20.9654 7.51481 20.8825 7.49156C20.8154 7.47274 20.704 7.45677 20.436 7.49687C20.1497 7.53973 19.7826 7.62942 19.2044 7.77239L19.1941 7.77494C19.1819 7.77796 19.1694 7.78105 19.1568 7.78417C18.9698 7.83052 18.7458 7.88605 18.546 7.90828C18.304 7.9352 17.9617 7.93216 17.6172 7.73325C17.2727 7.53434 17.0989 7.23944 17.0012 7.0164C16.9208 6.83272 16.857 6.61159 16.8037 6.42679C16.7999 6.41383 16.7963 6.40106 16.7926 6.38849L16.7897 6.37841C16.6244 5.80613 16.5185 5.44336 16.4125 5.17398C16.3133 4.92191 16.2437 4.8334 16.1939 4.78471C16.1323 4.72455 16.0632 4.67259 15.9883 4.63012C15.9277 4.59575 15.8234 4.55351 15.5537 4.52814C15.2655 4.50103 14.8876 4.50001 14.2919 4.50001L13.7063 4.5C13.1106 4.5 12.7327 4.50103 12.4445 4.52814C12.1748 4.55351 12.0705 4.59575 12.0098 4.63012C11.935 4.67259 11.8659 4.72455 11.8043 4.78471C11.7544 4.8334 11.6849 4.92191 11.5857 5.17398ZM12 14C12 12.8954 12.8954 12 14 12C15.1046 12 16 12.8954 16 14C16 15.1046 15.1046 16 14 16C12.8954 16 12 15.1046 12 14ZM14 10C11.7909 10 10 11.7909 10 14C10 16.2091 11.7909 18 14 18C16.2091 18 18 16.2091 18 14C18 11.7909 16.2091 10 14 10Z" fill="#8994A3"/>
</svg>
