<svg width="28" height="28" viewBox="0 0 28 28" fill="none" xmlns="http://www.w3.org/2000/svg">
<path d="M16.9429 20.9214C16.4787 21.2508 15.9883 21.4155 15.4717 21.4155C14.8802 21.4155 14.431 21.262 14.124 20.9551C13.8245 20.6481 13.6149 20.2588 13.4951 19.7871C13.3828 19.3079 13.3192 18.81 13.3042 18.2934C13.2967 17.7768 13.293 17.3089 13.293 16.8896C13.293 16.3506 13.1021 15.9088 12.7202 15.5644C12.3459 15.2125 11.8667 15.0366 11.2827 15.0366C10.3319 15.0366 9.5944 14.7783 9.07031 14.2617C8.54622 13.7451 8.28418 13.0264 8.28418 12.1055C8.28418 11.3942 8.49381 10.7428 8.91309 10.1514C9.33236 9.55988 9.89014 9.08446 10.5864 8.72508C11.2902 8.36571 12.0614 8.18602 12.8999 8.18602C13.2743 8.18602 13.6486 8.23843 14.0229 8.34325C14.4048 8.44058 14.7492 8.53791 15.0562 8.63524C15.3706 8.73257 15.6139 8.78123 15.7861 8.78123C15.9359 8.78123 16.0519 8.70262 16.1343 8.54539C16.2166 8.38068 16.2578 8.18228 16.2578 7.95018C16.2578 7.78547 16.1792 7.60204 16.022 7.39989C15.8722 7.19025 15.6813 7.01431 15.4492 6.87206C15.2171 6.72232 14.9813 6.64745 14.7417 6.64745C14.6743 6.64745 14.6219 6.66616 14.5845 6.7036C14.5545 6.73355 14.5321 6.78595 14.5171 6.86082C14.5096 7.02554 14.4572 7.16405 14.3599 7.27635C14.27 7.38117 14.1315 7.43358 13.9443 7.43358C13.6673 7.43358 13.4277 7.37368 13.2256 7.25389C13.0234 7.12661 12.8363 6.99933 12.6641 6.87206C12.4993 6.74478 12.3346 6.68114 12.1699 6.68114C12.0052 6.68114 11.8704 6.75226 11.7656 6.89452C11.6608 7.03677 11.5485 7.20148 11.4287 7.38866C11.3164 7.57583 11.1667 7.74054 10.9795 7.8828C10.7998 8.02505 10.5452 8.09618 10.2158 8.09618C9.90885 8.09618 9.66553 8.01008 9.48584 7.83788C9.30615 7.66567 9.21631 7.44107 9.21631 7.16405C9.21631 6.93944 9.2762 6.74103 9.396 6.56883C9.51579 6.39663 9.6543 6.22069 9.81152 6.041C9.97624 5.85383 10.1185 5.6367 10.2383 5.38963C10.3581 5.14256 10.418 4.8356 10.418 4.46873C10.418 4.09439 10.5677 3.72378 10.8672 3.35692C10.914 3.29845 10.9738 3.22515 11.0414 3.14307C6.26348 4.44202 2.75 8.81069 2.75 14C2.75 20.2132 7.7868 25.25 14 25.25C19.8771 25.25 24.7016 20.7434 25.2064 14.9973C24.8498 14.9552 24.2583 14.4242 24.0068 14.0146C23.7523 13.5879 23.5501 13.1387 23.4004 12.667C23.2507 12.1953 23.1196 11.7947 23.0073 11.4653C22.9025 11.1284 22.779 10.9599 22.6367 10.9599C22.5544 10.9599 22.487 10.9936 22.4346 11.061C22.3822 11.1284 22.3185 11.1958 22.2437 11.2632C22.1688 11.3231 22.0565 11.353 21.9067 11.353C21.7345 11.353 21.5361 11.2744 21.3115 11.1172C21.0944 10.9599 20.8698 10.7803 20.6377 10.5781C20.4131 10.3685 20.1997 10.185 19.9976 10.0278C19.8029 9.87059 19.6419 9.79198 19.5146 9.79198C19.3724 9.79198 19.2414 9.85936 19.1216 9.99413C19.0093 10.1289 18.9531 10.2861 18.9531 10.4658C18.9531 10.6081 19.0692 10.7615 19.3013 10.9263C19.5334 11.091 19.7992 11.2744 20.0986 11.4765C20.4056 11.6712 20.6751 11.8808 20.9072 12.1055C21.1393 12.3226 21.2554 12.5547 21.2554 12.8017C21.2554 13.1237 21.1543 13.4306 20.9521 13.7226C20.7575 14.0146 20.5591 14.2729 20.3569 14.4975C20.1623 14.7222 20.0649 14.9018 20.0649 15.0366C20.0649 15.3211 20.0837 15.6805 20.1211 16.1147C20.166 16.5415 20.0462 16.987 19.7617 17.4512C19.6494 17.6383 19.4585 17.9453 19.189 18.3721C18.9269 18.7988 18.605 19.248 18.2231 19.7197C17.8413 20.1839 17.4146 20.5845 16.9429 20.9214Z" fill="white"/>
<path d="M17.8076 6.23192C17.9349 6.15705 18.0996 6.11961 18.3018 6.11961C18.4215 6.11961 18.5413 6.16079 18.6611 6.24315C18.7884 6.31802 18.9531 6.35545 19.1553 6.35545C19.2826 6.35545 19.3874 6.30679 19.4697 6.20946C19.5521 6.10464 19.5933 5.97736 19.5933 5.82762C19.5933 5.56558 19.4622 5.34471 19.2002 5.16502C18.9382 4.98534 18.6087 4.89549 18.2119 4.89549C17.7477 4.89549 17.3883 4.97036 17.1338 5.1201C16.8792 5.26235 16.752 5.46825 16.752 5.73778C16.752 5.91747 16.8081 6.06346 16.9204 6.17577C17.0402 6.28058 17.1862 6.33299 17.3584 6.33299C17.5381 6.33299 17.6878 6.2993 17.8076 6.23192Z" fill="white"/>
<path opacity="0.32" fill-rule="evenodd" clip-rule="evenodd" d="M16.9429 20.9214C16.4787 21.2508 15.9883 21.4155 15.4717 21.4155C14.8802 21.4155 14.431 21.2621 14.124 20.9551C13.8245 20.6481 13.6149 20.2588 13.4951 19.7871C13.3828 19.308 13.3192 18.8101 13.3042 18.2935C13.2967 17.7769 13.293 17.3089 13.293 16.8897C13.293 16.3506 13.1021 15.9089 12.7202 15.5645C12.3459 15.2126 11.8667 15.0366 11.2827 15.0366C10.3319 15.0366 9.5944 14.7783 9.07031 14.2617C8.54622 13.7451 8.28418 13.0264 8.28418 12.1055C8.28418 11.3942 8.49382 10.7429 8.91309 10.1514C9.33236 9.55991 9.89014 9.08449 10.5864 8.72511C11.2902 8.36574 12.0614 8.18605 12.8999 8.18605C13.2743 8.18605 13.6486 8.23846 14.0229 8.34328C14.4048 8.44061 14.7492 8.53794 15.0562 8.63527C15.3706 8.7326 15.6139 8.78126 15.7861 8.78126C15.9359 8.78126 16.0519 8.70265 16.1343 8.54542C16.2166 8.38071 16.2578 8.1823 16.2578 7.95021C16.2578 7.7855 16.1792 7.60206 16.022 7.39992C15.8722 7.19028 15.6813 7.01434 15.4492 6.87208C15.2171 6.72234 14.9813 6.64747 14.7417 6.64747C14.6743 6.64747 14.6219 6.66619 14.5845 6.70363C14.5545 6.73357 14.5321 6.78598 14.5171 6.86085C14.5096 7.02557 14.4572 7.16408 14.3599 7.27638C14.27 7.3812 14.1315 7.43361 13.9443 7.43361C13.6673 7.43361 13.4277 7.37371 13.2256 7.25392C13.0234 7.12664 12.8363 6.99936 12.6641 6.87208C12.4993 6.7448 12.3346 6.68117 12.1699 6.68117C12.0052 6.68117 11.8704 6.75229 11.7656 6.89454C11.6608 7.0368 11.5485 7.20151 11.4287 7.38869C11.3164 7.57586 11.1667 7.74057 10.9795 7.88283C10.7998 8.02508 10.5452 8.0962 10.2158 8.0962C9.90885 8.0962 9.66553 8.0101 9.48584 7.8379C9.30615 7.6657 9.21631 7.44109 9.21631 7.16408C9.21631 6.93947 9.2762 6.74106 9.396 6.56886C9.51579 6.39666 9.6543 6.22072 9.81152 6.04103C9.97624 5.85385 10.1185 5.63673 10.2383 5.38966C10.3581 5.14259 10.418 4.83562 10.418 4.46876C10.418 4.09441 10.5677 3.72381 10.8672 3.35695C10.914 3.29848 10.9738 3.22517 11.0414 3.1431C11.9841 2.88679 12.9761 2.75 14 2.75C20.2132 2.75 25.25 7.7868 25.25 14C25.25 14.3361 25.2353 14.6687 25.2064 14.9973C24.8498 14.9552 24.2583 14.4242 24.0068 14.0147C23.7523 13.5879 23.5501 13.1387 23.4004 12.667C23.2507 12.1953 23.1196 11.7948 23.0073 11.4653C22.9025 11.1284 22.779 10.96 22.6367 10.96C22.5544 10.96 22.487 10.9937 22.4346 11.061C22.3822 11.1284 22.3185 11.1958 22.2437 11.2632C22.1688 11.3231 22.0565 11.353 21.9067 11.353C21.7345 11.353 21.5361 11.2744 21.3115 11.1172C21.0944 10.96 20.8698 10.7803 20.6377 10.5781C20.4131 10.3685 20.1997 10.1851 19.9976 10.0278C19.8029 9.87062 19.6419 9.79201 19.5146 9.79201C19.3724 9.79201 19.2414 9.85939 19.1216 9.99415C19.0093 10.1289 18.9531 10.2861 18.9531 10.4658C18.9531 10.6081 19.0692 10.7616 19.3013 10.9263C19.5334 11.091 19.7992 11.2744 20.0986 11.4766C20.4056 11.6712 20.6751 11.8809 20.9072 12.1055C21.1393 12.3226 21.2554 12.5547 21.2554 12.8018C21.2554 13.1237 21.1543 13.4307 20.9521 13.7227C20.7575 14.0147 20.5591 14.273 20.3569 14.4976C20.1623 14.7222 20.0649 14.9019 20.0649 15.0366C20.0649 15.3211 20.0837 15.6805 20.1211 16.1148C20.166 16.5415 20.0462 16.987 19.7617 17.4512C19.6494 17.6384 19.4585 17.9453 19.189 18.3721C18.9269 18.7988 18.605 19.2481 18.2231 19.7197C17.8413 20.1839 17.4146 20.5845 16.9429 20.9214ZM17.8076 6.23195C17.9349 6.15708 18.0996 6.11964 18.3018 6.11964C18.4215 6.11964 18.5413 6.16082 18.6611 6.24318C18.7884 6.31805 18.9531 6.35548 19.1553 6.35548C19.2826 6.35548 19.3874 6.30682 19.4697 6.20949C19.5521 6.10467 19.5933 5.97739 19.5933 5.82765C19.5933 5.5656 19.4622 5.34474 19.2002 5.16505C18.9382 4.98536 18.6087 4.89552 18.2119 4.89552C17.7477 4.89552 17.3883 4.97039 17.1338 5.12013C16.8792 5.26238 16.752 5.46827 16.752 5.7378C16.752 5.91749 16.8081 6.06349 16.9204 6.17579C17.0402 6.28061 17.1862 6.33302 17.3584 6.33302C17.5381 6.33302 17.6878 6.29933 17.8076 6.23195Z" fill="white"/>
</svg>
