<svg width="28" height="28" viewBox="0 0 28 28" fill="none" xmlns="http://www.w3.org/2000/svg">
<path fill-rule="evenodd" clip-rule="evenodd" d="M15.9596 20.9972C15.2754 22.6814 14.549 23 14 23C13.451 23 12.7246 22.6814 12.0404 20.9972C11.4454 19.5327 11.0906 17.4474 11.0152 15H16.9848C16.9094 17.4474 16.5546 19.5327 15.9596 20.9972ZM16.9848 13H11.0152C11.0906 10.5526 11.4454 8.46733 12.0404 7.00275C12.7246 5.3186 13.451 5 14 5C14.549 5 15.2754 5.3186 15.9596 7.00275C16.5546 8.46733 16.9094 10.5526 16.9848 13ZM18.9857 15C18.9029 17.8639 18.457 20.4368 17.5901 22.2555C20.4827 20.9958 22.5847 18.2603 22.9451 15H18.9857ZM22.9451 13H18.9857C18.9029 10.1361 18.457 7.56322 17.5901 5.74455C20.4827 7.00422 22.5847 9.73967 22.9451 13ZM9.01426 13C9.0971 10.1361 9.54301 7.56322 10.4099 5.74455C7.5173 7.00423 5.41534 9.73967 5.05493 13H9.01426ZM5.05493 15C5.41534 18.2603 7.5173 20.9958 10.4099 22.2555C9.54302 20.4368 9.0971 17.8639 9.01426 15H5.05493ZM25 14C25 7.92487 20.0751 3 14 3C7.92487 3 3 7.92487 3 14C3 20.0751 7.92487 25 14 25C20.0751 25 25 20.0751 25 14Z" fill="#45AEF5"/>
</svg>
