<svg width="28" height="28" viewBox="0 0 28 28" fill="none" xmlns="http://www.w3.org/2000/svg">
<path fill-rule="evenodd" clip-rule="evenodd" d="M3 11C3 8.19974 3 6.79961 3.54497 5.73005C4.02434 4.78924 4.78924 4.02433 5.73005 3.54497C6.79961 3 8.19974 3 11 3H17C19.8003 3 21.2004 3 22.27 3.54497C23.2108 4.02433 23.9757 4.78924 24.455 5.73005C25 6.79961 25 8.19974 25 11V17C25 19.8003 25 21.2004 24.455 22.27C23.9757 23.2108 23.2108 23.9757 22.27 24.455C21.2004 25 19.8003 25 17 25H11C8.19974 25 6.79961 25 5.73005 24.455C4.78924 23.9757 4.02434 23.2108 3.54497 22.27C3 21.2004 3 19.8003 3 17V14V11ZM5 15L15.5858 15L12.2929 18.2929C11.9024 18.6834 11.9024 19.3166 12.2929 19.7071C12.6834 20.0976 13.3166 20.0976 13.7071 19.7071L18.7071 14.7071C19.0976 14.3166 19.0976 13.6834 18.7071 13.2929L13.7071 8.29289C13.3166 7.90237 12.6834 7.90237 12.2929 8.29289C11.9024 8.68342 11.9024 9.31658 12.2929 9.70711L15.5858 13L5 13V9.8C5 8.11984 5 7.27976 5.32698 6.63803C5.6146 6.07354 6.07354 5.6146 6.63803 5.32698C7.27977 5 8.11984 5 9.8 5H18.2C19.8802 5 20.7202 5 21.362 5.32698C21.9265 5.6146 22.3854 6.07354 22.673 6.63803C23 7.27976 23 8.11984 23 9.8V18.2C23 19.8802 23 20.7202 22.673 21.362C22.3854 21.9265 21.9265 22.3854 21.362 22.673C20.7202 23 19.8802 23 18.2 23H9.8C8.11984 23 7.27977 23 6.63803 22.673C6.07354 22.3854 5.6146 21.9265 5.32698 21.362C5 20.7202 5 19.8802 5 18.2V15Z" fill="#45AEF5"/>
</svg>
