<svg width="28" height="28" viewBox="0 0 28 28" fill="none" xmlns="http://www.w3.org/2000/svg">
<path opacity="0.32" d="M12.5 10C12.5 11.3807 11.3807 12.5 10 12.5C8.61929 12.5 7.5 11.3807 7.5 10C7.5 8.61929 8.61929 7.5 10 7.5C11.3807 7.5 12.5 8.61929 12.5 10Z" fill="white"/>
<path fill-rule="evenodd" clip-rule="evenodd" d="M19 11C19 12.0387 18.802 13.0312 18.4418 13.9418L24.0627 19.5627C24.4086 19.9086 24.5816 20.0816 24.7053 20.2834C24.8149 20.4624 24.8957 20.6575 24.9447 20.8615C25 21.0917 25 21.3363 25 21.8255V25H20.5V23.5H19V22H17.5V20.5H16L13.9418 18.4418C13.0312 18.802 12.0387 19 11 19C6.58172 19 3 15.4183 3 11C3 6.58172 6.58172 3 11 3C15.4183 3 19 6.58172 19 11ZM10 12.5C11.3807 12.5 12.5 11.3807 12.5 10C12.5 8.61929 11.3807 7.5 10 7.5C8.61929 7.5 7.5 8.61929 7.5 10C7.5 11.3807 8.61929 12.5 10 12.5Z" fill="white"/>
</svg>
