<svg width="28" height="28" viewBox="0 0 28 28" fill="none" xmlns="http://www.w3.org/2000/svg">
    <path fill-rule="evenodd" clip-rule="evenodd" d="M3 10.4C3 8.15979 3 7.03969 3.43597 6.18404C3.81947 5.43139 4.43139 4.81947 5.18404 4.43597C6.03969 4 7.15979 4 9.4 4H18.6C20.8402 4 21.9603 4 22.816 4.43597C23.5686 4.81947 24.1805 5.43139 24.564 6.18404C25 7.03969 25 8.15979 25 10.4V15.6C25 17.8402 25 18.9603 24.564 19.816C24.1805 20.5686 23.5686 21.1805 22.816 21.564C21.9603 22 20.8402 22 18.6 22H9L7.23021 23.7698C6.22414 24.7759 5.7211 25.2789 5.31696 25.4102C4.48892 25.6793 3.58819 25.3062 3.19292 24.5304C3 24.1518 3 23.4404 3 22.0176V22V17V10.4ZM8 10.5C8 9.67157 8.67157 9 9.5 9H18.5C19.3284 9 20 9.67157 20 10.5C20 11.3284 19.3284 12 18.5 12H9.5C8.67157 12 8 11.3284 8 10.5ZM8 15.5C8 14.6716 8.67157 14 9.5 14H14.5C15.3284 14 16 14.6716 16 15.5C16 16.3284 15.3284 17 14.5 17H9.5C8.67157 17 8 16.3284 8 15.5Z" fill="white"/>
    <path opacity="0.32" fill-rule="evenodd" clip-rule="evenodd" d="M9.5 9C8.67157 9 8 9.67157 8 10.5C8 11.3284 8.67157 12 9.5 12H18.5C19.3284 12 20 11.3284 20 10.5C20 9.67157 19.3284 9 18.5 9H9.5ZM9.5 14C8.67157 14 8 14.6716 8 15.5C8 16.3284 8.67157 17 9.5 17H14.5C15.3284 17 16 16.3284 16 15.5C16 14.6716 15.3284 14 14.5 14H9.5Z" fill="white"/>
</svg>
