<svg width="28" height="28" viewBox="0 0 28 28" fill="none" xmlns="http://www.w3.org/2000/svg">
<path fill-rule="evenodd" clip-rule="evenodd" d="M20 12.5C20 16.6421 16.6421 20 12.5 20C8.35786 20 5 16.6421 5 12.5C5 8.35786 8.35786 5 12.5 5C16.6421 5 20 8.35786 20 12.5ZM18.4733 19.8875C16.8415 21.2086 14.7631 22 12.5 22C7.25329 22 3 17.7467 3 12.5C3 7.25329 7.25329 3 12.5 3C17.7467 3 22 7.25329 22 12.5C22 14.7631 21.2086 16.8415 19.8875 18.4733L24.7071 23.2929C25.0976 23.6834 25.0976 24.3166 24.7071 24.7071C24.3166 25.0976 23.6834 25.0976 23.2929 24.7071L18.4733 19.8875Z" fill="#45AEF5"/>
</svg>
