<svg width="28" height="28" viewBox="0 0 28 28" fill="none" xmlns="http://www.w3.org/2000/svg">
<circle opacity="0.32" cx="13" cy="13.0012" r="8" fill="#45AEF5"/>
<path fill-rule="evenodd" clip-rule="evenodd" d="M21.0522 18.9321C22.2764 17.2728 23 15.2215 23 13.0012C23 7.47837 18.5228 3.00122 13 3.00122C7.47715 3.00122 3 7.47837 3 13.0012C3 18.5241 7.47715 23.0012 13 23.0012C15.2203 23.0012 17.2716 22.2776 18.9309 21.0534L21.8787 24.0012C22.4645 24.587 23.4142 24.587 24 24.0012C24.5858 23.4154 24.5858 22.4657 24 21.8799L21.0522 18.9321ZM13 20.0012C16.866 20.0012 20 16.8672 20 13.0012C20 9.13523 16.866 6.00122 13 6.00122C9.13401 6.00122 6 9.13523 6 13.0012C6 16.8672 9.13401 20.0012 13 20.0012Z" fill="#45AEF5"/>
</svg>
