<svg width="28" height="28" viewBox="0 0 28 28" fill="none" xmlns="http://www.w3.org/2000/svg">
<mask id="path-1-inside-1_22039_50738" fill="white">
<path fill-rule="evenodd" clip-rule="evenodd" d="M14 25.2512C20.2132 25.2512 25.25 20.2144 25.25 14.0012C25.25 7.78802 20.2132 2.75122 14 2.75122C7.7868 2.75122 2.75 7.78802 2.75 14.0012C2.75 20.2144 7.7868 25.2512 14 25.2512ZM15.5 9.00122C15.5 8.17279 14.8284 7.50122 14 7.50122C13.1716 7.50122 12.5 8.17279 12.5 9.00122V12.5012H9C8.17157 12.5012 7.5 13.1728 7.5 14.0012C7.5 14.8296 8.17157 15.5012 9 15.5012H12.5V19.0012C12.5 19.8296 13.1716 20.5012 14 20.5012C14.8284 20.5012 15.5 19.8296 15.5 19.0012V15.5012H19C19.8284 15.5012 20.5 14.8296 20.5 14.0012C20.5 13.1728 19.8284 12.5012 19 12.5012H15.5V9.00122Z"/>
</mask>
<path fill-rule="evenodd" clip-rule="evenodd" d="M14 25.2512C20.2132 25.2512 25.25 20.2144 25.25 14.0012C25.25 7.78802 20.2132 2.75122 14 2.75122C7.7868 2.75122 2.75 7.78802 2.75 14.0012C2.75 20.2144 7.7868 25.2512 14 25.2512ZM15.5 9.00122C15.5 8.17279 14.8284 7.50122 14 7.50122C13.1716 7.50122 12.5 8.17279 12.5 9.00122V12.5012H9C8.17157 12.5012 7.5 13.1728 7.5 14.0012C7.5 14.8296 8.17157 15.5012 9 15.5012H12.5V19.0012C12.5 19.8296 13.1716 20.5012 14 20.5012C14.8284 20.5012 15.5 19.8296 15.5 19.0012V15.5012H19C19.8284 15.5012 20.5 14.8296 20.5 14.0012C20.5 13.1728 19.8284 12.5012 19 12.5012H15.5V9.00122Z" fill="#45AEF5"/>
<path d="M12.5 12.5012V13.5012H13.5V12.5012H12.5ZM12.5 15.5012H13.5V14.5012H12.5V15.5012ZM15.5 15.5012V14.5012H14.5V15.5012H15.5ZM15.5 12.5012H14.5V13.5012H15.5V12.5012ZM24.25 14.0012C24.25 19.6621 19.6609 24.2512 14 24.2512V26.2512C20.7655 26.2512 26.25 20.7667 26.25 14.0012H24.25ZM14 3.75122C19.6609 3.75122 24.25 8.3403 24.25 14.0012H26.25C26.25 7.23573 20.7655 1.75122 14 1.75122V3.75122ZM3.75 14.0012C3.75 8.3403 8.33908 3.75122 14 3.75122V1.75122C7.23451 1.75122 1.75 7.23573 1.75 14.0012H3.75ZM14 24.2512C8.33908 24.2512 3.75 19.6621 3.75 14.0012H1.75C1.75 20.7667 7.23451 26.2512 14 26.2512V24.2512ZM14 8.50122C14.2761 8.50122 14.5 8.72508 14.5 9.00122H16.5C16.5 7.62051 15.3807 6.50122 14 6.50122V8.50122ZM13.5 9.00122C13.5 8.72508 13.7239 8.50122 14 8.50122V6.50122C12.6193 6.50122 11.5 7.62051 11.5 9.00122H13.5ZM13.5 12.5012V9.00122H11.5V12.5012H13.5ZM9 13.5012H12.5V11.5012H9V13.5012ZM8.5 14.0012C8.5 13.7251 8.72386 13.5012 9 13.5012V11.5012C7.61929 11.5012 6.5 12.6205 6.5 14.0012H8.5ZM9 14.5012C8.72386 14.5012 8.5 14.2774 8.5 14.0012H6.5C6.5 15.3819 7.61929 16.5012 9 16.5012V14.5012ZM12.5 14.5012H9V16.5012H12.5V14.5012ZM13.5 19.0012V15.5012H11.5V19.0012H13.5ZM14 19.5012C13.7239 19.5012 13.5 19.2774 13.5 19.0012H11.5C11.5 20.3819 12.6193 21.5012 14 21.5012V19.5012ZM14.5 19.0012C14.5 19.2774 14.2761 19.5012 14 19.5012V21.5012C15.3807 21.5012 16.5 20.3819 16.5 19.0012H14.5ZM14.5 15.5012V19.0012H16.5V15.5012H14.5ZM19 14.5012H15.5V16.5012H19V14.5012ZM19.5 14.0012C19.5 14.2774 19.2761 14.5012 19 14.5012V16.5012C20.3807 16.5012 21.5 15.3819 21.5 14.0012H19.5ZM19 13.5012C19.2761 13.5012 19.5 13.7251 19.5 14.0012H21.5C21.5 12.6205 20.3807 11.5012 19 11.5012V13.5012ZM15.5 13.5012H19V11.5012H15.5V13.5012ZM14.5 9.00122V12.5012H16.5V9.00122H14.5Z" fill="#45AEF5" mask="url(#path-1-inside-1_22039_50738)"/>
<path opacity="0.32" d="M14 14.0012H19M14 14.0012H9M14 14.0012V9.00122M14 14.0012V19.0012" stroke="#45AEF5" stroke-width="3" stroke-linecap="round" stroke-linejoin="round"/>
</svg>
