<svg width="28" height="28" viewBox="0 0 28 28" fill="none" xmlns="http://www.w3.org/2000/svg">
    <g clip-path="url(#clip0_27036_61570)">
        <path d="M16.8891 6.86826C18.3033 5.45405 17.2426 4.39339 17.9497 3.68628C18.4801 3.15595 19.7752 3.39046 22.1924 5.8076C24.6095 8.22474 24.844 9.51991 24.3137 10.0502C23.6066 10.7573 22.5459 9.69669 21.1317 11.1109L19.0104 13.2322C16.5355 15.7071 20.0711 19.2426 17.9497 21.3639C16.8891 22.4246 14.4142 20.6568 11.5891 17.8318L8.76052 20.66C6.99295 22.428 4.51786 24.9026 3.81077 24.1955C3.10368 23.4885 5.57856 21.0136 7.34635 19.2458L10.1749 16.4176C7.34314 13.5858 5.57538 11.1109 6.63604 10.0502C8.75736 7.92892 12.2929 11.4645 14.7678 8.98958L16.8891 6.86826Z" fill="white"/>
    </g>
    <defs>
        <clipPath id="clip0_27036_61570">
            <rect width="28" height="28" fill="white"/>
        </clipPath>
    </defs>
</svg>
