<svg width="28" height="28" viewBox="0 0 28 28" fill="none" xmlns="http://www.w3.org/2000/svg">
    <path opacity="0.32" fill-rule="evenodd" clip-rule="evenodd" d="M5.82698 4.63803C5.5 5.27976 5.5 6.11984 5.5 7.8V9H22.5V7.8C22.5 6.11984 22.5 5.27976 22.173 4.63803C21.8854 4.07354 21.4265 3.6146 20.862 3.32698C20.2202 3 19.3802 3 17.7 3H10.3C8.61984 3 7.77976 3 7.13803 3.32698C6.57354 3.6146 6.1146 4.07354 5.82698 4.63803ZM13.8816 9.37169C13.4014 9.43923 13.1088 10.1428 12.5236 11.5498C12.3528 11.9604 12.2675 12.1657 12.1064 12.2995C12.078 12.3231 12.0481 12.3449 12.0169 12.3646C11.8398 12.4764 11.6182 12.4942 11.1749 12.5297C9.65589 12.6515 8.89637 12.7124 8.68374 13.1482C8.64897 13.2195 8.62434 13.2953 8.61057 13.3734C8.52642 13.8509 9.1051 14.3466 10.2624 15.338C10.6001 15.6273 10.769 15.7719 10.8465 15.9665C10.8602 16.0008 10.8716 16.0359 10.8807 16.0717C10.9323 16.2747 10.8808 16.491 10.7776 16.9235C10.424 18.4058 10.2472 19.147 10.596 19.4839C10.653 19.539 10.7175 19.5858 10.7876 19.6231C11.2157 19.8507 11.866 19.4535 13.1665 18.6591C13.546 18.4274 13.7357 18.3115 13.9447 18.2979C13.9816 18.2955 14.0185 18.2955 14.0553 18.2979C14.2644 18.3115 14.4541 18.4274 14.8336 18.6591C16.1341 19.4535 16.7843 19.8507 17.2125 19.6231C17.2826 19.5858 17.347 19.539 17.4041 19.4839C17.7529 19.147 17.5761 18.4058 17.2225 16.9235L17.2225 16.9235C17.1193 16.491 17.0677 16.2747 17.1194 16.0717C17.1285 16.0359 17.1399 16.0008 17.1535 15.9665C17.2311 15.7719 17.3999 15.6273 17.7376 15.338C18.895 14.3466 19.4737 13.8509 19.3895 13.3734C19.3757 13.2953 19.3511 13.2195 19.3163 13.1482C19.1037 12.7124 18.3442 12.6515 16.8251 12.5297C16.3819 12.4942 16.1603 12.4764 15.9832 12.3646C15.952 12.3449 15.9221 12.3231 15.8937 12.2995C15.7326 12.1657 15.6472 11.9604 15.4765 11.5498C14.8912 10.1428 14.5986 9.43923 14.1184 9.37169C14.0399 9.36064 13.9602 9.36064 13.8816 9.37169Z" fill="white"/>
    <path fill-rule="evenodd" clip-rule="evenodd" d="M3.43597 8.18404C3 9.03969 3 10.1598 3 12.4V17.6C3 19.8402 3 20.9603 3.43597 21.816C3.81947 22.5686 4.43139 23.1805 5.18404 23.564C6.03969 24 7.15979 24 9.4 24H18.6C20.8402 24 21.9603 24 22.816 23.564C23.5686 23.1805 24.1805 22.5686 24.564 21.816C25 20.9603 25 19.8402 25 17.6V12.4C25 10.1598 25 9.03969 24.564 8.18404C24.1805 7.43139 23.5686 6.81947 22.816 6.43597C21.9603 6 20.8402 6 18.6 6H9.4C7.15979 6 6.03969 6 5.18404 6.43597C4.43139 6.81947 3.81947 7.43139 3.43597 8.18404ZM13.8816 9.37169C13.4014 9.43923 13.1088 10.1428 12.5236 11.5498C12.3528 11.9604 12.2675 12.1657 12.1064 12.2995C12.078 12.3231 12.0481 12.3449 12.0169 12.3646C11.8398 12.4764 11.6182 12.4942 11.1749 12.5297C9.65589 12.6515 8.89637 12.7124 8.68374 13.1482C8.64897 13.2195 8.62434 13.2953 8.61057 13.3734C8.52642 13.8509 9.1051 14.3466 10.2624 15.338C10.6001 15.6273 10.769 15.7719 10.8465 15.9665C10.8602 16.0008 10.8716 16.0359 10.8807 16.0717C10.9323 16.2747 10.8808 16.491 10.7776 16.9235C10.424 18.4058 10.2472 19.147 10.596 19.4839C10.653 19.539 10.7175 19.5858 10.7876 19.6231C11.2157 19.8507 11.866 19.4535 13.1665 18.6591C13.546 18.4274 13.7357 18.3115 13.9447 18.2979C13.9816 18.2955 14.0185 18.2955 14.0553 18.2979C14.2644 18.3115 14.4541 18.4274 14.8336 18.6591C16.1341 19.4535 16.7843 19.8507 17.2125 19.6231C17.2826 19.5858 17.347 19.539 17.4041 19.4839C17.7529 19.147 17.5761 18.4058 17.2225 16.9235L17.2225 16.9235C17.1193 16.491 17.0677 16.2747 17.1194 16.0717C17.1285 16.0359 17.1399 16.0008 17.1535 15.9665C17.2311 15.7719 17.3999 15.6273 17.7376 15.338C18.895 14.3466 19.4737 13.8509 19.3895 13.3734C19.3757 13.2953 19.3511 13.2195 19.3163 13.1482C19.1037 12.7124 18.3442 12.6515 16.8251 12.5297C16.3819 12.4942 16.1603 12.4764 15.9832 12.3646C15.952 12.3449 15.9221 12.3231 15.8937 12.2995C15.7326 12.1657 15.6472 11.9604 15.4765 11.5498C14.8912 10.1428 14.5986 9.43923 14.1184 9.37169C14.0399 9.36064 13.9602 9.36064 13.8816 9.37169Z" fill="white"/>
</svg>
