<svg width="28" height="28" viewBox="0 0 28 28" fill="none" xmlns="http://www.w3.org/2000/svg">
    <path fill-rule="evenodd" clip-rule="evenodd" d="M14 25.25C20.2132 25.25 25.25 20.2132 25.25 14C25.25 7.7868 20.2132 2.75 14 2.75C7.7868 2.75 2.75 7.7868 2.75 14C2.75 20.2132 7.7868 25.25 14 25.25ZM14.0001 9C13.2045 9 12.5144 9.46445 12.1918 10.1436C11.8363 10.8919 10.9415 11.2104 10.1933 10.8549C9.44497 10.4994 9.12654 9.60465 9.48201 8.85636C10.2828 7.1706 12.0033 6 14.0001 6C16.7241 6 19 7.97094 19 10.75C19 11.8427 18.6876 12.7345 18.1673 13.4519C17.6699 14.1376 17.039 14.5838 16.5417 14.8928C16.3589 15.0064 16.1666 15.1175 16.0071 15.2098L16.0071 15.2098L16.0068 15.21C15.9553 15.2397 15.9073 15.2675 15.8641 15.2927C15.7004 15.3883 15.5856 15.4592 15.5 15.5187V16C15.5 16.8284 14.8284 17.5 14 17.5C13.1716 17.5 12.5 16.8284 12.5 16V15.25C12.5 14.171 13.1761 13.5101 13.6469 13.157C13.8851 12.9784 14.1408 12.8251 14.3507 12.7024C14.4183 12.6629 14.4814 12.6264 14.5417 12.5915L14.5418 12.5915C14.689 12.5064 14.8194 12.431 14.9583 12.3447C15.336 12.11 15.5801 11.9093 15.7389 11.6903C15.8748 11.503 16 11.2323 16 10.75C16 9.82906 15.2759 9 14.0001 9ZM15.5 21C15.5 21.8284 14.8284 22.5 14 22.5C13.1716 22.5 12.5 21.8284 12.5 21C12.5 20.1716 13.1716 19.5 14 19.5C14.8284 19.5 15.5 20.1716 15.5 21Z" fill="white"/>
    <path opacity="0.32" fill-rule="evenodd" clip-rule="evenodd" d="M12.1917 10.1436C12.5143 9.46445 13.2044 9 14 9C15.2758 9 15.9999 9.82906 15.9999 10.75C15.9999 11.2323 15.8747 11.503 15.7388 11.6903C15.58 11.9093 15.3359 12.11 14.9581 12.3447C14.8193 12.431 14.6889 12.5064 14.5416 12.5915L14.5416 12.5915C14.4813 12.6264 14.4182 12.6629 14.3506 12.7024C14.1406 12.8251 13.8849 12.9784 13.6467 13.157C13.176 13.5101 12.4999 14.171 12.4999 15.25V16C12.4999 16.8284 13.1714 17.5 13.9999 17.5C14.8283 17.5 15.4999 16.8284 15.4999 16V15.5187C15.5855 15.4592 15.7003 15.3883 15.864 15.2927C15.9073 15.2674 15.9554 15.2396 16.0069 15.2098L16.007 15.2098C16.1665 15.1175 16.3588 15.0064 16.5416 14.8928C17.0389 14.5838 17.6698 14.1376 18.1672 13.4519C18.6875 12.7345 18.9999 11.8427 18.9999 10.75C18.9999 7.97094 16.7239 6 14 6C12.0031 6 10.2827 7.1706 9.48189 8.85636C9.12641 9.60465 9.44485 10.4994 10.1931 10.8549C10.9414 11.2104 11.8362 10.8919 12.1917 10.1436ZM13.9999 22.5C14.8283 22.5 15.4999 21.8284 15.4999 21C15.4999 20.1716 14.8283 19.5 13.9999 19.5C13.1715 19.5 12.4999 20.1716 12.4999 21C12.4999 21.8284 13.1715 22.5 13.9999 22.5Z" fill="white"/>
</svg>
