<svg width="28" height="28" viewBox="0 0 28 28" fill="none" xmlns="http://www.w3.org/2000/svg">
    <path fill-rule="evenodd" clip-rule="evenodd" d="M10.5 5C10.5 5.55228 10.0523 6 9.5 6L9.49408 5.99998H9.2C8.0799 5.99998 7.51984 5.99998 7.09202 6.21797C6.71569 6.40972 6.40973 6.71568 6.21799 7.092C6 7.51983 6 8.07988 6 9.19998V9.49901L6 9.5C6 10.0523 5.55228 10.5 5 10.5C4.44772 10.5 4 10.0523 4 9.5C4 9.48096 4.00053 9.46204 4.00158 9.44326C4.0103 7.82169 4.06701 6.90815 4.43597 6.18402C4.81947 5.43137 5.43139 4.81945 6.18404 4.43596C6.90821 4.06697 7.82182 4.01028 9.44359 4.00156C9.46226 4.00053 9.48107 4 9.5 4C10.0523 4 10.5 4.44772 10.5 5ZM10.5 23C10.5 23.5523 10.0523 24 9.5 24C9.48084 24 9.4618 23.9995 9.44291 23.9984C7.82156 23.9897 6.90811 23.9329 6.18404 23.564C5.43139 23.1805 4.81947 22.5686 4.43597 21.8159C4.06702 21.0918 4.0103 20.1783 4.00158 18.5568C4.00053 18.538 4 18.519 4 18.5C4 17.9477 4.44772 17.5 5 17.5C5.55227 17.5 5.99998 17.9477 6 18.5V18.5V18.8C6 19.9201 6 20.4801 6.21799 20.908C6.40973 21.2843 6.71569 21.5903 7.09202 21.782C7.51984 22 8.0799 22 9.2 22H9.5V22C10.0523 22 10.5 22.4477 10.5 23ZM18.5 4C18.5189 4 18.5377 4.00053 18.5564 4.00156C20.1782 4.01028 21.0918 4.06697 21.816 4.43596C22.5686 4.81945 23.1805 5.43137 23.564 6.18402C23.933 6.90815 23.9897 7.82168 23.9984 9.44325C23.9995 9.46203 24 9.48095 24 9.5C24 10.0523 23.5523 10.5 23 10.5C22.4477 10.5 22 10.0523 22 9.5V9.49996V9.19998C22 8.07988 22 7.51983 21.782 7.092C21.5903 6.71568 21.2843 6.40972 20.908 6.21797C20.4802 5.99998 19.9201 5.99998 18.8 5.99998H18.5059L18.5 6C17.9477 6 17.5 5.55228 17.5 5C17.5 4.44772 17.9477 4 18.5 4ZM18.5 24C18.5192 24 18.5382 23.9995 18.5571 23.9984C20.1784 23.9897 21.0919 23.9329 21.816 23.564C22.5686 23.1805 23.1805 22.5686 23.564 21.8159C23.933 21.0918 23.9897 20.1783 23.9984 18.5568C23.9995 18.538 24 18.519 24 18.5C24 17.9477 23.5523 17.5 23 17.5C22.4477 17.5 22 17.9477 22 18.5V18.5V18.8C22 19.9201 22 20.4801 21.782 20.908C21.5903 21.2843 21.2843 21.5903 20.908 21.782C20.4802 22 19.9201 22 18.8 22H18.5V22C17.9477 22 17.5 22.4477 17.5 23C17.5 23.5523 17.9477 24 18.5 24ZM4.0001 9.99998L4 10.4V17.6L4.0001 18V9.99998ZM10.16 24H17.84L17.6 24H10.4L10.16 24ZM9 13C8.44772 13 8 13.4477 8 14C8 14.5523 8.44771 15 9 15H19C19.5523 15 20 14.5523 20 14C20 13.4477 19.5523 13 19 13H9Z" fill="white"/>
</svg>
