<svg width="28" height="28" viewBox="0 0 28 28" fill="none" xmlns="http://www.w3.org/2000/svg">
    <path d="M6 8.75C6 8.33579 6.33579 8 6.75 8H21.25C21.6642 8 22 8.33579 22 8.75C22 9.16421 21.6642 9.5 21.25 9.5H6.75C6.33579 9.5 6 9.16421 6 8.75Z" fill="white"/>
    <path d="M6 14C6 13.5858 6.33579 13.25 6.75 13.25H21.25C21.6642 13.25 22 13.5858 22 14C22 14.4142 21.6642 14.75 21.25 14.75H6.75C6.33579 14.75 6 14.4142 6 14Z" fill="white"/>
    <path d="M6.75 18.5C6.33579 18.5 6 18.8358 6 19.25C6 19.6642 6.33579 20 6.75 20H21.25C21.6642 20 22 19.6642 22 19.25C22 18.8358 21.6642 18.5 21.25 18.5H6.75Z" fill="white"/>
</svg>
