<svg width="28" height="28" viewBox="0 0 28 28" fill="none" xmlns="http://www.w3.org/2000/svg">
<path fill-rule="evenodd" clip-rule="evenodd" d="M2 22.0832C2.00192 22.1675 2.01463 22.253 2.03907 22.3378C2.19193 22.8685 2.74608 23.1748 3.27679 23.022C5.92646 22.2588 8.13577 21.0789 9.9304 19.6595C11.2697 20.6405 12.9152 21.3502 14.8821 21.6655C16.1461 21.8681 17.297 21.9017 18.3317 21.7988C19.4309 23.8776 21.4878 25.7055 24.7519 26.5415C25.2869 26.6785 25.8317 26.3559 25.9687 25.8209C25.9882 25.745 25.9983 25.669 26 25.5939V25.5502C25.9904 25.113 25.6925 24.7178 25.2481 24.604C22.8506 23.99 21.3056 22.7693 20.3979 21.3724C22.2868 20.753 23.6119 19.5955 24.343 18.2391C24.9794 17.0588 25.1518 15.7259 24.7717 14.5792C24.3785 13.3928 23.4112 12.4853 21.9995 12.2635C20.427 12.0164 19.1557 12.8266 18.3733 14.0033C17.6045 15.1595 17.2438 16.7293 17.3502 18.3405C17.3831 18.8386 17.4608 19.3448 17.5866 19.8496C16.8729 19.878 16.0787 19.8318 15.1986 19.6907C13.716 19.453 12.4818 18.9581 11.4654 18.291C13.5028 16.2445 14.8306 13.875 15.5081 11.5905C16.1777 9.33237 16.2287 7.0963 15.6308 5.31845C15.0238 3.51316 13.7046 2.11399 11.7017 1.87726C9.93948 1.66897 8.46485 2.36066 7.39978 3.55007C6.35967 4.71159 5.71493 6.3314 5.45073 8.06795C4.94815 11.3714 5.77672 15.4303 8.41562 18.3025C6.86859 19.4713 4.98026 20.45 2.72321 21.1001C2.29259 21.2241 2.00972 21.6124 2 22.0379V22.0832ZM9.93147 16.9958C11.8013 15.1583 12.9944 13.0326 13.5906 11.0219C14.1756 9.04935 14.1697 7.24806 13.7352 5.95593C13.3099 4.69124 12.5192 3.98781 11.4669 3.86343C10.4288 3.74073 9.57503 4.11896 8.88972 4.88426C8.17945 5.67744 7.65188 6.89714 7.42798 8.36877C6.99585 11.2091 7.74208 14.6456 9.93147 16.9958ZM19.5717 19.537C21.1505 19.0699 22.1123 18.1624 22.5826 17.2901C23.0036 16.509 23.0518 15.747 22.8733 15.2085C22.7079 14.7095 22.3372 14.3411 21.6891 14.2393C21.0775 14.1432 20.5058 14.4082 20.0387 15.1107C19.558 15.8337 19.2626 16.9471 19.3459 18.2088C19.3745 18.6429 19.4478 19.0897 19.5717 19.537Z" fill="#45AEF5"/>
</svg>
