<svg width="28" height="28" viewBox="0 0 28 28" fill="none" xmlns="http://www.w3.org/2000/svg">
<path fill-rule="evenodd" clip-rule="evenodd" d="M4.20743 9.52257C3.86732 10.1236 3.8178 10.9159 3.71876 12.5006L3.425 17.2008C3.27718 19.566 3.20327 20.7486 3.61791 21.6586C3.98233 22.4583 4.6 23.1158 5.37548 23.5294C6.25784 24 7.44274 24 9.81253 24H18.1875C20.5573 24 21.7422 24 22.6246 23.5294C23.4001 23.1158 24.0177 22.4583 24.3822 21.6586C24.7968 20.7486 24.7229 19.566 24.5751 17.2008L24.2813 12.5006C24.1823 10.916 24.1328 10.1236 23.7927 9.52258C23.4933 8.99344 23.0402 8.56777 22.4934 8.30195C21.8723 8 21.0784 8 19.4907 8H8.50942C6.92168 8 6.12781 8 5.50672 8.30195C4.95995 8.56777 4.50684 8.99344 4.20743 9.52257ZM9.50003 10C10.3285 10 11 10.6716 11 11.5C11 13.1569 12.3432 14.5 14 14.5C15.6569 14.5 17 13.1569 17 11.5C17 10.6716 17.6716 10 18.5 10C19.3285 10 20 10.6716 20 11.5C20 14.8137 17.3137 17.5 14 17.5C10.6863 17.5 8.00003 14.8137 8.00003 11.5C8.00003 10.6716 8.67161 10 9.50003 10Z" fill="white"/>
<path opacity="0.32" fill-rule="evenodd" clip-rule="evenodd" d="M14 5C12.3431 5 11 6.34315 11 8H8C8 4.68629 10.6863 2 14 2C17.3137 2 20 4.68629 20 8H17C17 6.34315 15.6569 5 14 5ZM9.5 10C10.3284 10 11 10.6716 11 11.5C11 13.1569 12.3431 14.5 14 14.5C15.6569 14.5 17 13.1569 17 11.5C17 10.6716 17.6716 10 18.5 10C19.3284 10 20 10.6716 20 11.5C20 14.8137 17.3137 17.5 14 17.5C10.6863 17.5 8 14.8137 8 11.5C8 10.6716 8.67157 10 9.5 10Z" fill="white"/>
</svg>
