<svg width="28" height="28" viewBox="0 0 28 28" fill="none" xmlns="http://www.w3.org/2000/svg">
<path fill-rule="evenodd" clip-rule="evenodd" d="M21.5607 22.5607C20.9749 23.1464 20.0251 23.1464 19.4393 22.5607L14.9393 18.0607C14.3536 17.4749 14.3536 16.5251 14.9393 15.9393C15.5251 15.3536 16.4749 15.3536 17.0607 15.9393L19 17.8787V8.5C19 7.67157 19.6716 7 20.5 7C21.3284 7 22 7.67157 22 8.5V17.8787L23.9393 15.9393C24.5251 15.3536 25.4749 15.3536 26.0607 15.9393C26.6464 16.5251 26.6464 17.4749 26.0607 18.0607L21.5607 22.5607Z" fill="white"/>
<path opacity="0.32" fill-rule="evenodd" clip-rule="evenodd" d="M8.56066 5.43934C7.97487 4.85355 7.02513 4.85355 6.43934 5.43934L1.93934 9.93934C1.35355 10.5251 1.35355 11.4749 1.93934 12.0607C2.52513 12.6464 3.47487 12.6464 4.06066 12.0607L6 10.1213L6 19.5C6 20.3284 6.67157 21 7.5 21C8.32843 21 9 20.3284 9 19.5V10.1213L10.9393 12.0607C11.5251 12.6464 12.4749 12.6464 13.0607 12.0607C13.6464 11.4749 13.6464 10.5251 13.0607 9.93934L8.56066 5.43934Z" fill="white"/>
</svg>
