<svg width="28" height="28" viewBox="0 0 28 28" fill="none" xmlns="http://www.w3.org/2000/svg">
<path fill-rule="evenodd" clip-rule="evenodd" d="M6.43934 5.43934C7.02513 4.85355 7.97487 4.85355 8.56066 5.43934L13.0607 9.93934C13.6464 10.5251 13.6464 11.4749 13.0607 12.0607C12.4749 12.6464 11.5251 12.6464 10.9393 12.0607L9 10.1213V19.5C9 20.3284 8.32843 21 7.5 21C6.67157 21 6 20.3284 6 19.5V10.1213L4.06066 12.0607C3.47487 12.6464 2.52513 12.6464 1.93934 12.0607C1.35355 11.4749 1.35355 10.5251 1.93934 9.93934L6.43934 5.43934ZM14.9393 18.0607L19.4393 22.5607C20.0251 23.1464 20.9749 23.1464 21.5607 22.5607L26.0607 18.0607C26.6464 17.4749 26.6464 16.5251 26.0607 15.9393C25.4749 15.3536 24.5251 15.3536 23.9393 15.9393L22 17.8787V8.5C22 7.67157 21.3284 7 20.5 7C19.6716 7 19 7.67157 19 8.5V17.8787L17.0607 15.9393C16.4749 15.3536 15.5251 15.3536 14.9393 15.9393C14.3536 16.5251 14.3536 17.4749 14.9393 18.0607Z" fill="white"/>
</svg>
