<svg width="28" height="29" viewBox="0 0 28 29" fill="none" xmlns="http://www.w3.org/2000/svg">
<path fill-rule="evenodd" clip-rule="evenodd" d="M19.0607 3.94337C18.4749 3.35758 17.5251 3.35758 16.9393 3.94337L10.9393 9.94337C10.3536 10.5292 10.3536 11.4789 10.9393 12.0647C11.5251 12.6505 12.4749 12.6505 13.0607 12.0647L16.5 8.62535V22.004C16.5 22.8325 17.1716 23.504 18 23.504C18.8284 23.504 19.5 22.8325 19.5 22.004V8.62535L22.9393 12.0647C23.5251 12.6505 24.4749 12.6505 25.0607 12.0647C25.6464 11.4789 25.6464 10.5292 25.0607 9.94337L19.0607 3.94337ZM10.5 22.004V17.004C10.5 16.1756 11.1716 15.504 12 15.504C12.8284 15.504 13.5 16.1756 13.5 17.004L13.5 22.004C13.5 22.8325 12.8284 23.504 12 23.504C11.1716 23.504 10.5 22.8325 10.5 22.004ZM6 18.504C6.82843 18.504 7.5 19.1756 7.5 20.004V22.004C7.5 22.8325 6.82843 23.504 6 23.504C5.17157 23.504 4.5 22.8325 4.5 22.004V20.004C4.5 19.1756 5.17157 18.504 6 18.504Z" fill="#8994A3"/>
</svg>
