<svg width="28" height="28" viewBox="0 0 28 28" fill="none" xmlns="http://www.w3.org/2000/svg">
<path fill-rule="evenodd" clip-rule="evenodd" d="M17.3734 3.35539C15.7238 2.4481 14.899 1.99445 14 1.99445C13.101 1.99445 12.2762 2.44809 10.6266 3.35539L6.07232 5.86022C5.062 6.4159 4.55684 6.69374 4.27842 7.16462C4 7.63551 4 8.21203 4 9.36508V15.5C4 21.0744 8.99721 24.0593 13.0827 25.2566C13.6822 25.4323 14.3178 25.4323 14.9173 25.2566C19.0028 24.0593 24 21.0744 24 15.5V9.36508C24 8.21203 24 7.63551 23.7216 7.16462C23.4432 6.69374 22.938 6.4159 21.9277 5.86022L17.3734 3.35539ZM18.5607 13.0607C19.1464 12.4749 19.1464 11.5251 18.5607 10.9393C17.9749 10.3536 17.0251 10.3536 16.4393 10.9393L12.5 14.8787L11.0607 13.4393C10.4749 12.8536 9.52513 12.8536 8.93934 13.4393C8.35355 14.0251 8.35355 14.9749 8.93934 15.5607L11.4393 18.0607C12.0251 18.6464 12.9749 18.6464 13.5607 18.0607L18.5607 13.0607Z" fill="white"/>
<path opacity="0.32" fill-rule="evenodd" clip-rule="evenodd" d="M18.5607 10.9393C19.1464 11.5251 19.1464 12.4749 18.5607 13.0607L13.5607 18.0607C12.9749 18.6464 12.0251 18.6464 11.4393 18.0607L8.93934 15.5607C8.35355 14.9749 8.35355 14.0251 8.93934 13.4393C9.52513 12.8536 10.4749 12.8536 11.0607 13.4393L12.5 14.8787L16.4393 10.9393C17.0251 10.3536 17.9749 10.3536 18.5607 10.9393Z" fill="white"/>
</svg>
