<svg width="28" height="28" viewBox="0 0 28 28" fill="none" xmlns="http://www.w3.org/2000/svg">
    <path fill-rule="evenodd" clip-rule="evenodd" d="M7.29289 5.29289C7.68342 4.90237 8.31658 4.90237 8.70711 5.29289L13.7071 10.2929C14.0976 10.6834 14.0976 11.3166 13.7071 11.7071C13.3166 12.0976 12.6834 12.0976 12.2929 11.7071L9 8.41421V19C9 19.5523 8.55229 20 8 20C7.44772 20 7 19.5523 7 19L7 8.41421L3.70711 11.7071C3.31658 12.0976 2.68342 12.0976 2.29289 11.7071C1.90237 11.3166 1.90237 10.6834 2.29289 10.2929L7.29289 5.29289ZM14.2929 17.7071L19.2929 22.7071C19.6834 23.0976 20.3166 23.0976 20.7071 22.7071L25.7071 17.7071C26.0976 17.3166 26.0976 16.6834 25.7071 16.2929C25.3166 15.9024 24.6834 15.9024 24.2929 16.2929L21 19.5858V9.00006C21 8.44777 20.5523 8.00006 20 8.00006C19.4477 8.00006 19 8.44777 19 9.00006V19.5858L15.7071 16.2929C15.3166 15.9024 14.6834 15.9024 14.2929 16.2929C13.9024 16.6834 13.9024 17.3166 14.2929 17.7071Z" fill="white"/>
</svg>
