<svg width="28" height="28" viewBox="0 0 28 28" fill="none" xmlns="http://www.w3.org/2000/svg">
    <path fill-rule="evenodd" clip-rule="evenodd" d="M17.2929 4.29289C17.6834 3.90237 18.3166 3.90237 18.7071 4.29289L24.7071 10.2929C25.0977 10.6834 25.0977 11.3166 24.7071 11.7071C24.3166 12.0976 23.6834 12.0976 23.2929 11.7071L19 7.41421V22C19 22.5523 18.5523 23 18 23C17.4477 23 17 22.5523 17 22V7.41421L12.7071 11.7071C12.3166 12.0976 11.6834 12.0976 11.2929 11.7071C10.9024 11.3166 10.9024 10.6834 11.2929 10.2929L17.2929 4.29289ZM6 18C6.55228 18 7 18.4477 7 19V22C7 22.5523 6.55228 23 6 23C5.44772 23 5 22.5523 5 22V19C5 18.4477 5.44772 18 6 18ZM13 16C13 15.4477 12.5523 15 12 15C11.4477 15 11 15.4477 11 16V22C11 22.5523 11.4477 23 12 23C12.5523 23 13 22.5523 13 22V16Z" fill="white"/>
</svg>
