<svg width="42" height="42" viewBox="0 0 42 42" fill="none" xmlns="http://www.w3.org/2000/svg">
<path fill-rule="evenodd" clip-rule="evenodd" d="M22.6808 34.7704L32.6595 18.0804C33.6647 16.3992 34.1672 15.5586 34.3035 14.8907C34.7033 12.9319 33.5954 10.9787 31.709 10.3166C31.0659 10.0909 30.0865 10.0909 28.1277 10.0909L13.8721 10.0909C11.9133 10.0909 10.9339 10.0909 10.2908 10.3166C8.4044 10.9787 7.29651 12.9319 7.69628 14.8907C7.83256 15.5586 8.33515 16.3992 9.34032 18.0804L19.319 34.7704C19.6753 35.3663 19.8534 35.6642 20.0422 35.8237C20.5951 36.2911 21.4047 36.2911 21.9576 35.8237C22.1464 35.6642 22.3246 35.3663 22.6808 34.7704ZM19.5453 13V29.5818L11.075 15.1696C10.8064 14.7125 10.6721 14.484 10.6362 14.3023C10.531 13.7695 10.8337 13.2404 11.3464 13.0611C11.5212 13 11.7863 13 12.3165 13H19.5453ZM22.4545 29.5818V13L29.6833 13C30.2135 13 30.4786 13 30.6534 13.0611C31.1661 13.2404 31.4689 13.7695 31.3636 14.3023C31.3277 14.484 31.1934 14.7125 30.9248 15.1696L22.4545 29.5818Z" fill="white"/>
</svg>
