<svg width="28" height="28" viewBox="0 0 28 28" fill="none" xmlns="http://www.w3.org/2000/svg">
<path opacity="0.32" fill-rule="evenodd" clip-rule="evenodd" d="M3.65396 6.27728C3 7.56075 3 9.24091 3 12.6012V15.4012C3 18.7615 3 20.4417 3.65396 21.7252C4.2292 22.8541 5.14708 23.772 6.27606 24.3473C7.55953 25.0012 9.23969 25.0012 12.6 25.0012H15.4C18.7603 25.0012 20.4405 25.0012 21.7239 24.3473C22.8529 23.772 23.7708 22.8541 24.346 21.7252C25 20.4417 25 18.7615 25 15.4012V12.6012C25 9.24091 25 7.56075 24.346 6.27728C23.7708 5.14831 22.8529 4.23042 21.7239 3.65518C20.4405 3.00122 18.7603 3.00122 15.4 3.00122H12.6C9.23969 3.00122 7.55953 3.00122 6.27606 3.65518C5.14708 4.23042 4.2292 5.14831 3.65396 6.27728ZM6.32698 7.63925C6 8.28098 6 9.12106 6 10.8012V17.2012C6 18.8814 6 19.7215 6.32698 20.3632C6.6146 20.9277 7.07354 21.3866 7.63803 21.6742C8.27976 22.0012 9.11984 22.0012 10.8 22.0012H17.2C18.8802 22.0012 19.7202 22.0012 20.362 21.6742C20.9265 21.3866 21.3854 20.9277 21.673 20.3632C22 19.7215 22 18.8814 22 17.2012V10.8012C22 9.12106 22 8.28098 21.673 7.63925C21.3854 7.07476 20.9265 6.61582 20.362 6.3282C19.7202 6.00122 18.8802 6.00122 17.2 6.00122H10.8C9.11984 6.00122 8.27976 6.00122 7.63803 6.3282C7.07354 6.61582 6.6146 7.07476 6.32698 7.63925Z" fill="#45AEF5"/>
<path fill-rule="evenodd" clip-rule="evenodd" d="M14 1.50122C12.3431 1.50122 11 2.84437 11 4.50122C11 6.15807 12.3431 7.50122 14 7.50122C15.6569 7.50122 17 6.15807 17 4.50122C17 2.84437 15.6569 1.50122 14 1.50122ZM23.5 11.0012C21.8431 11.0012 20.5 12.3444 20.5 14.0012C20.5 15.6581 21.8431 17.0012 23.5 17.0012C25.1569 17.0012 26.5 15.6581 26.5 14.0012C26.5 12.3444 25.1569 11.0012 23.5 11.0012ZM11 23.5012C11 21.8444 12.3431 20.5012 14 20.5012C15.6569 20.5012 17 21.8444 17 23.5012C17 25.1581 15.6569 26.5012 14 26.5012C12.3431 26.5012 11 25.1581 11 23.5012ZM4.5 11.0012C2.84315 11.0012 1.5 12.3444 1.5 14.0012C1.5 15.6581 2.84315 17.0012 4.5 17.0012C6.15685 17.0012 7.5 15.6581 7.5 14.0012C7.5 12.3444 6.15685 11.0012 4.5 11.0012Z" fill="#45AEF5"/>
</svg>
