<svg width="28" height="28" viewBox="0 0 28 28" fill="none" xmlns="http://www.w3.org/2000/svg">
<path fill-rule="evenodd" clip-rule="evenodd" d="M14 3.5C13.1716 3.5 12.5 4.17157 12.5 5C12.5 5.82843 13.1716 6.5 14 6.5C14.8284 6.5 15.5 5.82843 15.5 5C15.5 4.17157 14.8284 3.5 14 3.5ZM7.63812 6.32697C8.25979 6.01021 9.0676 6.00031 10.6449 6C11.0752 7.44574 12.4145 8.5 14 8.5C15.5855 8.5 16.9248 7.44574 17.3551 6C18.9325 6.00031 19.7404 6.0102 20.3621 6.32697C20.9265 6.61459 21.3855 7.07353 21.6731 7.63802C21.9899 8.2597 21.9998 9.06752 22.0001 10.6449C20.5543 11.0752 19.5 12.4145 19.5 14C19.5 15.5855 20.5543 16.9248 22.0001 17.3551C21.9998 18.9325 21.9899 19.7403 21.6731 20.362C21.3855 20.9264 20.9265 21.3854 20.3621 21.673C19.7404 21.9898 18.9325 21.9997 17.3551 22C16.9248 20.5542 15.5855 19.5 14 19.5C12.4145 19.5 11.0752 20.5542 10.6449 22C9.0676 21.9997 8.25979 21.9898 7.63812 21.673C7.07363 21.3854 6.61469 20.9264 6.32707 20.362C6.01031 19.7403 6.00041 18.9324 6.0001 17.355C7.44579 16.9247 8.5 15.5855 8.5 14C8.5 12.4145 7.44579 11.0753 6.0001 10.645C6.00041 9.06754 6.01031 8.25971 6.32707 7.63802C6.61469 7.07353 7.07363 6.61459 7.63812 6.32697ZM10.6441 23.997C8.71654 23.9831 7.61118 23.9039 6.73014 23.455C5.78933 22.9757 5.02443 22.2108 4.54506 21.2699C4.09614 20.3889 4.01702 19.2835 4.00307 17.356C2.55575 16.9267 1.5 15.5866 1.5 14C1.5 12.4134 2.55575 11.0733 4.00307 10.644C4.01702 8.71647 4.09614 7.61109 4.54506 6.73004C5.02443 5.78923 5.78933 5.02432 6.73014 4.54496C7.61119 4.09604 8.71654 4.01692 10.6441 4.00297C11.0734 2.5557 12.4134 1.5 14 1.5C15.5866 1.5 16.9266 2.5557 17.3559 4.00297C19.2836 4.01692 20.389 4.09603 21.27 4.54496C22.2109 5.02432 22.9758 5.78923 23.4551 6.73004C23.904 7.6111 23.9832 8.71649 23.9971 10.6441C25.4443 11.0734 26.5 12.4134 26.5 14C26.5 15.5866 25.4443 16.9266 23.9971 17.3559C23.9832 19.2835 23.904 20.3889 23.4551 21.2699C22.9758 22.2108 22.2109 22.9757 21.27 23.455C20.389 23.904 19.2836 23.9831 17.3559 23.997C16.9266 25.4443 15.5866 26.5 14 26.5C12.4134 26.5 11.0734 25.4443 10.6441 23.997ZM23 12.5C22.1716 12.5 21.5 13.1716 21.5 14C21.5 14.8284 22.1716 15.5 23 15.5C23.8284 15.5 24.5 14.8284 24.5 14C24.5 13.1716 23.8284 12.5 23 12.5ZM3.5 14C3.5 13.1716 4.17157 12.5 5 12.5C5.82843 12.5 6.5 13.1716 6.5 14C6.5 14.8284 5.82843 15.5 5 15.5C4.17157 15.5 3.5 14.8284 3.5 14ZM12.5 23C12.5 22.1716 13.1716 21.5 14 21.5C14.8284 21.5 15.5 22.1716 15.5 23C15.5 23.8284 14.8284 24.5 14 24.5C13.1716 24.5 12.5 23.8284 12.5 23Z" fill="#45AEF5"/>
</svg>
