<svg width="28" height="28" viewBox="0 0 28 28" fill="none" xmlns="http://www.w3.org/2000/svg">
<path opacity="0.32" d="M22 10L15.0976 18.1028C13.0602 20.4946 12.0414 21.6905 10.8949 21.4677C9.74832 21.245 9.25153 19.7546 8.25794 16.7738L7.5 14.5L22 6V10Z" fill="white"/>
<path d="M23.8106 9.41797L21.4952 19.966C21.0468 22.009 20.8225 23.0306 20.0576 23.3165C19.2927 23.6023 18.4534 22.9783 16.7749 21.7301L11.7129 17.9661C11.2666 17.6342 11.0435 17.4683 11.0305 17.2345C11.0176 17.0007 11.221 16.8111 11.6279 16.432L15.7591 12.5824C17.9128 10.5756 18.9896 9.57214 18.7914 9.31923C18.5931 9.06632 17.3616 9.87241 14.8985 11.4846L8.79026 15.4827C8.40173 15.737 8.20747 15.8642 7.98534 15.8951C7.76323 15.9261 7.54161 15.8568 7.09839 15.7183L6.89851 15.6558C4.03248 14.7602 2.59946 14.3124 2.57264 13.4225C2.54582 12.5326 3.94927 11.9993 6.75616 10.9327L19.8148 5.9704C22.1003 5.10189 23.2431 4.66763 23.9201 5.25168C24.597 5.83573 24.3349 7.02981 23.8106 9.41797Z" fill="white"/>
</svg>
