<svg width="28" height="28" viewBox="0 0 28 28" fill="none" xmlns="http://www.w3.org/2000/svg">
    <path fill-rule="evenodd" clip-rule="evenodd" d="M14 3.5C14.8284 3.5 15.5 4.17157 15.5 5V5.89392C16.5416 6.14554 17.5617 6.62839 18.4371 7.32866C19.084 7.84616 19.1889 8.7901 18.6714 9.437C18.1538 10.0839 17.2099 10.1888 16.563 9.67129C15.6168 8.9143 14.4006 8.60185 13.4394 8.71235C12.5022 8.82011 12.0794 9.25166 11.9709 9.79419C11.8969 10.1644 11.941 10.3968 12.0025 10.5524C12.0684 10.7193 12.1947 10.8975 12.4205 11.0881C12.9127 11.5035 13.6606 11.8058 14.4744 12.0771C14.5837 12.1135 14.7132 12.1542 14.8584 12.1998C15.6097 12.4357 16.7805 12.8033 17.7418 13.3975C18.3456 13.7706 18.9657 14.2853 19.4092 15.0081C19.8674 15.7546 20.0845 16.6387 19.9939 17.6358C19.7476 20.3449 17.6071 21.6649 15.5 22.0002V23C15.5 23.8284 14.8284 24.5 14 24.5C13.1716 24.5 12.5 23.8284 12.5 23V21.8863C10.9353 21.538 9.41329 20.739 8.3477 19.4602C7.81736 18.8238 7.90335 17.878 8.53977 17.3476C9.17619 16.8173 10.122 16.9033 10.6524 17.5397C11.5324 18.5957 13.1821 19.1904 14.6934 19.0767C16.2037 18.963 16.9243 18.2647 17.0062 17.3642C17.0404 16.9883 16.9606 16.7536 16.8524 16.5773C16.7296 16.3773 16.5139 16.1653 16.1646 15.9494C15.5557 15.5731 14.837 15.3439 14.0856 15.1043L14.0855 15.1043C13.9005 15.0453 13.7135 14.9857 13.5257 14.9231C12.714 14.6525 11.4619 14.2047 10.4855 13.3806C9.97698 12.9514 9.50177 12.3874 9.21228 11.6546C8.91835 10.9104 8.8532 10.0856 9.02917 9.20583C9.4202 7.25069 10.9087 6.18928 12.5 5.83271V5C12.5 4.17157 13.1716 3.5 14 3.5Z" fill="white"/>
</svg>
