<svg width="28" height="28" viewBox="0 0 28 28" fill="none" xmlns="http://www.w3.org/2000/svg">
    <path fill-rule="evenodd" clip-rule="evenodd" d="M14.0001 3.5C14.5524 3.5 15.0001 3.94772 15.0001 4.5V5.30674C16.6433 5.64802 18.2112 6.71477 18.9365 8.64883C19.1304 9.16595 18.8684 9.74236 18.3513 9.93628C17.8342 10.1302 17.2578 9.8682 17.0639 9.35108C16.4945 7.83273 15.0818 7.13647 13.6754 7.18684C12.2265 7.23874 11.1601 8.03722 10.9886 9.15202C10.8043 10.3494 11.202 11.037 11.7715 11.5103C12.4098 12.0407 13.3328 12.3467 14.1963 12.5194C15.6679 12.8137 17.1133 13.3687 18.1417 14.3632C19.219 15.4051 19.747 16.843 19.4901 18.6414C19.1509 21.0162 17.1258 22.3336 15.0001 22.5828V23.5C15.0001 24.0523 14.5524 24.5 14.0001 24.5C13.4479 24.5 13.0001 24.0523 13.0001 23.5V22.5134C11.1249 22.1706 9.2669 21.0392 8.12602 18.9856C7.85781 18.5028 8.03176 17.894 8.51454 17.6258C8.99732 17.3576 9.60613 17.5315 9.87434 18.0143C10.9221 19.9003 12.7847 20.6926 14.4405 20.6224C16.1386 20.5505 17.3284 19.6314 17.5102 18.3585C17.6819 17.157 17.3407 16.3709 16.7513 15.8009C16.1129 15.1835 15.094 14.7385 13.8041 14.4805C12.8323 14.2862 11.5159 13.8983 10.4933 13.0485C9.40193 12.1416 8.71722 10.7627 9.01181 8.8479C9.34273 6.69698 11.151 5.50863 13.0001 5.24236V4.5C13.0001 3.94772 13.4479 3.5 14.0001 3.5Z" fill="white"/>
</svg>
