<svg width="28" height="28" viewBox="0 0 28 28" fill="none" xmlns="http://www.w3.org/2000/svg">
    <path fill-rule="evenodd" clip-rule="evenodd" d="M20.7071 8.70711C21.0976 8.31658 21.0976 7.68342 20.7071 7.29289C20.3166 6.90237 19.6834 6.90237 19.2929 7.29289L14 12.5858L8.70711 7.29289C8.31658 6.90237 7.68342 6.90237 7.29289 7.29289C6.90237 7.68342 6.90237 8.31658 7.29289 8.70711L12.5858 14L7.29289 19.2929C6.90237 19.6834 6.90237 20.3166 7.29289 20.7071C7.68342 21.0976 8.31658 21.0976 8.70711 20.7071L14 15.4142L19.2929 20.7071C19.6834 21.0976 20.3166 21.0976 20.7071 20.7071C21.0976 20.3166 21.0976 19.6834 20.7071 19.2929L15.4142 14L20.7071 8.70711Z" fill="white"/>
</svg>
