<svg width="13" height="12" viewBox="0 0 13 12" fill="none" xmlns="http://www.w3.org/2000/svg">
<path fill-rule="evenodd" clip-rule="evenodd" d="M1.69074 4.95552C1.5 5.32986 1.5 5.81991 1.5 6.8V8.2C1.5 9.18009 1.5 9.67014 1.69074 10.0445C1.85852 10.3738 2.12623 10.6415 2.45552 10.8093C2.82986 11 3.31991 11 4.3 11H8.7C9.68009 11 10.1701 11 10.5445 10.8093C10.8738 10.6415 11.1415 10.3738 11.3093 10.0445C11.5 9.67014 11.5 9.18009 11.5 8.2V6.8C11.5 5.81991 11.5 5.32986 11.3093 4.95552C11.1415 4.62623 10.8738 4.35852 10.5445 4.19074C10.2895 4.0608 9.98075 4.01938 9.5 4.00618V3C9.5 1.34315 8.15685 0 6.5 0C4.84315 0 3.5 1.34315 3.5 3V4.00618C3.01925 4.01938 2.71053 4.0608 2.45552 4.19074C2.12623 4.35852 1.85852 4.62623 1.69074 4.95552ZM4.75 4V3C4.75 2.0335 5.5335 1.25 6.5 1.25C7.4665 1.25 8.25 2.0335 8.25 3V4H4.75Z" fill="#556170"/>
</svg>
