<svg width="100" height="100" fill="none" xmlns="http://www.w3.org/2000/svg"><mask id="a" style="mask-type:alpha" maskUnits="userSpaceOnUse"><path d="M22.225 50.677 50 8l27.774 42.677L50 92 22.225 50.677Z" fill="#FFF"/></mask><g mask="url(#a)"><path fill="#6B9CFE" d="M0 0h100v100H0z"/><path d="M36.45 45.936 50 94.71l13.548-48.774H36.451Z" fill="#88AFFC"/><path d="M49.999 94.71V45.936H36.451L49.999 94.71Z" fill="#9ABAFC"/><path d="M36.45 45.935 50 2.581l13.548 43.354H36.451Z" fill="#9BF"/><path d="M36.45 45.935H50V2.581L36.451 45.935Z" fill="#ABC7FF"/><path d="M63.547 45.936H50l6.774-21.678 6.774 21.678Z" fill="#80AAFF"/><path d="M49.999 45.936H36.451l6.774-21.678 6.774 21.678Z" fill="#B5CEFF"/><path d="M22.224 50.677 49.998 2.581 36.45 45.935l-14.226 4.742Z" fill="#70A0FF"/><path d="M22.224 50.678 49.998 94.71 36.45 45.936l-14.226 4.742ZM77.773 50.678 49.999 94.71l13.548-48.774 14.226 4.742Z" fill="#6094FC"/><path d="m39.838 58.13 3.387 12.193h-7.79l4.403-12.193Z" fill="#A3C2FF"/><path d="m60.16 58.13-3.387 12.193h7.79L60.16 58.13Z" fill="#78A5FF"/><path d="m22.224 50.677 17.613-15.58-3.387 10.838-14.226 4.742Z" fill="#9CBDFF"/><path d="M77.773 50.677 49.999 2.581l13.548 43.354 14.226 4.742Z" fill="#70A0FF"/><path d="m36.45 45.936 3.387 12.194-17.613-7.452 14.226-4.742Z" fill="#8AB1FF"/><path d="M63.547 45.936 60.16 58.13l17.613-7.452-14.226-4.742Z" fill="#7DA8FF"/><path d="M77.773 50.677 60.16 35.097l3.387 10.838 14.226 4.742Z" fill="#8AB1FF"/></g></svg>