<svg width="100" height="100" fill="none" xmlns="http://www.w3.org/2000/svg"><mask id="a" style="mask-type:alpha" maskUnits="userSpaceOnUse"><path d="M88.857 38.4 50 86 11.143 38.4l8.742-13.6 8.258-3.886L38.828 18h22.343l10.686 2.914 8.257 3.886 8.743 13.6Z" fill="#FFF"/></mask><g mask="url(#a)"><path fill="#926BFE" d="M0 2h100v100H0z"/><path d="M88.857 38.4 50 86 11.143 38.4l8.742-13.6 8.258-3.886L38.828 18h22.343l10.686 2.914 8.257 3.886 8.743 13.6Z" fill="#7646FA"/><path d="M63.6 47.143 50 95.715l26.714-51.486L63.6 47.143Z" fill="#8A61FA"/><path d="M88.857 38.4 49.999 95.715l26.715-51.486L88.857 38.4Z" fill="#7241FA"/><path d="M63.6 47.143H36.4L50 95.714l13.6-48.571Z" fill="#AD8FFF"/><path d="M63.6 31.6H36.4L50 47.142 63.6 31.6Z" fill="#DACCFF"/><path d="M36.4 47.143 50 95.715 23.284 44.229 36.4 47.143Z" fill="#794AFA"/><path d="M50 47.142 36.4 31.6v15.542H50Z" fill="#A280FF"/><path d="M11.143 38.4 50 95.715 23.285 44.229 11.143 38.4Z" fill="#6028FA"/><path d="M50 47.142 63.6 31.6v15.542H50Z" fill="#BCA3FF"/><path d="m36.4 31.6-12.63-3.886L36.4 47.143V31.6Z" fill="#C1ABFF"/><path d="m63.6 31.6 12.628-3.886-12.629 19.429V31.6Z" fill="#C9B5FF"/><path d="M36.4 47.143 23.77 27.714l-.485 16.515L36.4 47.143ZM63.6 47.143l12.628-19.429.485 16.515L63.6 47.143Z" fill="#8052FF"/><path d="M23.771 27.714 11.143 38.4l12.142 5.829.486-16.515ZM76.714 44.229 88.857 38.4 76.228 27.714l.486 16.515Z" fill="#A787FF"/><path d="M76.714 44.228 88.857 38.4l-6.315-5.343-5.828 11.171Z" fill="#BCA3FF"/><path d="M23.285 44.228 11.143 38.4l6.314-5.343 5.828 11.171Z" fill="#B499FF"/><path d="m11.143 38.4 8.742-13.6 3.886 2.915L11.143 38.4Z" fill="#794AFA"/><path d="m88.857 38.4-8.743-13.6-3.886 2.915L88.858 38.4Z" fill="#8155FA"/><path d="M38.828 18H61.17l10.686 2.914 8.257 3.886-3.885 2.914L63.599 31.6H36.4L23.77 27.714 19.886 24.8l8.257-3.886L38.828 18Z" fill="#A07EFF"/><path fill="url(#b)" d="M0 2h100v100H0z"/></g><defs><linearGradient id="b" x1="0" y1="2" x2="99.999" y2="102" gradientUnits="userSpaceOnUse"><stop stop-color="#00FFF0" stop-opacity=".52"/><stop offset="1" stop-color="#4200FF" stop-opacity="0"/></linearGradient></defs></svg>