<svg width="100" height="100" fill="none" xmlns="http://www.w3.org/2000/svg"><mask id="a" style="mask-type:alpha" maskUnits="userSpaceOnUse"><path d="M89 38.4 50 86 11 38.4l8.775-13.6 8.288-3.886L38.788 18h22.425l10.724 2.914 8.288 3.886L89 38.4Z" fill="#FFF"/></mask><g mask="url(#a)"><path fill="#926BFE" d="M0 2h100v100H0z"/><path d="m88.999 38.398-39 47.6-39-47.6 8.775-13.6 8.287-3.886 10.725-2.914h22.425l10.725 2.914 8.288 3.886 8.775 13.6Z" fill="#7646FA"/><path d="M63.65 31.6v15.542l-6.826-7.771L63.65 31.6Z" fill="#AB8CFF"/><path d="M36.35 47.142 50 31.6l13.65 15.542h-27.3Z" fill="#9B78FA"/><path d="m36.349 47.142-13.162-2.914L36.349 31.6v15.542ZM63.65 47.142l13.162-2.914L63.649 31.6v15.542Z" fill="#BEA6FF"/><path d="M50 31.6H36.35l6.825 7.771L50 31.6Z" fill="#BFA8FF"/><path d="m36.349 31.599-12.675-3.886-.488 16.514L36.35 31.6Z" fill="#8052FF"/><path d="m63.65 31.599 12.674-3.886.488 16.514L63.649 31.6Z" fill="#7A4CFA"/><path d="M23.674 27.713 10.999 38.399l12.187 5.828.488-16.514ZM76.324 27.713 89 38.399l-12.187 5.828-.488-16.514Z" fill="#BEA6FF"/><path d="M49.999 31.6h13.65l-6.825 7.771-6.825-7.771Z" fill="#BFA8FF"/><path d="M36.35 31.6v15.542l6.825-7.771L36.35 31.6Z" fill="#AB8CFF"/><path d="m63.649 47.143-13.65 48.571 26.812-51.486-13.162 2.915Z" fill="#8A61FA"/><path d="m88.999 38.398-39 57.315 26.812-51.486L89 38.398Z" fill="#7241FA"/><path d="M50 95.714 36.35 47.143h27.3L50 95.714Z" fill="#B094FF"/><path d="M49.999 47.143h13.65l-13.65 48.571V47.143Z" fill="#B094FF"/><path d="M63.649 47.143h-13.65l8.531 18.214 5.119-18.214Z" fill="#D0BFFF"/><path d="M36.35 47.143H50l-8.532 18.214-5.118-18.214Z" fill="#D0BFFF"/><path d="m36.349 47.143 13.65 48.571-26.813-51.486 13.163 2.915Z" fill="#794AFA"/><path d="m10.999 38.398 39 57.315-26.813-51.486L11 38.398Z" fill="#6028FA"/><path d="m10.999 38.399 8.775-13.6 3.9 2.914L10.999 38.4Z" fill="#794AFA"/><path d="m89 38.399-8.776-13.6-3.9 2.914L89 38.4Z" fill="#8155FA"/><path d="M38.787 17.998h22.425l10.725 2.914 8.287 3.886-3.9 2.914-12.675 3.886h-27.3l-12.675-3.886-3.9-2.914 8.288-3.886 10.725-2.914Z" fill="#A07EFF"/><path fill="url(#b)" d="M0 2h100v100H0z"/></g><defs><linearGradient id="b" x1="0" y1="2" x2="100" y2="102" gradientUnits="userSpaceOnUse"><stop offset=".281" stop-color="#05FF1E" stop-opacity=".4"/><stop offset=".619" stop-color="#FF5C00" stop-opacity=".1"/></linearGradient></defs></svg>