<svg width="100" height="100" fill="none" xmlns="http://www.w3.org/2000/svg"><mask id="a" style="mask-type:alpha" maskUnits="userSpaceOnUse"><path d="M16 33v42.5l8.5 8.5h51l8.5-8.5v-51L75.5 16h-51L16 24.5V33Z" fill="#FFF"/></mask><g mask="url(#a)"><path fill="#926BFE" d="M-18-18h136v136H-18z"/><path d="m16 75.5 8.5 8.5h51l8.5-8.5v-51L75.5 16h-51L16 24.5v51Z" fill="#9670FF"/><path d="M33 16h-8.5L16 24.5 41.5 33 33 16ZM33 84h-8.5L16 75.5 41.5 67 33 84Z" fill="#7A4AFF"/><path d="M67 16h8.5l8.5 8.5L58.5 33 67 16ZM67 84h8.5l8.5-8.5L58.5 67 67 84Z" fill="#D4C4FF"/><path d="M41.5 33 50 50 16 33h25.5Z" fill="#8457FF"/><path d="M41.5 67 50 50 16 67h25.5Z" fill="#7E4FFF"/><path d="M58.5 33 50 50l34-17H58.5Z" fill="#DBCFFF"/><path d="M58.5 67 50 50l34 17H58.5Z" fill="#B79CFF"/><path d="M33 16h34L50 50 33 16ZM33 84h34L50 50 33 84ZM84 67V33L50 50l34 17ZM16 67V33l34 17-34 17Z" fill="#A98AFF"/><path d="M33 16h17v34L33 16ZM33 84h17V50L33 84ZM84 67V50H50l34 17ZM16 67V50h34L16 67Z" fill="#875CFF"/><path d="M50 16v34l-8.5-17L50 16ZM50 84V50l-8.5 17L50 84ZM84 50H50l17 8.5L84 50ZM16 50h34l-17 8.5L16 50Z" fill="#AB8CFF"/><path d="M50 16v34l8.5-17L50 16ZM50 84V50l8.5 17L50 84ZM84 50H50l17-8.5L84 50ZM16 50h34l-17-8.5L16 50Z" fill="#C9B5FF"/></g></svg>