<svg width="36" height="36" viewBox="0 0 36 36" fill="none" xmlns="http://www.w3.org/2000/svg">
<path fill-rule="evenodd" clip-rule="evenodd" d="M14.2622 4.99996L14.0691 4.99989C12.8803 4.99919 11.983 4.99867 11.142 5.24861C10.4012 5.46878 9.70996 5.82997 9.10621 6.31234C8.42078 6.85996 7.90879 7.59687 7.23047 8.57317L7.12028 8.73171L3.17553 14.4023L3.05544 14.5746C2.48741 15.3886 1.98859 16.1034 1.78688 16.9167C1.61043 17.6281 1.61043 18.3719 1.78688 19.0833C1.9886 19.8966 2.48742 20.6114 3.05545 21.4254L3.17555 21.5977L7.12027 27.2682L7.23047 27.4268C7.90879 28.4031 8.42078 29.14 9.10621 29.6876C9.70996 30.17 10.4012 30.5312 11.142 30.7513C11.9829 31.0013 12.8803 31.0007 14.0691 31L14.2621 31H25.7579C26.5486 31 27.2307 31 27.7926 30.9541C28.3856 30.9057 28.9754 30.7987 29.543 30.5095C30.3897 30.0781 31.0781 29.3897 31.5096 28.5429C31.7988 27.9754 31.9057 27.3855 31.9542 26.7925C32.0001 26.2307 32.0001 25.5485 32 24.7578V11.2421C32.0001 10.4514 32.0001 9.76927 31.9542 9.20742C31.9057 8.6144 31.7988 8.02458 31.5096 7.45701C31.0781 6.61028 30.3897 5.92186 29.543 5.49043C28.9754 5.20124 28.3856 5.09427 27.7926 5.04582C27.2307 4.99991 26.5486 4.99994 25.7579 4.99996L14.2622 4.99996ZM11.9967 8.12429C12.3657 8.01462 12.7942 7.99996 14.2622 7.99996H25.7C26.5649 7.99996 27.1233 8.00113 27.5483 8.03585C27.9558 8.06915 28.1069 8.12566 28.181 8.16345C28.4633 8.30726 28.6927 8.53673 28.8365 8.81898C28.8743 8.89314 28.9309 9.04422 28.9641 9.45172C28.9989 9.87672 29 10.4351 29 11.3V24.7C29 25.5648 28.9989 26.1232 28.9641 26.5482C28.9309 26.9557 28.8743 27.1068 28.8365 27.181C28.6927 27.4632 28.4633 27.6927 28.181 27.8365C28.1069 27.8743 27.9558 27.9308 27.5483 27.9641C27.1233 27.9988 26.5649 28 25.7 28H14.2621C12.7942 28 12.3657 27.9853 11.9967 27.8756C11.6263 27.7656 11.2807 27.585 10.9788 27.3438C10.678 27.1035 10.4213 26.7601 9.58299 25.555L5.63826 19.8845C4.88055 18.7953 4.74917 18.5648 4.69865 18.3611C4.63984 18.124 4.63984 17.876 4.69865 17.6389C4.74917 17.4352 4.88055 17.2047 5.63825 16.1155L9.58299 10.4449C10.4213 9.23982 10.678 8.89644 10.9788 8.65615C11.2807 8.41497 11.6263 8.23437 11.9967 8.12429ZM15.6339 13.6161C15.1457 13.128 14.3543 13.128 13.8661 13.6161C13.378 14.1043 13.378 14.8957 13.8661 15.3839L16.4822 18L13.8661 20.6161C13.378 21.1043 13.378 21.8957 13.8661 22.3839C14.3543 22.872 15.1457 22.872 15.6339 22.3839L18.25 19.7678L20.8661 22.3839C21.3543 22.872 22.1457 22.872 22.6339 22.3839C23.122 21.8957 23.122 21.1043 22.6339 20.6161L20.0178 18L22.6339 15.3839C23.122 14.8957 23.122 14.1043 22.6339 13.6161C22.1457 13.128 21.3543 13.128 20.8661 13.6161L18.25 16.2322L15.6339 13.6161Z" fill="white"/>
</svg>
