<svg width="36" height="36" viewBox="0 0 36 36" fill="none" xmlns="http://www.w3.org/2000/svg">
    <path fill-rule="evenodd" clip-rule="evenodd" d="M15.6488 4.76393C14.961 5.26368 14.3574 6.30912 13.1502 8.40001L5.5292 21.6C4.32203 23.6909 3.71845 24.7363 3.62958 25.5819C3.44844 27.3053 4.39763 28.9493 5.98072 29.6542C6.75744 30 7.96461 30 10.379 30H25.621C28.0353 30 29.2425 30 30.0192 29.6542C31.6023 28.9493 32.5515 27.3053 32.3704 25.5819C32.2815 24.7363 31.6779 23.6909 30.4707 21.6L22.8497 8.4C21.6425 6.30912 21.039 5.26368 20.3511 4.76393C18.9492 3.74536 17.0508 3.74536 15.6488 4.76393ZM16.0999 12.9975C16.0455 11.9108 16.912 11 18 11C19.088 11 19.9545 11.9108 19.9001 12.9975L19.5749 19.5019C19.5329 20.3411 18.8403 21 18 21C17.1597 21 16.467 20.3411 16.4251 19.5019L16.0999 12.9975ZM19.75 24.75C19.75 25.7165 18.9665 26.5 18 26.5C17.0335 26.5 16.25 25.7165 16.25 24.75C16.25 23.7835 17.0335 23 18 23C18.9665 23 19.75 23.7835 19.75 24.75Z" fill="white"/>
</svg>
