<svg width="37" height="36" viewBox="0 0 37 36" fill="none" xmlns="http://www.w3.org/2000/svg">
<path d="M4.12501 14.4375C4.86329 14.7109 5.4922 14.3281 5.75196 13.6719C7.88478 8.03906 12.8477 4.45703 18.7949 4.45703C21.1738 4.45703 22.9238 4.9082 24.6192 5.67383C25.4258 6.04297 26.1231 6.04297 26.4375 5.3457C26.6973 4.79883 26.5059 4.21094 25.8223 3.80078C23.5801 2.50195 21.4746 2.10547 18.7949 2.10547C11.6309 2.10547 6.03907 6.0293 3.48243 12.5918C3.16798 13.3984 3.45509 14.2051 4.12501 14.4375ZM6.13478 27.4121C6.54493 27.9727 7.3379 28.0684 7.88478 27.6035C8.96486 26.7012 9.56642 25.2109 9.56642 23.5293C9.56642 21.5059 8.70509 20.4531 8.70509 18.1562C8.70509 12.6055 13.2442 8.06641 18.7949 8.06641C25.2891 8.06641 29.6094 13.4531 29.6094 21.5879C29.6094 24.9238 29.0488 27.0977 28.584 28.2051C28.3242 28.793 28.543 29.4902 29.1172 29.7637C29.7188 30.0781 30.5117 29.791 30.7442 29.1348C31.2637 27.7812 31.9609 25.2656 31.9609 21.5742C31.9609 12.0723 26.6836 5.72852 18.7949 5.72852C11.959 5.72852 6.35353 11.3203 6.35353 18.1562C6.35353 20.5215 7.25587 22.1074 7.26954 23.5156C7.26954 24.459 6.9004 25.2383 6.3672 25.7852C5.88868 26.291 5.77931 26.9199 6.13478 27.4121ZM34.1895 20.084C34.8731 20.084 35.3379 19.5234 35.2832 18.8262C34.7774 12.8516 32.8223 9.40625 29.5 6.20703C28.9942 5.71484 28.2285 5.79688 27.8184 6.30273C27.3672 6.78125 27.4629 7.46484 27.9824 7.9707C30.9492 10.9512 32.5899 14.2051 33.0137 18.9082C33.0957 19.6055 33.5606 20.084 34.1895 20.084ZM13.1074 21.5059C12.7383 20.5625 12.3418 19.5371 12.3418 18.1562C12.3418 14.6016 15.2402 11.6895 18.7949 11.6895C20.1211 11.6895 20.5176 11.8125 21.5977 12.2773C22.2129 12.5508 22.8008 12.373 23.0469 11.8672C23.3613 11.2793 23.1973 10.5684 22.5274 10.1992C21.5293 9.61133 20.3535 9.33789 18.7949 9.33789C13.9551 9.33789 9.97657 13.3301 9.97657 18.1562C9.97657 19.7422 10.4141 21.3281 10.7969 22.3945C11.0567 23.0918 11.7676 23.3652 12.4649 23.0918C13.0801 22.8594 13.3262 22.1895 13.1074 21.5059ZM24.1953 14.5059C25.3848 16.4746 26.0274 18.9355 26.0274 22.2852C26.0274 25.8672 25.0703 29.2852 23.5391 31.1309C23.1289 31.6504 23.1563 32.3477 23.5938 32.7578C24.1133 33.2363 24.9336 33.168 25.3438 32.6211C27.2031 30.1328 28.3516 26.1953 28.3516 22.2305C28.3516 17.5 27.3535 15.3262 26.2188 13.2617C25.8633 12.6328 25.125 12.4141 24.5508 12.7148C23.8945 13.043 23.7988 13.8633 24.1953 14.5059ZM13.0801 32.0879C15.5137 30.1328 16.8945 26.9746 16.8809 23.502C16.8672 20.8633 15.9512 19.291 15.9512 17.9922C15.9512 16.3652 17.0859 15.3125 18.7949 15.3125C21.0781 15.3125 22.2129 17.6914 22.3496 22.1758C22.5 26.2773 21.0918 30.1738 18.8633 32.0879C18.3711 32.498 18.2617 33.1543 18.5899 33.6738C19 34.248 19.8203 34.3574 20.3399 33.8516C22.8281 31.6094 24.5781 26.7422 24.5645 22.0254C24.5371 16.1875 22.6231 12.9746 18.7949 12.9746C15.8008 12.9746 13.6406 14.9844 13.6406 17.8008C13.6406 19.5371 14.502 21.5469 14.5293 23.502C14.543 26.291 13.5039 28.7383 11.6309 30.2559C11.1113 30.6934 11.002 31.3359 11.3574 31.8828C11.7813 32.4844 12.5469 32.5391 13.0801 32.0879ZM4.86329 23.3516C5.45118 23.1602 5.75196 22.5449 5.61525 21.875C5.24611 20.3848 5.06837 19.2637 5.09571 17.3633C5.09571 16.7344 4.68556 16.2285 4.084 16.1328C3.38673 16.0371 2.78517 16.4883 2.73048 17.2812C2.63478 18.9629 2.79884 20.5215 3.35939 22.5176C3.55079 23.2012 4.22071 23.5566 4.86329 23.3516ZM20.5313 24.9648C20.8594 22.873 20.7363 20.5488 20.0391 18.3066C19.8203 17.5957 19.2051 17.2539 18.5625 17.459C17.9336 17.6367 17.6055 18.252 17.7969 18.9082C18.3984 21.0137 18.4942 22.7637 18.2207 24.6094C18.125 25.2656 18.4531 25.8672 19.1367 25.9766C19.8067 26.0859 20.4219 25.6621 20.5313 24.9648ZM10.0039 30.1875C11.2344 29.5723 12.5606 27.7539 13.0117 26.3594C13.2168 25.7305 12.875 25.0605 12.2871 24.8555C11.6856 24.6504 11.0703 25.0059 10.8242 25.6621C10.4414 26.7012 9.8672 27.4668 8.93751 28.1367C8.34962 28.5742 8.1172 29.1484 8.34962 29.7227C8.62306 30.3379 9.334 30.543 10.0039 30.1875ZM16.5254 33.25C17.6602 32.4023 18.7402 30.8711 19.4238 29.1895C19.6973 28.4922 19.4102 27.7949 18.8086 27.6035C18.0977 27.3438 17.5371 27.7129 17.2363 28.3965C16.7168 29.5723 16.0742 30.5156 15.0899 31.3496C14.584 31.7734 14.4609 32.457 14.8027 32.9902C15.1445 33.5234 15.9375 33.6602 16.5254 33.25Z" fill="white"/>
</svg>
