<svg width="96" height="96" viewBox="0 0 96 96" fill="none" xmlns="http://www.w3.org/2000/svg">
    <rect width="96" height="96" fill="#45AEF5"/>
    <path fill-rule="evenodd" clip-rule="evenodd" d="M52.7563 57.7549C51.6592 61.5529 49.9368 64 48 64C46.0632 64 44.3408 61.5529 43.2437 57.7549C44.7768 57.9164 46.3725 58 48 58C49.6275 58 51.2232 57.9164 52.7563 57.7549ZM57.0597 57.0597C56.7662 58.3717 56.4073 59.6 55.988 60.7182C55.799 61.2221 55.5911 61.7217 55.3621 62.2094C58.2903 60.6891 60.6891 58.2903 62.2094 55.3621C61.7217 55.5911 61.2221 55.799 60.7182 55.988C59.6 56.4073 58.3717 56.7662 57.0597 57.0597ZM62.2094 40.6379C61.7217 40.4089 61.2221 40.201 60.7182 40.012C59.6 39.5927 58.3717 39.2338 57.0597 38.9403C56.7662 37.6283 56.4073 36.4 55.988 35.2818C55.799 34.7779 55.5911 34.2783 55.3621 33.7906C58.2903 35.3109 60.6891 37.7097 62.2094 40.6379ZM57.7549 43.2437C61.5529 44.3408 64 46.0632 64 48C64 49.9368 61.5529 51.6592 57.7549 52.7563C57.9164 51.2231 58 49.6275 58 48C58 46.3725 57.9164 44.7769 57.7549 43.2437ZM53.6195 42.3805C53.8655 44.1289 54 46.0225 54 48C54 49.9775 53.8655 51.8711 53.6195 53.6195C51.8711 53.8655 49.9775 54 48 54C46.0225 54 44.1289 53.8655 42.3805 53.6195C42.1345 51.8711 42 49.9775 42 48C42 46.0225 42.1345 44.1289 42.3805 42.3805C44.1289 42.1345 46.0225 42 48 42C49.9775 42 51.8711 42.1345 53.6195 42.3805ZM52.7563 38.2451C51.6592 34.4471 49.9368 32 48 32H47.9984C46.0623 32.0013 44.3405 34.4481 43.2437 38.2451C44.7768 38.0836 46.3725 38 48 38C49.6275 38 51.2232 38.0836 52.7563 38.2451ZM38.9403 38.9403C39.2338 37.6283 39.5927 36.4 40.012 35.2818C40.201 34.7779 40.4089 34.2783 40.6379 33.7906C37.7097 35.3109 35.3109 37.7097 33.7907 40.6379C34.2783 40.4089 34.7779 40.201 35.2818 40.012C36.4 39.5927 37.6283 39.2338 38.9403 38.9403ZM33.7906 55.3621C34.2783 55.5911 34.7779 55.799 35.2818 55.988C36.4 56.4073 37.6283 56.7662 38.9403 57.0597C39.2338 58.3717 39.5927 59.6 40.012 60.7182C40.201 61.2221 40.4089 61.7217 40.6379 62.2094C37.7097 60.6891 35.3109 58.2903 33.7906 55.3621ZM38.2451 52.7563C34.4471 51.6592 32 49.9368 32 48C32 46.0632 34.4471 44.3408 38.2451 43.2437C38.0836 44.7769 38 46.3725 38 48C38 49.6275 38.0836 51.2231 38.2451 52.7563ZM28 48C28 36.9543 36.9543 28 48 28C59.0457 28 68 36.9543 68 48C68 59.0457 59.0457 68 48 68C36.9543 68 28 59.0457 28 48Z" fill="white"/>
</svg>
