<svg width="84" height="84" viewBox="0 0 84 84" fill="none" xmlns="http://www.w3.org/2000/svg">
<path opacity="0.32" fill-rule="evenodd" clip-rule="evenodd" d="M15.327 16.638C15 17.2798 15 18.1198 15 19.8V22H25V19.8C25 18.1198 25 17.2798 24.673 16.638C24.3854 16.0735 23.9265 15.6146 23.362 15.327C22.7202 15 21.8802 15 20.2 15H19.8C18.1198 15 17.2798 15 16.638 15.327C16.0735 15.6146 15.6146 16.0735 15.327 16.638ZM33 45C33 40.0294 37.0294 36 42 36C46.9706 36 51 40.0294 51 45C51 49.9706 46.9706 54 42 54C37.0294 54 33 49.9706 33 45ZM42 30C33.7157 30 27 36.7157 27 45C27 53.2843 33.7157 60 42 60C50.2843 60 57 53.2843 57 45C57 36.7157 50.2843 30 42 30Z" fill="white"/>
<path fill-rule="evenodd" clip-rule="evenodd" d="M9.65396 24.2761C9 25.5595 9 27.2397 9 30.6V63.4C9 66.7603 9 68.4405 9.65396 69.7239C10.2292 70.8529 11.1471 71.7708 12.2761 72.346C13.5595 73 15.2397 73 18.6 73H65.4C68.7603 73 70.4405 73 71.7239 72.346C72.8529 71.7708 73.7708 70.8529 74.346 69.7239C75 68.4405 75 66.7603 75 63.4V30.6C75 27.2397 75 25.5595 74.346 24.2761C73.7708 23.1471 72.8529 22.2292 71.7239 21.654C70.4405 21 68.7603 21 65.4 21H60.9765C59.5089 21 58.7751 21 58.0846 20.8342C57.4724 20.6872 56.8871 20.4448 56.3503 20.1158C55.7448 19.7448 55.2259 19.2259 54.1883 18.1883L54.1882 18.1882L51.8118 15.8118L51.8117 15.8117C50.774 14.774 50.2552 14.2552 49.6497 13.8842C49.1129 13.5552 48.5276 13.3128 47.9154 13.1658C47.2249 13 46.4911 13 45.0235 13H38.9764C37.5089 13 36.7751 13 36.0846 13.1658C35.4724 13.3128 34.8871 13.5552 34.3503 13.8842C33.7448 14.2552 33.2259 14.7741 32.1882 15.8118L32.1882 15.8118L29.8118 18.1882C28.7741 19.2259 28.2552 19.7448 27.6497 20.1158C27.1129 20.4448 26.5276 20.6872 25.9154 20.8342C25.2249 21 24.4911 21 23.0236 21H18.6C15.2397 21 13.5595 21 12.2761 21.654C11.1471 22.2292 10.2292 23.1471 9.65396 24.2761ZM33 45C33 40.0294 37.0294 36 42 36C46.9706 36 51 40.0294 51 45C51 49.9706 46.9706 54 42 54C37.0294 54 33 49.9706 33 45ZM42 30C33.7157 30 27 36.7157 27 45C27 53.2843 33.7157 60 42 60C50.2843 60 57 53.2843 57 45C57 36.7157 50.2843 30 42 30Z" fill="white"/>
</svg>
