<svg width="84" height="84" viewBox="0 0 84 84" fill="none" xmlns="http://www.w3.org/2000/svg">
    <path fill-rule="evenodd" clip-rule="evenodd" d="M42 75C60.2254 75 75 60.2254 75 42C75 23.7746 60.2254 9 42 9C23.7746 9 9 23.7746 9 42C9 60.2254 23.7746 75 42 75ZM38.1817 28.9959C38.0827 26.819 39.8209 25 42 25C44.1792 25 45.9174 26.819 45.8184 28.9959L45.1362 44.0031C45.06 45.6798 43.6784 47 42 47C40.3216 47 38.94 45.6798 38.8638 44.0031L38.1817 28.9959ZM46 55C46 57.2091 44.2091 59 42 59C39.7909 59 38 57.2091 38 55C38 52.7909 39.7909 51 42 51C44.2091 51 46 52.7909 46 55Z" fill="#8994A3"/>
    <path opacity="0.32" fill-rule="evenodd" clip-rule="evenodd" d="M42 25C39.8209 25 38.0827 26.819 38.1817 28.9959L38.8638 44.0031C38.94 45.6798 40.3216 47 42 47C43.6784 47 45.06 45.6798 45.1362 44.0031L45.8184 28.9959C45.9174 26.819 44.1792 25 42 25ZM42 59C44.2091 59 46 57.2091 46 55C46 52.7909 44.2091 51 42 51C39.7909 51 38 52.7909 38 55C38 57.2091 39.7909 59 42 59Z" fill="#8994A3"/>
</svg>