<svg width="84" height="84" viewBox="0 0 84 84" fill="none" xmlns="http://www.w3.org/2000/svg">
<path opacity="0.32" fill-rule="evenodd" clip-rule="evenodd" d="M56.1213 32.8787C57.2929 34.0503 57.2929 35.9497 56.1213 37.1213L40.1213 53.1213C38.9497 54.2929 37.0503 54.2929 35.8787 53.1213L27.8787 45.1213C26.7071 43.9497 26.7071 42.0503 27.8787 40.8787C29.0503 39.7071 30.9497 39.7071 32.1213 40.8787L38 46.7574L51.8787 32.8787C53.0503 31.7071 54.9497 31.7071 56.1213 32.8787Z" fill="#39CC83"/>
<path fill-rule="evenodd" clip-rule="evenodd" d="M42 75C60.2254 75 75 60.2254 75 42C75 23.7746 60.2254 9 42 9C23.7746 9 9 23.7746 9 42C9 60.2254 23.7746 75 42 75ZM56.1213 37.1213C57.2929 35.9497 57.2929 34.0503 56.1213 32.8787C54.9497 31.7071 53.0503 31.7071 51.8787 32.8787L38 46.7574L32.1213 40.8787C30.9497 39.7071 29.0503 39.7071 27.8787 40.8787C26.7071 42.0503 26.7071 43.9497 27.8787 45.1213L35.8787 53.1213C37.0503 54.2929 38.9497 54.2929 40.1213 53.1213L56.1213 37.1213Z" fill="#39CC83"/>
</svg>
