<svg width="64" height="64" viewBox="0 0 64 64" fill="none" xmlns="http://www.w3.org/2000/svg">
<rect width="64" height="64" rx="32" fill="#0088CC"/>
<path fill-rule="evenodd" clip-rule="evenodd" d="M33.6808 45.7704L43.6595 29.0804C44.6647 27.3992 45.1672 26.5586 45.3035 25.8907C45.7033 23.9319 44.5954 21.9787 42.709 21.3166C42.0659 21.0909 41.0865 21.0909 39.1277 21.0909H24.8721C22.9133 21.0909 21.9339 21.0909 21.2908 21.3166C19.4044 21.9787 18.2965 23.9319 18.6963 25.8907C18.8326 26.5586 19.3351 27.3992 20.3403 29.0804L30.319 45.7704C30.6753 46.3663 30.8534 46.6642 31.0422 46.8237C31.5951 47.2911 32.4047 47.2911 32.9576 46.8237C33.1464 46.6642 33.3246 46.3663 33.6808 45.7704ZM30.5453 24V40.5818L22.075 26.1696C21.8064 25.7125 21.6721 25.484 21.6362 25.3023C21.531 24.7695 21.8337 24.2404 22.3464 24.0611C22.5212 24 22.7863 24 23.3165 24H30.5453ZM33.4545 40.5818V24H40.6833C41.2135 24 41.4786 24 41.6534 24.0611C42.1661 24.2404 42.4689 24.7695 42.3636 25.3023C42.3277 25.484 42.1934 25.7125 41.9248 26.1696L33.4545 40.5818Z" fill="white"/>
</svg>
