<svg width="26" height="44" viewBox="0 0 26 44" fill="none" xmlns="http://www.w3.org/2000/svg">
    <path opacity="0.64" fill-rule="evenodd" clip-rule="evenodd" d="M8.52545 4.01941C8.76576 1.76057 10.6774 0.000976562 13 0.000976562C15.3226 0.000976562 17.2342 1.76055 17.4745 4.01938C20.3278 4.0758 22.032 4.30569 23.3213 5.24242C23.8731 5.64334 24.3584 6.12861 24.7593 6.68043C26.0007 8.38906 26.0007 10.8264 26.0007 15.701V32.301C26.0007 37.1757 26.0007 39.613 24.7593 41.3216C24.3584 41.8735 23.8731 42.3587 23.3213 42.7596C21.6126 44.001 19.1753 44.001 14.3007 44.001H11.7007C6.82602 44.001 4.38869 44.001 2.68007 42.7596C2.12825 42.3587 1.64298 41.8735 1.24206 41.3216C0.000671387 39.613 0.000671387 37.1757 0.000671387 32.301V15.701C0.000671387 10.8264 0.000671387 8.38906 1.24206 6.68043C1.64298 6.12861 2.12825 5.64334 2.68007 5.24242C3.96916 4.30584 5.67303 4.07588 8.52545 4.01941ZM1.50018 13.501C1.50018 10.7008 1.50018 9.30064 2.04515 8.23108C2.52452 7.29027 3.28942 6.52537 4.23023 6.046C5.29979 5.50103 6.69992 5.50103 9.50018 5.50103H16.5002C19.3004 5.50103 20.7006 5.50103 21.7701 6.046C22.7109 6.52537 23.4758 7.29027 23.9552 8.23108C24.5002 9.30064 24.5002 10.7008 24.5002 13.501V34.501C24.5002 37.3013 24.5002 38.7014 23.9552 39.771C23.4758 40.7118 22.7109 41.4767 21.7701 41.9561C20.7006 42.501 19.3004 42.501 16.5002 42.501H9.50018C6.69992 42.501 5.29979 42.501 4.23023 41.9561C3.28942 41.4767 2.52452 40.7118 2.04515 39.771C1.50018 38.7014 1.50018 37.3013 1.50018 34.501V13.501Z" fill="#556170"/>
    <path d="M3 30.301C3 27.6762 3 26.3638 3.66844 25.4437C3.88432 25.1466 4.14562 24.8853 4.44275 24.6694C5.36278 24.001 6.67519 24.001 9.3 24.001H16.7C19.3248 24.001 20.6372 24.001 21.5572 24.6694C21.8544 24.8853 22.1157 25.1466 22.3316 25.4437C23 26.3638 23 27.6762 23 30.301V34.701C23 37.3258 23 38.6382 22.3316 39.5582C22.1157 39.8554 21.8544 40.1167 21.5572 40.3325C20.6372 41.001 19.3248 41.001 16.7 41.001H9.3C6.67519 41.001 5.36278 41.001 4.44275 40.3325C4.14562 40.1167 3.88432 39.8554 3.66844 39.5582C3 38.6382 3 37.3258 3 34.701V30.301Z" fill="#45AEF5"/>
</svg>
