<svg width="26" height="44" viewBox="0 0 26 44" fill="none" xmlns="http://www.w3.org/2000/svg">
    <path opacity="0.64" fill-rule="evenodd" clip-rule="evenodd" d="M8.52545 4.01844C8.76576 1.75959 10.6774 0 13 0C15.3226 0 17.2342 1.75958 17.4745 4.01841C20.3278 4.07483 22.032 4.30472 23.3213 5.24145C23.8731 5.64236 24.3584 6.12764 24.7593 6.67945C26.0007 8.38808 26.0007 10.8254 26.0007 15.7001V32.3001C26.0007 37.1747 26.0007 39.612 24.7593 41.3207C24.3584 41.8725 23.8731 42.3577 23.3213 42.7587C21.6126 44.0001 19.1753 44.0001 14.3007 44.0001H11.7007C6.82602 44.0001 4.38869 44.0001 2.68007 42.7587C2.12825 42.3577 1.64298 41.8725 1.24206 41.3207C0.000671387 39.612 0.000671387 37.1747 0.000671387 32.3001V15.7001C0.000671387 10.8254 0.000671387 8.38808 1.24206 6.67945C1.64298 6.12764 2.12825 5.64236 2.68007 5.24145C3.96916 4.30487 5.67303 4.0749 8.52545 4.01844ZM1.50018 13.5001C1.50018 10.6998 1.50018 9.29966 2.04515 8.2301C2.52452 7.28929 3.28942 6.52439 4.23023 6.04502C5.29979 5.50006 6.69992 5.50006 9.50018 5.50006H16.5002C19.3004 5.50006 20.7006 5.50006 21.7701 6.04502C22.7109 6.52439 23.4758 7.28929 23.9552 8.2301C24.5002 9.29966 24.5002 10.6998 24.5002 13.5001V34.5001C24.5002 37.3003 24.5002 38.7005 23.9552 39.77C23.4758 40.7108 22.7109 41.4757 21.7701 41.9551C20.7006 42.5001 19.3004 42.5001 16.5002 42.5001H9.50018C6.69992 42.5001 5.29979 42.5001 4.23023 41.9551C3.28942 41.4757 2.52452 40.7108 2.04515 39.77C1.50018 38.7005 1.50018 37.3003 1.50018 34.5001V13.5001Z" fill="#556170"/>
    <path d="M3 12.4C3 10.1502 3 9.02524 3.57295 8.23664C3.75799 7.98196 3.98196 7.75799 4.23664 7.57295C5.02524 7 6.15016 7 8.4 7H17.6C19.8498 7 20.9748 7 21.7634 7.57295C22.018 7.75799 22.242 7.98196 22.4271 8.23664C23 9.02524 23 10.1502 23 12.4V35.6C23 37.8498 23 38.9748 22.4271 39.7634C22.242 40.018 22.018 40.242 21.7634 40.4271C20.9748 41 19.8498 41 17.6 41H8.4C6.15016 41 5.02524 41 4.23664 40.4271C3.98196 40.242 3.75799 40.018 3.57295 39.7634C3 38.9748 3 37.8498 3 35.6V12.4Z" fill="#45AEF5"/>
</svg>
