<svg width="26" height="44" viewBox="0 0 26 44" fill="none" xmlns="http://www.w3.org/2000/svg">
    <path opacity="0.64" fill-rule="evenodd" clip-rule="evenodd" d="M8.52551 4.01844C8.76582 1.75959 10.6774 0 13 0C15.3226 0 17.2343 1.75958 17.4746 4.01841C20.3278 4.07483 22.032 4.30472 23.3213 5.24145C23.8732 5.64236 24.3584 6.12764 24.7593 6.67945C26.0007 8.38808 26.0007 10.8254 26.0007 15.7001V32.3001C26.0007 37.1747 26.0007 39.612 24.7593 41.3207C24.3584 41.8725 23.8732 42.3577 23.3213 42.7587C21.6127 44.0001 19.1754 44.0001 14.3007 44.0001H11.7007C6.82608 44.0001 4.38875 44.0001 2.68013 42.7587C2.12831 42.3577 1.64304 41.8725 1.24212 41.3207C0.000732422 39.612 0.000732422 37.1747 0.000732422 32.3001V15.7001C0.000732422 10.8254 0.000732422 8.38808 1.24212 6.67945C1.64304 6.12764 2.12831 5.64236 2.68013 5.24145C3.96922 4.30487 5.67309 4.0749 8.52551 4.01844ZM1.50024 13.5001C1.50024 10.6998 1.50024 9.29966 2.04521 8.2301C2.52458 7.28929 3.28948 6.52439 4.23029 6.04502C5.29985 5.50006 6.69998 5.50006 9.50024 5.50006H16.5002C19.3005 5.50006 20.7006 5.50006 21.7702 6.04502C22.711 6.52439 23.4759 7.28929 23.9553 8.2301C24.5002 9.29966 24.5002 10.6998 24.5002 13.5001V34.5001C24.5002 37.3003 24.5002 38.7005 23.9553 39.77C23.4759 40.7108 22.711 41.4757 21.7702 41.9551C20.7006 42.5001 19.3005 42.5001 16.5002 42.5001H9.50024C6.69998 42.5001 5.29985 42.5001 4.23029 41.9551C3.28948 41.4757 2.52458 40.7108 2.04521 39.77C1.50024 38.7005 1.50024 37.3003 1.50024 34.5001V13.5001Z" fill="#556170"/>
    <path d="M7.90107 21.7188L12.4586 16.2497C13.8839 14.5393 14.5966 13.6842 15.1181 13.9233C15.6396 14.1624 15.4566 15.2605 15.0905 17.4566L14.6869 19.8781C14.5984 20.4094 14.5541 20.675 14.6879 20.8733C14.8216 21.0716 15.0845 21.13 15.6103 21.2468L16.445 21.4323C18.5949 21.9101 19.6698 22.149 19.9418 22.9463C20.2137 23.7436 19.5087 24.5895 18.0988 26.2814L13.5413 31.7505C12.116 33.4609 11.4033 34.316 10.8818 34.0769C10.3603 33.8378 10.5433 32.7397 10.9094 30.5436L11.313 28.1221C11.4015 27.5908 11.4458 27.3252 11.312 27.1269C11.1783 26.9286 10.9154 26.8702 10.3896 26.7534L9.55494 26.5679C7.40503 26.0901 6.33008 25.8512 6.05814 25.0539C5.7862 24.2566 6.49116 23.4107 7.90107 21.7188Z" fill="#39CC83"/>
</svg>
