<svg width="26" height="44" viewBox="0 0 26 44" fill="none" xmlns="http://www.w3.org/2000/svg">
    <path opacity="0.64" fill-rule="evenodd" clip-rule="evenodd" d="M8.52545 4.02045C8.76576 1.76161 10.6774 0.00201416 13 0.00201416C15.3226 0.00201416 17.2342 1.76159 17.4745 4.02042C20.3278 4.07684 22.032 4.30673 23.3213 5.24346C23.8731 5.64438 24.3584 6.12965 24.7593 6.68147C26.0007 8.39009 26.0007 10.8274 26.0007 15.7021V32.3021C26.0007 37.1767 26.0007 39.614 24.7593 41.3227C24.3584 41.8745 23.8731 42.3598 23.3213 42.7607C21.6126 44.0021 19.1753 44.0021 14.3007 44.0021H11.7007C6.82602 44.0021 4.38869 44.0021 2.68007 42.7607C2.12825 42.3598 1.64298 41.8745 1.24206 41.3227C0.000671387 39.614 0.000671387 37.1767 0.000671387 32.3021V15.7021C0.000671387 10.8274 0.000671387 8.39009 1.24206 6.68147C1.64298 6.12965 2.12825 5.64438 2.68007 5.24346C3.96916 4.30688 5.67303 4.07692 8.52545 4.02045ZM1.50018 13.5021C1.50018 10.7018 1.50018 9.30168 2.04515 8.23212C2.52452 7.29131 3.28942 6.52641 4.23023 6.04704C5.29979 5.50207 6.69992 5.50207 9.50018 5.50207H16.5002C19.3004 5.50207 20.7006 5.50207 21.7701 6.04704C22.7109 6.52641 23.4758 7.29131 23.9552 8.23212C24.5002 9.30168 24.5002 10.7018 24.5002 13.5021V34.5021C24.5002 37.3023 24.5002 38.7025 23.9552 39.772C23.4758 40.7128 22.7109 41.4777 21.7701 41.9571C20.7006 42.5021 19.3004 42.5021 16.5002 42.5021H9.50018C6.69992 42.5021 5.29979 42.5021 4.23023 41.9571C3.28942 41.4777 2.52452 40.7128 2.04515 39.772C1.50018 38.7025 1.50018 37.3023 1.50018 34.5021V13.5021Z" fill="#556170"/>
    <path d="M3 36.002C3 37.3985 3 38.0967 3.19641 38.658C3.5482 39.6634 4.33866 40.4538 5.34402 40.8056C5.90533 41.002 6.60355 41.002 8 41.002H18C19.3964 41.002 20.0947 41.002 20.656 40.8056C21.6613 40.4538 22.4518 39.6634 22.8036 38.658C23 38.0967 23 37.3985 23 36.002V36.002C23 34.6056 23 33.9073 22.8036 33.346C22.4518 32.3407 21.6613 31.5502 20.656 31.1984C20.0947 31.002 19.3964 31.002 18 31.002H8C6.60355 31.002 5.90533 31.002 5.34402 31.1984C4.33866 31.5502 3.5482 32.3407 3.19641 33.346C3 33.9073 3 34.6056 3 36.002V36.002Z" fill="#45AEF5"/>
</svg>
