<svg width="16" height="16" viewBox="0 0 16 16" fill="none" xmlns="http://www.w3.org/2000/svg">
    <path fill-rule="evenodd" clip-rule="evenodd" d="M15 8C15 11.866 11.866 15 8 15C4.13401 15 1 11.866 1 8C1 4.13401 4.13401 1 8 1C11.866 1 15 4.13401 15 8ZM11.3226 12.3833C10.3996 13.0841 9.24835 13.5 8 13.5C4.96243 13.5 2.5 11.0376 2.5 8C2.5 6.75165 2.9159 5.60043 3.6167 4.67736L11.3226 12.3833ZM12.3833 11.3226L4.67736 3.6167C5.60043 2.9159 6.75165 2.5 8 2.5C11.0376 2.5 13.5 4.96243 13.5 8C13.5 9.24835 13.0841 10.3996 12.3833 11.3226Z" fill="white"/>
</svg>
