<svg width="16" height="17" viewBox="0 0 16 17" fill="none" xmlns="http://www.w3.org/2000/svg">
    <path d="M10.4722 1.95424C10.5839 1.55537 10.3511 1.14148 9.95222 1.0298C9.55335 0.918115 9.13946 1.15093 9.02778 1.5498L5.52778 14.0498C5.41609 14.4487 5.6489 14.8626 6.04778 14.9742C6.44665 15.0859 6.86054 14.8531 6.97222 14.4542L10.4722 1.95424Z" fill="white"/>
    <path d="M3.66603 3.62798C4.01067 3.85775 4.1038 4.3234 3.87404 4.66805L1.65139 8.00202L3.87404 11.336C4.1038 11.6806 4.01067 12.1463 3.66603 12.3761C3.32138 12.6058 2.85573 12.5127 2.62596 12.168L0.125962 8.41805C-0.0419874 8.16612 -0.0419874 7.83792 0.125962 7.586L2.62596 3.836C2.85573 3.49135 3.32138 3.39822 3.66603 3.62798Z" fill="white"/>
    <path d="M12.334 3.62798C11.9893 3.85775 11.8962 4.3234 12.126 4.66805L14.3486 8.00202L12.126 11.336C11.8962 11.6806 11.9893 12.1463 12.334 12.3761C12.6786 12.6058 13.1443 12.5127 13.374 12.168L15.874 8.41805C16.042 8.16612 16.042 7.83792 15.874 7.586L13.374 3.836C13.1443 3.49135 12.6786 3.39822 12.334 3.62798Z" fill="white"/>
</svg>
