<svg width="16" height="16" viewBox="0 0 16 16" fill="none" xmlns="http://www.w3.org/2000/svg">
    <path fill-rule="evenodd" clip-rule="evenodd" d="M11.988 11.988C12.9564 11.9619 13.5768 11.8795 14.089 11.6185C14.7475 11.283 15.283 10.7475 15.6185 10.089C16 9.34028 16 8.36018 16 6.4V5.6C16 3.63982 16 2.65972 15.6185 1.91103C15.283 1.25247 14.7475 0.717034 14.089 0.381477C13.3403 0 12.3602 0 10.4 0H9.6C7.63982 0 6.65973 0 5.91104 0.381477C5.25247 0.717034 4.71704 1.25247 4.38148 1.91103C4.12052 2.42319 4.03808 3.04363 4.01203 4.01203C3.04364 4.03808 2.42319 4.12052 1.91103 4.38148C1.25247 4.71703 0.717034 5.25247 0.381477 5.91103C1.49012e-07 6.65972 0 7.63982 0 9.6V10.4C0 12.3602 1.49012e-07 13.3403 0.381477 14.089C0.717034 14.7475 1.25247 15.283 1.91103 15.6185C2.65972 16 3.63982 16 5.6 16H6.4C8.36018 16 9.34028 16 10.089 15.6185C10.7475 15.283 11.283 14.7475 11.6185 14.089C11.8795 13.5768 11.9619 12.9564 11.988 11.988ZM10.4 1.5H9.6C8.59516 1.5 7.93174 1.50117 7.42336 1.5427C6.93249 1.58281 6.71967 1.65295 6.59202 1.71799C6.2157 1.90973 5.90974 2.21569 5.71799 2.59202C5.65295 2.71966 5.58281 2.93248 5.54271 3.42335C5.52865 3.59541 5.51922 3.78521 5.51289 4C5.54171 4 5.57074 4 5.6 4H6.4C8.36018 4 9.34028 4 10.089 4.38148C10.7475 4.71703 11.283 5.25247 11.6185 5.91103C12 6.65972 12 7.63982 12 9.6V10.4C12 10.4293 12 10.4583 12 10.4871C12.2148 10.4808 12.4046 10.4714 12.5766 10.4573C13.0675 10.4172 13.2803 10.3471 13.408 10.282C13.7843 10.0903 14.0903 9.78431 14.282 9.40798C14.3471 9.28034 14.4172 9.06752 14.4573 8.57665C14.4988 8.06826 14.5 7.40484 14.5 6.4V5.6C14.5 4.59516 14.4988 3.93174 14.4573 3.42335C14.4172 2.93248 14.3471 2.71966 14.282 2.59202C14.0903 2.21569 13.7843 1.90973 13.408 1.71799C13.2803 1.65295 13.0675 1.58281 12.5766 1.5427C12.0683 1.50117 11.4048 1.5 10.4 1.5ZM5.6 5.5H6.4C7.40484 5.5 8.06826 5.50117 8.57665 5.5427C9.06752 5.58281 9.28034 5.65295 9.40798 5.71799C9.78431 5.90973 10.0903 6.21569 10.282 6.59202C10.3471 6.71966 10.4172 6.93248 10.4573 7.42335C10.4988 7.93174 10.5 8.59516 10.5 9.6V10.4C10.5 11.4048 10.4988 12.0683 10.4573 12.5766C10.4172 13.0675 10.3471 13.2803 10.282 13.408C10.0903 13.7843 9.78431 14.0903 9.40798 14.282C9.28034 14.3471 9.06752 14.4172 8.57664 14.4573C8.06826 14.4988 7.40484 14.5 6.4 14.5H5.6C4.59516 14.5 3.93174 14.4988 3.42336 14.4573C2.93248 14.4172 2.71966 14.3471 2.59202 14.282C2.21569 14.0903 1.90973 13.7843 1.71799 13.408C1.65295 13.2803 1.58281 13.0675 1.5427 12.5766C1.50117 12.0683 1.5 11.4048 1.5 10.4V9.6C1.5 8.59516 1.50117 7.93174 1.5427 7.42335C1.58281 6.93248 1.65295 6.71966 1.71799 6.59202C1.90973 6.21569 2.21569 5.90973 2.59202 5.71799C2.71966 5.65295 2.93248 5.58281 3.42336 5.5427C3.93174 5.50117 4.59516 5.5 5.6 5.5Z" fill="white"/>
</svg>
