<svg width="16" height="16" viewBox="0 0 16 16" fill="none" xmlns="http://www.w3.org/2000/svg">
    <path fill-rule="evenodd" clip-rule="evenodd" d="M2.78033 0.71967C2.48744 0.426777 2.01256 0.426777 1.71967 0.71967C1.42678 1.01256 1.42678 1.48744 1.71967 1.78033L3.39477 3.45543C2.62494 3.99287 1.98721 4.63453 1.50894 5.30146C0.893591 6.15954 0.5 7.1207 0.5 8.00001C0.5 9.2926 1.34793 10.7923 2.62326 11.9338C3.92842 13.1021 5.78895 14 8 14C9.77112 14 11.3179 13.4236 12.5335 12.5941L14.2197 14.2803C14.5126 14.5732 14.9874 14.5732 15.2803 14.2803C15.5732 13.9874 15.5732 13.5126 15.2803 13.2197L2.78033 0.71967ZM5.84863 5.90929L4.47589 4.53655C3.7448 5.00472 3.15157 5.58482 2.7279 6.1756C2.22264 6.88017 2 7.53943 2 8.00001C2 8.70742 2.52504 9.83276 3.62369 10.8162C4.69251 11.7729 6.20698 12.5 8 12.5C9.32442 12.5 10.4964 12.1036 11.4498 11.5104L10.0907 10.1514C9.55107 10.6758 8.81331 11 8 11C6.34315 11 5 9.65686 5 8.00001C5 7.18653 5.3241 6.44905 5.84863 5.90929ZM6.90938 6.97004C6.65496 7.23924 6.5 7.60167 6.5 8.00001C6.5 8.82844 7.17157 9.50001 8 9.50001C8.3985 9.50001 8.76068 9.34514 9.02994 9.0906L6.90938 6.97004Z" fill="white"/>
    <path d="M8.00004 3.5C7.89358 3.5 7.78818 3.50256 7.68388 3.50756C7.27014 3.5274 6.91865 3.20809 6.89881 2.79435C6.87897 2.38061 7.19828 2.02912 7.61202 2.00928C7.7402 2.00313 7.86955 2 8.00004 2C10.2111 2 12.0716 2.8979 13.3768 4.06618C14.6521 5.20775 15.5 6.70741 15.5 8C15.5 8.59014 15.3224 9.21098 15.0319 9.8016C14.849 10.1733 14.3995 10.3264 14.0278 10.1435C13.6561 9.96067 13.5031 9.51114 13.6859 9.13947C13.906 8.69207 14 8.29955 14 8C14 7.29259 13.475 6.16725 12.3764 5.18383C11.3075 4.2271 9.79306 3.5 8.00004 3.5Z" fill="white"/>
</svg>
