<svg width="28" height="36" viewBox="0 0 28 36" fill="none" xmlns="http://www.w3.org/2000/svg">
    <path d="M6.85264 14.5811L13.689 6.37749C15.8269 3.81195 16.8959 2.52918 17.6781 2.88788C18.4604 3.24658 18.1859 4.89365 17.6368 8.1878L17.0314 11.8201C16.8986 12.617 16.8322 13.0155 17.0329 13.3129C17.2335 13.6103 17.6278 13.6979 18.4165 13.8732L19.6685 14.1514C22.8933 14.8681 24.5058 15.2264 24.9137 16.4224C25.3216 17.6183 24.2642 18.8873 22.1493 21.4251L15.313 29.6287C13.175 32.1942 12.106 33.477 11.3238 33.1183C10.5415 32.7596 10.8161 31.1125 11.3651 27.8184L11.9705 24.186C12.1033 23.3891 12.1697 22.9907 11.9691 22.6933C11.7684 22.3959 11.3741 22.3082 10.5855 22.133L9.33344 21.8547C6.10859 21.1381 4.49616 20.7798 4.08825 19.5838C3.68034 18.3878 4.73777 17.1189 6.85264 14.5811Z" fill="#8994A3"/>
</svg>
