<svg width="16" height="16" viewBox="0 0 16 16" fill="none" xmlns="http://www.w3.org/2000/svg">
    <path d="M4.60071 6.47911L7.63907 2.83308C8.58927 1.69284 9.06437 1.12272 9.41204 1.28214C9.75971 1.44156 9.6377 2.17359 9.39369 3.63766L9.12463 5.25203C9.0656 5.60621 9.03608 5.7833 9.12526 5.91548C9.21443 6.04767 9.38969 6.08661 9.7402 6.1645L10.2966 6.28816C11.7299 6.60666 12.4465 6.76591 12.6278 7.29746C12.8091 7.82901 12.3392 8.39297 11.3992 9.5209L8.36086 13.1669C7.41066 14.3072 6.93556 14.8773 6.58789 14.7179C6.24022 14.5585 6.36223 13.8264 6.60624 12.3624L6.8753 10.748C6.93433 10.3938 6.96385 10.2167 6.87467 10.0845C6.7855 9.95235 6.61025 9.9134 6.25974 9.83551L5.70329 9.71186C4.27002 9.39335 3.55339 9.2341 3.37209 8.70255C3.1908 8.171 3.66077 7.60704 4.60071 6.47911Z" fill="white"/>
</svg>
