<svg width="16" height="16" viewBox="0 0 16 16" fill="none" xmlns="http://www.w3.org/2000/svg">
<path fill-rule="evenodd" clip-rule="evenodd" d="M15 8C15 11.866 11.866 15 8 15C4.13401 15 1 11.866 1 8C1 4.13401 4.13401 1 8 1C11.866 1 15 4.13401 15 8ZM9.73386 8.75C9.61748 11.4328 8.88555 13.5 8 13.5C7.11445 13.5 6.38252 11.4328 6.26613 8.75H9.73386ZM11.2352 8.75C11.1815 10.0969 10.9838 11.3478 10.6668 12.3439C10.605 12.5381 10.5358 12.732 10.4579 12.9216C12.0486 12.1257 13.1996 10.5812 13.4493 8.75H11.2352ZM13.4493 7.25H11.2352C11.1815 5.90306 10.9838 4.65225 10.6668 3.65611C10.605 3.46195 10.5358 3.26799 10.4579 3.0784C12.0486 3.87435 13.1996 5.41878 13.4493 7.25ZM9.73386 7.25H6.26613C6.38251 4.56763 7.11423 2.5006 7.99961 2.5C8.88516 2.5 9.61748 4.56724 9.73386 7.25ZM4.76485 7.25C4.81852 5.90306 5.01622 4.65225 5.33317 3.65611C5.39495 3.46195 5.46421 3.268 5.54213 3.0784C3.95143 3.87435 2.8004 5.41878 2.55071 7.25H4.76485ZM2.55071 8.75C2.8004 10.5812 3.95143 12.1257 5.54213 12.9216C5.46421 12.732 5.39495 12.5381 5.33317 12.3439C5.01622 11.3478 4.81852 10.0969 4.76485 8.75H2.55071Z" fill="white"/>
</svg>
