<svg width="16" height="16" viewBox="0 0 16 16" fill="none" xmlns="http://www.w3.org/2000/svg">
    <g clip-path="url(#clip0_9617_158496)">
        <path fill-rule="evenodd" clip-rule="evenodd" d="M10 4.00098V6.00098H6V4.00098C6 2.89641 6.89543 2.00098 8 2.00098C9.10457 2.00098 10 2.89641 10 4.00098ZM4.5 6.01528V6.00098V4.00098C4.5 2.06798 6.067 0.500977 8 0.500977C9.933 0.500977 11.5 2.06798 11.5 4.00098V6.00098V6.01528C12.1748 6.04041 12.6236 6.10969 12.9985 6.30071C13.5159 6.56436 13.9366 6.98506 14.2003 7.5025C14.5 8.09076 14.5 8.86083 14.5 10.401V11.101C14.5 12.6411 14.5 13.4112 14.2003 13.9995C13.9366 14.5169 13.5159 14.9376 12.9985 15.2012C12.4102 15.501 11.6401 15.501 10.1 15.501H5.9C4.35986 15.501 3.58978 15.501 3.00153 15.2012C2.48408 14.9376 2.06338 14.5169 1.79973 13.9995C1.5 13.4112 1.5 12.6411 1.5 11.101V10.401C1.5 8.86083 1.5 8.09076 1.79973 7.5025C2.06338 6.98506 2.48408 6.56436 3.00153 6.30071C3.37642 6.10969 3.82516 6.04041 4.5 6.01528ZM7.25 9.25098C7.25 8.83676 7.58579 8.50098 8 8.50098C8.41421 8.50098 8.75 8.83676 8.75 9.25098V10.751C8.75 11.1652 8.41421 11.501 8 11.501C7.58579 11.501 7.25 11.1652 7.25 10.751V9.25098Z" fill="#39CC83"/>
    </g>
    <defs>
        <clipPath id="clip0_9617_158496">
            <rect width="16" height="16" fill="white" transform="translate(0 0.000976562)"/>
        </clipPath>
    </defs>
</svg>
