<svg width="16" height="16" viewBox="0 0 16 16" fill="none" xmlns="http://www.w3.org/2000/svg">
    <path fill-rule="evenodd" clip-rule="evenodd" d="M11.199 1.13834C9.87508 -0.185603 7.60764 0.592374 7.3754 2.45025L7.28773 3.15163L5.73177 4.70759L3.72315 4.43978C1.35341 4.12381 -0.0655134 6.99512 1.62498 8.68562L3.93962 11.0003L0.219708 14.7196C-0.0732061 15.0125 -0.0732405 15.4874 0.219631 15.7803C0.512503 16.0732 0.987377 16.0732 1.28029 15.7804L5.00028 12.0609L7.3144 14.375C9.00489 16.0655 11.8762 14.6466 11.5602 12.2769L11.2924 10.2683L12.8484 8.71229L13.5498 8.62462C15.4076 8.39238 16.1856 6.12495 14.8617 4.801L11.199 1.13834ZM8.86382 2.6363C8.94123 2.01701 9.69705 1.75768 10.1384 2.199L13.801 5.86166C14.2423 6.30297 13.983 7.05879 13.3637 7.1362L12.407 7.25579C12.2415 7.27648 12.0876 7.35174 11.9697 7.46967L9.96969 9.46967C9.80451 9.63485 9.72573 9.86757 9.7566 10.0991L10.0734 12.4751C10.1998 13.423 9.05126 13.9906 8.37506 13.3144L2.68564 7.62496C2.00944 6.94876 2.57701 5.80023 3.52491 5.92662L5.9009 6.24342C6.13245 6.27429 6.36517 6.19551 6.53035 6.03033L8.53035 4.03033C8.64828 3.9124 8.72354 3.75852 8.74423 3.59303L8.86382 2.6363Z" fill="white"/>
</svg>
