<svg width="16" height="16" viewBox="0 0 16 16" fill="none" xmlns="http://www.w3.org/2000/svg">
<path fill-rule="evenodd" clip-rule="evenodd" d="M1.06976 10.1302L9.7 1.5C10.454 0.746002 10.831 0.369002 11.2529 0.197555C11.796 -0.0232085 12.404 -0.0232083 12.9471 0.197555C13.369 0.369003 13.746 0.746002 14.5 1.5C15.254 2.254 15.631 2.631 15.8024 3.05285C16.0232 3.59604 16.0232 4.20396 15.8024 4.74715C15.631 5.169 15.254 5.546 14.5 6.3L5.86975 14.9302C5.53778 15.2622 5.3718 15.4282 5.1851 15.5571C4.89371 15.7584 4.56288 15.8954 4.21454 15.9592C3.99135 16 3.75662 16 3.28714 16C2.32119 16 1.83821 16 1.45311 15.8542C0.850189 15.6258 0.374185 15.1498 0.145845 14.5469C0 14.1618 0 13.6788 0 12.7129C0 12.2434 0 12.0086 0.0408471 11.7854C0.104601 11.4371 0.241632 11.1063 0.442867 10.8149C0.571799 10.6282 0.737787 10.4622 1.06976 10.1302ZM1.52763 11.9807C1.5 12.0958 1.5 12.2181 1.5 12.4627V13.2999C1.5 13.72 1.5 13.93 1.58175 14.0904C1.65365 14.2316 1.76839 14.3463 1.90951 14.4182C2.06994 14.4999 2.27996 14.4999 2.7 14.4999H3.53726C3.78185 14.4999 3.90415 14.4999 4.01923 14.4723C4.12127 14.4478 4.21881 14.4074 4.30829 14.3526C4.4092 14.2907 4.49568 14.2043 4.66863 14.0313L12.0697 6.63032L9.36967 3.93033L1.96863 11.3314C1.79569 11.5043 1.7092 11.5908 1.64736 11.6917C1.59253 11.7812 1.55213 11.8787 1.52763 11.9807ZM13.9515 4.74852L13.1303 5.56966L10.4303 2.86967L11.2515 2.04852C11.5485 1.75151 11.697 1.60301 11.8682 1.54736C12.0189 1.49842 12.1811 1.49842 12.3318 1.54736C12.503 1.603 12.6515 1.75151 12.9485 2.04852L13.9515 3.05146C14.2485 3.34846 14.397 3.49698 14.4526 3.66822C14.5016 3.81886 14.5016 3.98112 14.4526 4.13175C14.397 4.303 14.2485 4.4515 13.9515 4.74852Z" fill="white"/>
<path d="M9.25 14.5C8.83579 14.5 8.5 14.8358 8.5 15.25C8.5 15.6642 8.83579 16 9.25 16H15.25C15.6642 16 16 15.6642 16 15.25C16 14.8358 15.6642 14.5 15.25 14.5H9.25Z" fill="white"/>
</svg>
