<svg width="16" height="16" viewBox="0 0 16 16" fill="none" xmlns="http://www.w3.org/2000/svg">
<path d="M8.75 2.75024C8.75 2.33603 8.41421 2.00024 8 2.00024C7.58579 2.00024 7.25 2.33603 7.25 2.75024V7.25024H2.75C2.33579 7.25024 2 7.58603 2 8.00024C2 8.41446 2.33579 8.75024 2.75 8.75024H7.25V13.2502C7.25 13.6645 7.58579 14.0002 8 14.0002C8.41421 14.0002 8.75 13.6645 8.75 13.2502V8.75024H13.25C13.6642 8.75024 14 8.41446 14 8.00024C14 7.58603 13.6642 7.25024 13.25 7.25024H8.75V2.75024Z" fill="white"/>
</svg>
