<svg fill="none" height="16" viewBox="0 0 16 16" width="16" xmlns="http://www.w3.org/2000/svg"><path clip-rule="evenodd" d="m2.64626 5.69487c.24571.33347.71522.4046 1.04869.15889l4.3051-3.17218 4.30515 3.17218c.3334.24571.8029.17458 1.0486-.15889.2458-.33346.1746-.80298-.1589-1.04869l-4.74995-3.5c-.26457-.194947-.62523-.194947-.8898 0l-4.75 3.5c-.33347.24571-.4046.71523-.15889 1.04869zm0 4.61033c.24571-.3335.71522-.40463 1.04869-.1589l4.3051 3.1722 4.30515-3.1722c.3334-.24573.8029-.1746 1.0486.1589.2458.3334.1746.803-.1589 1.0487l-4.74995 3.5c-.26457.1949-.62523.1949-.8898 0l-4.75-3.5c-.33347-.2457-.4046-.7153-.15889-1.0487z" fill="#fff" fill-rule="evenodd"/></svg>