<svg width="17" height="16" viewBox="0 0 17 16" fill="none" xmlns="http://www.w3.org/2000/svg">
<path d="M13.2803 6.53033L9.03033 10.7803C8.73744 11.0732 8.26256 11.0732 7.96967 10.7803L3.71967 6.53033C3.42678 6.23744 3.42678 5.76256 3.71967 5.46967C4.01256 5.17678 4.48744 5.17678 4.78033 5.46967L7.75 8.43934V1.25C7.75 0.835787 8.08579 0.5 8.5 0.5C8.91421 0.5 9.25 0.835787 9.25 1.25V8.43934L12.2197 5.46967C12.5126 5.17678 12.9874 5.17678 13.2803 5.46967C13.5732 5.76256 13.5732 6.23744 13.2803 6.53033Z" fill="white"/>
<path d="M2.75 13.5C2.33579 13.5 2 13.8358 2 14.25C2 14.6642 2.33579 15 2.75 15H14.25C14.6642 15 15 14.6642 15 14.25C15 13.8358 14.6642 13.5 14.25 13.5H2.75Z" fill="white"/>
</svg>
