<svg width="16" height="16" viewBox="0 0 16 16" fill="none" xmlns="http://www.w3.org/2000/svg">
        <path d="M11.199 1.13834C9.87506 -0.185601 7.60762 0.59237 7.37538 2.45025L7.28235 3.19447C7.23098 3.60549 7.52252 3.98033 7.93354 4.03171C8.34455 4.08308 8.71939 3.79154 8.77077 3.38053L8.8638 2.6363C8.94121 2.01701 9.69702 1.75768 10.1383 2.199L13.801 5.86166C14.2423 6.30298 13.983 7.05879 13.3637 7.1362L12.6204 7.22911C12.2094 7.28049 11.9179 7.65533 11.9693 8.06634C12.0206 8.47736 12.3955 8.7689 12.8065 8.71752L13.5498 8.62462C15.4076 8.39238 16.1856 6.12495 14.8617 4.801L11.199 1.13834Z" fill="white"/>
        <path fill-rule="evenodd" clip-rule="evenodd" d="M11.0372 9.47651C11.0329 9.47216 11.0286 9.46787 11.0243 9.46362L6.53638 4.97572C6.53215 4.97138 6.52786 4.9671 6.52352 4.96286L2.78033 1.21967C2.48744 0.926776 2.01256 0.926776 1.71967 1.21967C1.42678 1.51256 1.42678 1.98744 1.71967 2.28033L3.90311 4.46377L3.72315 4.43978C1.35341 4.12381 -0.0655134 6.99512 1.62498 8.68561L3.93962 11.0003L0.219708 14.7196C-0.0732061 15.0125 -0.0732405 15.4874 0.219631 15.7803C0.512503 16.0732 0.987377 16.0732 1.28029 15.7804L5.00028 12.0609L7.3144 14.375C9.00489 16.0655 11.8762 14.6466 11.5602 12.2769L11.5362 12.0969L13.7197 14.2803C14.0126 14.5732 14.4874 14.5732 14.7803 14.2803C15.0732 13.9874 15.0732 13.5126 14.7803 13.2197L11.0372 9.47651ZM2.68564 7.62496C2.00944 6.94876 2.57701 5.80023 3.52491 5.92662L5.6492 6.20986L9.79016 10.3508L10.0734 12.4751C10.1998 13.423 9.05126 13.9906 8.37506 13.3144L2.68564 7.62496Z" fill="white"/>
</svg>
