<svg width="16" height="16" viewBox="0 0 16 16" fill="none" xmlns="http://www.w3.org/2000/svg">
<g clip-path="url(#clip0_5_6901)">
<path fill-rule="evenodd" clip-rule="evenodd" d="M7.45727 0.626973C7.19801 0.727586 6.96219 0.941545 6.49054 1.36946C6.26835 1.57105 6.15726 1.67184 6.03305 1.74695C5.86582 1.84808 5.68043 1.91555 5.48732 1.94558C5.34389 1.96788 5.194 1.96208 4.89422 1.95048C4.25786 1.92584 3.93967 1.91353 3.6764 2.0031C3.32188 2.12372 3.02529 2.37258 2.84495 2.70077C2.71102 2.94449 2.6679 3.25998 2.58165 3.89095C2.54102 4.18819 2.52071 4.33681 2.47384 4.47419C2.41074 4.65916 2.3121 4.83001 2.18346 4.97714C2.08792 5.08642 1.96937 5.17832 1.73227 5.36212C1.22895 5.7523 0.977292 5.94739 0.833188 6.18524C0.63914 6.50552 0.57191 6.8868 0.644713 7.25413C0.698778 7.52692 0.868536 7.79632 1.20805 8.33511C1.36799 8.58892 1.44796 8.71583 1.50036 8.85119C1.57091 9.03345 1.60517 9.22773 1.60121 9.42313C1.59826 9.56825 1.56652 9.71486 1.50304 10.0081C1.36828 10.6305 1.3009 10.9417 1.34339 11.2165C1.40061 11.5866 1.59419 11.9219 1.88608 12.1565C2.10284 12.3307 2.40605 12.428 3.01246 12.6225C3.29813 12.7141 3.44096 12.7599 3.56812 12.8299C3.73932 12.9242 3.89044 13.051 4.013 13.2032C4.10403 13.3163 4.17395 13.449 4.31378 13.7144C4.61063 14.2778 4.75907 14.5595 4.96828 14.7428C5.24999 14.9895 5.61381 15.1219 5.9882 15.114C6.26623 15.1081 6.56102 14.9877 7.15058 14.7469C7.42831 14.6335 7.56717 14.5768 7.70958 14.5487C7.90132 14.5108 8.0986 14.5108 8.29034 14.5487C8.43275 14.5768 8.57161 14.6335 8.84934 14.7469C9.43891 14.9877 9.73369 15.1081 10.0117 15.114C10.3861 15.1219 10.7499 14.9895 11.0316 14.7428C11.2409 14.5595 11.3893 14.2778 11.6861 13.7144C11.826 13.449 11.8959 13.3163 11.9869 13.2032C12.1095 13.051 12.2606 12.9242 12.4318 12.8299C12.559 12.7599 12.7018 12.7141 12.9875 12.6225C13.5939 12.428 13.8971 12.3307 14.1138 12.1565C14.4057 11.9219 14.5993 11.5866 14.6565 11.2165C14.699 10.9417 14.6316 10.6305 14.4969 10.0081C14.4334 9.71488 14.4017 9.56825 14.3987 9.42313C14.3948 9.22773 14.429 9.03345 14.4996 8.85119C14.552 8.71583 14.6319 8.58892 14.7919 8.33511C15.1314 7.79632 15.3011 7.52692 15.3552 7.25413C15.428 6.8868 15.3608 6.50552 15.1667 6.18524C15.0226 5.94739 14.771 5.7523 14.2677 5.36212C14.0306 5.17832 13.912 5.08642 13.8165 4.97714C13.6878 4.83001 13.5892 4.65916 13.5261 4.47419C13.4792 4.33681 13.4589 4.18819 13.4183 3.89095C13.332 3.25998 13.2889 2.94449 13.155 2.70077C12.9746 2.37258 12.678 2.12371 12.3235 2.0031C12.0603 1.91353 11.7421 1.92584 11.1057 1.95048C10.8059 1.96208 10.656 1.96788 10.5126 1.94558C10.3195 1.91555 10.1341 1.84808 9.96687 1.74695C9.84266 1.67184 9.73157 1.57105 9.50939 1.36946C9.03773 0.941545 8.80191 0.727586 8.54265 0.626973C8.19354 0.491489 7.80638 0.491489 7.45727 0.626973ZM11.0303 7.03033C11.3232 6.73743 11.3232 6.26256 11.0303 5.96967C10.7374 5.67677 10.2625 5.67677 9.96963 5.96967L6.99996 8.93934L5.78029 7.71967C5.4874 7.42677 5.01252 7.42677 4.71963 7.71967C4.42674 8.01256 4.42674 8.48743 4.71963 8.78033L6.46963 10.5303C6.76252 10.8232 7.2374 10.8232 7.53029 10.5303L11.0303 7.03033Z" fill="white"/>
</g>
<defs>
<clipPath id="clip0_5_6901">
<rect width="16" height="16" fill="white"/>
</clipPath>
</defs>
</svg>
