<svg width="10" height="10" viewBox="0 0 10 10" fill="none" xmlns="http://www.w3.org/2000/svg">
    <path d="M3.75 4.90244V3H2.25V4.90244H3.75ZM3.09756 5.75H6.90244V4.25H3.09756V5.75ZM6.25 3V4.90244H7.75V3H6.25ZM5 1.75C5.69036 1.75 6.25 2.30964 6.25 3H7.75C7.75 1.48122 6.51878 0.25 5 0.25V1.75ZM3.75 3C3.75 2.30964 4.30964 1.75 5 1.75V0.25C3.48122 0.25 2.25 1.48122 2.25 3H3.75ZM6.90244 5.75C7.37053 5.75 7.75 5.37053 7.75 4.90244H6.25C6.25 4.54211 6.54211 4.25 6.90244 4.25V5.75ZM2.25 4.90244C2.25 5.37053 2.62947 5.75 3.09756 5.75V4.25C3.45789 4.25 3.75 4.54211 3.75 4.90244H2.25Z" fill="#222B3D"/>
    <rect x="1" y="4.25" width="8" height="4.75" rx="1" fill="#222B3D"/>
</svg>
