<svg width="128" height="128" viewBox="0 0 128 128" fill="none" xmlns="http://www.w3.org/2000/svg">
<path fill-rule="evenodd" clip-rule="evenodd" d="M53.0435 16.0162C53.5411 10.402 58.2565 6 64.0001 6C69.7437 6 74.4591 10.402 74.9567 16.0162C83.2387 16.0931 87.9328 16.5333 91.4046 19.0557C92.7629 20.0426 93.9574 21.2371 94.9443 22.5954C98 26.8013 98 32.8009 98 44.8V91.2C98 103.199 98 109.199 94.9443 113.405C93.9574 114.763 92.7629 115.957 91.4046 116.944C87.1987 120 81.1991 120 69.2 120H58.8C46.8009 120 40.8013 120 36.5954 116.944C35.2371 115.957 34.0426 114.763 33.0557 113.405C30 109.199 30 103.199 30 91.2V44.8C30 32.8009 30 26.8013 33.0557 22.5954C34.0426 21.2371 35.2371 20.0426 36.5954 19.0557C40.0673 16.5333 44.7614 16.0931 53.0435 16.0162ZM34 41.6C34 32.6006 34 28.101 36.2918 24.9466C37.032 23.9278 37.9278 23.032 38.9466 22.2918C42.101 20 46.6006 20 55.6 20H72.4C81.3994 20 85.899 20 89.0534 22.2918C90.0722 23.032 90.968 23.9278 91.7082 24.9466C94 28.101 94 32.6006 94 41.6V94.4C94 103.399 94 107.899 91.7082 111.053C90.968 112.072 90.0722 112.968 89.0534 113.708C85.899 116 81.3994 116 72.4 116H55.6C46.6006 116 42.101 116 38.9466 113.708C37.9278 112.968 37.032 112.072 36.2918 111.053C34 107.899 34 103.399 34 94.4V41.6Z" fill="#2E3847"/>
<path d="M38.0767 104C38.08 105.569 38.3878 106.682 38.8719 107.632C39.6389 109.137 40.8627 110.361 42.368 111.128C44.0793 112 46.3195 112 50.7999 112H77.1999C81.6803 112 83.9206 112 85.6318 111.128C87.1371 110.361 88.361 109.137 89.128 107.632C89.6121 106.682 89.92 105.568 89.9232 103.999C89.92 102.431 89.612 101.318 89.1279 100.368C88.361 98.8628 87.1371 97.6389 85.6318 96.8719C83.9205 96 81.6803 96 77.1999 96H50.7999C46.3195 96 44.0793 96 42.368 96.8719C40.8627 97.6389 39.6388 98.8628 38.8718 100.368C38.3878 101.318 38.08 102.431 38.0767 104Z" fill="#F5A73B"/>
</svg>
