<svg width="128" height="128" viewBox="0 0 128 128" fill="none" xmlns="http://www.w3.org/2000/svg">
    <path fill-rule="evenodd" clip-rule="evenodd" d="M53.0435 16.0162C53.5411 10.402 58.2565 6 64.0001 6C69.7437 6 74.4591 10.402 74.9567 16.0162C83.2387 16.0931 87.9328 16.5333 91.4046 19.0557C92.7629 20.0426 93.9574 21.2371 94.9443 22.5954C98 26.8013 98 32.8009 98 44.8V91.2C98 103.199 98 109.199 94.9443 113.405C93.9574 114.763 92.7629 115.957 91.4046 116.944C87.1987 120 81.1991 120 69.2 120H58.8C46.8009 120 40.8013 120 36.5954 116.944C35.2371 115.957 34.0426 114.763 33.0557 113.405C30 109.199 30 103.199 30 91.2V44.8C30 32.8009 30 26.8013 33.0557 22.5954C34.0426 21.2371 35.2371 20.0426 36.5954 19.0557C40.0673 16.5333 44.7614 16.0931 53.0435 16.0162ZM34 41.6C34 32.6006 34 28.101 36.2918 24.9466C37.032 23.9278 37.9278 23.032 38.9466 22.2918C42.101 20 46.6006 20 55.6 20H72.4C81.3994 20 85.899 20 89.0534 22.2918C90.0722 23.032 90.968 23.9278 91.7082 24.9466C94 28.101 94 32.6006 94 41.6V94.4C94 103.399 94 107.899 91.7082 111.053C90.968 112.072 90.0722 112.968 89.0534 113.708C85.899 116 81.3994 116 72.4 116H55.6C46.6006 116 42.101 116 38.9466 113.708C37.9278 112.968 37.032 112.072 36.2918 111.053C34 107.899 34 103.399 34 94.4V41.6Z" fill="#2E3847"/>
    <path d="M53.8021 63.4375L62.9172 52.4994C65.7678 49.0787 67.1931 47.3683 68.2361 47.8466C69.2791 48.3249 68.9131 50.521 68.1811 54.9132L67.3739 59.7563C67.1968 60.8188 67.1082 61.3501 67.3758 61.7466C67.6433 62.1432 68.1691 62.26 69.2206 62.4937L70.8899 62.8647C75.1897 63.8202 77.3396 64.2979 77.8835 65.8926C78.4274 67.4872 77.0175 69.1791 74.1977 72.5629L65.0826 83.501C62.232 86.9217 60.8067 88.6321 59.7637 88.1538C58.7207 87.6755 59.0867 85.4794 59.8187 81.0872L60.6259 76.2441C60.803 75.1816 60.8915 74.6503 60.624 74.2538C60.3565 73.8572 59.8307 73.7404 58.7792 73.5067L57.1099 73.1358C52.8101 72.1802 50.6602 71.7025 50.1163 70.1078C49.5724 68.5132 50.9823 66.8213 53.8021 63.4375Z" fill="#45AEF5"/>
</svg>
