<svg width="128" height="128" viewBox="0 0 128 128" fill="none" xmlns="http://www.w3.org/2000/svg">
    <path fill-rule="evenodd" clip-rule="evenodd" d="M51.3438 18.0073C43.1563 18.0486 38.5598 18.3254 34.9202 20.1799C31.1569 22.0973 28.0973 25.1569 26.1799 28.9202C24 33.1984 24 38.7989 24 50V88C24 99.201 24 104.802 26.1799 109.08C28.0973 112.843 31.1569 115.903 34.9202 117.82C39.1984 120 44.799 120 56 120H72C83.2011 120 88.8016 120 93.0798 117.82C96.8431 115.903 99.9027 112.843 101.82 109.08C104 104.802 104 99.201 104 88V50C104 38.799 104 33.1984 101.82 28.9202C99.9027 25.1569 96.8431 22.0973 93.0798 20.1799C89.4402 18.3254 84.8437 18.0486 76.6562 18.0073C74.4107 13.2734 69.5877 10 64 10C58.4124 10 53.5893 13.2734 51.3438 18.0073ZM32 45.2C32 38.4794 32 35.1191 33.3079 32.5521C34.4584 30.2942 36.2942 28.4584 38.5521 27.3079C41.1191 26 44.4794 26 51.2 26H76.8C83.5206 26 86.8809 26 89.4479 27.3079C91.7058 28.4584 93.5416 30.2942 94.6921 32.5521C96 35.1191 96 38.4794 96 45.2V92.8C96 99.5206 96 102.881 94.6921 105.448C93.5416 107.706 91.7058 109.542 89.4479 110.692C86.8809 112 83.5206 112 76.8 112H51.2C44.4794 112 41.1191 112 38.5521 110.692C36.2942 109.542 34.4584 107.706 33.3079 105.448C32 102.881 32 99.5206 32 92.8V45.2Z" fill="#2E3847"/>
    <path d="M38 100C38 96.6863 40.6863 94 44 94H84C87.3137 94 90 96.6863 90 100C90 103.314 87.3137 106 84 106H44C40.6863 106 38 103.314 38 100Z" fill="#FF4766"/>
</svg>
