<svg width="128" height="128" viewBox="0 0 128 128" fill="none" xmlns="http://www.w3.org/2000/svg">
    <path fill-rule="evenodd" clip-rule="evenodd" d="M51.3438 18.0073C43.1563 18.0486 38.5598 18.3254 34.9202 20.1799C31.1569 22.0973 28.0973 25.1569 26.1799 28.9202C24 33.1984 24 38.7989 24 50V88C24 99.201 24 104.802 26.1799 109.08C28.0973 112.843 31.1569 115.903 34.9202 117.82C39.1984 120 44.799 120 56 120H72C83.2011 120 88.8016 120 93.0798 117.82C96.8431 115.903 99.9027 112.843 101.82 109.08C104 104.802 104 99.201 104 88V50C104 38.799 104 33.1984 101.82 28.9202C99.9027 25.1569 96.8431 22.0973 93.0798 20.1799C89.4402 18.3254 84.8437 18.0486 76.6562 18.0073C74.4107 13.2734 69.5876 10 64 10C58.4123 10 53.5893 13.2734 51.3438 18.0073ZM32 45.2C32 38.4794 32 35.1191 33.3079 32.5521C34.4584 30.2942 36.2942 28.4584 38.5521 27.3079C41.1191 26 44.4794 26 51.2 26H76.8C83.5206 26 86.8809 26 89.4479 27.3079C91.7058 28.4584 93.5416 30.2942 94.6921 32.5521C96 35.1191 96 38.4794 96 45.2V92.8C96 99.5206 96 102.881 94.6921 105.448C93.5416 107.706 91.7058 109.542 89.4479 110.692C86.8809 112 83.5206 112 76.8 112H51.2C44.4794 112 41.1191 112 38.5521 110.692C36.2942 109.542 34.4584 107.706 33.3079 105.448C32 102.881 32 99.5206 32 92.8V45.2Z" fill="#2E3847"/>
    <path d="M38 41.6C38 38.2397 38 36.5595 38.654 35.2761C39.2292 34.1471 40.1471 33.2292 41.2761 32.654C42.5595 32 44.2397 32 47.6 32H80.4C83.7603 32 85.4405 32 86.7239 32.654C87.8529 33.2292 88.7708 34.1471 89.346 35.2761C90 36.5595 90 38.2397 90 41.6V96.4C90 99.7603 90 101.44 89.346 102.724C88.7708 103.853 87.8529 104.771 86.7239 105.346C85.4405 106 83.7603 106 80.4 106H47.6C44.2397 106 42.5595 106 41.2761 105.346C40.1471 104.771 39.2292 103.853 38.654 102.724C38 101.44 38 99.7603 38 96.4V41.6Z" fill="#45AEF5"/>
</svg>
