<svg fill="none" height="128" viewBox="0 0 128 128" width="128" xmlns="http://www.w3.org/2000/svg"><g fill="#fff"><path d="m84 64c0 11.0457-8.9543 20-20 20s-20-8.9543-20-20 8.9543-20 20-20 20 8.9543 20 20z" opacity=".32"/><path clip-rule="evenodd" d="m28.3199 27.8-13.51 23.4c-2.6922 4.6631-4.0384 6.9946-4.5652 9.4734-.46623 2.1932-.46623 4.46 0 6.6532.5268 2.4788 1.873 4.8103 4.5652 9.4734l13.51 23.4c2.6922 4.663 4.0383 6.995 5.9216 8.69 1.6663 1.501 3.6293 2.634 5.7618 3.327 2.4101.783 5.1024.783 10.4868.783h27.02c5.3845 0 8.0767 0 10.4869-.783 2.1324-.693 4.0955-1.826 5.7618-3.327 1.8832-1.695 3.2293-4.027 5.9216-8.69l13.5096-23.4v-.0001c2.693-4.663 4.039-6.9946 4.566-9.4733.466-2.1932.466-4.46 0-6.6532-.527-2.4788-1.873-4.8103-4.566-9.4733v-.0001l-13.5096-23.4c-2.6923-4.6631-4.0384-6.9946-5.9216-8.6903-1.6663-1.5004-3.6294-2.6337-5.7618-3.3266-2.4102-.7831-5.1024-.7831-10.4869-.7831h-27.02c-5.3844 0-8.0767 0-10.4868.7831-2.1325.6929-4.0955 1.8262-5.7618 3.3266-1.8833 1.6957-3.2294 4.0272-5.9216 8.6903zm35.68 56.2c11.0457 0 20-8.9543 20-20s-8.9543-20-20-20-20 8.9543-20 20 8.9543 20 20 20z" fill-rule="evenodd"/></g></svg>