<svg width="128" height="128" viewBox="0 0 128 128" fill="none" xmlns="http://www.w3.org/2000/svg">
    <path fill-rule="evenodd" clip-rule="evenodd" d="M21.9619 57.8282C20 61.6786 20 66.7191 20 76.8V87.2C20 97.2809 20 102.321 21.9619 106.172C23.6876 109.559 26.4413 112.312 29.8282 114.038C33.6786 116 38.7191 116 48.8 116H79.2C89.2809 116 94.3214 116 98.1718 114.038C101.559 112.312 104.312 109.559 106.038 106.172C108 102.321 108 97.2809 108 87.2V76.8C108 66.7191 108 61.6786 106.038 57.8282C104.312 54.4413 101.559 51.6876 98.1718 49.9619C94.3214 48 89.2809 48 79.2 48H48.8C38.7191 48 33.6786 48 29.8282 49.9619C26.4413 51.6876 23.6876 54.4413 21.9619 57.8282ZM72 72C72 74.9611 70.3912 77.5465 68 78.9297V86C68 88.2091 66.2091 90 64 90C61.7909 90 60 88.2091 60 86V78.9297C57.6088 77.5465 56 74.9611 56 72C56 67.5817 59.5817 64 64 64C68.4183 64 72 67.5817 72 72Z" fill="white"/>
    <path opacity="0.32" fill-rule="evenodd" clip-rule="evenodd" d="M82 34V48H46V34C46 24.0589 54.0589 16 64 16C73.9411 16 82 24.0589 82 34ZM38 34C38 19.6406 49.6406 8 64 8C78.3594 8 90 19.6406 90 34V48V56H82H46H38V48V34ZM72 72C72 74.9611 70.3912 77.5465 68 78.9297V86C68 88.2091 66.2091 90 64 90C61.7909 90 60 88.2091 60 86V78.9297C57.6088 77.5465 56 74.9611 56 72C56 67.5817 59.5817 64 64 64C68.4183 64 72 67.5817 72 72Z" fill="white"/>
</svg>
