<svg width="128" height="128" viewBox="0 0 128 128" fill="none" xmlns="http://www.w3.org/2000/svg">
    <path d="M107.965 41.8795C105.62 43.2285 102.9 44 100 44C91.1635 44 84 36.8366 84 28C84 25.1 84.7715 22.3802 86.1205 20.0347C84.1104 20 81.8262 20 79.2 20H48.8C38.7191 20 33.6786 20 29.8282 21.9619C26.4413 23.6876 23.6876 26.4413 21.9619 29.8282C20 33.6786 20 38.7191 20 48.8V79.2C20 89.2809 20 94.3214 21.9619 98.1718C23.6876 101.559 26.4413 104.312 29.8282 106.038C33.6786 108 38.7191 108 48.8 108H79.2C89.281 108 94.3214 108 98.1718 106.038C101.559 104.312 104.312 101.559 106.038 98.1718C108 94.3214 108 89.2809 108 79.2V48.8C108 46.1738 108 43.8896 107.965 41.8795Z" fill="#45AEF5"/>
    <circle opacity="0.32" cx="100" cy="28" r="16" fill="#45AEF5"/>
</svg>
