<svg width="44" height="44" viewBox="0 0 44 44" fill="none" xmlns="http://www.w3.org/2000/svg">
<rect width="44" height="44" fill="#2E3847"/>
<path fill-rule="evenodd" clip-rule="evenodd" d="M23.4007 31.5572L29.3193 21.6579C30.6225 19.4782 31.2742 18.3883 31.1896 17.4918C31.1159 16.71 30.7115 15.9971 30.0783 15.5326C29.3522 15 28.0824 15 25.5428 15H18.4571C15.9175 15 14.6477 15 13.9216 15.5326C13.2885 15.9971 12.8841 16.71 12.8103 17.4918C12.7258 18.3883 13.3774 19.4782 14.6806 21.6579L20.5992 31.5572C21.061 32.3296 21.2919 32.7158 21.5908 32.8466C21.8516 32.9609 22.1483 32.9609 22.4092 32.8466C22.708 32.7158 22.9389 32.3296 23.4007 31.5572ZM21 17V28.4L15.3626 18.808C15.0143 18.2154 14.8401 17.9191 14.8644 17.6756C14.8856 17.4633 14.9961 17.2701 15.1685 17.1443C15.3661 17 15.7098 17 16.3971 17H21ZM23 28.4V17H27.6028C28.2902 17 28.6339 17 28.8315 17.1443C29.0038 17.2701 29.1144 17.4633 29.1356 17.6756C29.1598 17.9191 28.9857 18.2154 28.6374 18.808L23 28.4Z" fill="white"/>
</svg>
