<svg width="56" height="56" viewBox="0 0 56 56" fill="none" xmlns="http://www.w3.org/2000/svg">
<path fill-rule="evenodd" clip-rule="evenodd" d="M25.1914 16H30.809C31.4527 16 31.7746 16 32.0313 16.0972C32.4334 16.2494 32.7508 16.5668 32.903 16.9689C32.99 17.1988 32.9991 17.481 33.0001 18H23.0003C23.0012 17.481 23.0103 17.1988 23.0973 16.9689C23.2496 16.5668 23.567 16.2494 23.9691 16.0972C24.2257 16 24.5476 16 25.1914 16ZM23.0002 19C23.0004 19.1314 23.0012 19.2152 23.0042 19.2976C23.0446 20.3973 23.3867 21.4646 23.993 22.3829C24.0537 22.4749 24.1192 22.5666 24.2501 22.75L24.2502 22.75L24.2502 22.75C24.3812 22.9334 24.4467 23.0251 24.5074 23.1171C25.1137 24.0354 25.4557 25.1027 25.4961 26.2024C25.5002 26.3126 25.5002 26.4252 25.5002 26.6506V39.6C25.5002 40.4401 25.5002 40.8601 25.6637 41.181C25.8075 41.4632 26.037 41.6927 26.3192 41.8365C26.6401 42 27.0601 42 27.9002 42H28.1002C28.9403 42 29.3603 42 29.6812 41.8365C29.9634 41.6927 30.1929 41.4632 30.3367 41.181C30.5002 40.8601 30.5002 40.4401 30.5002 39.6V26.6506C30.5002 26.4252 30.5002 26.3126 30.5042 26.2024C30.5446 25.1027 30.8867 24.0354 31.493 23.1171C31.5537 23.0251 31.6192 22.9334 31.7502 22.75L31.7502 22.75L31.7502 22.75C31.8812 22.5666 31.9467 22.4749 32.0074 22.3829C32.6137 21.4646 32.9557 20.3973 32.9961 19.2976C32.9992 19.2152 32.9999 19.1314 33.0001 19H23.0002ZM26.5002 27.5C26.5002 26.6716 27.1718 26 28.0002 26C28.8286 26 29.5002 26.6716 29.5002 27.5V30.5C29.5002 31.3284 28.8286 32 28.0002 32C27.1718 32 26.5002 31.3284 26.5002 30.5V27.5ZM28.0002 28.5C28.4145 28.5 28.7502 28.1642 28.7502 27.75C28.7502 27.3358 28.4145 27 28.0002 27C27.586 27 27.2502 27.3358 27.2502 27.75C27.2502 28.1642 27.586 28.5 28.0002 28.5Z" fill="white"/>
</svg>
