<svg width="56" height="56" viewBox="0 0 56 56" fill="none" xmlns="http://www.w3.org/2000/svg">
    <path fill-rule="evenodd" clip-rule="evenodd" d="M32.7563 37.7549C31.6592 41.5529 29.9368 44 28 44C26.0632 44 24.3408 41.5529 23.2437 37.7549C24.7768 37.9164 26.3725 38 28 38C29.6275 38 31.2232 37.9164 32.7563 37.7549ZM37.0597 37.0597C36.7662 38.3717 36.4073 39.6 35.988 40.7182C35.799 41.2221 35.5911 41.7217 35.3621 42.2094C38.2903 40.6891 40.6891 38.2903 42.2094 35.3621C41.7217 35.5911 41.2221 35.799 40.7182 35.988C39.6 36.4073 38.3717 36.7662 37.0597 37.0597ZM42.2094 20.6379C41.7217 20.4089 41.2221 20.201 40.7182 20.012C39.6 19.5927 38.3717 19.2338 37.0597 18.9403C36.7662 17.6283 36.4073 16.4 35.988 15.2818C35.799 14.7779 35.5911 14.2783 35.3621 13.7906C38.2903 15.3109 40.6891 17.7097 42.2094 20.6379ZM37.7549 23.2437C41.5529 24.3408 44 26.0632 44 28C44 29.9368 41.5529 31.6592 37.7549 32.7563C37.9164 31.2231 38 29.6275 38 28C38 26.3725 37.9164 24.7769 37.7549 23.2437ZM33.6195 22.3805C33.8655 24.1289 34 26.0225 34 28C34 29.9775 33.8655 31.8711 33.6195 33.6195C31.8711 33.8655 29.9775 34 28 34C26.0225 34 24.1289 33.8655 22.3805 33.6195C22.1345 31.8711 22 29.9775 22 28C22 26.0225 22.1345 24.1289 22.3805 22.3805C24.1289 22.1345 26.0225 22 28 22C29.9775 22 31.8711 22.1345 33.6195 22.3805ZM32.7563 18.2451C31.6592 14.4471 29.9368 12 28 12H27.9984C26.0623 12.0013 24.3405 14.4481 23.2437 18.2451C24.7768 18.0836 26.3725 18 28 18C29.6275 18 31.2232 18.0836 32.7563 18.2451ZM18.9403 18.9403C19.2338 17.6283 19.5927 16.4 20.012 15.2818C20.201 14.7779 20.4089 14.2783 20.6379 13.7906C17.7097 15.3109 15.3109 17.7097 13.7907 20.6379C14.2783 20.4089 14.7779 20.201 15.2818 20.012C16.4 19.5927 17.6283 19.2338 18.9403 18.9403ZM13.7906 35.3621C14.2783 35.5911 14.7779 35.799 15.2818 35.988C16.4 36.4073 17.6283 36.7662 18.9403 37.0597C19.2338 38.3717 19.5927 39.6 20.012 40.7182C20.201 41.2221 20.4089 41.7217 20.6379 42.2094C17.7097 40.6891 15.3109 38.2903 13.7906 35.3621ZM18.2451 32.7563C14.4471 31.6592 12 29.9368 12 28C12 26.0632 14.4471 24.3408 18.2451 23.2437C18.0836 24.7769 18 26.3725 18 28C18 29.6275 18.0836 31.2231 18.2451 32.7563ZM8 28C8 16.9543 16.9543 8 28 8C39.0457 8 48 16.9543 48 28C48 39.0457 39.0457 48 28 48C16.9543 48 8 39.0457 8 28Z" fill="white"/>
</svg>
