<svg width="16" height="16" viewBox="0 0 16 16" fill="none" xmlns="http://www.w3.org/2000/svg">
    <path fill-rule="evenodd" clip-rule="evenodd" d="M8.00058 0.99884C8.00058 4.86515 4.86631 7.99942 1 7.99942C1 4.13311 4.13427 0.99884 8.00058 0.99884ZM8.00058 15C4.13427 15 1 11.8657 1 7.99942C4.86631 7.99942 8.00058 11.1337 8.00058 15ZM15.0011 7.99942C15.0011 11.8657 11.8669 15 8.00058 15C8.00058 11.1337 11.1348 7.99944 15.0011 7.99942ZM14.25 1.99998C14.25 4.7614 12.0114 6.99998 9.24998 6.99998C9.16813 6.99998 9.08673 6.99801 9.00584 6.99412C9.00195 6.91324 8.99998 6.83186 8.99998 6.75001C8.99998 3.98859 11.2386 1.75001 14 1.75001C14.0818 1.75001 14.1632 1.75198 14.2441 1.75587C14.248 1.83675 14.25 1.91813 14.25 1.99998Z" fill="white"/>
</svg>
