<svg width="16" height="16" viewBox="0 0 16 16" fill="none" xmlns="http://www.w3.org/2000/svg">
    <path fill-rule="evenodd" clip-rule="evenodd" d="M8 15C11.866 15 15 11.866 15 8C15 4.13401 11.866 1 8 1C4.13401 1 1 4.13401 1 8C1 11.866 4.13401 15 8 15ZM10.4579 12.9216C11.5219 12.3892 12.3892 11.5219 12.9216 10.4579C12.732 10.5358 12.5381 10.605 12.3439 10.6668C11.934 10.7973 11.4809 10.9075 10.9958 10.9958C10.9075 11.4809 10.7973 11.934 10.6668 12.3439C10.605 12.5381 10.5358 12.732 10.4579 12.9216ZM8 13.5C8.58731 13.5 9.10704 12.5907 9.42446 11.1957C8.96261 11.2315 8.48547 11.25 8 11.25C7.51453 11.25 7.03739 11.2315 6.57554 11.1957C6.89296 12.5907 7.41269 13.5 8 13.5ZM5.0042 10.9958C5.09251 11.4809 5.20274 11.934 5.33317 12.3439C5.39495 12.5381 5.46421 12.732 5.54213 12.9216C4.47811 12.3892 3.61081 11.5219 3.0784 10.4579C3.26799 10.5358 3.46195 10.605 3.65611 10.6668C4.06603 10.7973 4.51907 10.9075 5.0042 10.9958ZM6.33193 9.66807C6.85805 9.72128 7.41848 9.75 8 9.75C8.58151 9.75 9.14195 9.72128 9.66807 9.66807C9.72128 9.14195 9.75 8.58151 9.75 8C9.75 7.41849 9.72128 6.85805 9.66807 6.33193C9.14195 6.27872 8.58151 6.25 8 6.25C7.41849 6.25 6.85805 6.27872 6.33193 6.33193C6.27872 6.85805 6.25 7.41849 6.25 8C6.25 8.58151 6.27871 9.14195 6.33193 9.66807ZM4.80433 6.57554C4.76847 7.03739 4.75 7.51453 4.75 8C4.75 8.48547 4.76847 8.96261 4.80433 9.42446C3.40927 9.10704 2.5 8.58731 2.5 8C2.5 7.41269 3.40927 6.89296 4.80433 6.57554ZM6.57554 4.80432C7.03739 4.76847 7.51453 4.75 8 4.75C8.48547 4.75 8.96261 4.76847 9.42446 4.80432C9.10704 3.40927 8.58731 2.5 8 2.5C8.00013 2.5 7.99987 2.5 8 2.5C7.41285 2.5004 6.89289 3.40957 6.57554 4.80432ZM5.54213 3.0784C5.46421 3.268 5.39495 3.46195 5.33317 3.65611C5.20275 4.06603 5.09251 4.51907 5.0042 5.0042C4.51907 5.09251 4.06603 5.20275 3.65611 5.33317C3.46195 5.39495 3.268 5.46421 3.0784 5.54213C3.61081 4.47811 4.47811 3.61081 5.54213 3.0784ZM10.4579 3.0784C11.5219 3.61081 12.3892 4.47811 12.9216 5.54213C12.732 5.46421 12.5381 5.39495 12.3439 5.33317C11.934 5.20275 11.4809 5.09251 10.9958 5.0042C10.9075 4.51907 10.7973 4.06603 10.6668 3.65611C10.605 3.46195 10.5358 3.26799 10.4579 3.0784ZM11.1957 6.57554C12.5907 6.89296 13.5 7.41269 13.5 8C13.5 8.58731 12.5907 9.10704 11.1957 9.42446C11.2315 8.96261 11.25 8.48547 11.25 8C11.25 7.51453 11.2315 7.03739 11.1957 6.57554Z" fill="#45AEF5"/>
</svg>
