<svg width="16" height="16" viewBox="0 0 16 16" fill="none" xmlns="http://www.w3.org/2000/svg">
<path fill-rule="evenodd" clip-rule="evenodd" d="M1.0452 7.42422C5.12648 5.64607 7.84798 4.4738 9.20968 3.90742C13.0976 2.29029 13.9055 2.00937 14.4321 2.0001C14.5479 1.99806 14.8068 2.02676 14.9746 2.16287C15.1162 2.27779 15.1552 2.43304 15.1738 2.54201C15.1925 2.65097 15.2157 2.89919 15.1972 3.09314C14.9866 5.30687 14.0749 10.679 13.6111 13.1584C13.4149 14.2076 13.0284 14.5593 12.6543 14.5938C11.8413 14.6686 11.224 14.0565 10.4365 13.5403C9.20435 12.7326 8.50825 12.2298 7.3122 11.4416C5.92996 10.5307 6.82601 10.0301 7.61374 9.21192C7.8199 8.9978 11.402 5.73958 11.4714 5.44401C11.48 5.40704 11.4881 5.26925 11.4062 5.19649C11.3244 5.12373 11.2035 5.14861 11.1163 5.1684C10.9928 5.19645 9.02434 6.49751 5.21107 9.07157C4.65234 9.45524 4.14625 9.64218 3.69282 9.63238C3.19295 9.62158 2.2314 9.34974 1.51658 9.11739C0.63983 8.83239 -0.0569945 8.68171 0.00368331 8.1977C0.035288 7.94559 0.382459 7.68777 1.0452 7.42422Z" fill="white"/>
</svg>
