<svg width="17" height="17" viewBox="0 0 17 17" fill="none" xmlns="http://www.w3.org/2000/svg">
    <g clip-path="url(#clip0_20853_69837)">
        <path fill-rule="evenodd" clip-rule="evenodd" d="M7.95739 1.62578C7.69814 1.7264 7.46231 1.94036 6.99066 2.36827C6.76848 2.56986 6.65739 2.67065 6.53317 2.74576C6.36594 2.84689 6.18056 2.91436 5.98744 2.94439C5.84401 2.96669 5.69412 2.96089 5.39435 2.94929C4.75798 2.92465 4.43979 2.91234 4.17652 3.00191C3.822 3.12252 3.52542 3.37139 3.34507 3.69958C3.21114 3.9433 3.16802 4.25879 3.08177 4.88976L3.08177 4.88977C3.04115 5.187 3.02083 5.33562 2.97396 5.473C2.91086 5.65797 2.81222 5.82882 2.68358 5.97595C2.58804 6.08523 2.46949 6.17713 2.23239 6.36093C1.72907 6.75111 1.47741 6.9462 1.33331 7.18405C1.13926 7.50433 1.07203 7.88561 1.14484 8.25294C1.1989 8.52573 1.36866 8.79513 1.70818 9.33392L1.70818 9.33393C1.86811 9.58773 1.94808 9.71464 2.00048 9.85C2.07104 10.0323 2.10529 10.2265 2.10133 10.4219C2.09839 10.5671 2.06665 10.7137 2.00316 11.0069C1.8684 11.6293 1.80102 11.9405 1.84351 12.2153C1.90073 12.5854 2.09432 12.9207 2.3862 13.1553C2.60296 13.3295 2.90617 13.4268 3.51259 13.6213C3.79825 13.7129 3.94109 13.7587 4.06824 13.8287C4.23944 13.923 4.39056 14.0498 4.51312 14.202C4.60415 14.3151 4.67407 14.4478 4.8139 14.7132L4.81391 14.7132C5.11076 15.2766 5.25919 15.5584 5.4684 15.7416C5.75012 15.9883 6.11393 16.1207 6.48832 16.1128C6.76636 16.1069 7.06114 15.9865 7.6507 15.7457C7.92843 15.6323 8.0673 15.5756 8.20971 15.5475C8.40144 15.5096 8.59872 15.5096 8.79046 15.5475C8.93287 15.5756 9.07174 15.6323 9.34947 15.7457C9.93903 15.9865 10.2338 16.1069 10.5118 16.1128C10.8862 16.1207 11.2501 15.9883 11.5318 15.7416C11.741 15.5584 11.8894 15.2766 12.1863 14.7132C12.3261 14.4478 12.396 14.3151 12.487 14.202C12.6096 14.0498 12.7607 13.923 12.9319 13.8287C13.0591 13.7587 13.2019 13.7129 13.4876 13.6213C14.094 13.4268 14.3972 13.3295 14.614 13.1553C14.9059 12.9207 15.0994 12.5854 15.1567 12.2153C15.1992 11.9405 15.1318 11.6293 14.997 11.0069L14.997 11.0069L14.997 11.0069C14.9335 10.7137 14.9018 10.5671 14.8988 10.4219C14.8949 10.2265 14.9291 10.0323 14.9997 9.85C15.0521 9.71464 15.1321 9.58773 15.292 9.33392C15.6315 8.79513 15.8013 8.52573 15.8553 8.25294C15.9281 7.88561 15.8609 7.50433 15.6669 7.18405C15.5228 6.9462 15.2711 6.75111 14.7678 6.36093C14.5307 6.17713 14.4121 6.08523 14.3166 5.97595C14.188 5.82882 14.0893 5.65797 14.0262 5.473C13.9793 5.33562 13.959 5.187 13.9184 4.88976C13.8321 4.25879 13.789 3.9433 13.6551 3.69958C13.4748 3.37139 13.1782 3.12252 12.8236 3.00191C12.5604 2.91234 12.2422 2.92465 11.6058 2.94929C11.306 2.96089 11.1562 2.96669 11.0127 2.94439C10.8196 2.91436 10.6342 2.84689 10.467 2.74576C10.3428 2.67065 10.2317 2.56986 10.0095 2.36827C9.53786 1.94036 9.30203 1.7264 9.04277 1.62578C8.69366 1.4903 8.3065 1.4903 7.95739 1.62578ZM11.5304 8.02914C11.8233 7.73624 11.8233 7.26137 11.5304 6.96848C11.2375 6.67558 10.7626 6.67558 10.4698 6.96848L7.50008 9.93815L6.28041 8.71848C5.98752 8.42558 5.51265 8.42558 5.21975 8.71848C4.92686 9.01137 4.92686 9.48624 5.21975 9.77914L6.96975 11.5291C7.26265 11.822 7.73752 11.822 8.03041 11.5291L11.5304 8.02914Z" fill="#8994A3"/>
    </g>
    <defs>
        <clipPath id="clip0_20853_69837">
            <rect width="16" height="16" fill="white" transform="translate(0.5 0.99881)"/>
        </clipPath>
    </defs>
</svg>
