<svg width="28" height="28" viewBox="0 0 28 28" fill="none" xmlns="http://www.w3.org/2000/svg">
<g clip-path="url(#clip0_5_8454)">
<path opacity="0.32" d="M23.9762 9.36112C23.4145 8.87963 22.5856 8.87963 22.0238 9.36112L18.5238 12.3611C17.8948 12.9002 17.822 13.8472 18.3611 14.4762C18.9003 15.1052 19.8472 15.178 20.4762 14.6389L21.5 13.7613V14C21.5 18.1421 18.1421 21.5 14 21.5C12.6314 21.5 11.3527 21.1348 10.2511 20.4976C9.534 20.0827 8.61641 20.3278 8.2016 21.0449C7.78678 21.762 8.03182 22.6796 8.74892 23.0944C10.2949 23.9886 12.09 24.5 14 24.5C19.799 24.5 24.5 19.799 24.5 14V13.7613L25.5238 14.6389C26.1528 15.178 27.0998 15.1052 27.6389 14.4762C28.178 13.8472 28.1052 12.9002 27.4762 12.3611L23.9762 9.36112Z" fill="white"/>
<path d="M6.4999 14C6.4999 9.85786 9.85777 6.5 13.9999 6.5C15.3685 6.5 16.6472 6.8652 17.7488 7.50245C18.4659 7.91726 19.3835 7.67222 19.7983 6.95513C20.2131 6.23804 19.9681 5.32045 19.251 4.90563C17.7051 4.01135 15.9099 3.5 13.9999 3.5C8.20091 3.5 3.4999 8.20101 3.4999 14V14.2387L2.47609 13.3611C1.8471 12.822 0.900153 12.8948 0.36102 13.5238C-0.178113 14.1528 -0.105271 15.0998 0.523718 15.6389L4.02372 18.6389C4.58545 19.1204 5.41436 19.1204 5.97609 18.6389L9.47609 15.6389C10.1051 15.0998 10.1779 14.1528 9.63879 13.5238C9.09966 12.8948 8.15271 12.822 7.52372 13.3611L6.4999 14.2387V14Z" fill="white"/>
</g>
<defs>
<clipPath id="clip0_5_8454">
<rect width="28" height="28" fill="white"/>
</clipPath>
</defs>
</svg>
