<svg width="28" height="28" viewBox="0 0 28 28" fill="none" xmlns="http://www.w3.org/2000/svg">
    <path fill-rule="evenodd" clip-rule="evenodd" d="M15.0607 18.5607C14.4749 19.1464 13.5251 19.1464 12.9393 18.5607L7.43934 13.0607C6.85355 12.4749 6.85355 11.5251 7.43934 10.9393C8.02513 10.3536 8.97487 10.3536 9.56066 10.9393L12.5 13.8787V3.5C12.5 2.67157 13.1716 2 14 2C14.8284 2 15.5 2.67157 15.5 3.5V13.8787L18.4393 10.9393C19.0251 10.3536 19.9749 10.3536 20.5607 10.9393C21.1464 11.5251 21.1464 12.4749 20.5607 13.0607L15.0607 18.5607Z" fill="white"/>
    <path opacity="0.32" fill-rule="evenodd" clip-rule="evenodd" d="M4 23.5C4 22.6716 4.67157 22 5.5 22H22.5C23.3284 22 24 22.6716 24 23.5C24 24.3284 23.3284 25 22.5 25H5.5C4.67157 25 4 24.3284 4 23.5Z" fill="white"/>
</svg>
