<svg width="28" height="28" viewBox="0 0 28 28" fill="none" xmlns="http://www.w3.org/2000/svg">
<path d="M3 8.00002V16.6C3 18.8402 3 19.9603 3.43597 20.816C3.81947 21.5686 4.43139 22.1806 5.18404 22.564C6.03969 23 7.15979 23 9.4 23H18.6C20.8402 23 21.9603 23 22.816 22.564C23.5686 22.1806 24.1805 21.5686 24.564 20.816C25 19.9603 25 18.8402 25 16.6V8L16.5233 13.009C15.6051 13.5515 15.1461 13.8228 14.6568 13.9289C14.224 14.0227 13.776 14.0227 13.3432 13.9289C12.8539 13.8228 12.3949 13.5515 11.4767 13.009L3 8.00002Z" fill="white"/>
<path opacity="0.32" d="M3 8.00002L11.4767 2.99106C12.3949 2.44851 12.8539 2.17723 13.3432 2.07117C13.776 1.97734 14.224 1.97734 14.6568 2.07117C15.1461 2.17723 15.6051 2.44851 16.5233 2.99106L25 8.00002L16.5233 13.009C15.6051 13.5515 15.1461 13.8228 14.6568 13.9289C14.224 14.0227 13.776 14.0227 13.3432 13.9289C12.8539 13.8228 12.3949 13.5515 11.4767 13.009L3 8.00002Z" fill="white"/>
</svg>
