<svg width="28" height="28" viewBox="0 0 28 28" fill="none" xmlns="http://www.w3.org/2000/svg">
<path fill-rule="evenodd" clip-rule="evenodd" d="M3.00003 8.00002H3V19.8C3 20.9201 3 21.4802 3.21799 21.908C3.40973 22.2843 3.71569 22.5903 4.09202 22.782C4.51984 23 5.0799 23 6.2 23H21.8C22.9201 23 23.4802 23 23.908 22.782C24.2843 22.5903 24.5903 22.2843 24.782 21.908C25 21.4802 25 20.9201 25 19.8V8L15.6279 13.538C15.0356 13.8881 14.7394 14.0631 14.4237 14.1315C14.1445 14.1921 13.8555 14.1921 13.5763 14.1315C13.2606 14.0631 12.9644 13.8881 12.3721 13.538L3.00003 8.00002Z" fill="white"/>
<path opacity="0.32" d="M3 7.99998L12.3721 2.46194C12.9644 2.11191 13.2606 1.93689 13.5763 1.86846C13.8555 1.80792 14.1445 1.80792 14.4237 1.86846C14.7394 1.93689 15.0356 2.11191 15.6279 2.46194L25 7.99998L15.6279 13.538C15.0356 13.8881 14.7394 14.0631 14.4237 14.1315C14.1445 14.192 13.8555 14.192 13.5763 14.1315C13.2606 14.0631 12.9644 13.8881 12.3721 13.538L3 7.99998Z" fill="white"/>
</svg>
