<svg width="28" height="28" viewBox="0 0 28 28" fill="none" xmlns="http://www.w3.org/2000/svg">
    <path fill-rule="evenodd" clip-rule="evenodd" d="M11.9427 3.91844C11.3409 4.35572 10.8127 5.27048 9.75647 7.1L4.82012 15.65C3.76385 17.4795 3.23571 18.3943 3.15795 19.1341C2.99946 20.6421 3.83 22.0807 5.2152 22.6974C5.89483 23 6.9511 23 9.06364 23H18.9363C21.0489 23 22.1052 23 22.7848 22.6974C24.17 22.0807 25.0005 20.6421 24.842 19.1342C24.7643 18.3943 24.2361 17.4795 23.1799 15.65L18.2435 7.1C17.1872 5.27048 16.6591 4.35572 16.0572 3.91844C14.8305 3.02719 13.1695 3.02719 11.9427 3.91844ZM12.3664 9.24612C12.3034 8.30115 13.0529 7.5 13.9999 7.5C14.947 7.5 15.6965 8.30115 15.6335 9.24612L15.3331 13.7528C15.2863 14.4546 14.7034 15 13.9999 15C13.2965 15 12.7136 14.4546 12.6668 13.7528L12.3664 9.24612ZM15.7499 18.75C15.7499 19.7165 14.9664 20.5 13.9999 20.5C13.0335 20.5 12.2499 19.7165 12.2499 18.75C12.2499 17.7835 13.0335 17 13.9999 17C14.9664 17 15.7499 17.7835 15.7499 18.75Z" fill="white"/>
    <g opacity="0.32">
        <path d="M14 7.5C13.0529 7.5 12.3034 8.30115 12.3664 9.24612L12.6669 13.7528C12.7136 14.4546 13.2966 15 14 15C14.7034 15 15.2864 14.4546 15.3331 13.7528L15.6336 9.24612C15.6966 8.30115 14.9471 7.5 14 7.5Z" fill="white"/>
        <path d="M14 20.5C14.9665 20.5 15.75 19.7165 15.75 18.75C15.75 17.7835 14.9665 17 14 17C13.0335 17 12.25 17.7835 12.25 18.75C12.25 19.7165 13.0335 20.5 14 20.5Z" fill="white"/>
    </g>
</svg>
