<svg width="29" height="28" viewBox="0 0 29 28" fill="none" xmlns="http://www.w3.org/2000/svg">
<path fill-rule="evenodd" clip-rule="evenodd" d="M14.75 25.25C20.9632 25.25 26 20.2132 26 14C26 7.7868 20.9632 2.75 14.75 2.75C8.5368 2.75 3.5 7.7868 3.5 14C3.5 20.2132 8.5368 25.25 14.75 25.25ZM15.3863 8.98406C18.2629 7.96329 19.7013 7.45291 20.4768 8.16155C20.5157 8.19702 20.5528 8.23421 20.5883 8.27302C21.297 9.04858 20.7866 10.4869 19.7659 13.3636L19.222 14.8965C18.7714 16.1665 18.5461 16.8015 18.0948 17.2691C18.0701 17.2947 18.0449 17.3199 18.0194 17.3445C17.5517 17.7958 16.9168 18.0211 15.6468 18.4718L14.1138 19.0157L14.1137 19.0157C11.2371 20.0365 9.79871 20.5469 9.02314 19.8382C8.98433 19.8027 8.94714 19.7655 8.91167 19.7267C8.20302 18.9511 8.71343 17.5128 9.73425 14.6361L10.2783 13.1031C10.7289 11.8332 10.9542 11.1982 11.4055 10.7306C11.4302 10.7051 11.4553 10.6799 11.4809 10.6552C11.9485 10.204 12.5834 9.97867 13.8533 9.52805L13.8533 9.52805L15.3863 8.98406ZM16.5 14C16.5 14.9665 15.7165 15.75 14.75 15.75C13.7835 15.75 13 14.9665 13 14C13 13.0335 13.7835 12.25 14.75 12.25C15.7165 12.25 16.5 13.0335 16.5 14Z" fill="#45AEF5"/>
<path opacity="0.32" fill-rule="evenodd" clip-rule="evenodd" d="M20.4767 8.16155C19.7011 7.45291 18.2628 7.96329 15.3862 8.98406L13.8532 9.52805C12.5833 9.97867 11.9484 10.204 11.4808 10.6552C11.4552 10.6799 11.43 10.7051 11.4053 10.7306C10.9541 11.1982 10.7288 11.8332 10.2781 13.1031L9.73413 14.6361C8.71331 17.5128 8.2029 18.9511 8.91155 19.7267C8.94701 19.7655 8.98421 19.8027 9.02302 19.8382C9.79859 20.5469 11.2369 20.0365 14.1136 19.0157L15.6467 18.4718C16.9166 18.0211 17.5516 17.7958 18.0192 17.3445C18.0448 17.3199 18.07 17.2947 18.0947 17.2691C18.5459 16.8015 18.7712 16.1665 19.2219 14.8965L19.7658 13.3636C20.7865 10.4869 21.2969 9.04858 20.5882 8.27302C20.5527 8.23421 20.5155 8.19702 20.4767 8.16155ZM14.7499 15.75C15.7164 15.75 16.4999 14.9665 16.4999 14C16.4999 13.0335 15.7164 12.25 14.7499 12.25C13.7834 12.25 12.9999 13.0335 12.9999 14C12.9999 14.9665 13.7834 15.75 14.7499 15.75Z" fill="#45AEF5"/>
</svg>
