<svg width="28" height="28" viewBox="0 0 28 28" fill="none" xmlns="http://www.w3.org/2000/svg">
<path d="M16.9429 20.9214C16.4787 21.2508 15.9883 21.4155 15.4717 21.4155C14.8802 21.4155 14.431 21.262 14.124 20.9551C13.8245 20.6481 13.6149 20.2588 13.4951 19.7871C13.3828 19.3079 13.3192 18.81 13.3042 18.2934C13.2967 17.7768 13.293 17.3089 13.293 16.8896C13.293 16.3506 13.1021 15.9088 12.7202 15.5644C12.3459 15.2125 11.8667 15.0366 11.2827 15.0366C10.3319 15.0366 9.5944 14.7783 9.07031 14.2617C8.54622 13.7451 8.28418 13.0264 8.28418 12.1055C8.28418 11.3942 8.49381 10.7428 8.91309 10.1514C9.33236 9.55988 9.89014 9.08446 10.5864 8.72508C11.2902 8.36571 12.0614 8.18602 12.8999 8.18602C13.2743 8.18602 13.6486 8.23843 14.0229 8.34325C14.4048 8.44058 14.7492 8.53791 15.0562 8.63524C15.3706 8.73257 15.6139 8.78123 15.7861 8.78123C15.9359 8.78123 16.0519 8.70262 16.1343 8.54539C16.2166 8.38068 16.2578 8.18228 16.2578 7.95018C16.2578 7.78547 16.1792 7.60204 16.022 7.39989C15.8722 7.19025 15.6813 7.01431 15.4492 6.87206C15.2171 6.72232 14.9813 6.64745 14.7417 6.64745C14.6743 6.64745 14.6219 6.66616 14.5845 6.7036C14.5545 6.73355 14.5321 6.78595 14.5171 6.86082C14.5096 7.02554 14.4572 7.16405 14.3599 7.27635C14.27 7.38117 14.1315 7.43358 13.9443 7.43358C13.6673 7.43358 13.4277 7.37368 13.2256 7.25389C13.0234 7.12661 12.8363 6.99933 12.6641 6.87206C12.4993 6.74478 12.3346 6.68114 12.1699 6.68114C12.0052 6.68114 11.8704 6.75226 11.7656 6.89452C11.6608 7.03677 11.5485 7.20148 11.4287 7.38866C11.3164 7.57583 11.1667 7.74054 10.9795 7.8828C10.7998 8.02505 10.5452 8.09618 10.2158 8.09618C9.90885 8.09618 9.66553 8.01008 9.48584 7.83788C9.30615 7.66567 9.21631 7.44107 9.21631 7.16405C9.21631 6.93944 9.2762 6.74103 9.396 6.56883C9.51579 6.39663 9.6543 6.22069 9.81152 6.041C9.97624 5.85383 10.1185 5.6367 10.2383 5.38963C10.3581 5.14256 10.418 4.8356 10.418 4.46873C10.418 4.09439 10.5677 3.72378 10.8672 3.35692C10.914 3.29845 10.9738 3.22515 11.0414 3.14307C6.26348 4.44202 2.75 8.81069 2.75 14C2.75 20.2132 7.7868 25.25 14 25.25C19.8771 25.25 24.7016 20.7434 25.2064 14.9973C24.8498 14.9552 24.2583 14.4242 24.0068 14.0146C23.7523 13.5879 23.5501 13.1387 23.4004 12.667C23.2507 12.1953 23.1196 11.7947 23.0073 11.4653C22.9025 11.1284 22.779 10.9599 22.6367 10.9599C22.5544 10.9599 22.487 10.9936 22.4346 11.061C22.3822 11.1284 22.3185 11.1958 22.2437 11.2632C22.1688 11.3231 22.0565 11.353 21.9067 11.353C21.7345 11.353 21.5361 11.2744 21.3115 11.1172C21.0944 10.9599 20.8698 10.7803 20.6377 10.5781C20.4131 10.3685 20.1997 10.185 19.9976 10.0278C19.8029 9.87059 19.6419 9.79198 19.5146 9.79198C19.3724 9.79198 19.2414 9.85936 19.1216 9.99413C19.0093 10.1289 18.9531 10.2861 18.9531 10.4658C18.9531 10.6081 19.0692 10.7615 19.3013 10.9263C19.5334 11.091 19.7992 11.2744 20.0986 11.4765C20.4056 11.6712 20.6751 11.8808 20.9072 12.1055C21.1393 12.3226 21.2554 12.5547 21.2554 12.8017C21.2554 13.1237 21.1543 13.4306 20.9521 13.7226C20.7575 14.0146 20.5591 14.2729 20.3569 14.4975C20.1623 14.7222 20.0649 14.9018 20.0649 15.0366C20.0649 15.3211 20.0837 15.6805 20.1211 16.1147C20.166 16.5415 20.0462 16.987 19.7617 17.4512C19.6494 17.6383 19.4585 17.9453 19.189 18.3721C18.9269 18.7988 18.605 19.248 18.2231 19.7197C17.8413 20.1839 17.4146 20.5845 16.9429 20.9214Z" fill="white"/>
<path d="M17.8076 6.23192C17.9349 6.15705 18.0996 6.11961 18.3018 6.11961C18.4215 6.11961 18.5413 6.16079 18.6611 6.24315C18.7884 6.31802 18.9531 6.35545 19.1553 6.35545C19.2826 6.35545 19.3874 6.30679 19.4697 6.20946C19.5521 6.10464 19.5933 5.97736 19.5933 5.82762C19.5933 5.56558 19.4622 5.34471 19.2002 5.16502C18.9382 4.98534 18.6087 4.89549 18.2119 4.89549C17.7477 4.89549 17.3883 4.97036 17.1338 5.1201C16.8792 5.26235 16.752 5.46825 16.752 5.73778C16.752 5.91747 16.8081 6.06346 16.9204 6.17577C17.0402 6.28058 17.1862 6.33299 17.3584 6.33299C17.5381 6.33299 17.6878 6.2993 17.8076 6.23192Z" fill="white"/>
<path opacity="0.32" d="M17.2332 21.3292L17.2345 21.3283C17.7431 20.965 18.2017 20.5341 18.6103 20.0374L18.6127 20.0343C19.0047 19.5502 19.3392 19.0842 19.6144 18.6364C19.8822 18.2123 20.0749 17.9026 20.1903 17.7103C20.5148 17.1801 20.6775 16.6277 20.6199 16.0675C20.5846 15.6576 20.5671 15.3243 20.566 15.0643C20.5686 15.0584 20.5726 15.05 20.5786 15.0389C20.6038 14.9924 20.6514 14.9227 20.7329 14.8283C20.9515 14.585 21.1626 14.3095 21.3668 14.0035C21.619 13.6379 21.7563 13.2344 21.7563 12.8018C21.7563 12.3809 21.5538 12.0259 21.253 11.7434C21.1471 11.6411 21.035 11.5422 20.9168 11.4468C20.951 11.4724 20.9852 11.4975 21.0192 11.5222L21.0192 11.5222L21.0258 11.5268C21.2886 11.7108 21.5884 11.853 21.9077 11.853C22.1075 11.853 22.3476 11.8159 22.5469 11.6615C22.6551 11.98 22.781 12.3654 22.9248 12.8183C23.0862 13.3268 23.3042 13.8112 23.5784 14.2708L23.5784 14.2708L23.5817 14.2763C23.7415 14.5365 23.9911 14.8107 24.2454 15.0257C24.3747 15.1349 24.5153 15.2376 24.6582 15.3186C24.7945 15.3958 24.9653 15.4722 25.1488 15.4939L25.6604 15.5543L25.7055 15.0411C25.7356 14.698 25.751 14.3507 25.751 14C25.751 7.51065 20.4903 2.25 14.001 2.25C12.9323 2.25 11.8963 2.39279 10.9112 2.66061L10.7576 2.70236L10.6564 2.8252C10.5889 2.90722 10.5279 2.98191 10.4792 3.04273C10.1276 3.47416 9.91895 3.95221 9.91895 4.46876C9.91895 4.78427 9.86703 5.01131 9.78935 5.17152C9.68727 5.38207 9.56922 5.56063 9.43714 5.71071L9.43621 5.71178C9.26843 5.90353 9.11821 6.09403 8.98652 6.28333C8.80423 6.54537 8.71729 6.84499 8.71729 7.16408C8.71729 7.5604 8.85114 7.92125 9.14086 8.1989C9.34788 8.39729 9.59719 8.51351 9.86802 8.56475C9.32614 8.91627 8.87035 9.34844 8.50615 9.86223C8.02821 10.5365 7.78516 11.2885 7.78516 12.1055C7.78516 13.1246 8.07819 13.9849 8.72029 14.6178C9.363 15.2513 10.2415 15.5366 11.2837 15.5366C11.7592 15.5366 12.1099 15.6761 12.3787 15.9288L12.3787 15.9289L12.3863 15.9357C12.6574 16.1803 12.7939 16.4844 12.7939 16.8897C12.7939 17.3118 12.7977 17.7822 12.8052 18.3007L12.8052 18.3007L12.8054 18.308C12.8213 18.8564 12.8889 19.3878 13.0093 19.9012L13.0092 19.9012L13.0115 19.9102C13.1499 20.4554 13.3983 20.9263 13.7671 21.3043L13.7671 21.3043L13.7714 21.3086C14.2021 21.7393 14.7979 21.9155 15.4727 21.9155C16.1035 21.9155 16.6935 21.7122 17.2332 21.3292ZM20.3103 10.9552C20.4457 11.0731 20.5794 11.1844 20.7114 11.2888C20.6032 11.2095 20.4906 11.1326 20.3735 11.0582C20.0789 10.8593 19.8183 10.6794 19.5916 10.5185C19.5242 10.4707 19.4831 10.4336 19.4594 10.4087C19.4665 10.3748 19.4805 10.3472 19.5018 10.3202C19.5082 10.3134 19.5138 10.3078 19.5186 10.3034C19.5552 10.322 19.61 10.3568 19.6844 10.4168L19.6843 10.4169L19.6916 10.4225C19.8798 10.569 20.0818 10.7423 20.2975 10.9437L20.3038 10.9495L20.3103 10.9552ZM12.9009 7.68605C12.5088 7.68605 12.1284 7.72226 11.7603 7.79508C11.7935 7.74894 11.8249 7.70145 11.8544 7.65259C11.9683 7.4748 12.0732 7.32131 12.1691 7.19114C12.1722 7.18703 12.1748 7.1838 12.1769 7.1813C12.2069 7.18266 12.2655 7.19522 12.3593 7.26773L12.3592 7.26782L12.3678 7.27417C12.5511 7.40963 12.7487 7.54388 12.9602 7.67704L12.9601 7.67719L12.9717 7.68407C12.9731 7.68494 12.9746 7.68581 12.9761 7.68668C12.951 7.68626 12.926 7.68605 12.9009 7.68605ZM15.2066 8.15812C14.9242 8.06863 14.6135 7.97982 14.2748 7.89159C14.4451 7.84503 14.6082 7.75558 14.7396 7.60281C14.8478 7.47766 14.9225 7.33683 14.9673 7.18661C15.034 7.2097 15.1044 7.24403 15.1791 7.29223L15.1791 7.29234L15.1889 7.29838C15.3672 7.40764 15.5075 7.53848 15.6161 7.69053L15.622 7.69883L15.6283 7.70689C15.7529 7.86709 15.7588 7.94337 15.7588 7.95021C15.7588 8.09376 15.7378 8.19906 15.7081 8.27621C15.6021 8.26432 15.439 8.22999 15.2066 8.15812ZM17.3787 5.5566L17.3787 5.55671L17.3883 5.5511C17.534 5.46537 17.7915 5.39552 18.2129 5.39552C18.534 5.39552 18.7583 5.46759 18.9184 5.57742C19.0774 5.68644 19.0942 5.76672 19.0942 5.82765C19.0942 5.83758 19.0938 5.84616 19.0931 5.85358C19.002 5.84782 18.9505 5.83016 18.9242 5.81686C18.7438 5.69764 18.5344 5.61964 18.3027 5.61964C18.0453 5.61964 17.7872 5.66637 17.5613 5.79737C17.5347 5.81168 17.4755 5.83302 17.3594 5.83302C17.3115 5.83302 17.2851 5.82388 17.2659 5.81127C17.2596 5.80061 17.2529 5.78029 17.2529 5.7378C17.2529 5.6669 17.2664 5.61936 17.3787 5.5566Z" fill="white" stroke="white"/>
</svg>
