<svg width="28" height="28" viewBox="0 0 28 28" fill="none" xmlns="http://www.w3.org/2000/svg">
    <path fill-rule="evenodd" clip-rule="evenodd" d="M14 25.25C20.2132 25.25 25.25 20.2132 25.25 14C25.25 7.7868 20.2132 2.75 14 2.75C7.7868 2.75 2.75 7.7868 2.75 14C2.75 20.2132 7.7868 25.25 14 25.25ZM13.8816 8.37163C13.4014 8.43917 13.1088 9.1427 12.5235 10.5498C12.3528 10.9603 12.2674 11.1656 12.1063 11.2995C12.0779 11.3231 12.048 11.3448 12.0168 11.3645C11.8397 11.4763 11.6181 11.4941 11.1749 11.5296C9.65583 11.6514 8.89631 11.7123 8.68368 12.1481C8.64891 12.2194 8.62428 12.2952 8.61051 12.3733C8.52636 12.8509 9.10503 13.3466 10.2624 14.338C10.6001 14.6273 10.7689 14.7719 10.8465 14.9665C10.8601 15.0007 10.8716 15.0359 10.8807 15.0717C10.9323 15.2747 10.8807 15.4909 10.7775 15.9234C10.4239 17.4058 10.2471 18.1469 10.5959 18.4838C10.653 18.5389 10.7175 18.5858 10.7875 18.623C11.2157 18.8506 11.8659 18.4534 13.1665 17.6591C13.5459 17.4273 13.7357 17.3114 13.9447 17.2978C13.9815 17.2954 14.0185 17.2954 14.0553 17.2978C14.2643 17.3114 14.454 17.4273 14.8335 17.6591C16.134 18.4534 16.7843 18.8506 17.2125 18.623C17.2825 18.5858 17.347 18.5389 17.404 18.4838C17.7528 18.1469 17.576 17.4058 17.2224 15.9234C17.1193 15.4909 17.0677 15.2746 17.1193 15.0717C17.1284 15.0359 17.1398 15.0007 17.1535 14.9665C17.231 14.7719 17.3999 14.6273 17.7376 14.338C18.8949 13.3466 19.4736 12.8509 19.3894 12.3733C19.3757 12.2952 19.351 12.2194 19.3163 12.1481C19.1036 11.7123 18.3441 11.6514 16.8251 11.5296C16.3818 11.4941 16.1602 11.4763 15.9831 11.3645C15.9519 11.3448 15.922 11.3231 15.8936 11.2995C15.7326 11.1656 15.6472 10.9603 15.4764 10.5498C14.8912 9.1427 14.5986 8.43917 14.1184 8.37163C14.0398 8.36058 13.9601 8.36058 13.8816 8.37163Z" fill="white"/>
    <path opacity="0.32" d="M12.521 10.5464C13.1063 9.13935 13.3989 8.43581 13.8791 8.36827C13.9576 8.35722 14.0373 8.35722 14.1159 8.36827C14.5961 8.43581 14.8887 9.13935 15.4739 10.5464C15.6447 10.957 15.7301 11.1622 15.8911 11.2961C15.9195 11.3197 15.9494 11.3414 15.9806 11.3611C16.1577 11.473 16.3793 11.4907 16.8226 11.5263C18.3416 11.648 19.1011 11.7089 19.3138 12.1448C19.3485 12.2161 19.3732 12.2918 19.3869 12.37C19.4711 12.8475 18.8924 13.3432 17.7351 14.3346C17.3974 14.6239 17.2285 14.7685 17.151 14.9631C17.1373 14.9974 17.1259 15.0325 17.1168 15.0683C17.0652 15.2713 17.1168 15.4876 17.2199 15.9201C17.5735 17.4024 17.7503 18.1436 17.4015 18.4805C17.3445 18.5356 17.28 18.5824 17.21 18.6196C16.7818 18.8473 16.1315 18.4501 14.831 17.6557C14.4515 17.424 14.2618 17.3081 14.0528 17.2944C14.0159 17.292 13.979 17.292 13.9422 17.2944C13.7332 17.3081 13.5434 17.424 13.164 17.6557C11.8634 18.4501 11.2132 18.8473 10.785 18.6196C10.715 18.5824 10.6505 18.5356 10.5934 18.4805C10.2446 18.1436 10.4214 17.4024 10.775 15.9201C10.8782 15.4876 10.9298 15.2713 10.8782 15.0683C10.8691 15.0325 10.8576 14.9974 10.844 14.9631C10.7664 14.7685 10.5976 14.6239 10.2599 14.3346C9.10253 13.3432 8.52385 12.8475 8.60801 12.37C8.62177 12.2918 8.6464 12.2161 8.68118 12.1448C8.89381 11.7089 9.65333 11.648 11.1724 11.5263C11.6156 11.4907 11.8372 11.473 12.0143 11.3611C12.0455 11.3414 12.0754 11.3197 12.1038 11.2961C12.2649 11.1622 12.3503 10.957 12.521 10.5464Z" fill="white"/>
</svg>
