<svg width="28" height="28" viewBox="0 0 28 28" fill="none" xmlns="http://www.w3.org/2000/svg">
<g opacity="0.32">
<path fill-rule="evenodd" clip-rule="evenodd" d="M18 8V10H21V8C21 4.13401 17.866 1 14 1C10.134 1 7 4.13401 7 8V10H10V8C10 5.79086 11.7909 4 14 4C16.2091 4 18 5.79086 18 8Z" fill="white"/>
<path d="M14 14C13.1716 14 12.5 14.6716 12.5 15.5V17.5C12.5 18.3284 13.1716 19 14 19C14.8284 19 15.5 18.3284 15.5 17.5V15.5C15.5 14.6716 14.8284 14 14 14Z" fill="white"/>
</g>
<path fill-rule="evenodd" clip-rule="evenodd" d="M3 16.4C3 14.1598 3 13.0397 3.43597 12.184C3.81947 11.4314 4.43139 10.8195 5.18404 10.436C6.03969 10 7.15979 10 9.4 10H18.6C20.8402 10 21.9603 10 22.816 10.436C23.5686 10.8195 24.1805 11.4314 24.564 12.184C25 13.0397 25 14.1598 25 16.4V18.6C25 20.8402 25 21.9603 24.564 22.816C24.1805 23.5686 23.5686 24.1805 22.816 24.564C21.9603 25 20.8402 25 18.6 25H9.4C7.15979 25 6.03969 25 5.18404 24.564C4.43139 24.1805 3.81947 23.5686 3.43597 22.816C3 21.9603 3 20.8402 3 18.6V16.4ZM14 14C13.1716 14 12.5 14.6716 12.5 15.5V17.5C12.5 18.3284 13.1716 19 14 19C14.8284 19 15.5 18.3284 15.5 17.5V15.5C15.5 14.6716 14.8284 14 14 14Z" fill="white"/>
</svg>
