<svg width="28" height="28" viewBox="0 0 28 28" fill="none" xmlns="http://www.w3.org/2000/svg">
    <path fill-rule="evenodd" clip-rule="evenodd" d="M14 25.25C20.2132 25.25 25.25 20.2132 25.25 14C25.25 7.7868 20.2132 2.75 14 2.75C7.7868 2.75 2.75 7.7868 2.75 14C2.75 20.2132 7.7868 25.25 14 25.25ZM14 5C14.8284 5 15.5 5.67157 15.5 6.5V6.70673C16.9252 7.10871 18.1302 8.07635 18.6876 9.42817C19.0034 10.194 18.6386 11.0709 17.8727 11.3867C17.1068 11.7025 16.23 11.3377 15.9141 10.5718C15.6985 10.0489 15.0086 9.5 14 9.5C12.6197 9.5 12 10.2796 12 11C12 11.5633 12.4866 12.3412 14.1493 12.5074C16.4866 12.7412 19 14.1633 19 17C19 19.3103 17.3877 20.7699 15.5 21.2883V21.5C15.5 22.3284 14.8284 23 14 23C13.1716 23 12.5 22.3284 12.5 21.5V21.2933C11.0748 20.8913 9.86988 19.9236 9.31246 18.5718C8.99665 17.806 9.36149 16.9291 10.1274 16.6133C10.8932 16.2975 11.7701 16.6623 12.0859 17.4282C12.3006 17.9489 12.9858 18.4955 13.9876 18.5C15.4022 18.4713 16 17.6989 16 17C16 16.4367 15.5134 15.6588 13.8507 15.4926C11.5134 15.2588 9 13.8367 9 11C9 8.70655 10.5949 7.21184 12.5 6.69837V6.5C12.5 5.67157 13.1716 5 14 5Z" fill="white"/>
    <path opacity="0.32" d="M15.5 6.5C15.5 5.67157 14.8284 5 14 5C13.1716 5 12.5 5.67157 12.5 6.5V6.69837C10.5949 7.21184 9 8.70655 9 11C9 13.8367 11.5134 15.2588 13.8507 15.4926C15.5134 15.6588 16 16.4367 16 17C16 17.6989 15.4022 18.4713 13.9876 18.5C12.9858 18.4955 12.3006 17.9489 12.0859 17.4282C11.7701 16.6623 10.8932 16.2975 10.1274 16.6133C9.36149 16.9291 8.99665 17.806 9.31246 18.5718C9.86988 19.9236 11.0748 20.8913 12.5 21.2933V21.5C12.5 22.3284 13.1716 23 14 23C14.8284 23 15.5 22.3284 15.5 21.5V21.2883C17.3877 20.7699 19 19.3103 19 17C19 14.1633 16.4866 12.7412 14.1493 12.5074C12.4866 12.3412 12 11.5633 12 11C12 10.2796 12.6197 9.5 14 9.5C15.0086 9.5 15.6985 10.0489 15.9141 10.5718C16.23 11.3377 17.1068 11.7025 17.8727 11.3867C18.6386 11.0709 19.0034 10.194 18.6876 9.42817C18.1302 8.07635 16.9252 7.10871 15.5 6.70673V6.5Z" fill="white"/>
</svg>
