<svg width="28" height="28" viewBox="0 0 28 28" fill="none" xmlns="http://www.w3.org/2000/svg">
    <path d="M23.9985 9.46572C23.4105 9.80554 22.728 10 22 10C19.7909 10 18 8.20914 18 6C18 5.27203 18.1945 4.58948 18.5343 4.00147C18.2461 4 17.9356 4 17.6 4H10.4C8.15979 4 7.03968 4 6.18404 4.43597C5.43139 4.81947 4.81947 5.43139 4.43597 6.18404C4 7.03969 4 8.15979 4 10.4V17.6C4 19.8402 4 20.9603 4.43597 21.816C4.81947 22.5686 5.43139 23.1805 6.18404 23.564C7.03968 24 8.15979 24 10.4 24H17.6C19.8402 24 20.9603 24 21.816 23.564C22.5686 23.1805 23.1805 22.5686 23.564 21.816C24 20.9603 24 19.8402 24 17.6V10.4C24 10.0644 24 9.75393 23.9985 9.46572Z" fill="white"/>
    <path opacity="0.32" d="M26 6C26 8.20914 24.2091 10 22 10C19.7909 10 18 8.20914 18 6C18 3.79086 19.7909 2 22 2C24.2091 2 26 3.79086 26 6Z" fill="white"/>
</svg>
