<svg width="28" height="28" viewBox="0 0 28 28" fill="none" xmlns="http://www.w3.org/2000/svg">
    <g opacity="0.32">
        <path d="M15.8052 5.02883C15.5 5.62778 15.5 6.41852 15.5 8C15.5 9.58148 15.5 10.3722 15.8052 10.9712C16.0736 11.498 16.502 11.9264 17.0288 12.1948C17.6278 12.5 18.4185 12.5 20 12.5C21.5815 12.5 22.3722 12.5 22.9712 12.1948C23.498 11.9264 23.9264 11.498 24.1948 10.9712C24.5 10.3722 24.5 9.58148 24.5 8C24.5 6.41852 24.5 5.62778 24.1948 5.02883C23.9264 4.50197 23.498 4.07363 22.9712 3.80518C22.3722 3.5 21.5815 3.5 20 3.5C18.4185 3.5 17.6278 3.5 17.0288 3.80518C16.502 4.07363 16.0736 4.50197 15.8052 5.02883Z" fill="white"/>
        <path d="M3.80518 17.0288C3.5 17.6278 3.5 18.4185 3.5 20C3.5 21.5815 3.5 22.3722 3.80518 22.9712C4.07363 23.498 4.50197 23.9264 5.02883 24.1948C5.62778 24.5 6.41852 24.5 8 24.5C9.58148 24.5 10.3722 24.5 10.9712 24.1948C11.498 23.9264 11.9264 23.498 12.1948 22.9712C12.5 22.3722 12.5 21.5815 12.5 20C12.5 18.4185 12.5 17.6278 12.1948 17.0288C11.9264 16.502 11.498 16.0736 10.9712 15.8052C10.3722 15.5 9.58148 15.5 8 15.5C6.41852 15.5 5.62778 15.5 5.02883 15.8052C4.50197 16.0736 4.07363 16.502 3.80518 17.0288Z" fill="white"/>
    </g>
    <path d="M3.80518 5.02883C3.5 5.62778 3.5 6.41852 3.5 8C3.5 9.58148 3.5 10.3722 3.80518 10.9712C4.07363 11.498 4.50197 11.9264 5.02883 12.1948C5.62778 12.5 6.41852 12.5 8 12.5C9.58148 12.5 10.3722 12.5 10.9712 12.1948C11.498 11.9264 11.9264 11.498 12.1948 10.9712C12.5 10.3722 12.5 9.58148 12.5 8C12.5 6.41852 12.5 5.62778 12.1948 5.02883C11.9264 4.50197 11.498 4.07363 10.9712 3.80518C10.3722 3.5 9.58148 3.5 8 3.5C6.41852 3.5 5.62778 3.5 5.02883 3.80518C4.50197 4.07363 4.07363 4.50197 3.80518 5.02883Z" fill="white"/>
    <path d="M15.8052 17.0288C15.5 17.6278 15.5 18.4185 15.5 20C15.5 21.5815 15.5 22.3722 15.8052 22.9712C16.0736 23.498 16.502 23.9264 17.0288 24.1948C17.6278 24.5 18.4185 24.5 20 24.5C21.5815 24.5 22.3722 24.5 22.9712 24.1948C23.498 23.9264 23.9264 23.498 24.1948 22.9712C24.5 22.3722 24.5 21.5815 24.5 20C24.5 18.4185 24.5 17.6278 24.1948 17.0288C23.9264 16.502 23.498 16.0736 22.9712 15.8052C22.3722 15.5 21.5815 15.5 20 15.5C18.4185 15.5 17.6278 15.5 17.0288 15.8052C16.502 16.0736 16.0736 16.502 15.8052 17.0288Z" fill="white"/>
</svg>
