<svg width="28" height="28" viewBox="0 0 28 28" fill="none" xmlns="http://www.w3.org/2000/svg">
    <path fill-rule="evenodd" clip-rule="evenodd" d="M14 28C21.732 28 28 21.732 28 14C28 6.26801 21.732 0 14 0C6.26801 0 0 6.26801 0 14C0 21.732 6.26801 28 14 28ZM20.0607 12.0607C20.6464 11.4749 20.6464 10.5251 20.0607 9.93934C19.4749 9.35355 18.5251 9.35355 17.9393 9.93934L12 15.8787L9.81066 13.6893C9.22487 13.1036 8.27513 13.1036 7.68934 13.6893C7.10355 14.2751 7.10355 15.2249 7.68934 15.8107L10.9393 19.0607C11.5251 19.6464 12.4749 19.6464 13.0607 19.0607L20.0607 12.0607Z" fill="white"/>
</svg>
