<svg width="28" height="28" viewBox="0 0 28 28" fill="none" xmlns="http://www.w3.org/2000/svg">
<path opacity="0.32" fill-rule="evenodd" clip-rule="evenodd" d="M18.0607 10.9393C18.6464 11.5251 18.6464 12.4749 18.0607 13.0607L13.5607 17.5607C12.9749 18.1464 12.0251 18.1464 11.4393 17.5607L9.43934 15.5607C8.85355 14.9749 8.85355 14.0251 9.43934 13.4393C10.0251 12.8536 10.9749 12.8536 11.5607 13.4393L12.5 14.3787L15.9393 10.9393C16.5251 10.3536 17.4749 10.3536 18.0607 10.9393Z" fill="white"/>
<path fill-rule="evenodd" clip-rule="evenodd" d="M14 3L4.5 7V15C4.5 20.5315 9.17455 23.5132 13.0388 24.7287C13.6651 24.9257 14.3349 24.9257 14.9612 24.7287C18.8255 23.5132 23.5 20.5315 23.5 15V7L14 3ZM18.0607 13.0607C18.6464 12.4749 18.6464 11.5251 18.0607 10.9393C17.4749 10.3536 16.5251 10.3536 15.9393 10.9393L12.5 14.3787L11.5607 13.4393C10.9749 12.8536 10.0251 12.8536 9.43934 13.4393C8.85355 14.0251 8.85355 14.9749 9.43934 15.5607L11.4393 17.5607C12.0251 18.1464 12.9749 18.1464 13.5607 17.5607L18.0607 13.0607Z" fill="white"/>
</svg>
