<svg width="28" height="28" viewBox="0 0 28 28" fill="none" xmlns="http://www.w3.org/2000/svg">
<path d="M15.4049 3.75742C14.919 2.4579 13.0809 2.4579 12.5949 3.75742L10.8915 8.31311C10.6806 8.87688 10.1533 9.26004 9.55195 9.28632L4.69282 9.49864C3.30675 9.55921 2.73873 11.3074 3.82449 12.1711L7.6308 15.199C8.10184 15.5737 8.30328 16.1937 8.14245 16.7737L6.84283 21.4606C6.47211 22.7975 7.95919 23.878 9.11615 23.1123L13.1721 20.4279L20.3691 15.199L24.1754 12.1711C25.2611 11.3074 24.6931 9.55921 23.307 9.49864L18.4479 9.28632C17.8466 9.26004 17.3192 8.87688 17.1084 8.31311L15.4049 3.75742Z" fill="white"/>
<path opacity="0.32" d="M21.1107 14.609L20.8353 14.8282C20.3858 15.1857 20.1611 15.3645 20.0226 15.5914C19.9002 15.7919 19.8266 16.0184 19.8078 16.2525C19.7865 16.5175 19.8632 16.7942 20.0166 17.3477L20.514 19.1412C21.0445 21.0545 21.3097 22.0111 21.0575 22.5237C20.839 22.9678 20.4155 23.2755 19.9256 23.3461C19.3602 23.4275 18.5323 22.8797 16.8767 21.7839L15.3246 20.7567C14.8457 20.4397 14.6062 20.2812 14.3476 20.2196C14.1191 20.1652 13.8809 20.1652 13.6524 20.2196C13.3938 20.2812 13.1543 20.4397 12.6754 20.7566L12.5723 20.8249L11.5 20L21 14L21.1107 14.609Z" fill="white"/>
</svg>
