<svg width="28" height="29" viewBox="0 0 28 29" fill="none" xmlns="http://www.w3.org/2000/svg">
    <path d="M11.1755 5.73218C12.2586 3.53748 12.8002 2.44013 13.6141 2.25602C13.8683 2.19851 14.1321 2.19851 14.3863 2.25602C15.2002 2.44013 15.7418 3.53748 16.8249 5.73218L17.3818 6.86051C17.7002 7.50565 17.8594 7.82821 18.1162 8.05577C18.2008 8.13074 18.2924 8.19733 18.3899 8.25461C18.6856 8.42852 19.0416 8.48024 19.7535 8.58369L20.9987 8.76463C23.4207 9.11657 24.6317 9.29253 25.0583 10.0097C25.1916 10.2337 25.2731 10.4846 25.297 10.7441C25.3734 11.5751 24.4971 12.4292 22.7445 14.1376L21.8435 15.0158C21.3283 15.518 21.0707 15.7691 20.9337 16.0836C20.8885 16.1873 20.8535 16.295 20.8291 16.4054C20.7551 16.7404 20.8159 17.0949 20.9376 17.804L21.1503 19.0442C21.564 21.4564 21.7708 22.6625 21.2206 23.2898C21.0488 23.4858 20.8353 23.6408 20.5959 23.7437C19.8292 24.0732 18.7461 23.5037 16.5798 22.3648L15.466 21.7793C14.8293 21.4445 14.5109 21.2771 14.1694 21.244C14.0569 21.2331 13.9436 21.2331 13.8311 21.244C13.4896 21.2771 13.1712 21.4445 12.5344 21.7793L11.4207 22.3648C9.25435 23.5037 8.1712 24.0732 7.40455 23.7437C7.16509 23.6408 6.95165 23.4858 6.7798 23.2898C6.22957 22.6625 6.43644 21.4564 6.85016 19.0442L7.06287 17.804C7.18448 17.0949 7.24529 16.7404 7.1713 16.4054C7.14692 16.295 7.11192 16.1873 7.06676 16.0836C6.92969 15.7691 6.67211 15.518 6.15694 15.0158L5.25591 14.1376C3.50334 12.4292 2.62705 11.5751 2.70345 10.7441C2.72732 10.4846 2.80885 10.2337 2.94209 10.0097C3.36869 9.29253 4.57968 9.11657 7.00168 8.76463L8.24687 8.58369C8.95882 8.48024 9.31479 8.42852 9.61057 8.25461C9.708 8.19733 9.79966 8.13074 9.88425 8.05577C10.141 7.82821 10.3002 7.50565 10.6186 6.86051L11.1755 5.73218Z" fill="#8994A3"/>
</svg>
