<svg width="28" height="28" viewBox="0 0 28 28" fill="none" xmlns="http://www.w3.org/2000/svg">
<path opacity="0.32" fill-rule="evenodd" clip-rule="evenodd" d="M15.9738 12.0253C16.9501 13.0016 18.533 13.0016 19.5093 12.0253C20.4856 11.049 20.4856 9.46611 19.5093 8.4898C18.533 7.51349 16.9501 7.51349 15.9738 8.4898C14.9974 9.46611 14.9974 11.049 15.9738 12.0253ZM3.95293 24.0462C3.95293 24.0462 8.19558 25.4604 11.7311 21.9248L6.07426 16.268C2.53872 19.8035 3.95293 24.0462 3.95293 24.0462Z" fill="white"/>
<path fill-rule="evenodd" clip-rule="evenodd" d="M17.3879 19.0963V20.6212C17.3879 21.6122 17.3879 22.1077 17.2457 22.553C17.1199 22.947 16.9139 23.3107 16.6408 23.6214C16.3322 23.9724 15.9073 24.2273 15.0575 24.7372L13.6291 25.5942C12.5901 26.2176 12.0706 26.5293 11.7068 26.4681C11.3911 26.4151 11.1199 26.2142 10.9773 25.9276C10.8129 25.5973 10.9598 25.0096 11.2537 23.8342L11.731 21.9247C11.731 21.9247 9.96327 21.5712 8.1955 19.8034C6.42773 18.0356 6.07418 16.2679 6.07418 16.2679L4.16474 16.7452C2.98928 17.0391 2.40156 17.186 2.07129 17.0216C1.78473 16.879 1.58378 16.6077 1.53074 16.2921C1.46962 15.9282 1.78131 15.4088 2.40469 14.3698L3.26172 12.9414C3.7716 12.0916 4.02654 11.6667 4.37754 11.3581C4.68815 11.085 5.05189 10.879 5.4459 10.7532C5.89114 10.611 6.38666 10.611 7.37768 10.611L8.90261 10.611C13.1452 3.53994 17.3879 2.12572 23.0447 4.95415C25.8732 10.611 24.459 14.8536 17.3879 19.0963ZM15.9737 12.0252C16.95 13.0015 18.5329 13.0015 19.5092 12.0252C20.4855 11.0489 20.4855 9.46599 19.5092 8.48968C18.5329 7.51337 16.95 7.51337 15.9737 8.48968C14.9974 9.46599 14.9974 11.0489 15.9737 12.0252Z" fill="white"/>
</svg>
