<svg width="28" height="28" viewBox="0 0 28 28" fill="none" xmlns="http://www.w3.org/2000/svg">
<path fill-rule="evenodd" clip-rule="evenodd" d="M2.5 6.5C2.5 5.67157 3.17157 5 4 5H24C24.8284 5 25.5 5.67157 25.5 6.5C25.5 7.32843 24.8284 8 24 8H23L22.3544 18.9758C22.2296 21.0962 22.1673 22.1564 21.7147 22.961C21.3163 23.6692 20.7117 24.2394 19.9812 24.5955C19.1515 25 18.0895 25 15.9654 25H12.0346C9.91054 25 8.84851 25 8.01876 24.5955C7.28832 24.2394 6.68366 23.6692 6.28528 22.961C5.83273 22.1564 5.77037 21.0962 5.64564 18.9758L5 8H4C3.17157 8 2.5 7.32843 2.5 6.5ZM10.1178 10.0026C9.29078 10.0512 8.6598 10.7611 8.70844 11.5881L9.17903 19.5881C9.22768 20.4151 9.93753 21.046 10.7645 20.9974C11.5915 20.9487 12.2225 20.2389 12.1739 19.4119L11.7033 11.4119C11.6546 10.5849 10.9448 9.95393 10.1178 10.0026ZM17.8822 10.0026C18.7092 10.0512 19.3402 10.7611 19.2915 11.5881L18.8209 19.5881C18.7723 20.4151 18.0624 21.046 17.2354 20.9974C16.4084 20.9487 15.7775 20.2389 15.8261 19.4119L16.2967 11.4119C16.3453 10.5849 17.0552 9.95393 17.8822 10.0026Z" fill="white"/>
<rect opacity="0.32" x="11" y="2" width="6" height="6" rx="3" fill="white"/>
<g opacity="0.32">
<path d="M8.70844 11.5881C8.6598 10.7611 9.29078 10.0513 10.1178 10.0026C10.9448 9.95399 11.6546 10.585 11.7033 11.412L12.1739 19.412C12.2225 20.239 11.5915 20.9488 10.7645 20.9975C9.93753 21.0461 9.22768 20.4151 9.17903 19.5881L8.70844 11.5881Z" fill="white"/>
<path d="M19.2915 11.5881C19.3402 10.7611 18.7092 10.0513 17.8822 10.0026C17.0552 9.95399 16.3453 10.585 16.2967 11.412L15.8261 19.412C15.7775 20.239 16.4084 20.9488 17.2354 20.9975C18.0624 21.0461 18.7723 20.4151 18.8209 19.5881L19.2915 11.5881Z" fill="white"/>
</g>
</svg>
