<svg width="28" height="28" viewBox="0 0 28 28" fill="none" xmlns="http://www.w3.org/2000/svg">
    <g clip-path="url(#clip0_4674_123729)">
        <path opacity="0.32" d="M4.02372 9.36111C4.58545 8.87963 5.41436 8.87963 5.97609 9.36112L9.47609 12.3611C10.1051 12.9002 10.1779 13.8472 9.63879 14.4762C9.09966 15.1052 8.15271 15.178 7.52372 14.6389L6.49991 13.7613V14C6.4999 18.1421 9.85777 21.5 13.9999 21.5C15.3685 21.5 16.6472 21.1348 17.7488 20.4976C18.4659 20.0827 19.3835 20.3278 19.7983 21.0449C20.2131 21.762 19.9681 22.6796 19.251 23.0944C17.7051 23.9887 15.9099 24.5 13.9999 24.5C8.20091 24.5 3.49991 19.799 3.49991 14V13.7613L2.47609 14.6389C1.8471 15.178 0.900154 15.1052 0.361021 14.4762C-0.178114 13.8472 -0.10527 12.9002 0.523718 12.3611L4.02372 9.36111Z" fill="white"/>
        <path d="M21.5 14C21.5 9.85787 18.1421 6.5 14 6.5C12.6314 6.5 11.3527 6.8652 10.2511 7.50245C9.534 7.91726 8.61641 7.67222 8.2016 6.95513C7.78678 6.23804 8.03182 5.32044 8.74892 4.90563C10.2949 4.01135 12.09 3.5 14 3.5C19.799 3.5 24.5 8.20101 24.5 14V14.2387L25.5238 13.3611C26.1528 12.822 27.0998 12.8948 27.6389 13.5238C28.178 14.1528 28.1052 15.0998 27.4762 15.6389L23.9762 18.6389C23.4145 19.1204 22.5855 19.1204 22.0238 18.6389L18.5238 15.6389C17.8948 15.0998 17.822 14.1528 18.3611 13.5238C18.9003 12.8948 19.8472 12.822 20.4762 13.3611L21.5 14.2387V14Z" fill="white"/>
    </g>
    <defs>
        <clipPath id="clip0_4674_123729">
            <rect width="28" height="28" fill="white"/>
        </clipPath>
    </defs>
</svg>
