<svg width="28" height="28" viewBox="0 0 28 28" fill="none" xmlns="http://www.w3.org/2000/svg">
<path opacity="0.32" d="M9 12.2C9 11.0799 9 10.5198 9.21799 10.092C9.40973 9.71569 9.71569 9.40973 10.092 9.21799C10.5198 9 11.0799 9 12.2 9H15.8C16.9201 9 17.4802 9 17.908 9.21799C18.2843 9.40973 18.5903 9.71569 18.782 10.092C19 10.5198 19 11.0799 19 12.2V15.8C19 16.9201 19 17.4802 18.782 17.908C18.5903 18.2843 18.2843 18.5903 17.908 18.782C17.4802 19 16.9201 19 15.8 19H12.2C11.0799 19 10.5198 19 10.092 18.782C9.71569 18.5903 9.40973 18.2843 9.21799 17.908C9 17.4802 9 16.9201 9 15.8V12.2Z" fill="white"/>
<path fill-rule="evenodd" clip-rule="evenodd" d="M7.64757 3L8.5 3.00001C9.32843 3.00001 10 3.67158 10 4.50001C10 5.32843 9.32843 6 8.5 6H6.8C6.51998 6 6.37997 6 6.27301 6.0545L6.26693 6.05765C6.17765 6.10469 6.10469 6.17765 6.05765 6.26693L6.0545 6.27301C6 6.37997 6 6.51998 6 6.80001V8.5C6 9.32843 5.32843 10 4.5 10C3.67158 10 3 9.32843 3 8.5L3 7.64757C2.99997 7.1326 2.99993 6.65963 3.03223 6.26426C3.06706 5.838 3.14679 5.37165 3.38148 4.91104C3.71704 4.25247 4.25247 3.71704 4.91104 3.38148C5.37165 3.14679 5.838 3.06706 6.26426 3.03223C6.65963 2.99993 7.1326 2.99997 7.64757 3ZM6.05946 6.26175L6.05834 6.26478C6.05904 6.26265 6.05946 6.26175 6.05946 6.26175ZM6.26175 6.05946C6.26175 6.05946 6.26265 6.05904 6.26478 6.05834L6.26175 6.05946Z" fill="white"/>
<path fill-rule="evenodd" clip-rule="evenodd" d="M19.5 6C18.6716 6 18 5.32843 18 4.50001C18 3.67158 18.6716 3.00001 19.5 3.00001L20.3524 3C20.8674 2.99997 21.3404 2.99993 21.7358 3.03223C22.162 3.06706 22.6284 3.14679 23.089 3.38148C23.7475 3.71704 24.283 4.25247 24.6185 4.91104C24.8532 5.37165 24.9329 5.838 24.9678 6.26426C25.0001 6.65963 25 7.13258 25 7.64754L25 8.5C25 9.32843 24.3284 10 23.5 10C22.6716 10 22 9.32843 22 8.5L22 6.80001C22 6.51998 22 6.37997 21.9455 6.27301L21.9424 6.26693C21.8953 6.17765 21.8224 6.10469 21.7331 6.05765L21.727 6.0545C21.62 6 21.48 6 21.2 6H19.5ZM21.7383 6.05946L21.7352 6.05835C21.7374 6.05905 21.7383 6.05946 21.7383 6.05946ZM21.9406 6.26176C21.9406 6.26176 21.941 6.26263 21.9417 6.26476L21.9406 6.26176Z" fill="white"/>
<path fill-rule="evenodd" clip-rule="evenodd" d="M22 19.5C22 18.6716 22.6716 18 23.5 18C24.3284 18 25 18.6716 25 19.5L25 20.3525C25 20.8674 25.0001 21.3404 24.9678 21.7358C24.9329 22.162 24.8532 22.6284 24.6185 23.089C24.283 23.7475 23.7475 24.283 23.089 24.6185C22.6284 24.8532 22.162 24.9329 21.7358 24.9678C21.3404 25.0001 20.8674 25 20.3525 25L19.5 25C18.6716 25 18 24.3284 18 23.5C18 22.6716 18.6716 22 19.5 22L21.2 22C21.48 22 21.62 22 21.727 21.9455L21.7331 21.9424C21.8224 21.8953 21.8953 21.8224 21.9424 21.7331L21.9455 21.727C22 21.62 22 21.48 22 21.2L22 19.5ZM21.9406 21.7383L21.9417 21.7352C21.941 21.7373 21.9406 21.7383 21.9406 21.7383ZM21.7383 21.9406C21.7383 21.9406 21.7374 21.941 21.7353 21.9417L21.7383 21.9406Z" fill="white"/>
<path fill-rule="evenodd" clip-rule="evenodd" d="M8.5 22C9.32843 22 10 22.6716 10 23.5C10 24.3284 9.32843 25 8.5 25L7.64754 25C7.13258 25 6.65963 25.0001 6.26426 24.9678C5.838 24.9329 5.37165 24.8532 4.91104 24.6185C4.25247 24.283 3.71704 23.7475 3.38148 23.089C3.14679 22.6284 3.06706 22.162 3.03223 21.7358C2.99993 21.3404 2.99997 20.8674 3 20.3524L3 19.5C3 18.6716 3.67158 18 4.5 18C5.32843 18 6 18.6716 6 19.5V21.2C6 21.48 6 21.62 6.0545 21.727L6.05765 21.7331C6.10469 21.8224 6.17765 21.8953 6.26693 21.9424L6.27301 21.9455C6.37997 22 6.51998 22 6.8 22L8.5 22ZM6.26175 21.9406L6.26475 21.9417C6.26264 21.941 6.26175 21.9406 6.26175 21.9406ZM6.05946 21.7383C6.05946 21.7383 6.05905 21.7374 6.05835 21.7353L6.05946 21.7383Z" fill="white"/>
<path d="M7.5 12.5C6.67157 12.5 6 13.1716 6 14C6 14.8284 6.67157 15.5 7.5 15.5H20.5C21.3284 15.5 22 14.8284 22 14C22 13.1716 21.3284 12.5 20.5 12.5H7.5Z" fill="white"/>
</svg>
