<svg width="28" height="28" viewBox="0 0 28 28" fill="none" xmlns="http://www.w3.org/2000/svg">
<path fill-rule="evenodd" clip-rule="evenodd" d="M11.9427 3.41844C11.3409 3.85572 10.8127 4.77048 9.75647 6.6L4.82012 15.15C3.76385 16.9795 3.23571 17.8943 3.15795 18.6341C2.99946 20.1421 3.83 21.5807 5.2152 22.1974C5.89483 22.5 6.9511 22.5 9.06364 22.5H18.9363C21.0489 22.5 22.1052 22.5 22.7848 22.1974C24.17 21.5807 25.0005 20.1421 24.842 18.6342C24.7643 17.8943 24.2361 16.9795 23.1799 15.15L18.2435 6.6C17.1872 4.77048 16.6591 3.85572 16.0572 3.41844C14.8305 2.52719 13.1695 2.52719 11.9427 3.41844ZM12.3664 8.74612C12.3034 7.80115 13.0529 7 13.9999 7C14.947 7 15.6965 7.80115 15.6335 8.74612L15.3331 13.2528C15.2863 13.9546 14.7034 14.5 13.9999 14.5C13.2965 14.5 12.7136 13.9546 12.6668 13.2528L12.3664 8.74612ZM15.7499 18.25C15.7499 19.2165 14.9664 20 13.9999 20C13.0335 20 12.2499 19.2165 12.2499 18.25C12.2499 17.2835 13.0335 16.5 13.9999 16.5C14.9664 16.5 15.7499 17.2835 15.7499 18.25Z" fill="white"/>
<path opacity="0.32" fill-rule="evenodd" clip-rule="evenodd" d="M14 7C13.0529 7 12.3034 7.80115 12.3664 8.74612L12.6669 13.2528C12.7136 13.9546 13.2966 14.5 14 14.5C14.7034 14.5 15.2864 13.9546 15.3331 13.2528L15.6336 8.74612C15.6966 7.80115 14.9471 7 14 7ZM14 20C14.9665 20 15.75 19.2165 15.75 18.25C15.75 17.2835 14.9665 16.5 14 16.5C13.0335 16.5 12.25 17.2835 12.25 18.25C12.25 19.2165 13.0335 20 14 20Z" fill="white"/>
</svg>
