<svg width="28" height="28" viewBox="0 0 28 28" fill="none" xmlns="http://www.w3.org/2000/svg">
<path opacity="0.32" d="M3 9.4C3 7.15979 3 6.03968 3.43597 5.18404C3.81947 4.43139 4.43139 3.81947 5.18404 3.43597C6.03968 3 7.15979 3 9.4 3H15.6C17.8402 3 18.9603 3 19.816 3.43597C20.5686 3.81947 21.1805 4.43139 21.564 5.18404C22 6.03968 22 7.15979 22 9.4V12H3V9.4Z" fill="white"/>
<path opacity="0.32" d="M18 12.5H22V16.5H18V12.5Z" fill="white"/>
<path fill-rule="evenodd" clip-rule="evenodd" d="M3.43597 8.18404C3 9.03969 3 10.1598 3 12.4V16.6C3 18.8402 3 19.9603 3.43597 20.816C3.81947 21.5686 4.43139 22.1805 5.18404 22.564C6.03969 23 7.15979 23 9.4 23H18.6C20.8402 23 21.9603 23 22.816 22.564C23.5686 22.1805 24.1805 21.5686 24.564 20.816C25 19.9603 25 18.8402 25 16.6V12.4C25 10.1598 25 9.03969 24.564 8.18404C24.1805 7.43139 23.5686 6.81947 22.816 6.43597C21.9603 6 20.8402 6 18.6 6H9.4C7.15979 6 6.03969 6 5.18404 6.43597C4.43139 6.81947 3.81947 7.43139 3.43597 8.18404ZM19.75 12.75C18.7835 12.75 18 13.5335 18 14.5C18 15.4665 18.7835 16.25 19.75 16.25C20.7165 16.25 21.5 15.4665 21.5 14.5C21.5 13.5335 20.7165 12.75 19.75 12.75Z" fill="white"/>
</svg>
