<svg width="28" height="28" viewBox="0 0 28 28" fill="none" xmlns="http://www.w3.org/2000/svg">
<path opacity="0.32" fill-rule="evenodd" clip-rule="evenodd" d="M14 16.1213L19.9393 22.0607C20.5251 22.6464 21.4749 22.6464 22.0607 22.0607C22.6464 21.4749 22.6464 20.5251 22.0607 19.9393L16.1213 14L14 16.1213Z" fill="white"/>
<path fill-rule="evenodd" clip-rule="evenodd" d="M5.93934 5.93934C6.52513 5.35355 7.47487 5.35355 8.06066 5.93934L14 11.8787L19.9393 5.93934C20.5251 5.35355 21.4749 5.35355 22.0607 5.93934C22.6464 6.52513 22.6464 7.47487 22.0607 8.06066L8.06066 22.0607C7.47487 22.6464 6.52513 22.6464 5.93934 22.0607C5.35355 21.4749 5.35355 20.5251 5.93934 19.9393L11.8787 14L5.93934 8.06066C5.35355 7.47487 5.35355 6.52513 5.93934 5.93934Z" fill="white"/>
</svg>
