<svg width="20" height="34" viewBox="0 0 20 34" fill="none" xmlns="http://www.w3.org/2000/svg">
    <path fill-rule="evenodd" clip-rule="evenodd" d="M6.5331 3.01463C6.76939 1.31135 8.23141 0 9.99971 0C11.768 0 13.23 1.31135 13.4663 3.01461C15.6462 3.05886 16.9509 3.23708 17.9389 3.95492C18.3634 4.26331 18.7367 4.6366 19.0451 5.06107C20 6.3754 20 8.25027 20 12V25C20 28.7497 20 30.6246 19.0451 31.9389C18.7367 32.3634 18.3634 32.7367 17.9389 33.0451C16.6246 34 14.7497 34 11 34H9C5.25027 34 3.3754 34 2.06107 33.0451C1.6366 32.7367 1.26331 32.3634 0.954915 31.9389C0 30.6246 0 28.7497 0 25V12C0 8.25027 0 6.3754 0.954915 5.06107C1.26331 4.6366 1.6366 4.26331 2.06107 3.95492C3.049 3.23715 4.35362 3.05889 6.5331 3.01463ZM1.5 10.8C1.5 8.17519 1.5 6.86278 2.16844 5.94275C2.38432 5.64562 2.64562 5.38432 2.94275 5.16844C3.86278 4.5 5.17519 4.5 7.8 4.5H12.2C14.8248 4.5 16.1372 4.5 17.0572 5.16844C17.3544 5.38432 17.6157 5.64562 17.8316 5.94275C18.5 6.86278 18.5 8.17519 18.5 10.8V26.2C18.5 28.8248 18.5 30.1372 17.8316 31.0572C17.6157 31.3544 17.3544 31.6157 17.0572 31.8316C16.1372 32.5 14.8248 32.5 12.2 32.5H7.8C5.17519 32.5 3.86278 32.5 2.94275 31.8316C2.64562 31.6157 2.38432 31.3544 2.16844 31.0572C1.5 30.1372 1.5 28.8248 1.5 26.2V10.8Z" fill="#2E3847"/>
    <path d="M6.60071 16.9791L9.63907 13.3331C10.5893 12.1928 11.0644 11.6227 11.412 11.7821C11.7597 11.9416 11.6377 12.6736 11.3937 14.1377L11.1246 15.752C11.0656 16.1062 11.0361 16.2833 11.1253 16.4155C11.2144 16.5477 11.3897 16.5866 11.7402 16.6645L12.2966 16.7882C13.7299 17.1067 14.4465 17.2659 14.6278 17.7975C14.8091 18.329 14.3392 18.893 13.3992 20.0209L10.3609 23.6669C9.41066 24.8072 8.93556 25.3773 8.58789 25.2179C8.24022 25.0585 8.36223 24.3264 8.60624 22.8624L8.8753 21.248C8.93433 20.8938 8.96385 20.7167 8.87467 20.5845C8.7855 20.4523 8.61025 20.4134 8.25974 20.3355L7.70329 20.2119C6.27002 19.8934 5.55339 19.7341 5.37209 19.2026C5.1908 18.671 5.66077 18.107 6.60071 16.9791Z" fill="#556170"/>
</svg>
