<svg width="20" height="34" viewBox="0 0 20 34" fill="none" xmlns="http://www.w3.org/2000/svg">
    <path fill-rule="evenodd" clip-rule="evenodd" d="M6.5331 3.01463C6.76939 1.31135 8.23141 0 9.99971 0C11.768 0 13.23 1.31135 13.4663 3.01461C15.6462 3.05886 16.9509 3.23708 17.9389 3.95492C18.3634 4.26331 18.7367 4.6366 19.0451 5.06107C20 6.3754 20 8.25027 20 12V25C20 28.7497 20 30.6246 19.0451 31.9389C18.7367 32.3634 18.3634 32.7367 17.9389 33.0451C16.6246 34 14.7497 34 11 34H9C5.25027 34 3.3754 34 2.06107 33.0451C1.6366 32.7367 1.26331 32.3634 0.954915 31.9389C0 30.6246 0 28.7497 0 25V12C0 8.25027 0 6.3754 0.954915 5.06107C1.26331 4.6366 1.6366 4.26331 2.06107 3.95492C3.049 3.23715 4.35362 3.05889 6.5331 3.01463ZM1.5 10.8C1.5 8.17519 1.5 6.86278 2.16844 5.94275C2.38432 5.64562 2.64562 5.38432 2.94275 5.16844C3.86278 4.5 5.17519 4.5 7.8 4.5H12.2C14.8248 4.5 16.1372 4.5 17.0572 5.16844C17.3544 5.38432 17.6157 5.64562 17.8316 5.94275C18.5 6.86278 18.5 8.17519 18.5 10.8V26.2C18.5 28.8248 18.5 30.1372 17.8316 31.0572C17.6157 31.3544 17.3544 31.6157 17.0572 31.8316C16.1372 32.5 14.8248 32.5 12.2 32.5H7.8C5.17519 32.5 3.86278 32.5 2.94275 31.8316C2.64562 31.6157 2.38432 31.3544 2.16844 31.0572C1.5 30.1372 1.5 28.8248 1.5 26.2V10.8Z" fill="#2E3847"/>
    <path d="M3 21.7C3 20.5799 3 20.0198 3.21799 19.592C3.40973 19.2157 3.71569 18.9097 4.09202 18.718C4.51984 18.5 5.0799 18.5 6.2 18.5H13.8C14.9201 18.5 15.4802 18.5 15.908 18.718C16.2843 18.9097 16.5903 19.2157 16.782 19.592C17 20.0198 17 20.5799 17 21.7V27.8C17 28.9201 17 29.4802 16.782 29.908C16.5903 30.2843 16.2843 30.5903 15.908 30.782C15.4802 31 14.9201 31 13.8 31H6.2C5.07989 31 4.51984 31 4.09202 30.782C3.71569 30.5903 3.40973 30.2843 3.21799 29.908C3 29.4802 3 28.9201 3 27.8V21.7Z" fill="#45AEF5"/>
</svg>
