<svg width="100" height="100" fill="none" xmlns="http://www.w3.org/2000/svg"><mask id="a" style="mask-type:alpha" maskUnits="userSpaceOnUse"><path d="M27.073 65.56 50 92.39l22.927-26.83V34.83L50 8 27.073 34.83v30.73Z" fill="#FFF"/></mask><g mask="url(#a)"><path fill="#926BFE" d="M0 0h100v100H0z"/><path d="M37.318 34.83 50.001 8v26.83H37.318Z" fill="#B499FF"/><path d="M62.683 34.83 50.001 8v26.83h12.682Z" fill="#9A75FF"/><path d="M50 34.83h12.683l-12.682-6.707v6.707Z" fill="#A98AFF"/><path d="M50.001 34.83H37.318l12.683-6.707v6.707Z" fill="#BFA8FF"/><path d="M27.074 34.83 50 8 37.318 34.83H27.074Z" fill="#8B61FF"/><path d="M37.318 34.83H27.074l13.414-6.707-3.17 6.707Z" fill="#9D7AFF"/><path d="M27.074 65.561 50 92.391 37.318 65.56H27.074Z" fill="#794BF7"/><path d="M37.318 65.561H27.074l13.414 6.708-3.17-6.708Z" fill="#875EF7"/><path d="M72.927 34.83 50 8l12.683 26.83h10.244Z" fill="#8B61FF"/><path d="M72.927 65.561 50 92.391l12.683-26.83h10.244Z" fill="#794BF7"/><path d="M27.074 34.831h10.244v30.732H27.074V34.83Z" fill="#9670FF"/><path d="m50.001 8-9.512 20.122-1.951-6.707L50 8Z" fill="#A382FF"/><path d="M50.001 92.39 40.489 72.27l-1.951 6.707L50 92.391Z" fill="#8960F7"/><path d="m50 8 9.513 20.122 1.95-6.707L50.002 8Z" fill="#A382FF"/><path d="m50 92.39 9.513-20.121 1.95 6.707-11.462 13.415Z" fill="#8960F7"/><path d="M62.684 34.83h10.244l-13.415-6.707 3.17 6.707Z" fill="#9D7AFF"/><path d="M62.684 34.831h10.244v30.732H62.684V34.83Z" fill="#9670FF"/><path d="M37.318 34.831h25.366v30.732H37.318V34.83Z" fill="#C7B2FF"/><path d="M62.684 65.561h10.244L59.513 72.27l3.17-6.708Z" fill="#875EF7"/><path d="M37.318 65.563V34.83L27.074 50.197l10.244 15.366ZM62.684 65.563V34.83l10.244 15.366-10.244 15.366Z" fill="#A787FF"/><path d="m37.318 65.561 12.683 26.83V65.56H37.318Z" fill="#B499FF"/><path d="M37.317 34.831h-11.22l11.22 7.683v-7.683ZM62.684 34.831h11.22l-11.22 7.683v-7.683Z" fill="#BFA8FF"/><path d="M50.001 65.563 37.318 34.83v30.732h12.683ZM62.683 34.831 50.001 65.563V34.83h12.682Z" fill="#B499FF"/><path d="m62.683 65.561-12.682 26.83V65.56h12.682Z" fill="#9A75FF"/><path d="M50.001 65.44H37.318l12.683 6.707V65.44Z" fill="#BFA8FF"/><path d="M50 65.44h12.683l-12.682 6.707V65.44Z" fill="#A98AFF"/><path fill="url(#b)" d="M0 0h100v100H0z"/></g><defs><linearGradient id="b" x1="0" y1="0" x2="100" y2="100" gradientUnits="userSpaceOnUse"><stop offset=".281" stop-color="#FFFF05" stop-opacity=".4"/><stop offset=".619" stop-color="#FF3D00" stop-opacity=".1"/></linearGradient></defs></svg>