<svg width="100" height="100" fill="none" xmlns="http://www.w3.org/2000/svg"><mask id="a" style="mask-type:alpha" maskUnits="userSpaceOnUse"><path d="m49.999 15 36.04 27.2L71.759 83h-43.52l-14.28-40.8L49.999 15Z" fill="#FFF"/></mask><g mask="url(#a)"><path fill="#707EFF" d="M0-1h100V99H0z"/><path d="m50 15 36.04 27.2L71.76 83H28.24L13.96 42.2 50 15Z" fill="#707EFF"/><path d="m71.76 83 7.14-20.4-14.45-6.8L71.76 83Z" fill="#8A95FF"/><path d="m50 49 18.02-20.4L50 32v17Z" fill="#BAC1FF"/><path d="m50 49 21.76 34-7.31-27.2L50 49Z" fill="#A8B1FF"/><path d="M13.96 42.2 28.24 83H50V15L13.96 42.2Z" fill="#475AFF"/><path d="M50 49 31.98 28.6 50 32v17Z" fill="#A1AAFF"/><path d="M28.24 83 21.1 62.6l14.45-6.8L28.24 83Z" fill="#6978FF"/><path d="M31.98 28.6 13.96 42.2 50 49 31.98 28.6Z" fill="#6171FF"/><path d="M31.98 28.6 50 49 22.97 35.4l9.01-6.8Z" fill="#7A88FF"/><path d="M21.1 62.6 50 49l-18.522-3.495L21.1 62.6Z" fill="#949FFF"/><path d="M78.9 62.6 50 49l18.52-3.495L78.9 62.6Z" fill="#C2C8FF"/><path d="M50 49 28.24 83l7.31-27.2L50 49Z" fill="#8591FF"/><path d="m68.02 28.6 18.02 13.6L50 49l18.02-20.4Z" fill="#A8B1FF"/><path d="M68.02 28.6 50 49l27.03-13.6-9.01-6.8Z" fill="#949FFF"/><path d="M28.24 83H50V49L28.24 83Z" fill="#5465FF"/><path d="M71.76 83H50V49l21.76 34Z" fill="#8F9AFF"/><path d="M50 83V49l10.88 17L50 83Z" fill="#C2C8FF"/><path d="M50 83V49L39.12 66 50 83Z" fill="#ABB3FF"/></g></svg>