<svg width="100" height="100" fill="none" xmlns="http://www.w3.org/2000/svg"><mask id="a" style="mask-type:alpha" maskUnits="userSpaceOnUse"><path d="M50 82h38.76L50 14 11.24 82H50Z" fill="#FFF"/></mask><g mask="url(#a)"><path fill="url(#b)" d="M-18-20h136v136H-18z"/><path d="M88.76 82 50 14 11.24 82h77.52Z" fill="#FC7E82"/><path d="M45.155 65 40.31 48 11.24 82l33.915-17Z" fill="#FC6A6F"/><path d="m54.845 65 4.845-17 29.07 34-33.915-17Z" fill="#FC8B8F"/><path d="M50 14v34l-4.845-17L30.62 48 50 14Z" fill="#FC888C"/><path d="m50 14-4.845 17L30.62 48 50 14Z" fill="#FCA2A5"/><path d="M50 14v34l4.845-17L69.38 48 50 14Z" fill="#FCB1B3"/><path d="m50 14 4.845 17L69.38 48 50 14Z" fill="#FCC5C7"/><path d="m11.24 82 33.915-17L50 82H11.24Z" fill="#FC5B60"/><path d="M30.62 82H11.24l33.915-17L30.62 82Z" fill="#FC7479"/><path d="M88.76 82 54.845 65 50 82h38.76Z" fill="#FCB1B3"/><path d="M45.154 65 40.31 48 25.774 65l4.845-17 14.535-17L50 48l-4.845 17Z" fill="#FC5D63"/><path d="M69.38 82h19.38L54.845 65 69.38 82Z" fill="#FC7479"/><path d="m40.31 48 4.844-17L30.62 48l-4.845 17L40.31 48Z" fill="#FC5359"/><path d="m54.845 65 4.845-17 14.535 17-4.845-17-14.535-17L50 48l4.845 17Z" fill="#FC979B"/><path d="m59.69 48-4.845-17L69.38 48l4.845 17L59.69 48Z" fill="#FCB3B6"/></g><defs><linearGradient id="b" x1="-18" y1="-20" x2="118" y2="116" gradientUnits="userSpaceOnUse"><stop offset=".16" stop-color="#1F0514"/><stop offset="1" stop-color="#072925"/><stop offset="1" stop-color="#072729"/></linearGradient></defs></svg>