<svg width="100" height="100" fill="none" xmlns="http://www.w3.org/2000/svg"><mask id="a" style="mask-type:alpha" maskUnits="userSpaceOnUse"><path d="m50 88 35.26-29.593V31.333L74.556 20h-15.74L50 26.926 41.187 20H25.445L14.74 31.333v27.074L50.001 88Z" fill="#FFF"/></mask><g mask="url(#a)"><path d="m50 88 35.26-29.593V31.333L74.554 20h-15.74L50 26.926 41.185 20h-15.74L14.74 31.333v27.074L50 88Z" fill="#FF70BC"/><path d="m27.963 39.204-13.222-7.87v27.073l13.222-19.203Z" fill="#F73EA1"/><path d="M50 88V26.926L41.185 20 50 88Z" fill="#F777BB"/><path d="M50 88V26.926L45.593 54 50 88Z" fill="#F78FC7"/><path d="M50 88V26.926L58.815 20 50 88Z" fill="#FFA1D3"/><path d="M50 88 14.74 58.407 41.186 20 50 88Z" fill="#F74FA9"/><path d="m50 88-4.407-34-15.426 2.204L50 88Z" fill="#F768B4"/><path d="M30.167 56.204 45.593 54l-5.51 18.102-9.916-15.898Z" fill="#F781C0"/><path d="M27.963 39.204 14.74 58.407 45.593 54l-17.63-14.796Z" fill="#FC79BF"/><path d="m22.454 57.306-7.713 1.102 6.61-9.602L45.594 54l-7.713 1.102-7.713 1.102-7.713 1.102Z" fill="#FC92CB"/><path d="M50 88V26.926L54.407 54 50 88Z" fill="#FFBFE1"/><path d="m45.593 54-4.408-34-13.222 19.204L45.593 54Z" fill="#FC60B3"/><path d="m36.778 46.602-2.204-17L43.389 37l-6.611 9.602Z" fill="#FC79BF"/><path d="M36.778 46.602 45.593 54l-2.204-17-6.611 9.602Z" fill="#FC92CB"/><path d="M41.185 20 27.963 39.204l-13.222-7.87L41.185 20Z" fill="#FA5CB0"/><path d="M41.185 20 27.963 39.204V25.667L41.185 20Z" fill="#FF91CC"/><path d="m72.037 39.204 13.222-7.87v27.073L72.037 39.204Z" fill="#FFBDE0"/><path d="m50 88 35.26-29.593L58.814 20 50 88Z" fill="#FF8AC8"/><path d="m50 88 4.407-34 15.426 2.204L50 88Z" fill="#FFA6D5"/><path d="m50 88 4.407-34 15.426 2.204L50 88Z" fill="#FFA6D5"/><path d="M69.833 56.204 54.407 54l5.51 18.102 9.916-15.898Z" fill="#FFB8DE"/><path d="M72.037 39.204 85.26 58.407 54.407 54l17.63-14.796Z" fill="#FCACD7"/><path d="m77.546 57.306 7.713 1.102-6.61-9.602L54.406 54l7.713 1.102 7.713 1.102 7.713 1.102Z" fill="#FC92CB"/><path d="m54.407 54 4.408-34 13.222 19.204L54.407 54Z" fill="#FF96CE"/><path d="m63.222 46.602 2.204-17L56.611 37l6.611 9.602Z" fill="#FCACD7"/><path d="M63.222 46.602 54.407 54l2.204-17 6.611 9.602Z" fill="#FCC5E3"/><path d="m58.815 20 13.222 19.204 13.222-7.87L58.815 20Z" fill="#FFADD9"/><path d="m58.815 20 13.222 19.204V25.667L58.815 20Z" fill="#FFC4E4"/></g></svg>