<svg width="100" height="100" fill="none" xmlns="http://www.w3.org/2000/svg"><mask id="a" style="mask-type:alpha" maskUnits="userSpaceOnUse"><path d="M21.667 21.667 50 16l28.333 5.667L84 50l-5.667 28.333L50 84l-28.333-5.667L16 50l5.667-28.333Z" fill="#FFF"/></mask><g mask="url(#a)"><path fill="#926BFE" d="M0 0h100v100H0z"/><path d="M21.667 21.667 50 16l28.333 5.667L84 50l-5.667 28.333L50 84l-28.333-5.667L16 50l5.667-28.333Z" fill="#9C78FF"/><path d="m81.168 35.834-2.833-14.166-5.667 22.666 11.333 5.667-2.833-14.167Z" fill="#BEA6FF"/><path d="m21.667 21.668 5.666 22.666L16 50.001l5.667-28.333Z" fill="#9169FF"/><path d="m21.667 78.333 5.666-22.666L16 50l5.667 28.333Z" fill="#9169FF"/><path d="m78.335 78.333-5.667-22.666L84.001 50l-5.666 28.333Z" fill="#BEA6FF"/><path d="m50 50 22.667-5.666L84 50.001H50Z" fill="#AD8FFF"/><path d="m50 50-22.667-5.666L16 50.001h34Z" fill="#8457FF"/><path d="m50 50-22.667 5.667L16 50h34Z" fill="#8457FF"/><path d="m50 50 22.667 5.667L84 50H50Z" fill="#AD8FFF"/><path d="m72.667 44.334-11.334-5.666L50 50l22.667-5.667Z" fill="#7847FF"/><path d="m27.334 44.334 11.333-5.666L50.001 50l-22.667-5.667ZM27.334 55.667l11.333 5.666L50.001 50l-22.667 5.667Z" fill="#7847FF"/><path d="m72.667 55.667-11.334 5.666L50 50l22.667 5.667Z" fill="#7847FF"/><path d="M50 50V33l11.333 5.667L50 50Z" fill="#BEA6FF"/><path d="M50.001 50V33l-11.333 5.667L50.001 50ZM50.001 50v17l-11.333-5.667L50.001 50Z" fill="#BEA6FF"/><path d="M50 50v17l11.333-5.667L50 50Z" fill="#BEA6FF"/><path d="M61.333 38.667 50 33l5.667 11.333 5.666-5.666Z" fill="#AB8CFF"/><path d="M38.668 38.667 50.001 33l-5.666 11.333-5.667-5.666ZM38.668 61.334l11.333 5.667-5.666-11.333-5.667 5.666Z" fill="#AB8CFF"/><path d="M61.333 61.334 50 67.001l5.667-11.333 5.666 5.666Z" fill="#AB8CFF"/><path d="m61.334 38.668 17-17-5.667 22.666-11.333-5.666ZM38.668 38.668l-17-17 5.667 22.666 11.333-5.666ZM38.668 61.334l-17 17 5.667-22.666 11.333 5.666ZM61.334 61.334l17 17-5.667-22.666-11.333 5.666Z" fill="#875CFF"/><path d="m61.335 38.668 17-17-22.667 5.666 5.667 11.334Z" fill="#AB8CFF"/><path d="m38.668 38.668-17-17 22.667 5.666-5.667 11.334ZM38.668 61.334l-17 17 22.667-5.667-5.667-11.333Z" fill="#7645FF"/><path d="m61.335 61.334 17 17-22.667-5.667 5.667-11.333Z" fill="#AB8CFF"/><path d="m78.335 21.667-14.167-2.833-8.5 8.5 22.667-5.667ZM21.668 21.667l14.167-2.833 8.5 8.5-22.667-5.667ZM21.668 78.334l14.167 2.834 8.5-8.5-22.667 5.666ZM78.335 78.334l-14.167 2.834-8.5-8.5 22.667 5.666Z" fill="#936BFF"/><path d="M64.167 18.833 50 16l5.667 11.333 8.5-8.5Z" fill="#BCA3FF"/><path d="M35.834 18.833 50.001 16l-5.667 11.333-8.5-8.5ZM35.834 81.168 50.001 84l-5.667-11.333-8.5 8.5Z" fill="#875CFF"/><path d="M64.167 81.168 50 84l5.667-11.333 8.5 8.5Z" fill="#BCA3FF"/><path d="M61.333 38.667 50 33V16l11.333 22.667Z" fill="#CEBDFF"/><path d="M38.668 38.667 50.001 33V16L38.668 38.667ZM38.668 61.334l11.333 5.667v17L38.668 61.334Z" fill="#9873FF"/><path d="M61.333 61.334 50 67.001v17l11.333-22.667Z" fill="#CEBDFF"/><path fill="url(#b)" d="M0 0h100v100H0z"/></g><defs><linearGradient id="b" x1="0" y1="0" x2="100" y2="100" gradientUnits="userSpaceOnUse"><stop offset=".281" stop-color="#FF055F" stop-opacity=".28"/><stop offset=".619" stop-color="#00D1FF" stop-opacity=".1"/></linearGradient></defs></svg>