<svg width="100" height="100" fill="none" xmlns="http://www.w3.org/2000/svg"><mask id="a" style="mask-type:alpha" maskUnits="userSpaceOnUse"><path d="M77.763 36.632C77.763 21.168 65.333 9 50 9 34.667 9 22.237 21.168 22.237 36.632 22.237 52.096 50 93 50 93s27.763-40.905 27.763-56.37Z" fill="#FFF"/></mask><g mask="url(#a)"><path fill="#A98BFC" d="M0 1h100v100H0z"/><path d="M69.67 17.054c5.001 4.973 8.093 11.865 8.093 19.577H65.294l4.376-19.577Z" fill="#8F68FC"/><path d="m69.67 17.054-9.834 16.973-4.918-12.514 14.753-4.459Z" fill="#BAA2FC"/><path d="M50 9c7.686 0 14.643 3.058 19.67 8.055l-14.752 4.46L50 9Z" fill="#A586FC"/><path d="M50 93.002s27.763-40.905 27.763-56.37H50v56.37ZM22.237 36.632C22.237 21.168 34.667 9 50 9v84.001S22.237 52.096 22.237 36.632Z" fill="#7B4CFC"/><path d="M63.65 71.02C56.789 83.003 50 93.003 50 93.003l6.825-31.99 6.826 10.009Z" fill="#916AFC"/><path d="m65.296 36.633-3.552 15.892 16.02-15.892H65.296Z" fill="#9E7CFC"/><path d="M63.652 71.02c2.517-4.394 5.044-9.054 7.25-13.585 1.806-3.71 3.397-7.333 4.591-10.653 1.414-3.928 2.271-7.432 2.271-10.15l-16.02 15.893 1.908 18.496Z" fill="#7D4EFC"/><path d="M50 51V9l9.835 25.028L50 51.001Z" fill="#B69DFC"/><path d="M59.835 34.028 50 30.001V9l9.835 25.027Z" fill="#C7B3FC"/><path d="M30.33 17.054c-5.002 4.973-8.093 11.865-8.093 19.577h12.468L30.33 17.054Z" fill="#8256FC"/><path d="m69.671 17.054-9.835 16.973 1.908 18.496 7.927-35.469Z" fill="#A586FC"/><path d="m30.33 17.055 9.836 16.973 4.917-12.514-14.752-4.459Z" fill="#A98AFF"/><path d="M63.65 71.02 50 51l9.835-16.972 3.816 36.992Z" fill="#C1ACFC"/><path d="M50 9c-7.685 0-14.642 3.058-19.67 8.055l14.753 4.46L50.001 9Z" fill="#8053FC"/><path d="M50 93.002s-27.763-40.905-27.763-56.37H50v56.37Z" fill="#6832FC"/><path d="M36.35 71.02C43.211 83.003 50 93.003 50 93.003l-6.826-31.99L36.35 71.02Z" fill="#7B4CFC"/><path d="m34.705 36.633 3.552 15.892-16.02-15.892h12.468Z" fill="#7342FC"/><path d="M36.35 71.02c-2.517-4.394-5.045-9.054-7.25-13.585-1.807-3.71-3.398-7.333-4.592-10.653-1.414-3.928-2.271-7.432-2.271-10.15l16.02 15.893L36.35 71.02Z" fill="#8458FC"/><path d="M24.508 46.782c-1.414-3.928-2.271-7.432-2.271-10.15l16.02 15.893-13.75-5.743Z" fill="#9671FC"/><path d="M75.493 46.782c1.414-3.928 2.271-7.432 2.271-10.15l-16.02 15.893 13.75-5.743Z" fill="#AD90FC"/><path d="M50 51V9l-9.834 25.028L50 51.001Z" fill="#A483FC"/><path d="M40.166 34.028 50 30.001V9l-9.834 25.027Z" fill="#B49AFC"/><path d="m30.33 17.055 9.836 16.973-1.908 18.496-7.927-35.469Z" fill="#9772FC"/><path d="M36.35 71.02 50 51l-9.836-16.972L36.35 71.02Z" fill="#8B62FC"/><path d="M-.273 1h100v100h-100V1Z" fill="url(#b)"/></g><defs><linearGradient id="b" x1="-.273" y1="1" x2="99.727" y2="101" gradientUnits="userSpaceOnUse"><stop offset=".281" stop-color="#05FFA5" stop-opacity=".48"/><stop offset=".619" stop-color="#00FF85" stop-opacity=".1"/></linearGradient></defs></svg>