<svg width="100" height="100" fill="none" xmlns="http://www.w3.org/2000/svg"><mask id="a" style="mask-type:alpha" maskUnits="userSpaceOnUse"><path d="M50 18 13.999 31.6l36 54.4L86 31.6 50 18Z" fill="#FFF"/></mask><g mask="url(#a)"><path fill="#6B7AFE" d="M0 2h100v100H0z"/><path d="m50.002 45.2-36-13.601 36-13.6 36 13.6-36 13.6Z" fill="#4B5CF7"/><path d="m50.002 41.198-25.319-9.6 25.32-9.6 25.318 9.6-25.319 9.6Z" fill="#9CA6FF"/><path d="m50.001 41.199 6.33-2.4-6.33-2.4-6.33 2.4 6.33 2.4ZM50.001 26.797l6.33-2.4-6.33-2.4-6.33 2.4 6.33 2.4ZM31.013 33.999l6.33-2.4-6.33-2.4-6.33 2.4 6.33 2.4Z" fill="#BFC6FF"/><path d="m40.508 30.4 6.33-2.4-6.33-2.4-6.33 2.4 6.33 2.4ZM40.508 37.599l6.33-2.4-6.33-2.4-6.33 2.4 6.33 2.4Z" fill="#D1D6FF"/><path d="m68.99 33.999 6.33-2.4-6.33-2.4-6.33 2.4 6.33 2.4Z" fill="#BFC6FF"/><path d="m59.496 30.4 6.33-2.4-6.33-2.4-6.33 2.4 6.33 2.4ZM59.496 37.599l6.33-2.4-6.33-2.4-6.33 2.4 6.33 2.4Z" fill="#D1D6FF"/><path d="m50.002 45.198 36-13.6-36 54.4v-40.8Z" fill="#6B7AFE"/><path d="m50.002 45.198-36-13.6 36 54.4v-40.8Z" fill="#8793FF"/><path d="M32.001 58.8V48.6l-9-3.4 9 13.6Z" fill="#B7BEFE"/><path d="M68.002 58.8V48.6l9-3.4-9 13.6Z" fill="#9DA7FE"/><path d="m23.001 35 9 3.4v10.2l-9-13.6Z" fill="#9BA5FE"/><path d="m77.002 35-9 3.4v10.2l9-13.6Z" fill="#828EFE"/><path d="m41.003 52-9 6.8V38.4l9 13.6Z" fill="#6D7CFE"/><path d="m59.002 52 9 6.8V38.4l-9 13.6Z" fill="#5465FE"/><path d="m32.002 38.4 18 6.8-9 6.8-9-13.6Z" fill="#CBD0FE"/><path d="m68.002 38.4-18 6.8 9 6.8 9-13.6Z" fill="#B2B9FE"/><path d="M50.003 45.2V86l-18-27.2 18-13.6Z" fill="#B2B9FE"/><path d="M50.002 85.998v-20.4l-9 6.8 9 13.6Z" fill="#A5AEFE"/><path d="M50.002 85.998v-20.4l9 6.8-9 13.6Z" fill="#5E6EFE"/><path d="M50.002 45.2V86l18-27.2-18-13.6Z" fill="#8793FE"/><path d="M50.002 85.998v-20.4l9 6.8-9 13.6Z" fill="#5E6EFE"/><path fill="url(#b)" d="M0 2h100v100H0z"/></g><defs><linearGradient id="b" x1="0" y1="2" x2="100" y2="102" gradientUnits="userSpaceOnUse"><stop stop-color="#EB00FF" stop-opacity=".52"/><stop offset="1" stop-color="#00FF38" stop-opacity="0"/></linearGradient></defs></svg>