<svg width="100" height="100" fill="none" xmlns="http://www.w3.org/2000/svg"><mask id="a" style="mask-type:alpha" maskUnits="userSpaceOnUse"><path d="M22.7 75.2 50 92l27.3-16.8L50 8 22.7 75.2Z" fill="#FFF"/></mask><g mask="url(#a)"><path fill="#6BBEFE" d="M0 0h100v100H0z"/><path d="M22.7 75.2 50 8l27.3 67.2L50 92 22.7 75.2Z" fill="#8FCEFF"/><path d="m50 71 13.65 2.1L50 39.5V71Z" fill="#A8D9FF"/><path d="M50 92 22.7 75.2l20.474-50.4L50 8v84.001Z" fill="#42ADFF"/><path d="M36.35 73.1 50 39.5l-13.65 2.1v31.5Z" fill="#4DB2FF"/><path d="M36.35 41.6 50 39.5l-3.412 8.4-10.238-6.3Z" fill="#66BDFF"/><path d="M63.65 73.1 50 39.5l13.65 2.1v31.5ZM50 71l-13.65 2.1L50 39.5V71Z" fill="#8FCEFF"/><path d="m50 71-13.65 2.1 6.825-16.8L50 71Z" fill="#75C3FF"/><path d="m50 71 13.65 2.1-6.825-16.8L50 71Z" fill="#C2E4FF"/><path d="M63.65 41.6 50 39.5l3.412 8.4 10.238-6.3Z" fill="#C9E8FF"/><path d="M36.35 41.6 22.7 75.2l13.65-17.85V41.6Z" fill="#A8D9FF"/><path d="M63.65 41.6 77.3 75.2 63.65 57.35V41.6Z" fill="#D6EDFF"/><path d="m22.7 75.2 13.65-2.1V57.35L22.7 75.2Z" fill="#29A2FF"/><path d="M63.65 57.35V41.6l-6.826 14.7 6.825 1.05ZM36.35 57.35V41.6l6.825 14.7-6.825 1.05Z" fill="#C2E4FF"/><path d="m77.3 75.2-13.65-2.1V57.35L77.3 75.2Z" fill="#75C3FF"/><path d="M77.3 75.2 50 92 22.7 75.2 50 71l27.3 4.2Z" fill="#42ADFF"/><path d="M50 8 36.35 41.6 50 39.5V8Z" fill="#5CB8FF"/><path d="m50 8-6.825 16.8 6.826 14.7V8Z" fill="#75C3FF"/><path d="m50 8 13.65 33.6L50 39.5V8Z" fill="#BFE3FF"/><path d="M22.7 75.2 50 92V71l-27.3 4.2Z" fill="#30A5FF"/><path d="m50 8 6.825 16.8L50 39.5V8Z" fill="#D4ECFF"/><path d="M50 92V71L36.35 83.6 50 92Z" fill="#4AB1FF"/><path d="M50 92V71l13.65 12.6L50 92Z" fill="#63BCFF"/></g></svg>