<svg width="24" height="24" viewBox="0 0 24 24" fill="none" xmlns="http://www.w3.org/2000/svg">
<path fill-rule="evenodd" clip-rule="evenodd" d="M10.6669 2.99999C10.7133 3 10.7602 3.00001 10.8078 3.00001L17.0402 3.00001C17.706 2.99999 18.2656 2.99998 18.7234 3.03739C19.2022 3.0765 19.6571 3.16144 20.089 3.38149C20.7475 3.71704 21.283 4.25248 21.6185 4.91104C21.8386 5.3429 21.9235 5.79786 21.9626 6.27658C22 6.73445 22 7.29397 22 7.95983V16.0402C22 16.7061 22 17.2656 21.9626 17.7234C21.9235 18.2022 21.8386 18.6571 21.6185 19.089C21.283 19.7475 20.7475 20.283 20.089 20.6185C19.6571 20.8386 19.2022 20.9235 18.7234 20.9626C18.2656 21 17.7061 21 17.0402 21H10.8078C10.7602 21 10.7133 21 10.6669 21C9.4033 21.0003 8.57723 21.0005 7.79947 20.7881C7.11198 20.6004 6.46343 20.2917 5.88421 19.8765C5.22895 19.4068 4.70817 18.7656 3.91158 17.7847C3.88235 17.7487 3.85275 17.7123 3.82275 17.6753L1.75112 15.1256C1.40475 14.6994 1.111 14.3378 0.889577 14.02C0.656228 13.6851 0.462661 13.3433 0.35074 12.9434C0.178009 12.3263 0.178009 11.6737 0.35074 11.0566C0.462661 10.6567 0.656228 10.315 0.889578 9.98001C1.111 9.66218 1.40475 9.30066 1.75113 8.87437L3.82275 6.32468C3.85275 6.28776 3.88235 6.25131 3.91158 6.21532C4.70817 5.23445 5.22895 4.59321 5.88421 4.1235C6.46343 3.70829 7.11198 3.3996 7.79947 3.21189C8.57723 2.99953 9.4033 2.99971 10.6669 2.99999ZM10.8078 5.00001C9.35391 5.00001 8.8133 5.00828 8.32627 5.14126C7.86794 5.2664 7.43557 5.4722 7.04943 5.749C6.63911 6.04313 6.29178 6.45749 5.37498 7.58586L3.32556 10.1082C2.95104 10.5692 2.70471 10.8733 2.53061 11.1233C2.36371 11.3628 2.30469 11.4957 2.27671 11.5957C2.20268 11.8602 2.20268 12.1399 2.27671 12.4043C2.30469 12.5043 2.36371 12.6372 2.5306 12.8768C2.70471 13.1267 2.95104 13.4309 3.32555 13.8918L5.37498 16.4142C6.29178 17.5425 6.63911 17.9569 7.04943 18.251C7.43557 18.5278 7.86794 18.7336 8.32627 18.8588C8.8133 18.9917 9.35391 19 10.8078 19H17C17.7166 19 18.1939 18.9992 18.5606 18.9693C18.9156 18.9403 19.0781 18.889 19.181 18.8365C19.4632 18.6927 19.6927 18.4632 19.8365 18.181C19.889 18.0781 19.9403 17.9156 19.9693 17.5606C19.9992 17.1939 20 16.7166 20 16V8.00001C20 7.28344 19.9992 6.80616 19.9693 6.43945C19.9403 6.08441 19.889 5.92195 19.8365 5.81902C19.6927 5.53678 19.4632 5.30731 19.181 5.1635C19.0781 5.11106 18.9156 5.05976 18.5606 5.03075C18.1939 5.00079 17.7166 5.00001 17 5.00001H10.8078ZM9.79291 9.2929C10.1834 8.90238 10.8166 8.90238 11.2071 9.2929L12.5 10.5858L13.7929 9.2929C14.1834 8.90238 14.8166 8.90238 15.2071 9.2929C15.5976 9.68343 15.5976 10.3166 15.2071 10.7071L13.9142 12L15.2071 13.2929C15.5976 13.6834 15.5976 14.3166 15.2071 14.7071C14.8166 15.0976 14.1834 15.0976 13.7929 14.7071L12.5 13.4142L11.2071 14.7071C10.8166 15.0976 10.1834 15.0976 9.79291 14.7071C9.40238 14.3166 9.40238 13.6834 9.79291 13.2929L11.0858 12L9.79291 10.7071C9.40238 10.3166 9.40238 9.68343 9.79291 9.2929Z" fill="white"/>
</svg>
