<svg width="24" height="24" viewBox="0 0 24 24" fill="none" xmlns="http://www.w3.org/2000/svg">
<path fill-rule="evenodd" clip-rule="evenodd" d="M5.31456 6.75C6.87162 4.76996 9.28782 3.5 12 3.5C16.6944 3.5 20.5 7.30558 20.5 12C20.5 16.6944 16.6944 20.5 12 20.5C7.30558 20.5 3.5 16.6944 3.5 12C3.5 11.5858 3.16421 11.25 2.75 11.25C2.33579 11.25 2 11.5858 2 12C2 17.5228 6.47715 22 12 22C17.5228 22 22 17.5228 22 12C22 6.47715 17.5228 2 12 2C8.87363 2 6.08302 3.43497 4.25 5.68003V3.5C4.25 3.08579 3.91421 2.75 3.5 2.75C3.08579 2.75 2.75 3.08579 2.75 3.5V7.5C2.75 7.91421 3.08579 8.25 3.5 8.25H7.5C7.91421 8.25 8.25 7.91421 8.25 7.5C8.25 7.08579 7.91421 6.75 7.5 6.75H5.31456Z" fill="white"/>
</svg>
