<svg width="24" height="24" viewBox="0 0 24 24" fill="none" xmlns="http://www.w3.org/2000/svg">
<rect width="24" height="24" fill="#8992A3"/>
<path fill-rule="evenodd" clip-rule="evenodd" d="M9.14292 8.5H14.8597C15.1929 8.49999 15.4772 8.49998 15.7017 8.52058C15.9277 8.5413 16.1803 8.5882 16.3934 8.7465C16.6827 8.96137 16.8652 9.29063 16.8941 9.64983C16.9154 9.91447 16.8213 10.1535 16.7191 10.3561C16.6175 10.5575 16.4669 10.7985 16.2903 11.0811L12.4253 17.265C12.3339 17.4112 12.1737 17.5 12.0013 17.5C11.8289 17.5 11.6687 17.4112 11.5773 17.265L7.71235 11.0811C7.53571 10.7985 7.38507 10.5575 7.28351 10.3561C7.18133 10.1535 7.08723 9.91447 7.1085 9.64983C7.13738 9.29063 7.31987 8.96137 7.60917 8.7465C7.82231 8.5882 8.0749 8.5413 8.30086 8.52058C8.52543 8.49998 8.80964 8.49999 9.14292 8.5ZM8.20279 9.55128C8.14733 9.59362 8.11207 9.65722 8.10557 9.72669C8.10641 9.73329 8.11361 9.78134 8.17638 9.9058C8.25474 10.0612 8.38029 10.263 8.57279 10.571L11.5013 15.2566V9.5H9.16639C8.80317 9.5 8.56548 9.5005 8.3922 9.5164C8.25339 9.52913 8.20884 9.5485 8.20279 9.55128ZM12.5013 9.5V15.2566L15.4298 10.571C15.6223 10.263 15.7479 10.0612 15.8262 9.9058C15.889 9.78133 15.8962 9.73328 15.897 9.72669C15.8905 9.65722 15.8553 9.59361 15.7998 9.55128C15.7937 9.54849 15.7492 9.52913 15.6104 9.5164C15.4371 9.5005 15.1994 9.5 14.8362 9.5H12.5013Z" fill="white"/>
</svg>
