<svg width="36" height="36" viewBox="0 0 36 36" fill="none" xmlns="http://www.w3.org/2000/svg">
<path fill-rule="evenodd" clip-rule="evenodd" d="M7.35 8.2L2.88 14.16C1.84722 15.537 1.33084 16.2256 1.13178 16.9817C0.956073 17.6492 0.956073 18.3508 1.13178 19.0183C1.33084 19.7744 1.84722 20.463 2.88 21.84L7.35 27.8C8.23 28.9733 8.67 29.56 9.22763 29.9831C9.72151 30.3579 10.2808 30.6375 10.8769 30.8078C11.55 31 12.2833 31 13.75 31H25.6C27.8402 31 28.9603 31 29.816 30.564C30.5686 30.1805 31.1805 29.5686 31.564 28.816C32 27.9603 32 26.8402 32 24.6V11.4C32 9.15979 32 8.03969 31.564 7.18404C31.1805 6.43139 30.5686 5.81947 29.816 5.43597C28.9603 5 27.8402 5 25.6 5H13.75C12.2833 5 11.55 5 10.8769 5.19223C10.2808 5.36248 9.72151 5.64212 9.22763 6.01688C8.67 6.44001 8.22999 7.02668 7.35 8.2ZM15.6339 12.8661C15.1457 12.378 14.3543 12.378 13.8661 12.8661C13.378 13.3543 13.378 14.1457 13.8661 14.6339L17.2322 18L13.8661 21.3661C13.378 21.8543 13.378 22.6457 13.8661 23.1339C14.3543 23.622 15.1457 23.622 15.6339 23.1339L18.999 19.7688L22.3551 23.1328C22.8427 23.6216 23.6341 23.6225 24.1228 23.1349C24.6116 22.6473 24.6125 21.8559 24.1249 21.3672L20.7667 18.001L24.1339 14.6339C24.622 14.1457 24.622 13.3543 24.1339 12.8661C23.6457 12.378 22.8543 12.378 22.3661 12.8661L19 16.2322L15.6339 12.8661Z" fill="white"/>
</svg>