<svg width="37" height="36" viewBox="0 0 37 36" fill="none" xmlns="http://www.w3.org/2000/svg">
<path fill-rule="evenodd" clip-rule="evenodd" d="M12.5 4L11.2422 4H11.2421C10.4514 3.99998 9.76931 3.99995 9.20746 4.04586C8.61444 4.09431 8.02462 4.20128 7.45705 4.49047C6.61032 4.9219 5.9219 5.61032 5.49047 6.45705C5.20128 7.02462 5.09431 7.61444 5.04586 8.20746C4.99995 8.76931 4.99998 9.45143 5 10.2421V10.2422L5 12.5C5 13.3284 5.67158 14 6.5 14C7.32843 14 8 13.3284 8 12.5V10.3C8 9.43517 8.00117 8.87676 8.03589 8.45176C8.06919 8.04426 8.1257 7.89318 8.16349 7.81902C8.3073 7.53677 8.53677 7.3073 8.81902 7.16349C8.89318 7.1257 9.04426 7.06919 9.45176 7.03589C9.87676 7.00117 10.4352 7 11.3 7H12.5C13.3284 7 14 6.32843 14 5.5C14 4.67158 13.3284 4 12.5 4ZM26.7 7C27.5648 7 28.1232 7.00117 28.5483 7.03589C28.9557 7.06919 29.1068 7.1257 29.181 7.16349C29.4632 7.3073 29.6927 7.53677 29.8365 7.81902C29.8743 7.89318 29.9308 8.04426 29.9641 8.45176C29.9988 8.87676 30 9.43517 30 10.3V12.5C30 13.3284 30.6716 14 31.5 14C32.3284 14 33 13.3284 33 12.5V10.2422C33 9.45145 33.0001 8.76931 32.9541 8.20746C32.9057 7.61444 32.7987 7.02462 32.5095 6.45705C32.0781 5.61032 31.3897 4.9219 30.543 4.49047C29.9754 4.20128 29.3856 4.09431 28.7925 4.04586C28.2307 3.99995 27.5486 3.99998 26.7579 4H26.7578L25.5 4C24.6716 4 24 4.67158 24 5.5C24 6.32843 24.6716 7 25.5 7H26.7ZM8 23.5C8 22.6716 7.32843 22 6.5 22C5.67158 22 5 22.6716 5 23.5L5 25.7578V25.7579C4.99998 26.5486 4.99995 27.2307 5.04586 27.7925C5.09431 28.3856 5.20128 28.9754 5.49047 29.543C5.9219 30.3897 6.61032 31.0781 7.45705 31.5095C8.02462 31.7987 8.61444 31.9057 9.20746 31.9541C9.76931 32.0001 10.4514 32 11.2422 32H12.5C13.3284 32 14 31.3284 14 30.5C14 29.6716 13.3284 29 12.5 29H11.3C10.4352 29 9.87676 28.9988 9.45176 28.9641C9.04426 28.9308 8.89318 28.8743 8.81902 28.8365C8.53677 28.6927 8.3073 28.4632 8.16349 28.181C8.1257 28.1068 8.06919 27.9557 8.03589 27.5483C8.00117 27.1232 8 26.5648 8 25.7V23.5ZM33 23.5C33 22.6716 32.3284 22 31.5 22C30.6716 22 30 22.6716 30 23.5V25.7C30 26.5648 29.9988 27.1232 29.9641 27.5483C29.9308 27.9557 29.8743 28.1068 29.8365 28.181C29.6927 28.4632 29.4632 28.6927 29.181 28.8365C29.1068 28.8743 28.9557 28.9308 28.5483 28.9641C28.1232 28.9988 27.5648 29 26.7 29H25.5C24.6716 29 24 29.6716 24 30.5C24 31.3284 24.6716 32 25.5 32H26.7579C27.5486 32 28.2307 32.0001 28.7925 31.9541C29.3856 31.9057 29.9754 31.7987 30.543 31.5095C31.3897 31.0781 32.0781 30.3897 32.5095 29.543C32.7987 28.9754 32.9057 28.3856 32.9541 27.7925C33.0001 27.2307 33 26.5486 33 25.7579V23.5ZM14.75 13.5C14.75 12.8096 14.1904 12.25 13.5 12.25C12.8096 12.25 12.25 12.8096 12.25 13.5V15.5C12.25 16.1904 12.8096 16.75 13.5 16.75C14.1904 16.75 14.75 16.1904 14.75 15.5V13.5ZM20.4968 13.5C20.4968 12.8096 19.9372 12.25 19.2468 12.25C18.5565 12.25 17.9968 12.8096 17.9968 13.5V17.75H17.5C16.8096 17.75 16.25 18.3096 16.25 19C16.25 19.6904 16.8096 20.25 17.5 20.25H18.2468C19.4895 20.25 20.4968 19.2426 20.4968 18V13.5ZM25.75 13.5C25.75 12.8096 25.1904 12.25 24.5 12.25C23.8096 12.25 23.25 12.8096 23.25 13.5V15.5C23.25 16.1904 23.8096 16.75 24.5 16.75C25.1904 16.75 25.75 16.1904 25.75 15.5V13.5ZM14.1161 23.3839L15 22.5C14.1161 23.3839 14.1165 23.3843 14.1169 23.3846L14.1176 23.3854L14.1193 23.387L14.123 23.3908L14.1323 23.3998L14.1578 23.4243C14.1778 23.4433 14.2041 23.4676 14.2364 23.4965C14.301 23.5542 14.3902 23.6304 14.5031 23.7188C14.7282 23.895 15.051 24.1221 15.4639 24.3474C16.2894 24.7976 17.4944 25.25 19 25.25C20.5056 25.25 21.7106 24.7976 22.5361 24.3474C22.949 24.1221 23.2718 23.895 23.497 23.7188C23.6098 23.6304 23.699 23.5542 23.7636 23.4965C23.7959 23.4676 23.8222 23.4433 23.8422 23.4243L23.8677 23.3998L23.877 23.3908L23.8807 23.387L23.8824 23.3854L23.8831 23.3846C23.8835 23.3843 23.8839 23.3839 23 22.5L23.8839 23.3839C24.372 22.8957 24.372 22.1043 23.8839 21.6161C23.3981 21.1304 22.612 21.128 22.1233 21.609L16.8797 22.2649C16.803 22.2279 16.7301 22.1903 16.6611 22.1526C16.3865 22.0029 16.1781 21.8551 16.0438 21.75C15.977 21.6977 15.9295 21.6567 15.9023 21.6324C15.8887 21.6203 15.8803 21.6124 15.8771 21.6094L15.8767 21.609C15.388 21.128 14.6019 21.1303 14.1161 21.6161C13.628 22.1043 13.628 22.8957 14.1161 23.3839ZM16.8798 22.265L15 22.5L16.8797 22.2649C16.8797 22.2649 16.8798 22.2649 16.8798 22.265ZM16.8798 22.265L22.1229 21.6094C22.1197 21.6124 22.1113 21.6203 22.0978 21.6324C22.0706 21.6567 22.023 21.6977 21.9562 21.75C21.8219 21.8551 21.6135 22.0029 21.3389 22.1526C20.7894 22.4524 19.9944 22.75 19 22.75C18.1306 22.75 17.4136 22.5225 16.8798 22.265Z" fill="white"/>
</svg>
