<svg width="32" height="32" viewBox="0 0 32 32" fill="none" xmlns="http://www.w3.org/2000/svg">
<path d="M6.90635 22.9763C6.21163 22.9763 5.74345 22.4734 5.74345 21.7595V20C5.74345 19.2861 6.21163 18.7832 6.90635 18.7832H9.80602C10.5007 18.7832 10.9689 19.2861 10.9689 20V21.7595C10.9689 22.4734 10.5007 22.9763 9.80602 22.9763H6.90635ZM1.99805 13V10H29.998V13H1.99805ZM5.84917 27H26.1469C28.7293 27 29.998 25.6533 29.998 22.9277V9.07224C29.998 6.34659 28.7293 5 26.1469 5H5.84917C3.28175 5 1.99805 6.34659 1.99805 9.07224V22.9277C1.99805 25.6533 3.28175 27 5.84917 27Z" fill="white"/>
</svg>
