<svg width="32" height="32" viewBox="0 0 32 32" fill="none" xmlns="http://www.w3.org/2000/svg">
<path d="M29.9998 16C29.9998 23.6505 23.6369 30 15.9912 30C8.3628 30 2 23.6505 2 16C2 8.34944 8.34544 2 15.9739 2C23.6196 2 29.9998 8.34944 29.9998 16ZM10.7207 9.84137C10.7207 10.0842 10.7727 10.2577 10.9114 10.5006L14.3095 16.0173H12.4197C11.969 16.0173 11.6569 16.3643 11.6569 16.798C11.6569 17.2317 11.9863 17.5613 12.4197 17.5613H15.003V18.6195H12.4197C11.969 18.6195 11.6569 18.9492 11.6569 19.3829C11.6569 19.8339 11.9863 20.1462 12.4197 20.1462H15.003V22.0198C15.003 22.6617 15.4191 23.0954 15.9912 23.0954C16.5807 23.0954 16.9968 22.679 16.9968 22.0371V20.1462H19.58C20.0308 20.1462 20.3255 19.8339 20.3255 19.3829C20.3255 18.9492 20.0308 18.6195 19.58 18.6195H16.9968V17.5613H19.58C20.0308 17.5613 20.3255 17.2317 20.3255 16.798C20.3255 16.3643 20.0308 16.0173 19.58 16.0173H17.7076L21.1057 10.518C21.2444 10.2751 21.2964 10.1016 21.2964 9.85871C21.2964 9.33828 20.863 8.9219 20.2909 8.9219C19.9094 8.9219 19.6147 9.0954 19.3893 9.44238L16.0086 15.2367L12.6278 9.42499C12.4024 9.06069 12.1076 8.90458 11.7262 8.90458C11.1541 8.90458 10.7207 9.32094 10.7207 9.84137Z" fill="white"/>
</svg>
