<svg width="32" height="32" viewBox="0 0 32 32" fill="none" xmlns="http://www.w3.org/2000/svg">
<path d="M29.9998 16C29.9998 23.6505 23.6369 30 15.9912 30C8.3628 30 2 23.6505 2 16C2 8.34944 8.34544 2 15.9739 2C23.6196 2 29.9998 8.34944 29.9998 16ZM15.2631 8.62699V9.59849C13.1132 9.85871 11.6049 11.1945 11.6049 13.1722C11.6049 15.0285 12.8358 16.1214 15.1937 16.6766L15.2631 16.7112V20.6493C14.1015 20.4585 13.4773 19.8166 13.2346 18.9838C13.0439 18.4461 12.7144 18.2205 12.2637 18.2205C11.7262 18.2205 11.3448 18.6022 11.3448 19.14C11.3448 19.2961 11.3795 19.4523 11.3968 19.591C11.8303 21.2218 13.4253 22.228 15.2631 22.4188V23.3903C15.2631 23.824 15.5751 24.1363 16.0086 24.1363C16.4246 24.1363 16.7367 23.824 16.7367 23.3903V22.4361C18.8865 22.228 20.6203 20.9789 20.6203 18.7583C20.6203 16.7807 19.3373 15.5836 16.8754 15.1672L16.7367 15.1499V11.4201C17.6209 11.5936 18.2277 12.1313 18.5398 13.0334C18.6958 13.5018 19.0079 13.7968 19.5107 13.7968C20.0481 13.7968 20.4295 13.4151 20.4295 12.8773C20.4295 12.7212 20.3949 12.565 20.3602 12.4089C19.9614 10.8649 18.5398 9.82403 16.7367 9.59849V8.62699C16.7367 8.19329 16.4246 7.8984 16.0086 7.8984C15.5751 7.8984 15.2631 8.19329 15.2631 8.62699ZM17.0314 17.1623C18.2797 17.5093 18.6612 18.0644 18.6612 18.8798C18.6612 19.7819 18.089 20.4758 16.7367 20.6493V17.0756L17.0314 17.1623ZM15.2631 14.7509L15.159 14.7335C14.0321 14.3519 13.564 13.8315 13.564 13.0681C13.564 12.3048 14.1708 11.6282 15.2631 11.4201V14.7509Z" fill="white"/>
</svg>
