<svg width="32" height="32" viewBox="0 0 32 32" fill="none" xmlns="http://www.w3.org/2000/svg">
<path d="M29.9998 16C29.9998 23.6505 23.6369 30 15.9912 30C8.3628 30 2 23.6505 2 16C2 8.34944 8.34544 2 15.9739 2C23.6196 2 29.9998 8.34944 29.9998 16ZM10.8767 13.6927H9.50705C9.07362 13.6927 8.76154 14.005 8.76154 14.456C8.76154 14.8724 9.07362 15.2367 9.50705 15.2367H10.6513C10.634 15.4795 10.6166 15.7398 10.6166 16.0173C10.6166 16.2602 10.6166 16.4857 10.634 16.7112H9.50705C9.07362 16.7112 8.76154 17.0235 8.76154 17.4746C8.76154 17.8909 9.07362 18.2379 9.50705 18.2379H10.8594C11.5009 21.0309 13.3906 22.9739 16.3726 22.9739C18.7825 22.9739 20.7416 21.9677 21.5218 19.8686C21.6085 19.6257 21.6605 19.3829 21.6605 19.1227C21.6605 18.5501 21.2964 18.1685 20.6896 18.1685C20.1695 18.1685 19.8574 18.4287 19.6841 18.9838C19.2333 20.3717 17.8636 21.0483 16.442 21.0483C14.7429 21.0483 13.5987 19.886 13.0959 18.2379H16.5807C17.0141 18.2379 17.3262 17.8909 17.3262 17.4746C17.3262 17.0235 17.0141 16.7112 16.5807 16.7112H12.7838C12.7665 16.4857 12.7491 16.2428 12.7491 16.0173C12.7491 15.7398 12.7665 15.4795 12.7838 15.2367H16.5807C17.0141 15.2367 17.3262 14.8724 17.3262 14.456C17.3262 14.005 17.0141 13.6927 16.5807 13.6927H13.1306C13.6506 12.114 14.7776 11.0037 16.442 11.0037C17.7423 11.0037 19.0946 11.6629 19.5627 13.0681C19.7534 13.6927 20.0308 13.8835 20.5856 13.8835C21.1751 13.8835 21.5565 13.5018 21.5565 12.9293C21.5565 12.6691 21.5045 12.4436 21.4178 12.2007C20.6896 10.2577 18.6612 9.07805 16.3726 9.07805C13.5813 9.07805 11.5875 10.8823 10.8767 13.6927Z" fill="white"/>
</svg>
