<svg width="32" height="32" viewBox="0 0 32 32" fill="none" xmlns="http://www.w3.org/2000/svg">
<path d="M29.9998 16C29.9998 23.6505 23.6369 30 15.9912 30C8.3628 30 2 23.6505 2 16C2 8.34943 8.34544 2 15.9739 2C23.6196 2 29.9998 8.34943 29.9998 16ZM17.7076 6.80544L10.1139 16.3296C9.95781 16.5031 9.87113 16.7286 9.87113 16.9194C9.87113 17.3011 10.1832 17.596 10.5646 17.596H15.2631L12.7665 24.2925C12.4024 25.264 13.4426 25.7843 14.0841 25.0037L21.6778 15.4622C21.8339 15.2887 21.9206 15.0632 21.9206 14.8897C21.9206 14.4907 21.6085 14.2131 21.2271 14.2131H16.5287L19.0252 7.51674C19.3893 6.54524 18.3491 6.0248 17.7076 6.80544Z" fill="white"/>
</svg>
