<svg width="32" height="32" viewBox="0 0 32 32" fill="none" xmlns="http://www.w3.org/2000/svg">
<path d="M15.9921 28.0441C16.277 28.0441 16.5619 28.0283 16.8468 28.0125L17.5591 29.3745C17.7174 29.6911 18.0498 29.8495 18.4138 29.7862C18.762 29.707 19.0311 29.4378 19.0628 29.0735L19.3002 27.5847C19.8542 27.4422 20.3765 27.2207 20.9147 27.0147L22.0226 27.9967C22.2759 28.2342 22.6715 28.3133 23.004 28.1234C23.3047 27.9332 23.4631 27.5689 23.3681 27.2207L23.0672 25.7635C23.5105 25.4151 23.9696 25.0508 24.3653 24.6707L25.7423 25.2409C26.122 25.3993 26.4703 25.2884 26.7235 24.9876C26.9294 24.7183 26.961 24.3383 26.787 24.0372L25.9796 22.7544C26.2963 22.2794 26.5653 21.7884 26.8344 21.25L28.3381 21.3133C28.6863 21.3292 29.0346 21.1391 29.1452 20.7749C29.2719 20.4423 29.1294 20.078 28.8604 19.8563L27.6891 18.9219C27.8316 18.3835 27.9266 17.8133 27.974 17.2273L29.3827 16.7681C29.7626 16.6414 30 16.3721 30 15.9921C30 15.612 29.7626 15.3427 29.3827 15.216L27.974 14.7567C27.9266 14.1708 27.8316 13.6165 27.6891 13.0622L28.8604 12.1278C29.1294 11.9061 29.2719 11.5577 29.1452 11.2251C29.0346 10.8608 28.6863 10.6708 28.3381 10.6866L26.8344 10.7341C26.5653 10.1957 26.2963 9.72056 25.9796 9.2296L26.787 7.9468C26.961 7.66172 26.9294 7.28163 26.7235 7.01241C26.4703 6.7115 26.122 6.61648 25.7582 6.75901L24.3653 7.31332C23.9696 6.94906 23.5105 6.56897 23.0672 6.23639L23.3681 4.77938C23.4471 4.39929 23.3047 4.05087 23.004 3.87666C22.6715 3.68662 22.2759 3.73413 22.0226 4.00336L20.9147 4.96942C20.3765 4.76355 19.8542 4.55765 19.3002 4.39929L19.0628 2.92644C19.0311 2.56218 18.762 2.29295 18.4138 2.21377C18.0498 2.15042 17.7174 2.30879 17.5591 2.60969L16.8468 3.97168C16.5619 3.95585 16.277 3.94001 15.9921 3.94001C15.6914 3.94001 15.4223 3.95585 15.1215 3.97168L14.4093 2.60969C14.251 2.30879 13.9186 2.15042 13.5546 2.21377C13.2063 2.29295 12.9689 2.56218 12.9056 2.92644L12.6682 4.39929C12.13 4.55765 11.5919 4.76355 11.0695 4.96942L9.96157 4.00336C9.6925 3.73413 9.31262 3.68662 8.96439 3.87666C8.66365 4.05087 8.53703 4.39929 8.61616 4.77938L8.90108 6.23639C8.47371 6.56897 7.99888 6.94906 7.60316 7.31332L6.21028 6.75901C5.86207 6.61648 5.51386 6.7115 5.26061 7.01241C5.05483 7.28163 5.00736 7.66172 5.19728 7.9468L5.9887 9.2296C5.68796 9.72056 5.41888 10.1957 5.13399 10.7341L3.6303 10.6866C3.29791 10.6708 2.94969 10.8608 2.83889 11.2251C2.7281 11.5577 2.83889 11.9061 3.10797 12.1278L4.27926 13.0622C4.13681 13.6165 4.04183 14.1708 4.01018 14.7567L2.56981 15.216C2.20577 15.3269 2 15.612 2 15.9921C2 16.3721 2.20577 16.6572 2.56981 16.7681L4.01018 17.2273C4.04183 17.8133 4.13681 18.3835 4.27926 18.9219L3.10797 19.8563C2.83889 20.078 2.7281 20.4423 2.83889 20.7749C2.94969 21.1391 3.29791 21.3292 3.6303 21.3133L5.13399 21.25C5.41888 21.7884 5.68796 22.2794 5.9887 22.7544L5.19728 24.0372C5.00736 24.3383 5.05483 24.7183 5.26061 24.9876C5.51386 25.2884 5.86207 25.3993 6.22613 25.2409L7.60316 24.6707C7.99888 25.0508 8.47371 25.4151 8.90108 25.7635L8.61616 27.2207C8.55287 27.5689 8.66365 27.9332 8.96439 28.1234C9.31262 28.3133 9.6925 28.2342 9.96157 27.9967L11.0695 27.0147C11.5919 27.2207 12.13 27.4422 12.6682 27.5847L12.9056 29.0735C12.9689 29.4378 13.2063 29.707 13.5546 29.7862C13.9186 29.8495 14.251 29.6911 14.4093 29.3745L15.1215 28.0125C15.4223 28.0283 15.6914 28.0441 15.9921 28.0441ZM15.9921 25.7635C10.5314 25.7635 6.35275 21.4242 6.35275 16.0079C6.35275 10.5758 10.5314 6.22056 15.9921 6.22056C21.4528 6.22056 25.6473 10.5758 25.6473 16.0079C25.6473 21.4242 21.4528 25.7635 15.9921 25.7635ZM13.6654 14.0599L15.3273 13.0147L11.2278 5.983L9.48672 6.94906L13.6654 14.0599ZM18.8728 16.9581H27.0402V15.026H18.8728V16.9581ZM15.3115 19.0328L13.6812 17.94L9.34427 25.0192L11.0537 26.0169L15.3115 19.0328ZM15.9446 19.4287C17.844 19.4287 19.3635 17.9083 19.3635 16.0237C19.3635 14.1391 17.844 12.6029 15.9446 12.6029C14.0611 12.6029 12.5574 14.1391 12.5574 16.0237C12.5574 17.9083 14.0611 19.4287 15.9446 19.4287ZM15.9446 17.3224C15.2165 17.3224 14.6625 16.7681 14.6625 16.0237C14.6625 15.2794 15.2165 14.7093 15.9446 14.7093C16.6885 14.7093 17.2584 15.2794 17.2584 16.0237C17.2584 16.7681 16.6885 17.3224 15.9446 17.3224Z" fill="white"/>
</svg>
