<svg width="32" height="32" viewBox="0 0 32 32" fill="none" xmlns="http://www.w3.org/2000/svg">
<path d="M7 20.8044C7 26.4937 10.7223 30 15.96 30C20.0941 30 22.5152 28.3625 24.2611 25.2699C25.3482 23.3845 26.1552 21.0194 27.0117 18.2244C27.407 16.9675 28 15.3467 28 14.619C28 13.9078 27.4729 13.4117 26.6988 13.4117C25.7929 13.4117 25.2988 13.9905 24.6235 15.3467L22.7952 19.0844C22.6305 19.4483 22.4494 19.6136 22.2517 19.6136C22.0376 19.6136 21.8893 19.4813 21.8893 19.0679V5.20849C21.8893 4.3981 21.247 3.7531 20.4399 3.7531C19.6494 3.7531 18.9905 4.3981 18.9905 5.20849V15.1648C18.6611 15.049 18.2988 14.9498 17.9035 14.8836V3.4554C17.9035 2.66155 17.2447 2 16.4541 2C15.647 2 15.0047 2.66155 15.0047 3.4554V14.7513C14.6258 14.7844 14.2635 14.834 13.8847 14.9001V4.48081C13.8847 3.6704 13.2423 3.0254 12.4353 3.0254C11.6447 3.0254 10.9859 3.6704 10.9859 4.48081V15.8098C10.607 16.0082 10.2447 16.2232 9.88234 16.4382V8.5493C9.88234 7.75545 9.23998 7.0939 8.4494 7.0939C7.64235 7.0939 7 7.75545 7 8.5493V20.8044Z" fill="white"/>
</svg>
