<svg width="32" height="32" viewBox="0 0 32 32" fill="none" xmlns="http://www.w3.org/2000/svg">
<path d="M16.7253 26.1145C17.4378 26.1145 18.0229 25.7806 19.3715 25.7806C20.7075 25.7806 21.051 26.1145 22.0307 26.1145C23.5064 26.1145 24.2699 25.4983 24.2699 24.3945C24.2699 22.5718 22.4122 21.4038 19.3588 21.4038C17.8576 21.4038 17.196 21.5321 16.3563 21.7503L15.2622 19.2346C14.2189 16.8985 12.5268 15.3198 10.0713 15.3198H8.88809C8.49367 15.3198 8.21377 15.1401 8.21377 14.7293C8.21377 14.0875 9.05346 13.9207 9.98223 13.9207C12.9339 13.9207 15.1095 15.5636 16.4454 18.8495L17.1197 20.5181C17.794 20.3769 18.5318 20.3128 19.257 20.3128C19.855 20.3128 20.4276 20.3513 21 20.4283C21.598 19.979 22.2978 19.5298 23.341 19.1832C24.4607 19.8892 25.6567 20.3384 26.9543 20.3384C29.7532 20.3384 31 19.7351 31 17.0269C31 13.9207 28.8373 11.5718 25.7075 11.5076L22.9975 7.93934C21.4708 5.937 19.6768 5 17.9211 5C16.4581 5 14.2316 5.85998 14.2316 7.06653C14.2316 7.87515 15.8983 9.05602 17.1324 9.83898L22.8576 13.4329C22.514 13.741 22.1452 13.9592 21.649 13.9592C20.8474 13.9592 19.9823 13.4329 18.7737 12.727C15.682 10.93 13.3028 9.2614 10.0967 9.2614C6.76339 9.2614 4.23157 11.1995 2.88296 14.9989C1.81425 14.9989 1 15.7176 1 16.7573C1 17.9254 1.92876 18.6698 3.17557 18.6698C4.65142 20.7363 7.06872 21.5449 9.86772 21.5449C10.0204 21.5449 10.1731 21.5321 10.3257 21.5321L14.397 25.0234C15.453 25.986 15.9619 26.1145 16.7253 26.1145ZM9.58783 27C11.5471 27 12.7049 26.6021 13.6337 25.9347L10.5547 23.2906C10.4148 23.3034 10.2494 23.3162 10.0458 23.3162C9.51148 23.3162 8.84992 23.1751 7.92115 23.1751C6.80153 23.1751 6.06363 23.7912 6.06363 24.7281C6.06363 26.1016 7.47585 27 9.58783 27ZM26.7636 16.5905C26.2928 16.5905 25.9365 16.2054 25.9365 15.7433C25.9365 15.2684 26.3055 14.8577 26.7761 14.8577C27.2596 14.8577 27.6158 15.2299 27.6158 15.692C27.6158 16.1669 27.2469 16.5905 26.7636 16.5905Z" fill="white"/>
</svg>
