<svg width="32" height="32" viewBox="0 0 32 32" fill="none" xmlns="http://www.w3.org/2000/svg">
<path d="M30 16C30 23.6505 23.6371 30 15.9913 30C8.36285 30 2 23.6505 2 16C2 8.34944 8.34552 2 15.974 2C23.6198 2 30 8.34944 30 16ZM17.1009 9.45972C16.6501 9.45972 16.182 9.45972 15.7313 9.45972H11.917C11.4142 9.45972 10.9981 9.87608 10.9981 10.3965C10.9981 10.8996 11.4142 11.3507 11.917 11.3507H14.2922C15.5579 11.3507 16.4074 11.8711 16.7022 12.8253H11.8997C11.4836 12.8253 11.1368 13.1375 11.1368 13.5886C11.1368 14.0223 11.4836 14.3692 11.8997 14.3692H16.7542C16.4768 15.3928 15.6272 15.9132 14.2922 15.9132H12.2811C11.6049 15.9132 11.1195 16.3296 11.1195 17.0062C11.1195 17.544 11.3969 17.8042 11.6916 18.0991L16.6848 22.7831C17.0316 23.1301 17.2916 23.2168 17.6384 23.2168C18.1585 23.2168 18.5919 22.8872 18.5919 22.2973C18.5919 21.9851 18.3839 21.7075 18.1758 21.482L14.2229 17.7868H14.4656C17.2223 17.7868 18.5919 16.1214 18.8867 14.3692H20.2563C20.7071 14.3692 21.0018 14.0223 21.0018 13.5886C21.0018 13.1375 20.7071 12.8253 20.2563 12.8253H18.9213C18.8 12.114 18.5573 11.5068 18.1412 11.0037H20.1696C20.6204 11.0037 20.9325 10.6394 20.9325 10.223C20.9325 9.77198 20.6204 9.45972 20.1696 9.45972H17.1009Z" fill="white"/>
</svg>
