<svg width="32" height="32" viewBox="0 0 32 32" fill="none" xmlns="http://www.w3.org/2000/svg">
<path d="M5.84906 26H26.1509C28.732 26 30 24.7338 30 22.2015V15.6445C30 14.4688 29.8188 13.9261 29.2755 13.1875L25.3963 7.89669C24.0225 6.0125 23.298 5.5 21.0641 5.5H10.9358C8.71697 5.5 7.97735 6.0125 6.60377 7.89669L2.73962 13.1875C2.19623 13.9261 2 14.4688 2 15.6445V22.2015C2 24.7338 3.28302 26 5.84906 26ZM16.0075 18.9758C14.2415 18.9758 13.1849 17.4232 13.1849 16.0816V16.0364C13.1849 15.4636 12.8377 14.9059 12.0981 14.9059H4.85282C4.41509 14.9059 4.32452 14.5441 4.53585 14.2427L8.71697 8.42427C9.26037 7.65552 9.9698 7.39927 10.8 7.39927H21.2C22.0302 7.39927 22.7547 7.65552 23.298 8.42427L27.4642 14.2427C27.6603 14.5441 27.5849 14.9059 27.1471 14.9059H19.9019C19.1773 14.9059 18.8302 15.4636 18.8302 16.0364V16.0816C18.8302 17.4232 17.7585 18.9758 16.0075 18.9758Z" fill="white"/>
</svg>
