<svg width="32" height="32" viewBox="0 0 32 32" fill="none" xmlns="http://www.w3.org/2000/svg">
<path d="M26.4974 5.50223C23.1491 2.15393 17.7945 2.16548 14.4555 5.50443C11.9275 8.03248 11.2055 11.7466 12.6383 14.9919L3.38459 24.2456C3.13427 24.496 3.03848 24.7579 3.02579 25.1268L2.99512 28.2921C3.00645 28.5895 3.30296 29.0054 3.70752 29.0045L9.68084 28.9917C10.1093 28.9906 10.4075 28.6688 10.4083 28.2642L10.3923 24.6469L15.3899 24.6361C15.7826 24.6472 16.0926 24.3372 16.0817 23.8969L16.128 18.9587C20.1581 20.6753 23.9195 20.1198 26.4952 17.5441C29.8223 14.217 29.8338 8.83866 26.4974 5.50223ZM20.9166 11.083C20.0261 10.1925 20.053 8.76458 20.9354 7.88213C21.8298 6.98777 23.2339 6.98477 24.1244 7.87528C25.003 8.75392 25.0237 10.1817 24.1294 11.0761C23.2469 11.9585 21.7953 11.9617 20.9166 11.083Z" fill="white"/>
</svg>
