<svg width="32" height="32" viewBox="0 0 32 32" fill="none" xmlns="http://www.w3.org/2000/svg">
<path d="M2.39183 4.84927C2.09796 6.14275 2 7.88405 2 9.07806C2 18.8458 7.76312 25.2802 16.6119 25.2802C22.6362 25.2802 25.1342 21.5987 25.6075 20.9022L23.8279 20.7529C25.526 22.5439 26.3422 24.5837 27.1585 27.1541C27.3545 27.7843 27.7789 28 28.236 28C29.183 28 29.9993 27.1707 29.9993 25.9934C29.9993 24.2355 27.3708 21.1177 26.0319 19.8408C20.3505 14.5341 11.5508 17.6849 9.51002 11.7646C9.36307 11.3168 9.83652 10.9188 10.2773 11.3666C14.7507 15.9105 20.5301 12.0797 26.0319 17.2372C26.5055 17.6684 27.0605 17.4362 27.1422 16.9387C27.2074 16.5904 27.2402 15.9934 27.2402 15.4296C27.2402 9.01173 22.8158 5.87744 16.6608 5.87744C14.5711 5.87744 12.0895 6.45787 10.1957 6.45787C8.26921 6.45787 5.96724 6.35836 4.05709 4.36832C3.48567 3.78792 2.62039 3.85425 2.39183 4.84927Z" fill="white"/>
</svg>
