<svg width="32" height="32" viewBox="0 0 32 32" fill="none" xmlns="http://www.w3.org/2000/svg">
<path d="M9.39234 30H22.6076C24.863 30 26 28.8369 26 26.3797V16.4942C26 14.0557 24.863 13.8926 22.6076 13.8926H9.39234C7.13699 13.8926 6 14.0557 6 16.4942V26.3797C6 28.8369 7.13699 30 9.39234 30ZM8.53495 15.187H11.1631V9.93469C11.1631 6.2956 13.493 4.5136 15.9907 4.5136C18.507 4.5136 20.8555 6.2956 20.8555 9.93469V15.187H23.4837V10.3098C23.4837 4.56983 19.7372 2 15.9907 2C12.2628 2 8.53495 4.56983 8.53495 10.3098V15.187Z" fill="white"/>
</svg>
