<svg width="32" height="32" viewBox="0 0 32 32" fill="none" xmlns="http://www.w3.org/2000/svg">
<path d="M30 16C30 23.6505 23.6371 30 15.9913 30C8.36285 30 2 23.6505 2 16C2 8.34944 8.34552 2 15.974 2C23.6198 2 30 8.34944 30 16ZM8.58823 14.4039C8.58823 17.6481 11.2582 20.3197 14.5003 20.3197C15.6099 20.3197 16.6328 20.0074 17.517 19.487L20.9672 22.9045C21.2792 23.2342 21.626 23.3903 22.0768 23.3903C22.8223 23.3903 23.3597 22.8178 23.3597 22.0198C23.3597 21.6728 23.1864 21.3258 22.9436 21.083L19.4761 17.596C20.0656 16.6766 20.4124 15.5663 20.4124 14.4039C20.4124 11.1251 17.7597 8.47086 14.5003 8.47086C11.2582 8.47086 8.58823 11.1425 8.58823 14.4039ZM18.2278 14.4039C18.2278 16.451 16.5461 18.1512 14.5003 18.1512C12.4371 18.1512 10.7554 16.451 10.7554 14.4039C10.7554 12.3569 12.4371 10.6567 14.5003 10.6567C16.5461 10.6567 18.2278 12.3395 18.2278 14.4039Z" fill="white"/>
</svg>
