<svg width="32" height="32" viewBox="0 0 32 32" fill="none" xmlns="http://www.w3.org/2000/svg">
<path d="M29.9998 16C29.9998 23.6505 23.6369 30 15.9912 30C8.3628 30 2 23.6505 2 16C2 8.34944 8.34544 2 15.9739 2C23.6196 2 29.9998 8.34944 29.9998 16ZM13.616 9.44238C12.9745 9.44238 12.5758 9.85871 12.5758 10.4833V16.5378H11.3448C10.8767 16.5378 10.582 16.8674 10.582 17.3011C10.582 17.7521 10.8767 18.0818 11.3448 18.0818H12.5758V19.4175H11.3621C10.8941 19.4175 10.5993 19.7472 10.5993 20.1809C10.5993 20.6319 10.8941 20.9442 11.3621 20.9442H12.5758V22.1759C12.5758 22.7831 13.0092 23.2168 13.6333 23.2168C14.2228 23.2168 14.6389 22.7831 14.6389 22.1759V20.9442H17.9157C18.3664 20.9442 18.6785 20.6319 18.6785 20.1809C18.6785 19.7472 18.3664 19.4175 17.9157 19.4175H14.6389V18.0818H16.9968C19.6667 18.0818 21.3831 16.2602 21.3831 13.7621C21.3831 11.2813 19.6841 9.44238 17.0141 9.44238H13.616ZM19.2853 13.7794C19.2853 15.2887 18.4011 16.2602 16.6153 16.2602L14.6562 16.2255V11.3333H16.6153C18.4184 11.3333 19.2853 12.2701 19.2853 13.7794Z" fill="white"/>
</svg>
