<svg width="32" height="32" viewBox="0 0 32 32" fill="none" xmlns="http://www.w3.org/2000/svg">
<path fill-rule="evenodd" clip-rule="evenodd" d="M15.2206 7.45252C15.4088 7.45252 15.5115 7.3352 15.5457 7.18436L15.5686 7.06864C15.973 5.021 15.9809 4.98093 18.2323 4.55308C18.4034 4.51955 18.5232 4.419 18.5232 4.23464C18.5232 4.0503 18.4034 3.94973 18.2323 3.91622C15.9809 3.48837 15.973 3.44827 15.5686 1.40065L15.5457 1.28492C15.5115 1.11732 15.4088 1 15.2206 1C15.0494 1 14.9468 1.11732 14.9126 1.28492L14.8791 1.44767C14.4687 3.44891 14.46 3.49167 12.226 3.91622C12.0548 3.94973 11.9351 4.0503 11.9351 4.23464C11.9351 4.419 12.0548 4.51955 12.226 4.55308C14.46 4.97763 14.4687 5.02036 14.8791 7.02162L14.9126 7.18436C14.9468 7.3352 15.0494 7.45252 15.2206 7.45252ZM8.80472 16.553C9.07851 16.553 9.26673 16.3686 9.30096 16.1004C9.76131 12.6104 9.91587 12.5811 13.59 11.8846L13.6303 11.877C13.887 11.8435 14.0923 11.6591 14.0923 11.3909C14.0923 11.106 13.887 10.9217 13.6303 10.8881C9.91699 10.4189 9.74586 10.2513 9.30096 6.68143C9.26673 6.3965 9.07851 6.21216 8.80472 6.21216C8.5138 6.21216 8.32556 6.3965 8.29135 6.69819C7.88635 10.1525 7.63112 10.2003 4.11225 10.86L3.96202 10.8881C3.70534 10.9384 3.5 11.106 3.5 11.3909C3.5 11.6758 3.70534 11.8435 4.03047 11.877C7.65821 12.43 7.88066 12.5641 8.29135 16.0669C8.32556 16.3686 8.5138 16.553 8.80472 16.553ZM18.6094 30.3631C18.5409 30.7486 18.25 31.0001 17.8907 31.0001C17.5142 31.0001 17.2233 30.7486 17.172 30.3631C16.1281 23.3743 15.0501 22.2682 7.96573 21.3296C7.55504 21.2961 7.28125 20.9944 7.28125 20.6257C7.28125 20.2402 7.55504 19.9553 7.96573 19.905C15.0672 19.0838 16.1624 17.8771 17.172 10.8883C17.2233 10.486 17.5142 10.2346 17.8907 10.2346C18.25 10.2346 18.5409 10.486 18.6094 10.8883C19.6019 17.8771 20.697 19.0838 27.7986 19.905C28.2091 19.9553 28.5002 20.2402 28.5002 20.6257C28.5002 20.9944 28.2091 21.2961 27.7986 21.3296C20.697 22.1508 19.6019 23.3743 18.6094 30.3631Z" fill="white"/>
</svg>
