<svg width="32" height="32" viewBox="0 0 32 32" fill="none" xmlns="http://www.w3.org/2000/svg">
<path d="M29.9998 16C29.9998 23.6505 23.6369 30 15.9912 30C8.3628 30 2 23.6505 2 16C2 8.34944 8.34544 2 15.9739 2C23.6196 2 29.9998 8.34944 29.9998 16ZM12.5584 13.2243C12.5584 13.7447 12.6278 14.2652 12.7491 14.7856H11.4835C10.9807 14.7856 10.6166 15.1152 10.6166 15.6183C10.6166 16.1214 10.9807 16.4684 11.4835 16.4684H13.1652C13.2692 16.9194 13.3386 17.3705 13.3386 17.7695C13.3386 19.3135 12.4024 20.2329 11.4662 20.5452C10.8767 20.7187 10.634 21.0309 10.634 21.5514C10.634 22.1239 11.0154 22.4882 11.5702 22.4882H20.2042C20.759 22.4882 21.1577 22.1239 21.1577 21.5514C21.1577 21.0136 20.759 20.6319 20.2042 20.6319H14.1881C14.899 20.0074 15.367 18.8971 15.367 17.6827C15.367 17.2317 15.3324 16.8327 15.2457 16.4684H18.6612C19.1813 16.4684 19.5454 16.1214 19.5454 15.6183C19.5454 15.1152 19.1813 14.7856 18.6612 14.7856H14.847C14.7429 14.2825 14.6216 13.7447 14.6216 13.0855C14.6216 11.5762 15.7485 10.5873 17.5169 10.5873C18.6265 10.5873 19.216 10.8649 19.632 10.8649C20.2215 10.8649 20.4989 10.5353 20.4989 10.0322C20.4989 9.59849 20.2735 9.26889 19.7187 9.04335C18.9906 8.78314 18.193 8.73109 17.3782 8.73109C14.4482 8.73109 12.5584 10.4486 12.5584 13.2243Z" fill="white"/>
</svg>
