<svg width="32" height="32" viewBox="0 0 32 32" fill="none" xmlns="http://www.w3.org/2000/svg">
<path fill-rule="evenodd" clip-rule="evenodd" d="M17.2742 5.91802C17.2742 6.60655 16.6988 7.19672 16.0082 7.19672C15.3012 7.19672 14.7258 6.60655 14.7258 5.91802V3.26227C14.7258 2.57378 15.3012 2 16.0082 2C16.6988 2 17.2742 2.57378 17.2742 3.26227V5.91802ZM24.0482 9.78687C23.5385 10.2951 22.7164 10.2787 22.2231 9.78687C21.7463 9.29508 21.7463 8.49178 22.2231 8.00001L24.1303 6.09835C24.6236 5.60656 25.4456 5.60656 25.9389 6.09835C26.4158 6.59016 26.4158 7.42623 25.9389 7.91801L24.0482 9.78687ZM26.0869 17.2787C25.3964 17.2787 24.8044 16.6885 24.8044 16C24.8044 15.3115 25.3964 14.7213 26.0869 14.7213H28.7175C29.4244 14.7213 30 15.3115 30 16C30 16.6885 29.4244 17.2787 28.7175 17.2787H26.0869ZM22.2231 24.0164C21.7463 23.5246 21.7463 22.7213 22.2231 22.2295C22.7164 21.7377 23.5385 21.7377 24.0316 22.2295L25.9389 24.0983C26.4158 24.5901 26.4158 25.4097 25.9389 25.9016C25.4456 26.3934 24.6236 26.4098 24.1303 25.918L22.2231 24.0164ZM14.7258 26.082C14.7258 25.3934 15.3012 24.8033 16.0082 24.8033C16.6988 24.8033 17.2742 25.3934 17.2742 26.082V28.7377C17.2742 29.4262 16.6988 29.9999 16.0082 29.9999C15.3012 29.9999 14.7258 29.4262 14.7258 28.7377V26.082ZM7.95184 22.2295C8.44512 21.7377 9.28362 21.7377 9.77686 22.2295C10.2537 22.7213 10.2537 23.5246 9.76042 24.0164L7.86966 25.9016C7.37638 26.3934 6.55431 26.3771 6.06107 25.8852C5.58427 25.3934 5.58427 24.5737 6.07751 24.0819L7.95184 22.2295ZM5.91308 14.7213C6.62008 14.7213 7.19554 15.3115 7.19554 16C7.19554 16.6885 6.62008 17.2787 5.91308 17.2787H3.28243C2.57545 17.2787 2 16.6885 2 16C2 15.3115 2.57545 14.7213 3.28243 14.7213H5.91308ZM9.77686 8.00001C10.2537 8.47541 10.2537 9.31146 9.76042 9.78687C9.26719 10.2787 8.44512 10.2787 7.95184 9.78687L6.07751 7.90164C5.60071 7.42623 5.60071 6.59016 6.09395 6.09835C6.57077 5.60656 7.40927 5.62295 7.88607 6.09835L9.77686 8.00001ZM22.7006 16C22.7006 19.6722 19.659 22.6886 16.0089 22.6886C12.3425 22.6886 9.30078 19.6722 9.30078 16C9.30078 12.3279 12.3425 9.31152 16.0089 9.31152C19.659 9.31152 22.7006 12.3279 22.7006 16Z" fill="white"/>
</svg>
