<svg width="32" height="32" viewBox="0 0 32 32" fill="none" xmlns="http://www.w3.org/2000/svg">
<path d="M15.9979 30C16.6996 30 17.1031 29.5268 17.1031 28.8436V26.1803L19.2083 27.3542C19.7873 27.687 20.3837 27.6345 20.717 27.0563C20.9802 26.5656 20.8223 25.9699 20.2258 25.6196L17.1031 23.8673V22.3604L16.7698 17.3492L20.9802 20.1351L22.2784 20.8886L22.2433 24.463C22.2433 25.1464 22.6644 25.6196 23.2258 25.6196C23.91 25.6196 24.2433 25.1289 24.2433 24.463L24.2608 22.01L26.6117 23.3767C27.1906 23.7271 27.787 23.587 28.1205 23.0087C28.4537 22.413 28.2783 21.7997 27.6994 21.4668L25.3661 20.1351L27.4713 18.8911C28.0327 18.5582 28.2783 18.015 27.9624 17.4543C27.6642 16.9461 27.0327 16.8235 26.4538 17.1564L23.3837 18.9787L22.0679 18.2253L17.5417 16L22.0679 13.7747L23.3661 13.0212L26.4538 14.8435C27.0327 15.1765 27.6817 15.0538 27.9624 14.5632C28.2783 13.985 28.0327 13.4418 27.4713 13.1089L25.3661 11.8648L27.6994 10.5332C28.2959 10.1827 28.4712 9.60448 28.1205 8.99121C27.8045 8.43051 27.2081 8.29036 26.6117 8.6233L24.2608 9.95494L24.2433 7.51939C24.2433 6.87107 23.91 6.3805 23.2433 6.3805C22.6644 6.3805 22.2433 6.85355 22.2433 7.51939L22.2784 11.0939L20.9802 11.8648L16.7698 14.6508L17.1031 9.62204V8.13266L20.2258 6.3805C20.8223 6.03004 20.9802 5.43429 20.717 4.94367C20.3837 4.36546 19.7873 4.31289 19.2083 4.62827L17.1031 5.8198V3.15646C17.1031 2.4731 16.6996 2 15.9979 2C15.3488 2 14.9102 2.4731 14.9102 3.15646V5.8198L12.7699 4.62827C12.191 4.31289 11.6296 4.36546 11.2787 4.94367C10.998 5.43429 11.191 6.03004 11.77 6.36294L14.9102 8.13266V9.62204L15.226 14.6508L11.0331 11.8648L9.71738 11.0939L9.75245 7.51939C9.75245 6.85355 9.33143 6.3805 8.77005 6.3805C8.10339 6.3805 7.7525 6.87107 7.7525 7.51939L7.73498 9.95494L5.40172 8.6233C4.82278 8.30787 4.19121 8.43051 3.87544 8.99121C3.52457 9.60448 3.71755 10.2003 4.29648 10.5332L6.62972 11.8648L4.52454 13.1089C3.96315 13.4418 3.71755 13.9499 4.03332 14.5632C4.31402 15.0538 4.94557 15.1765 5.54206 14.8435L8.62968 13.0388L9.9279 13.7747L14.4541 16L9.9279 18.2253L8.62968 18.9787L5.54206 17.1564C4.96314 16.8235 4.33156 16.9461 4.06841 17.4368C3.73509 18.0501 3.96315 18.5582 4.52454 18.8911L6.62972 20.1351L4.29648 21.4668C3.71755 21.7997 3.54211 22.4305 3.87544 23.0087C4.20876 23.587 4.82278 23.6921 5.40172 23.3767L7.73498 22.045L7.7525 24.463C7.7525 25.1289 8.10339 25.6196 8.77005 25.6196C9.33143 25.6196 9.75245 25.1464 9.75245 24.463L9.73491 20.8886L11.0331 20.1527L15.226 17.3492L14.9102 22.3604V23.8673L11.77 25.6196C11.191 25.9699 10.998 26.5656 11.2787 27.0563C11.6296 27.6345 12.191 27.687 12.7699 27.3542L14.9102 26.1803V28.8436C14.9102 29.5268 15.3488 30 15.9979 30Z" fill="white"/>
</svg>
