<svg width="32" height="32" viewBox="0 0 32 32" fill="none" xmlns="http://www.w3.org/2000/svg">
<path fill-rule="evenodd" clip-rule="evenodd" d="M2.49047 6.45704C2 7.41965 2 8.67976 2 11.2V14V16V19.8C2 22.3202 2 23.5804 2.49047 24.543C2.9219 25.3897 3.61031 26.0781 4.45704 26.5095C5.41965 27 6.67976 27 9.2 27H21.8C24.3202 27 25.5804 27 26.543 26.5095C27.3897 26.0781 28.0781 25.3897 28.5095 24.543C29 23.5804 29 22.3202 29 19.8V16.2C29 13.6798 29 12.4196 28.5095 11.457C28.0781 10.6103 27.3897 9.9219 26.543 9.49047C26.1115 9.27061 25.6202 9.14931 24.9824 9.08238C24.9466 7.88063 24.8382 7.10204 24.5095 6.45704C24.0781 5.61031 23.3897 4.9219 22.543 4.49047C21.5804 4 20.3202 4 17.8 4H9.2C6.67976 4 5.41965 4 4.45704 4.49047C3.61031 4.9219 2.9219 5.61031 2.49047 6.45704ZM21.8 9H4.50048C4.50354 8.2386 4.52636 7.81612 4.69619 7.48282C4.86876 7.14413 5.14413 6.86876 5.48282 6.69619C5.86786 6.5 6.37191 6.5 7.38 6.5H19.62C20.6281 6.5 21.1321 6.5 21.5172 6.69619C21.8559 6.86876 22.1312 7.14413 22.3038 7.48282C22.4737 7.81619 22.4965 8.23876 22.4995 9.00045C22.2776 9 22.0448 9 21.8 9ZM24 16.5C23.1716 16.5 22.5 17.1716 22.5 18C22.5 18.8284 23.1716 19.5 24 19.5C24.8284 19.5 25.5 18.8284 25.5 18C25.5 17.1716 24.8284 16.5 24 16.5Z" fill="white"/>
</svg>
