<svg width="12" height="12" viewBox="0 0 12 12" fill="none" xmlns="http://www.w3.org/2000/svg">
<path fill-rule="evenodd" clip-rule="evenodd" d="M1.66349 5.81901C1.5 6.13988 1.5 6.55992 1.5 7.4V8.6C1.5 9.44008 1.5 9.86012 1.66349 10.181C1.8073 10.4632 2.03677 10.6927 2.31901 10.8365C2.63988 11 3.05992 11 3.9 11H8.1C8.94008 11 9.36012 11 9.68099 10.8365C9.96323 10.6927 10.1927 10.4632 10.3365 10.181C10.5 9.86012 10.5 9.44008 10.5 8.6V7.4C10.5 6.55992 10.5 6.13988 10.3365 5.81901C10.1927 5.53677 9.96323 5.3073 9.68099 5.16349C9.45615 5.04893 9.18262 5.01464 8.75 5.00438V3.25C8.75 1.73122 7.51878 0.5 6 0.5C4.48122 0.5 3.25 1.73122 3.25 3.25V5.00438C2.81738 5.01464 2.54385 5.04893 2.31901 5.16349C2.03677 5.3073 1.8073 5.53677 1.66349 5.81901ZM4.5 5V3.25C4.5 2.42157 5.17157 1.75 6 1.75C6.82843 1.75 7.5 2.42157 7.5 3.25V5H4.5Z" fill="white"/>
</svg>
