<svg width="12" height="12" viewBox="0 0 12 12" fill="none" xmlns="http://www.w3.org/2000/svg">
    <path d="M7.44457 2.43413C8.15168 1.72702 7.62134 1.19669 7.9749 0.843135C8.24006 0.57797 8.88765 0.695223 10.0962 1.9038C11.3048 3.11237 11.422 3.75995 11.1569 4.02512C10.8033 4.37867 10.273 3.84834 9.56589 4.55545L8.50523 5.61611C7.26779 6.85354 9.03556 8.62131 7.9749 9.68197C7.44457 10.2123 6.20713 9.32842 4.7946 7.91588L3.38028 9.33002C2.4965 10.214 1.25895 11.4513 0.905411 11.0978C0.551868 10.7442 1.7893 9.50678 2.6732 8.62289L4.08749 7.20878C2.6716 5.79288 1.78771 4.55545 2.31805 4.02512C3.37871 2.96446 5.14647 4.73222 6.38391 3.49479L7.44457 2.43413Z" fill="white"/>
</svg>
