<svg width="12" height="12" viewBox="0 0 12 12" fill="none" xmlns="http://www.w3.org/2000/svg">
<path d="M4.60231 3.36036C5.20052 1.9221 5.49962 1.20297 5.99997 1.20297C6.50031 1.20297 6.79941 1.9221 7.39762 3.36036C7.49011 3.58275 7.53636 3.69394 7.62737 3.76007C7.71838 3.82619 7.83843 3.83582 8.07852 3.85506C9.63124 3.97954 10.4076 4.04178 10.5622 4.51764C10.7168 4.99349 10.1253 5.50018 8.94231 6.51355C8.75939 6.67025 8.66793 6.74859 8.63317 6.85558C8.5984 6.96257 8.62635 7.07972 8.68223 7.314C9.04366 8.82919 9.22437 9.58679 8.81959 9.88088C8.4148 10.175 7.75013 9.769 6.42078 8.95704C6.21524 8.83149 6.11246 8.76872 5.99997 8.76872C5.88747 8.76872 5.78469 8.83149 5.57915 8.95704C4.2498 9.769 3.58513 10.175 3.18034 9.88088C2.77556 9.58679 2.95627 8.82919 3.3177 7.314C3.37358 7.07972 3.40153 6.96257 3.36676 6.85558C3.332 6.74859 3.24054 6.67025 3.05762 6.51355C1.87461 5.50018 1.2831 4.99349 1.43772 4.51764C1.59233 4.04178 2.36869 3.97954 3.92141 3.85506C4.1615 3.83582 4.28154 3.82619 4.37256 3.76007C4.46357 3.69394 4.50982 3.58275 4.60231 3.36036Z" fill="white"/>
</svg>
